<svg width="150" height="60" viewBox="0 0 150 60" fill="none" xmlns="http://www.w3.org/2000/svg">
<path d="M67.9994 23.7896L56.4567 40.4691H66.3462C67.5819 40.4691 68.5856 41.4512 68.5856 42.6603C68.5856 43.8693 67.5819 44.8515 66.3462 44.8515H54.0571C52.1635 44.8515 50.6284 43.3494 50.6284 41.4966C50.6284 40.8281 50.8351 40.172 51.2188 39.6149L62.7615 22.9354H52.872C51.6363 22.9354 50.6326 21.9533 50.6326 20.7442C50.6326 19.5351 51.6363 18.553 52.872 18.553H65.1611C67.0547 18.553 68.5898 20.055 68.5898 21.9079C68.5898 22.5764 68.3831 23.2325 67.9994 23.7896Z" fill="#4153D6"/>
<path d="M71.3269 32.5957C71.3269 31.3867 72.3306 30.4045 73.5663 30.4045H78.2854C79.5211 30.4045 80.5248 31.3867 80.5248 32.5957C80.5248 33.8048 79.5211 34.7869 78.2854 34.7869H73.5663C72.3306 34.7869 71.3269 33.8089 71.3269 32.5957Z" fill="#4153D6"/>
<path d="M104.538 26.7814V36.4664C104.538 41.3068 100.08 45.2312 94.5851 45.2312C89.0858 45.2312 84.6323 41.3068 84.6323 36.4664V26.7814C84.6323 21.9409 89.09 18.0166 94.5851 18.0166C100.08 18.0207 104.538 21.9409 104.538 26.7814ZM99.5615 26.7814C99.5615 24.3632 97.3348 22.399 94.5851 22.399C91.8354 22.399 89.6087 24.3591 89.6087 26.7814V36.4664C89.6087 38.8887 91.8354 40.8488 94.5851 40.8488C97.3348 40.8488 99.5615 38.8887 99.5615 36.4664V26.7814Z" fill="#4153D6"/>
<path d="M114.507 20.7402L122.866 35.4101V20.9837C122.866 19.6384 123.979 18.549 125.354 18.549C126.729 18.549 127.842 19.6384 127.842 20.9837V41.7526C127.842 43.461 126.425 44.8434 124.684 44.8434C123.558 44.8434 122.52 44.2574 121.955 43.3083L112.808 27.9534L112.783 42.4128C112.778 43.754 111.665 44.8434 110.294 44.8434H110.29C108.915 44.8434 107.802 43.754 107.802 42.4087V21.0002C107.802 19.6632 108.915 18.7058 110.273 18.5655C113.55 18.2271 114.507 20.7402 114.507 20.7402Z" fill="#4153D6"/>
<path d="M133.333 22.9312H147.761C148.731 22.9312 149.591 22.3205 149.89 21.4127C150.359 19.9972 149.279 18.5488 147.761 18.5488H133.333C132.098 18.5488 131.094 19.5309 131.094 20.74C131.094 21.9491 132.098 22.9312 133.333 22.9312Z" fill="#4153D6"/>
<path d="M133.333 44.8433H141.068C142.038 44.8433 142.898 44.2326 143.198 43.3248C143.666 41.9094 142.586 40.4609 141.068 40.4609H133.333C132.098 40.4609 131.094 41.4431 131.094 42.6521C131.094 43.8653 132.098 44.8433 133.333 44.8433Z" fill="#4153D6"/>
<path d="M133.333 33.8914H144.492C145.462 33.8914 146.323 33.2807 146.622 32.3729C147.09 30.9574 146.01 29.509 144.492 29.509H133.333C132.098 29.509 131.094 30.4912 131.094 31.7002C131.094 32.9093 132.098 33.8914 133.333 33.8914Z" fill="#4153D6"/>
<path d="M60.7288 57.4664L63.3097 53.6452H61.0113V53.051H64.2291V53.4348L61.6397 57.2642H64.3092V57.8626H60.7288V57.4664Z" fill="#4153D6"/>
<path d="M64.6677 55.4609C64.6677 53.8928 65.701 52.9231 66.7974 52.9231C67.9909 52.9231 68.6784 53.7855 68.6784 55.1762C68.6784 55.3371 68.6699 55.4981 68.6446 55.6136H65.3847C65.4268 56.6824 66.0636 57.3921 67.021 57.3921C67.4891 57.3921 67.8771 57.2395 68.2313 57.0001L68.497 57.4788C68.0837 57.747 67.5945 57.9699 66.9324 57.9699C65.6757 57.974 64.6677 57.0373 64.6677 55.4609ZM68.0458 55.0854C68.0458 54.0538 67.5861 53.5091 66.8101 53.5091C66.1016 53.5091 65.4774 54.0868 65.3804 55.0854H68.0458Z" fill="#4153D6"/>
<path d="M69.6273 53.0469H70.2092L70.2809 53.93H70.3062C70.6352 53.3234 71.1202 52.9231 71.66 52.9231C71.8624 52.9231 72.0058 52.952 72.1618 53.0304L72.0185 53.6617C71.8582 53.6081 71.7528 53.5833 71.5672 53.5833C71.1624 53.5833 70.6647 53.8846 70.34 54.7223V57.8584H69.623V53.0469H69.6273Z" fill="#4153D6"/>
<path d="M72.2419 55.4609C72.2419 53.8474 73.2667 52.9231 74.4349 52.9231C75.6031 52.9231 76.6363 53.8474 76.6363 55.4609C76.6363 57.0455 75.6031 57.9699 74.4349 57.9699C73.2667 57.9699 72.2419 57.0455 72.2419 55.4609ZM75.8899 55.4609C75.8899 54.3137 75.291 53.538 74.4307 53.538C73.5746 53.538 72.98 54.3137 72.98 55.4609C72.98 56.5998 73.5704 57.3674 74.4307 57.3674C75.291 57.3674 75.8899 56.5998 75.8899 55.4609Z" fill="#4153D6"/>
<path d="M79.5042 56.4058V53.6452H78.7788V53.0922L79.5295 53.0468L79.6096 51.6851H80.2211V53.0468H81.5369V53.6452H80.2211V56.4306C80.2211 57.0166 80.3982 57.3756 80.9718 57.3756C81.1489 57.3756 81.3682 57.3137 81.5285 57.2518L81.6719 57.7965C81.4062 57.8873 81.0899 57.9739 80.8242 57.9739C79.8247 57.9739 79.5042 57.3508 79.5042 56.4058Z" fill="#4153D6"/>
<path d="M81.8657 55.4609C81.8657 53.8474 82.8905 52.9231 84.0587 52.9231C85.2269 52.9231 86.2601 53.8474 86.2601 55.4609C86.2601 57.0455 85.2269 57.9699 84.0587 57.9699C82.8905 57.974 81.8657 57.0455 81.8657 55.4609ZM85.5137 55.4609C85.5137 54.3137 84.9148 53.538 84.0545 53.538C83.1942 53.538 82.6037 54.3137 82.6037 55.4609C82.6037 56.5998 83.1942 57.3674 84.0545 57.3674C84.9148 57.3674 85.5137 56.5998 85.5137 55.4609Z" fill="#4153D6"/>
<path d="M88.626 55.4609C88.626 53.8474 89.6508 52.9231 90.819 52.9231C91.9871 52.9231 93.0204 53.8474 93.0204 55.4609C93.0204 57.0455 91.9871 57.9699 90.819 57.9699C89.6508 57.974 88.626 57.0455 88.626 55.4609ZM92.2739 55.4609C92.2739 54.3137 91.6751 53.538 90.8147 53.538C89.9544 53.538 89.364 54.3137 89.364 55.4609C89.364 56.5998 89.9544 57.3674 90.8147 57.3674C91.6751 57.3674 92.2739 56.5998 92.2739 55.4609Z" fill="#4153D6"/>
<path d="M94.0494 53.0469H94.6314L94.7031 53.7484H94.7284C95.188 53.2945 95.6815 52.9189 96.3351 52.9189C97.3346 52.9189 97.7943 53.5709 97.7943 54.7965V57.8502H97.069V54.8832C97.069 53.9588 96.7864 53.5462 96.1243 53.5462C95.6224 53.5462 95.2597 53.8144 94.7621 54.3302V57.846H94.0452V53.0469H94.0494Z" fill="#4153D6"/>
<path d="M98.7603 55.4609C98.7603 53.8928 99.7935 52.9231 100.89 52.9231C102.083 52.9231 102.771 53.7855 102.771 55.1762C102.771 55.3371 102.762 55.4981 102.737 55.6136H99.4772C99.5194 56.6824 100.156 57.3921 101.113 57.3921C101.582 57.3921 101.97 57.2395 102.324 57.0001L102.59 57.4788C102.176 57.747 101.687 57.9699 101.025 57.9699C99.7682 57.974 98.7603 57.0373 98.7603 55.4609ZM102.138 55.0854C102.138 54.0538 101.679 53.5091 100.903 53.5091C100.194 53.5091 99.57 54.0868 99.473 55.0854H102.138Z" fill="#4153D6"/>
<path d="M105.423 50.769H106.14V52.7374L106.115 53.7443C106.575 53.2986 107.06 52.9231 107.713 52.9231C108.713 52.9231 109.172 53.5751 109.172 54.8007V57.8543H108.447V54.8873C108.447 53.963 108.165 53.5503 107.502 53.5503C107.001 53.5503 106.638 53.8186 106.14 54.3344V57.8502H105.423V50.769Z" fill="#4153D6"/>
<path d="M110.408 56.1047V53.051H111.125V56.018C111.125 56.9424 111.399 57.3426 112.07 57.3426C112.572 57.3426 112.934 57.0827 113.411 56.4967V53.051H114.128V57.8585H113.537L113.474 57.0909H113.449C112.998 57.615 112.521 57.974 111.859 57.974C110.859 57.974 110.408 57.3303 110.408 56.1047Z" fill="#4153D6"/>
<path d="M115.532 53.0469H116.114L116.186 53.7484H116.211C116.671 53.2945 117.164 52.9189 117.818 52.9189C118.818 52.9189 119.277 53.5709 119.277 54.7965V57.8502H118.552V54.8832C118.552 53.9588 118.269 53.5462 117.607 53.5462C117.105 53.5462 116.743 53.8144 116.245 54.3302V57.846H115.528V53.0469H115.532Z" fill="#4153D6"/>
<path d="M120.251 55.4609C120.251 53.9011 121.234 52.9231 122.326 52.9231C122.891 52.9231 123.263 53.1377 123.697 53.4926L123.663 52.6549V50.769H124.38V57.8585H123.79L123.718 57.2807H123.701C123.322 57.6645 122.807 57.974 122.225 57.974C121.019 57.974 120.251 57.0662 120.251 55.4609ZM123.663 56.6741V54.0744C123.229 53.6906 122.858 53.5421 122.444 53.5421C121.631 53.5421 121.002 54.3344 121.002 55.4568C121.002 56.6411 121.496 57.3633 122.373 57.3633C122.832 57.3591 123.237 57.1281 123.663 56.6741Z" fill="#4153D6"/>
<path d="M125.784 53.0469H126.366L126.438 53.93H126.463C126.792 53.3234 127.277 52.9231 127.817 52.9231C128.02 52.9231 128.163 52.952 128.319 53.0304L128.176 53.6617C128.015 53.6081 127.91 53.5833 127.724 53.5833C127.32 53.5833 126.822 53.8846 126.497 54.7223V57.8584H125.78V53.0469H125.784Z" fill="#4153D6"/>
<path d="M128.399 55.4609C128.399 53.8928 129.432 52.9231 130.529 52.9231C131.722 52.9231 132.41 53.7855 132.41 55.1762C132.41 55.3371 132.401 55.4981 132.376 55.6136H129.116C129.158 56.6824 129.795 57.3921 130.752 57.3921C131.221 57.3921 131.609 57.2395 131.963 57.0001L132.228 57.4788C131.815 57.747 131.326 57.9699 130.664 57.9699C129.407 57.974 128.399 57.0373 128.399 55.4609ZM131.773 55.0854C131.773 54.0538 131.313 53.5091 130.537 53.5091C129.829 53.5091 129.205 54.0868 129.108 55.0854H131.773Z" fill="#4153D6"/>
<path d="M132.996 55.4609C132.996 53.9011 133.978 52.9231 135.071 52.9231C135.636 52.9231 136.007 53.1377 136.441 53.4926L136.408 52.6549V50.769H137.125V57.8585H136.534L136.462 57.2807H136.446C136.066 57.6645 135.552 57.974 134.97 57.974C133.763 57.974 132.996 57.0662 132.996 55.4609ZM136.408 56.6741V54.0744C135.973 53.6906 135.602 53.5421 135.189 53.5421C134.375 53.5421 133.747 54.3344 133.747 55.4568C133.747 56.6411 134.24 57.3633 135.117 57.3633C135.577 57.3591 135.982 57.1281 136.408 56.6741Z" fill="#4153D6"/>
<path d="M25.1982 27.3136C25.7338 27.2187 25.8814 25.6176 28.8462 26.6493C32.996 28.0977 34.278 32.0344 35.1805 33.9739C34.4214 35.6617 31.2121 37.2132 28.6522 38.022L1.15135 48.033L1.07544 35.967L25.1982 27.3136Z" fill="url(#paint0_linear_135_2587)"/>
<path d="M25.4132 15.359C30.571 17.0591 35.1847 18.6643 35.1847 22.1925V33.9573C33.6243 30.6685 19.4331 26.9835 19.4331 26.9835L4.73594 21.978C1.93567 21.1279 0.0210299 18.6024 -5.64671e-05 15.7345C-0.0337947 11.2118 4.48712 8.00135 8.86887 9.43739L25.4132 15.359Z" fill="url(#paint1_linear_135_2587)"/>
<path d="M10.8425 54.6314C5.68474 52.923 1.07104 51.3137 1.07104 47.7731V35.967C2.63144 39.2642 16.8226 42.9657 16.8226 42.9657L31.2414 47.0757C34.0459 47.9299 35.9606 50.4636 35.9859 53.3357C36.0196 57.8749 31.4776 61.0977 27.079 59.6534L10.8425 54.6314Z" fill="url(#paint2_linear_135_2587)"/>
<path d="M29.584 12.5365C33.122 12.5365 35.9901 9.73007 35.9901 6.26823C35.9901 2.80638 33.122 0 29.584 0C26.0461 0 23.178 2.80638 23.178 6.26823C23.178 9.73007 26.0461 12.5365 29.584 12.5365Z" fill="url(#paint3_linear_135_2587)"/>
<defs>
<linearGradient id="paint0_linear_135_2587" x1="28.4019" y1="18.1351" x2="5.56909" y2="57.2551" gradientUnits="userSpaceOnUse">
<stop stop-color="#6C76F9"/>
<stop offset="1" stop-color="#0F166D"/>
</linearGradient>
<linearGradient id="paint1_linear_135_2587" x1="34.2972" y1="24.99" x2="-16.035" y2="10.8635" gradientUnits="userSpaceOnUse">
<stop stop-color="#6B77F8"/>
<stop offset="1" stop-color="#404CF9"/>
</linearGradient>
<linearGradient id="paint2_linear_135_2587" x1="1.88161" y1="44.0235" x2="54.6523" y2="61.2753" gradientUnits="userSpaceOnUse">
<stop stop-color="#6B77F8"/>
<stop offset="1" stop-color="#404CF9"/>
</linearGradient>
<linearGradient id="paint3_linear_135_2587" x1="22.8023" y1="4.37934" x2="41.2286" y2="9.73655" gradientUnits="userSpaceOnUse">
<stop stop-color="#6B77F8"/>
<stop offset="1" stop-color="#404CF9"/>
</linearGradient>
</defs>
</svg>
