<svg width="16" height="16" viewBox="0 0 16 16" fill="none" xmlns="http://www.w3.org/2000/svg">
<path d="M11.2614 14.5H7.70704C7.3866 14.5 7.07841 14.3769 6.8461 14.1562L1.22164 8.81301C0.715181 8.33187 0.701336 7.52905 1.19091 7.03073L3.58061 4.59836C3.95665 4.2156 4.49345 3.94222 4.98838 4.14947C5.47594 4.35364 5.7342 4.73658 5.82636 5.10526C6.24083 6.76316 7.48426 7.02429 8.72389 7.02429L10.6619 11.0461L12.5286 11.8461C12.8629 11.9893 13.0797 12.318 13.0797 12.6817C13.0797 13.6859 12.2656 14.5 11.2614 14.5Z" stroke="currentColor" stroke-linecap="round" stroke-linejoin="round"/>
<path d="M2.37241 5.86511C2.94807 6.5559 3.82307 8.35195 2.71781 10.0098" stroke="currentColor" stroke-linecap="round" stroke-linejoin="round"/>
<path d="M7.48426 8.97371L9.14216 8.42108M8.6586 10.4244L9.69479 10.079" stroke="currentColor" stroke-linecap="round" stroke-linejoin="round"/>
<path d="M9.88367 5H7.38867V4.475L8.28367 3.57C8.46367 3.38333 8.60867 3.22833 8.71867 3.105C8.82867 2.97833 8.90867 2.865 8.95867 2.765C9.00867 2.66167 9.03367 2.55167 9.03367 2.435C9.03367 2.29167 8.99367 2.185 8.91367 2.115C8.83701 2.045 8.73201 2.01 8.59867 2.01C8.46201 2.01 8.32867 2.04167 8.19867 2.105C8.06867 2.16833 7.93201 2.25833 7.78867 2.375L7.37867 1.89C7.47867 1.80333 7.58701 1.72167 7.70367 1.645C7.82034 1.565 7.95367 1.50167 8.10367 1.455C8.25701 1.405 8.44034 1.38 8.65367 1.38C8.88701 1.38 9.08701 1.42333 9.25367 1.51C9.42367 1.59333 9.55367 1.70833 9.64367 1.855C9.73701 1.99833 9.78367 2.16167 9.78367 2.345C9.78367 2.54167 9.74367 2.72167 9.66367 2.885C9.58701 3.04833 9.47367 3.21 9.32367 3.37C9.17701 3.53 8.99867 3.70667 8.78867 3.9L8.32867 4.33V4.365H9.88367V5ZM11.45 2.72C11.6667 2.72 11.86 2.76167 12.03 2.845C12.2 2.92833 12.3333 3.05 12.43 3.21C12.53 3.37 12.58 3.56833 12.58 3.805C12.58 4.19167 12.46 4.49667 12.22 4.72C11.98 4.94 11.625 5.05 11.155 5.05C10.9683 5.05 10.7917 5.03333 10.625 5C10.4617 4.96667 10.3183 4.91833 10.195 4.855V4.205C10.3183 4.26833 10.4667 4.32333 10.64 4.37C10.8133 4.41333 10.9767 4.435 11.13 4.435C11.3533 4.435 11.5233 4.39 11.64 4.3C11.76 4.20667 11.82 4.06333 11.82 3.87C11.82 3.51 11.5817 3.33 11.105 3.33C11.0117 3.33 10.915 3.34 10.815 3.36C10.715 3.37667 10.6317 3.39333 10.565 3.41L10.265 3.25L10.4 1.43H12.335V2.07H11.06L10.995 2.77C11.0517 2.76 11.1117 2.75 11.175 2.74C11.2417 2.72667 11.3333 2.72 11.45 2.72Z" fill="currentColor"/>
<path d="M15.187 3.323C15.375 3.323 15.517 3.371 15.613 3.467C15.711 3.561 15.76 3.714 15.76 3.926V5H15.256V4.067C15.256 3.947 15.237 3.86 15.199 3.806C15.161 3.75 15.105 3.722 15.031 3.722C14.925 3.722 14.85 3.763 14.806 3.845C14.762 3.927 14.74 4.045 14.74 4.199V5H14.236V4.067C14.236 3.949 14.218 3.862 14.182 3.806C14.146 3.75 14.09 3.722 14.014 3.722C13.902 3.722 13.825 3.768 13.783 3.86C13.743 3.95 13.723 4.08 13.723 4.25V5H13.216V3.353H13.6L13.672 3.56H13.693C13.739 3.484 13.804 3.426 13.888 3.386C13.974 3.344 14.071 3.323 14.179 3.323C14.415 3.323 14.58 3.401 14.674 3.557H14.704C14.756 3.479 14.825 3.421 14.911 3.383C14.997 3.343 15.089 3.323 15.187 3.323Z" fill="currentColor"/>
</svg>
