<svg width="16" height="16" viewBox="0 0 16 16" fill="none" xmlns="http://www.w3.org/2000/svg">
<path d="M11.2614 14.5H7.70704C7.3866 14.5 7.07841 14.3769 6.8461 14.1562L1.22164 8.81301C0.715181 8.33187 0.701336 7.52905 1.19091 7.03073L3.58061 4.59836C3.95665 4.2156 4.49345 3.94222 4.98838 4.14947C5.47594 4.35364 5.7342 4.73658 5.82636 5.10526C6.24083 6.76316 7.48426 7.02429 8.72389 7.02429L10.6619 11.0461L12.5286 11.8461C12.8629 11.9893 13.0797 12.318 13.0797 12.6817C13.0797 13.6859 12.2656 14.5 11.2614 14.5Z" stroke="currentColor" stroke-linecap="round" stroke-linejoin="round"/>
<path d="M2.37241 5.86511C2.94807 6.5559 3.82307 8.35195 2.71781 10.0098" stroke="currentColor" stroke-linecap="round" stroke-linejoin="round"/>
<path d="M7.48426 8.97371L9.14216 8.42108M8.6586 10.4244L9.69479 10.079" stroke="currentColor" stroke-linecap="round" stroke-linejoin="round"/>
<path d="M8.68867 2.72C8.90534 2.72 9.09867 2.76167 9.26867 2.845C9.43867 2.92833 9.57201 3.05 9.66867 3.21C9.76867 3.37 9.81867 3.56833 9.81867 3.805C9.81867 4.19167 9.69867 4.49667 9.45867 4.72C9.21867 4.94 8.86367 5.05 8.39367 5.05C8.20701 5.05 8.03034 5.03333 7.86367 5C7.70034 4.96667 7.55701 4.91833 7.43367 4.855V4.205C7.55701 4.26833 7.70534 4.32333 7.87867 4.37C8.05201 4.41333 8.21534 4.435 8.36867 4.435C8.59201 4.435 8.76201 4.39 8.87867 4.3C8.99867 4.20667 9.05867 4.06333 9.05867 3.87C9.05867 3.51 8.82034 3.33 8.34367 3.33C8.25034 3.33 8.15367 3.34 8.05367 3.36C7.95367 3.37667 7.87034 3.39333 7.80367 3.41L7.50367 3.25L7.63867 1.43H9.57367V2.07H8.29867L8.23367 2.77C8.29034 2.76 8.35034 2.75 8.41367 2.74C8.48034 2.72667 8.57201 2.72 8.68867 2.72ZM12.625 3.215C12.625 3.59833 12.5833 3.92667 12.5 4.2C12.42 4.47333 12.2883 4.68333 12.105 4.83C11.9217 4.97667 11.6783 5.05 11.375 5.05C10.945 5.05 10.63 4.88833 10.43 4.565C10.23 4.24167 10.13 3.79167 10.13 3.215C10.13 2.83167 10.17 2.50333 10.25 2.23C10.33 1.95333 10.4617 1.74167 10.645 1.595C10.8283 1.44833 11.0717 1.375 11.375 1.375C11.8017 1.375 12.1167 1.53667 12.32 1.86C12.5233 2.18333 12.625 2.635 12.625 3.215ZM10.88 3.215C10.88 3.62167 10.915 3.92833 10.985 4.135C11.055 4.33833 11.185 4.44 11.375 4.44C11.5617 4.44 11.6917 4.33833 11.765 4.135C11.8383 3.93167 11.875 3.625 11.875 3.215C11.875 2.80833 11.8383 2.50167 11.765 2.295C11.6917 2.08833 11.5617 1.985 11.375 1.985C11.185 1.985 11.055 2.08833 10.985 2.295C10.915 2.50167 10.88 2.80833 10.88 3.215Z" fill="currentColor"/>
<path d="M15.187 3.323C15.375 3.323 15.517 3.371 15.613 3.467C15.711 3.561 15.76 3.714 15.76 3.926V5H15.256V4.067C15.256 3.947 15.237 3.86 15.199 3.806C15.161 3.75 15.105 3.722 15.031 3.722C14.925 3.722 14.85 3.763 14.806 3.845C14.762 3.927 14.74 4.045 14.74 4.199V5H14.236V4.067C14.236 3.949 14.218 3.862 14.182 3.806C14.146 3.75 14.09 3.722 14.014 3.722C13.902 3.722 13.825 3.768 13.783 3.86C13.743 3.95 13.723 4.08 13.723 4.25V5H13.216V3.353H13.6L13.672 3.56H13.693C13.739 3.484 13.804 3.426 13.888 3.386C13.974 3.344 14.071 3.323 14.179 3.323C14.415 3.323 14.58 3.401 14.674 3.557H14.704C14.756 3.479 14.825 3.421 14.911 3.383C14.997 3.343 15.089 3.323 15.187 3.323Z" fill="currentColor"/>
</svg>
