<svg width="16" height="16" viewBox="0 0 16 16" fill="none" xmlns="http://www.w3.org/2000/svg">
<path d="M11.0613 14.5H7.50698C7.18655 14.5 6.87836 14.3769 6.64605 14.1562L1.02159 8.81301C0.51513 8.33187 0.501286 7.52905 0.990855 7.03073L3.38056 4.59836C3.7566 4.2156 4.2934 3.94222 4.78833 4.14947C5.27589 4.35364 5.53415 4.73658 5.62631 5.10526C6.04078 6.76316 7.28421 7.02429 8.52384 7.02429L10.4618 11.0461L12.3286 11.8461C12.6629 11.9893 12.8796 12.318 12.8796 12.6817C12.8796 13.6859 12.0655 14.5 11.0613 14.5Z" stroke="currentColor" stroke-linecap="round" stroke-linejoin="round"/>
<path d="M2.17236 5.86511C2.74802 6.5559 3.62302 8.35195 2.51776 10.0098" stroke="currentColor" stroke-linecap="round" stroke-linejoin="round"/>
<path d="M7.28421 8.97371L8.94211 8.42108M8.45855 10.4244L9.49474 10.079" stroke="currentColor" stroke-linecap="round" stroke-linejoin="round"/>
<path d="M6.25502 1.385C6.46168 1.385 6.65002 1.41667 6.82002 1.48C6.99335 1.54333 7.13168 1.64 7.23502 1.77C7.34168 1.89667 7.39502 2.055 7.39502 2.245C7.39502 2.46167 7.33335 2.63833 7.21002 2.775C7.09002 2.91167 6.93835 3.025 6.75502 3.115C6.88168 3.18167 7.00168 3.26 7.11502 3.35C7.23168 3.43667 7.32502 3.54 7.39502 3.66C7.46835 3.78 7.50502 3.91833 7.50502 4.075C7.50502 4.27167 7.45168 4.44333 7.34502 4.59C7.24168 4.73667 7.09502 4.85 6.90502 4.93C6.71835 5.01 6.50168 5.05 6.25502 5.05C5.85502 5.05 5.54502 4.965 5.32502 4.795C5.10835 4.625 5.00002 4.39167 5.00002 4.095C5.00002 3.85167 5.06668 3.655 5.20002 3.505C5.33335 3.35167 5.49502 3.22833 5.68502 3.135C5.52502 3.035 5.38835 2.915 5.27502 2.775C5.16502 2.63167 5.11002 2.45333 5.11002 2.24C5.11002 2.05333 5.16335 1.89667 5.27002 1.77C5.37668 1.64 5.51668 1.54333 5.69002 1.48C5.86668 1.41667 6.05502 1.385 6.25502 1.385ZM6.25002 1.935C6.12668 1.935 6.02335 1.96833 5.94002 2.035C5.86002 2.09833 5.82002 2.18667 5.82002 2.3C5.82002 2.42333 5.86335 2.52333 5.95002 2.6C6.03668 2.67667 6.13835 2.74333 6.25502 2.8C6.36835 2.74667 6.46835 2.68333 6.55502 2.61C6.64168 2.53333 6.68502 2.43 6.68502 2.3C6.68502 2.18667 6.64335 2.09833 6.56002 2.035C6.47668 1.96833 6.37335 1.935 6.25002 1.935ZM5.70002 4.05C5.70002 4.18 5.74502 4.28667 5.83502 4.37C5.92835 4.45333 6.06502 4.495 6.24502 4.495C6.43168 4.495 6.57168 4.455 6.66502 4.375C6.75835 4.295 6.80502 4.18833 6.80502 4.055C6.80502 3.965 6.77835 3.88667 6.72502 3.82C6.67168 3.75 6.60502 3.68833 6.52502 3.635C6.44502 3.57833 6.36502 3.52667 6.28502 3.48L6.22002 3.445C6.06335 3.51833 5.93668 3.60333 5.84002 3.7C5.74668 3.79667 5.70002 3.91333 5.70002 4.05Z" fill="currentColor"/>
<path d="M10.2363 3.215C10.2363 3.59833 10.1947 3.92667 10.1113 4.2C10.0313 4.47333 9.89968 4.68333 9.71634 4.83C9.53301 4.97667 9.28968 5.05 8.98634 5.05C8.55634 5.05 8.24134 4.88833 8.04134 4.565C7.84134 4.24167 7.74134 3.79167 7.74134 3.215C7.74134 2.83167 7.78134 2.50333 7.86134 2.23C7.94134 1.95333 8.07301 1.74167 8.25634 1.595C8.43968 1.44833 8.68301 1.375 8.98634 1.375C9.41301 1.375 9.72801 1.53667 9.93134 1.86C10.1347 2.18333 10.2363 2.635 10.2363 3.215ZM8.49134 3.215C8.49134 3.62167 8.52634 3.92833 8.59634 4.135C8.66634 4.33833 8.79634 4.44 8.98634 4.44C9.17301 4.44 9.30301 4.33833 9.37634 4.135C9.44968 3.93167 9.48634 3.625 9.48634 3.215C9.48634 2.80833 9.44968 2.50167 9.37634 2.295C9.30301 2.08833 9.17301 1.985 8.98634 1.985C8.79634 1.985 8.66634 2.08833 8.59634 2.295C8.52634 2.50167 8.49134 2.80833 8.49134 3.215Z" fill="currentColor"/>
<path d="M12.9727 3.215C12.9727 3.59833 12.931 3.92667 12.8477 4.2C12.7677 4.47333 12.636 4.68333 12.4527 4.83C12.2693 4.97667 12.026 5.05 11.7227 5.05C11.2927 5.05 10.9777 4.88833 10.7777 4.565C10.5777 4.24167 10.4777 3.79167 10.4777 3.215C10.4777 2.83167 10.5177 2.50333 10.5977 2.23C10.6777 1.95333 10.8093 1.74167 10.9927 1.595C11.176 1.44833 11.4193 1.375 11.7227 1.375C12.1493 1.375 12.4643 1.53667 12.6677 1.86C12.871 2.18333 12.9727 2.635 12.9727 3.215ZM11.2277 3.215C11.2277 3.62167 11.2627 3.92833 11.3327 4.135C11.4027 4.33833 11.5327 4.44 11.7227 4.44C11.9093 4.44 12.0393 4.33833 12.1127 4.135C12.186 3.93167 12.2227 3.625 12.2227 3.215C12.2227 2.80833 12.186 2.50167 12.1127 2.295C12.0393 2.08833 11.9093 1.985 11.7227 1.985C11.5327 1.985 11.4027 2.08833 11.3327 2.295C11.2627 2.50167 11.2277 2.80833 11.2277 3.215Z" fill="currentColor"/>
<path d="M15.187 3.323C15.375 3.323 15.517 3.371 15.613 3.467C15.711 3.561 15.76 3.714 15.76 3.926V5H15.256V4.067C15.256 3.947 15.237 3.86 15.199 3.806C15.161 3.75 15.105 3.722 15.031 3.722C14.925 3.722 14.85 3.763 14.806 3.845C14.762 3.927 14.74 4.045 14.74 4.199V5H14.236V4.067C14.236 3.949 14.218 3.862 14.182 3.806C14.146 3.75 14.09 3.722 14.014 3.722C13.902 3.722 13.825 3.768 13.783 3.86C13.743 3.95 13.723 4.08 13.723 4.25V5H13.216V3.353H13.6L13.672 3.56H13.693C13.739 3.484 13.804 3.426 13.888 3.386C13.974 3.344 14.071 3.323 14.179 3.323C14.415 3.323 14.58 3.401 14.674 3.557H14.704C14.756 3.479 14.825 3.421 14.911 3.383C14.997 3.343 15.089 3.323 15.187 3.323Z" fill="currentColor"/>
</svg>
