<svg width="16" height="16" viewBox="0 0 16 16" fill="none" xmlns="http://www.w3.org/2000/svg">
<g clip-path="url(#clip0_950_692)">
<circle cx="9.5" cy="5.5" r="4.5" stroke="currentColor"/>
<path d="M5 5.5H14" stroke="currentColor" stroke-linecap="round" stroke-linejoin="round"/>
<path d="M9.5 10L9.5 1" stroke="currentColor" stroke-linecap="round" stroke-linejoin="round"/>
<path d="M6.5 2.125C6.5 2.125 7.625 3.25 7.625 5.5C7.625 7.75 6.5 8.875 6.5 8.875" stroke="currentColor" stroke-linejoin="round"/>
<path d="M12.875 2.125C12.875 2.125 11.75 3.25 11.75 5.5C11.75 7.75 12.875 8.875 12.875 8.875" stroke="currentColor" stroke-linejoin="round"/>
<path d="M5.92464 10.7925L6.14155 10.2428C6.34428 9.72911 6.92508 9.477 7.43881 9.67973L9.16631 10.3614L11.5012 12.3579M5.92464 10.7925L7.69644 11.4917M5.92464 10.7925L2.40871 8.483C1.91558 8.15907 1.24934 8.37019 1.03276 8.91901V8.91901C0.885109 9.29318 0.994695 9.71987 1.30438 9.97659L6.18564 14.0229L10.6169 14.5988M11.5012 12.3579L10.6169 14.5988M11.5012 12.3579L13.136 13.003L12.2517 15.2439L10.6169 14.5988" stroke="currentColor" stroke-linecap="round" stroke-linejoin="round"/>
</g>
<defs>
<clipPath id="clip0_950_692">
<rect width="16" height="16" fill="white"/>
</clipPath>
</defs>
</svg>
