<svg width="16" height="16" viewBox="0 0 16 16" fill="none" xmlns="http://www.w3.org/2000/svg">
<g clip-path="url(#clip0_950_600)">
<path d="M9 11L9.92188 14.359C10.0707 14.9013 10.635 15.2165 11.1748 15.0589V15.0589C11.6972 14.9063 12.0038 14.3663 11.867 13.8396L11 10.5" stroke="currentColor"/>
<path d="M10.5 10.5001L13.9966 11.7859C14.5288 11.9816 15.1171 11.6958 15.292 11.1564V11.1564C15.4577 10.6458 15.1902 10.0955 14.6864 9.91023L11.1171 8.59764" stroke="currentColor"/>
<path fill-rule="evenodd" clip-rule="evenodd" d="M7.45876 1.84234C7.58677 1.77955 7.69781 1.80319 7.76094 1.85529C8.19512 2.21366 8.85793 2.88699 9.1351 3.80053C9.35126 4.513 9.38059 5.15404 9.36739 5.56246C9.36486 5.64088 9.30928 5.73769 9.17468 5.78465C9.044 5.83024 8.90499 5.8033 8.78339 5.70529C8.71485 5.65004 8.6592 5.57714 8.62311 5.49432C8.4311 5.71105 8.17732 5.8718 7.88935 5.94898C8.21884 6.26343 8.74455 6.44999 9.14076 6.5906C9.28389 6.64139 9.41011 6.68618 9.50408 6.72884C9.96681 6.56741 10.349 6.14866 10.3669 5.59477C10.3825 5.10994 10.3482 4.35448 10.092 3.5102C9.73166 2.32244 8.89505 1.49474 8.3975 1.08407C7.98599 0.744406 7.44296 0.73628 7.0184 0.944513C6.21425 1.33893 5.99546 2.36439 6.51399 3.06539C6.56094 3.12887 6.60857 3.1938 6.65632 3.25959C6.8967 3.09577 7.18717 3.00001 7.5 3.00001C7.57109 3.00001 7.64102 3.00495 7.70947 3.01452C7.57915 2.8277 7.4449 2.64234 7.31795 2.4707C7.15651 2.25246 7.23634 1.95143 7.45876 1.84234Z" fill="currentColor"/>
<path fill-rule="evenodd" clip-rule="evenodd" d="M7.38234 9.21795L1.40587 11.74C1.15146 11.8473 1.03225 12.1406 1.13961 12.395C1.24697 12.6494 1.54025 12.7686 1.79466 12.6613L8.05714 10.0186L7.38234 9.21795ZM11.1908 8.69621L14.5941 7.26005C14.8486 7.15268 14.9678 6.8594 14.8604 6.60499C14.753 6.35057 14.4598 6.23136 14.2054 6.33872L10.516 7.89557L11.1908 8.69621Z" fill="currentColor"/>
<path fill-rule="evenodd" clip-rule="evenodd" d="M8.30964 10.2656C8.71226 10.7965 9.45671 10.8774 9.90969 10.4737L10.6249 9.8365C10.994 9.5076 11.0566 8.97855 10.7892 8.60371C10.5515 8.2704 10.2909 7.9269 10.0567 7.66401C9.82243 7.40112 9.51114 7.10283 9.20734 6.82838C8.86569 6.51975 8.33295 6.52115 7.96383 6.85005L7.24866 7.48729C6.79567 7.89091 6.79049 8.63973 7.27161 9.10065C7.46345 9.28444 7.65294 9.47584 7.81684 9.65978C7.98074 9.84373 8.14911 10.0539 8.30964 10.2656ZM10.5749 11.2204C9.64255 12.0512 8.2315 11.8175 7.51286 10.8699C7.3617 10.6706 7.21064 10.4826 7.07023 10.325C6.92981 10.1674 6.76046 9.99581 6.57982 9.82275C5.72105 9.00002 5.651 7.57148 6.5834 6.74068L7.29857 6.10343C8.02317 5.45779 9.13231 5.41298 9.87768 6.08633C10.1913 6.36965 10.5335 6.69599 10.8033 6.99875C11.0731 7.30151 11.3579 7.67894 11.6034 8.02304C12.1866 8.84082 12.0147 9.93747 11.2901 10.5831L10.5749 11.2204Z" fill="currentColor"/>
<path d="M7 7.31043C7 7.31043 5.79149 7.02707 4.78245 7.00608C4.24352 6.99487 3.54986 7.08034 3.0151 7.16353C2.52836 7.23924 2.17926 7.66002 2.16979 8.15252V8.15252C2.15785 8.77361 2.68226 9.27063 3.30233 9.23323C4.06094 9.18746 4.9816 9.14219 5.36592 9.16408C6.07143 9.20428 6.96156 9.31006 6.96156 9.31006" stroke="currentColor"/>
<path fill-rule="evenodd" clip-rule="evenodd" d="M5.28722 3.85465C4.66871 4.40577 4.61407 5.35394 5.16519 5.97245C5.71631 6.59097 6.66448 6.64561 7.283 6.09449C7.90151 5.54337 7.95615 4.5952 7.40503 3.97668C6.85391 3.35817 5.90574 3.30353 5.28722 3.85465ZM4.41858 6.63771C3.50005 5.60685 3.59111 4.02656 4.62197 3.10803C5.65282 2.1895 7.23312 2.28056 8.15164 3.31142C9.07017 4.34228 8.97911 5.92257 7.94826 6.8411C6.9174 7.75963 5.33711 7.66857 4.41858 6.63771Z" fill="currentColor"/>
</g>
<defs>
<clipPath id="clip0_950_600">
<rect width="16" height="16" fill="white"/>
</clipPath>
</defs>
</svg>
