<svg width="16" height="16" viewBox="0 0 16 16" fill="none" xmlns="http://www.w3.org/2000/svg">
<path d="M10 9.00006V14.0001C10 14.5523 9.55228 15.0001 9 15.0001V15.0001C8.44772 15.0001 8 14.5523 8 14.0001L8 11.0001" stroke="currentColor"/>
<path d="M6.00002 9.00006V14.0001C6.00002 14.5523 6.44774 15.0001 7.00002 15.0001V15.0001C7.55231 15.0001 8.00002 14.5523 8.00002 14.0001V11.0001" stroke="currentColor"/>
<path d="M6.00004 7L6.00004 9.02466C6.00004 9.85309 6.67161 10.5247 7.50004 10.5247L8.50004 10.5247C9.32847 10.5247 10 9.85309 10 9.02466L10 7" stroke="currentColor" stroke-linecap="round"/>
<path fill-rule="evenodd" clip-rule="evenodd" d="M6.26762 5.50006L5.86625 5.50006C5.95131 5.64714 6 5.81789 6 6.00001C6 6.18218 5.95129 6.35296 5.86619 6.50006L10.1338 6.50006C10.0487 6.35296 10 6.18218 10 6.00001C10 5.81789 10.0487 5.64714 10.1338 5.50006L9.73238 5.50006C9.38656 5.79894 8.74024 6.00001 8 6.00001C7.25976 6.00001 6.61344 5.79894 6.26762 5.50006ZM11.8662 5.50006C11.9513 5.64714 12 5.81789 12 6.00001C12 6.18218 11.9513 6.35296 11.8662 6.50006L14 6.50006C14.2761 6.50006 14.5 6.2762 14.5 6.00006C14.5 5.72392 14.2761 5.50006 14 5.50006L11.8662 5.50006ZM4.13381 6.50006C4.04871 6.35297 4 6.18218 4 6.00001C4 5.81789 4.04869 5.64714 4.13375 5.50006L2 5.50006C1.72386 5.50006 1.5 5.72392 1.5 6.00006C1.5 6.27621 1.72386 6.50006 2 6.50006L4.13381 6.50006Z" fill="currentColor"/>
<path fill-rule="evenodd" clip-rule="evenodd" d="M8.06519 2.25861C7.23676 2.25861 6.56519 2.93018 6.56519 3.75861C6.56519 4.58703 7.23676 5.25861 8.06519 5.25861C8.89362 5.25861 9.56519 4.58703 9.56519 3.75861C9.56519 2.93018 8.89362 2.25861 8.06519 2.25861ZM5.56519 3.75861C5.56519 2.37789 6.68448 1.25861 8.06519 1.25861C9.4459 1.25861 10.5652 2.37789 10.5652 3.75861C10.5652 4.26583 10.4141 4.73777 10.1546 5.1319C10.1876 5.1091 10.2219 5.08745 10.2573 5.06702C10.9747 4.65281 11.8921 4.89862 12.3063 5.61606L13.0651 6.9303C13.4793 7.64774 13.2335 8.56513 12.516 8.97934C11.7986 9.39355 10.8812 9.14774 10.467 8.4303L9.70821 7.11606C9.44116 6.65351 9.44846 6.10784 9.67963 5.66749C9.24405 6.03625 8.68059 6.25861 8.06519 6.25861C7.45121 6.25861 6.88892 6.03727 6.45377 5.67005C6.68363 6.10995 6.69039 6.6544 6.42385 7.11607L5.66507 8.43031C5.25086 9.14775 4.33347 9.39356 3.61603 8.97935C2.8986 8.56513 2.65278 7.64775 3.067 6.93031L3.82577 5.61607C4.23999 4.89863 5.15737 4.65282 5.87481 5.06703C5.90911 5.08683 5.94232 5.10778 5.97444 5.1298C5.71571 4.73609 5.56519 4.26493 5.56519 3.75861ZM4.11603 8.11332C4.35518 8.25139 4.66098 8.16946 4.79905 7.93031L5.55782 6.61607C5.6959 6.37692 5.61396 6.07113 5.37481 5.93305C5.13567 5.79498 4.82987 5.87692 4.6918 6.11607L3.93302 7.43031C3.79495 7.66946 3.87689 7.97525 4.11603 8.11332ZM11.333 7.9303C11.4711 8.16945 11.7769 8.25139 12.016 8.11331C12.2552 7.97524 12.3371 7.66945 12.199 7.4303L11.4403 6.11606C11.3022 5.87691 10.9964 5.79498 10.7573 5.93305C10.5181 6.07112 10.4362 6.37691 10.5742 6.61606L11.333 7.9303Z" fill="currentColor"/>
<path d="M2 4L2 14" stroke="currentColor" stroke-linecap="round"/>
<path d="M14 4L14 14" stroke="currentColor" stroke-linecap="round"/>
</svg>
