<svg width="16" height="16" viewBox="0 0 16 16" fill="none" xmlns="http://www.w3.org/2000/svg">
<path d="M7.10652 3.6915C6.93614 3.90882 6.97419 4.2231 7.19151 4.39348C7.40882 4.56386 7.72311 4.5258 7.89349 4.30849L7.10652 3.6915ZM8.62224 4.41339L8.40938 4.86581L8.62224 4.41339ZM8.83511 3.96096C8.29959 3.709 7.98853 3.59118 7.7986 3.53848C7.70643 3.5129 7.61435 3.49436 7.52495 3.49468C7.47878 3.49485 7.41425 3.49995 7.3432 3.52423C7.30641 3.5368 7.26533 3.5554 7.22388 3.58299C7.20312 3.59682 7.1825 3.61275 7.16256 3.63101C7.15261 3.64012 7.14292 3.64973 7.13353 3.65985C7.12884 3.6649 7.12423 3.67007 7.11973 3.67535C7.11747 3.67799 7.11525 3.68066 7.11304 3.68335C7.11194 3.6847 7.1103 3.68673 7.10976 3.68741C7.10813 3.68945 7.10652 3.6915 7.5 3.99999C7.89349 4.30849 7.89187 4.31054 7.89025 4.31258C7.8897 4.31326 7.88806 4.31528 7.88697 4.31663C7.88477 4.31932 7.88255 4.32197 7.8803 4.3246C7.87581 4.32987 7.87123 4.335 7.86658 4.34002C7.85726 4.35006 7.84768 4.35956 7.83788 4.36853C7.81826 4.3865 7.79814 4.40202 7.77811 4.41536C7.73814 4.44197 7.69951 4.45925 7.66657 4.4705C7.60324 4.49215 7.5521 4.49459 7.52859 4.49467C7.48451 4.49484 7.47489 4.48643 7.53119 4.50206C7.63824 4.53177 7.8883 4.62064 8.40938 4.86581L8.83511 3.96096ZM10.6134 5.11044C10.1043 4.70079 9.41895 4.23566 8.83511 3.96096L8.40938 4.86581C8.89766 5.09555 9.51476 5.50994 9.98656 5.88955L10.6134 5.11044Z" fill="currentColor"/>
<path fill-rule="evenodd" clip-rule="evenodd" d="M8.32086 15.1701L8.32158 15.1658L8.32395 15.1514L8.33321 15.0943C8.34125 15.0443 8.3528 14.971 8.36669 14.8792C8.3945 14.6954 8.4316 14.438 8.46868 14.1439C8.54353 13.5503 8.61556 12.8283 8.61556 12.263C8.61556 11.9097 8.58733 11.4922 8.54711 11.0793C10 11 10.5872 9.69808 10.5872 8.77303L12.329 8.77303C13.3011 8.77303 14.1533 9.47801 14.2709 10.4704C14.3375 11.0325 14.3995 11.7031 14.3995 12.263C14.3995 12.8937 14.3207 13.6667 14.2448 14.269C14.2065 14.573 14.1682 14.8388 14.1394 15.0288C14.125 15.1238 14.113 15.2001 14.1045 15.2528L14.0947 15.3137L14.092 15.3299L14.0911 15.3354C14.0453 15.6077 13.7873 15.7919 13.515 15.7461C13.2427 15.7003 13.0591 15.4424 13.1048 15.1701L13.1055 15.1658L13.1079 15.1514L13.1172 15.0943C13.1252 15.0443 13.1368 14.971 13.1507 14.8792C13.1785 14.6954 13.2156 14.438 13.2526 14.1439C13.3275 13.5503 13.3995 12.8283 13.3995 12.263C13.3995 11.7631 13.3431 11.1392 13.2778 10.5881C13.2231 10.1258 12.8219 9.77303 12.329 9.77303L10.5872 9.77303C10.5872 10.4704 10.3535 11.0793 9.5424 10.9824C9.58406 11.41 9.61556 11.8636 9.61556 12.263C9.61556 12.8937 9.53678 13.6667 9.46082 14.269C9.42249 14.573 9.38418 14.8388 9.35544 15.0288C9.34105 15.1238 9.32904 15.2001 9.32058 15.2528L9.31069 15.3137L9.30802 15.3299L9.30711 15.3354C9.26132 15.6077 9.00335 15.7919 8.73103 15.7461C8.45872 15.7003 8.27509 15.4424 8.32086 15.1701Z" fill="currentColor"/>
<path fill-rule="evenodd" clip-rule="evenodd" d="M5.67182 8.65081C4.88369 8.03015 5.81322 7.74154 6.5 6.99998C7.08223 6.3713 7.00758 5.39156 7.70934 5.88324L9.17716 6.91165C9.36404 7.04258 9.53211 7.19849 9.67669 7.37502L10.8103 8.75902C11.3414 9.40748 11.3128 10.3483 10.7432 10.9633C10.0435 11.7188 8.85446 11.6638 8.19498 10.9078C7.97399 10.6545 7.75049 10.408 7.56624 10.224C7.26015 9.9183 6.40355 9.22705 5.67182 8.65081ZM6.87945 7.37502C6.59446 7.68274 5.95509 7.60102 6.29052 7.86518C7.00193 8.42543 7.91504 9.15904 8.27289 9.51643C8.48143 9.7247 8.72258 9.9914 8.94855 10.2504C9.23489 10.5787 9.73158 10.584 10.0095 10.2838C10.2398 10.0352 10.2514 9.65482 10.0366 9.39266L8.90307 8.00865C8.81631 7.90274 8.71547 7.8092 8.60335 7.73064L7.13553 6.70222C6.8432 6.49741 7.12199 7.11313 6.87945 7.37502Z" fill="currentColor"/>
<circle cx="12.1055" cy="6.88106" r="2.39198" stroke="currentColor"/>
<path d="M1.53851 5.37595C1.62546 6.44217 2.26288 7.43424 3.29885 7.92583C4.84461 8.65934 6.69232 8.00089 7.42584 6.45512C7.76267 5.7453 7.80597 4.97181 7.60463 4.27177M1.53851 5.37595C1.49572 4.85128 1.58623 4.30864 1.82814 3.79885C2.56165 2.25309 4.40936 1.59463 5.95512 2.32814C6.79107 2.72482 7.36751 3.44736 7.60463 4.27177M1.53851 5.37595C2.26824 5.92465 4.5031 6.472 7.60463 4.27177" stroke="currentColor"/>
</svg>
