<svg width="16" height="16" viewBox="0 0 16 16" fill="none" xmlns="http://www.w3.org/2000/svg">
<path fill-rule="evenodd" clip-rule="evenodd" d="M8 2.5C4.96243 2.5 2.5 4.96243 2.5 8C2.5 11.0376 4.96243 13.5 8 13.5C11.0376 13.5 13.5 11.0376 13.5 8C13.5 4.96243 11.0376 2.5 8 2.5ZM1.5 8C1.5 4.41015 4.41015 1.5 8 1.5C11.5899 1.5 14.5 4.41015 14.5 8C14.5 11.5899 11.5899 14.5 8 14.5C4.41015 14.5 1.5 11.5899 1.5 8Z" fill="currentColor"/>
<path fill-rule="evenodd" clip-rule="evenodd" d="M3.36029 4.01991C3.62544 3.94275 3.90293 4.09515 3.98008 4.36029C4.11999 4.84106 4.53096 5.64044 5.21753 6.35243C5.89813 7.05824 6.82037 7.64878 7.97818 7.78352C8.25248 7.81544 8.44895 8.06368 8.41703 8.33797C8.38511 8.61226 8.13688 8.80874 7.86259 8.77682C6.41861 8.60877 5.29477 7.87318 4.49768 7.04657C3.70655 6.22614 3.20823 5.28682 3.01991 4.6397C2.94276 4.37456 3.09515 4.09707 3.36029 4.01991Z" fill="currentColor"/>
<path fill-rule="evenodd" clip-rule="evenodd" d="M8.04553 14.4304C7.80784 14.2898 7.72911 13.9832 7.86968 13.7455C8.12457 13.3145 8.42633 12.4678 8.4758 11.48C8.52484 10.5007 8.32449 9.42408 7.63055 8.48753C7.46615 8.26565 7.51275 7.95252 7.73462 7.78812C7.9565 7.62372 8.26963 7.67032 8.43403 7.89219C9.29948 9.06022 9.53199 10.3831 9.47455 11.53C9.41755 12.6683 9.0735 13.6744 8.73042 14.2545C8.58985 14.4922 8.28321 14.5709 8.04553 14.4304Z" fill="currentColor"/>
<path fill-rule="evenodd" clip-rule="evenodd" d="M12.8986 4.11824C12.9196 4.39358 12.7135 4.63387 12.4382 4.65494C11.9389 4.69316 11.0722 4.93125 10.2344 5.45699C9.4039 5.97818 8.63658 6.75952 8.26699 7.865C8.17943 8.12689 7.89614 8.26822 7.63425 8.18066C7.37235 8.0931 7.23103 7.80981 7.31859 7.54792C7.77953 6.16921 8.7302 5.22035 9.70286 4.60997C10.6682 4.00414 11.6899 3.70929 12.3619 3.65786C12.6372 3.63679 12.8775 3.84291 12.8986 4.11824Z" fill="currentColor"/>
<path fill-rule="evenodd" clip-rule="evenodd" d="M9.87434 2.14195C9.96166 2.40392 9.82008 2.68708 9.55811 2.7744C8.45488 3.14215 7.50546 3.84559 6.78877 4.6056C6.06478 5.37335 5.61848 6.15542 5.48076 6.63743C5.4049 6.90295 5.12816 7.0567 4.86264 6.98084C4.59712 6.90497 4.44337 6.62823 4.51924 6.36271C4.71485 5.67806 5.26855 4.76013 6.06123 3.91953C6.8612 3.07121 7.94512 2.25798 9.24189 1.82572C9.50386 1.7384 9.78702 1.87998 9.87434 2.14195Z" fill="currentColor"/>
<path fill-rule="evenodd" clip-rule="evenodd" d="M1.7 7.60003C1.92091 7.43434 2.23431 7.47912 2.4 7.70003C3.83471 9.61298 6.16093 10.9579 8.40194 10.5097C8.67272 10.4556 8.93613 10.6312 8.99029 10.902C9.04445 11.1728 8.86884 11.4362 8.59806 11.4903C5.83907 12.0421 3.16529 10.3871 1.6 8.30003C1.43431 8.07912 1.47909 7.76571 1.7 7.60003Z" fill="currentColor"/>
<path fill-rule="evenodd" clip-rule="evenodd" d="M9.64645 5.14645C9.84171 4.95118 10.1583 4.95118 10.3536 5.14645C11.9895 6.78244 13.0533 10.0114 11.4472 13.2236C11.3237 13.4706 11.0234 13.5707 10.7764 13.4472C10.5294 13.3237 10.4293 13.0234 10.5528 12.7764C11.9467 9.9886 11.0105 7.21756 9.64645 5.85355C9.45118 5.65829 9.45118 5.34171 9.64645 5.14645Z" fill="currentColor"/>
</svg>
