<svg width="16" height="16" viewBox="0 0 16 16" fill="none" xmlns="http://www.w3.org/2000/svg">
<rect x="3.40002" y="2" width="3" height="1.6" rx="0.5" stroke="currentColor"/>
<rect x="9.59998" y="2" width="3" height="1.6" rx="0.5" stroke="currentColor"/>
<path d="M8 3V5" stroke="currentColor"/>
<path d="M9.59998 2.79999L6.39998 2.79999" stroke="currentColor"/>
<circle cx="8" cy="8.90002" r="3.5" stroke="currentColor"/>
<path d="M4.54334 9.45239L5.03717 9.3741L4.95301 8.84326L4.42962 8.9655L4.54334 9.45239ZM5 14.4L5 13.9H5V14.4ZM11 14.4L11 14.9H11V14.4ZM11.4567 9.45239L11.5704 8.9655L11.047 8.84326L10.9628 9.3741L11.4567 9.45239ZM3.5 11.4C3.5 10.6901 3.99371 10.0942 4.65706 9.93929L4.42962 8.9655C3.32394 9.22373 2.5 10.2151 2.5 11.4H3.5ZM3.5 12.4V11.4H2.5V12.4H3.5ZM5 13.9C4.17157 13.9 3.5 13.2284 3.5 12.4H2.5C2.5 13.7807 3.61929 14.9 5 14.9V13.9ZM11 13.9L5 13.9L5 14.9L11 14.9L11 13.9ZM12.5 12.4C12.5 13.2284 11.8284 13.9 11 13.9V14.9C12.3807 14.9 13.5 13.7807 13.5 12.4H12.5ZM12.5 11.4V12.4H13.5V11.4H12.5ZM11.3429 9.93929C12.0063 10.0942 12.5 10.6901 12.5 11.4H13.5C13.5 10.2151 12.6761 9.22373 11.5704 8.9655L11.3429 9.93929ZM10.9628 9.3741C10.7359 10.8056 9.49528 11.9 8 11.9V12.9C9.99481 12.9 11.6477 11.4403 11.9505 9.53069L10.9628 9.3741ZM8 11.9C6.50472 11.9 5.26412 10.8056 5.03717 9.3741L4.04951 9.53069C4.35226 11.4403 6.00519 12.9 8 12.9V11.9Z" fill="currentColor"/>
</svg>
