<svg width="16" height="16" viewBox="0 0 16 16" fill="none" xmlns="http://www.w3.org/2000/svg">
<path d="M5.59874 9.65405C5.82903 9.42943 6.2161 9.5926 6.2161 9.91429V9.91429C6.2161 10.0794 6.32743 10.2238 6.48715 10.2659L6.6716 10.3144C7.1309 10.4352 7.28274 11.0109 6.94276 11.3425L3.86178 14.3477C3.43733 14.7617 2.75763 14.7533 2.34362 14.3288V14.3288C1.92962 13.9044 1.93808 13.2247 2.36253 12.8106L5.59874 9.65405Z" stroke="currentColor"/>
<path d="M10.7564 13.9705C10.7564 14.6313 11.3568 15.1295 12.0063 15.0075V15.0075C12.5052 14.9138 12.8666 14.4781 12.8666 13.9705L12.8666 12.6703C12.8666 12.0202 12.7192 11.3722 12.3553 10.8336C12.1853 10.582 11.9892 10.3216 11.7931 10.1255C11.6218 9.95421 11.4282 9.77766 11.2439 9.61663C10.8282 9.25335 10.207 9.29301 9.81662 9.68338V9.68338C9.37289 10.1271 9.39241 10.8523 9.85936 11.2715L10.2345 11.6083C10.5666 11.9065 10.7564 12.3318 10.7564 12.7781L10.7564 13.9705Z" stroke="currentColor"/>
<path fill-rule="evenodd" clip-rule="evenodd" d="M5.57171 9.99997C5.88866 10.6861 6.58289 11.1622 7.38834 11.1622H8.68268C9.78725 11.1622 10.6827 10.2668 10.6827 9.16223V9.08144C10.3699 9.56713 9.85252 9.90864 9.25237 9.9842C9.09072 10.0964 8.89438 10.1622 8.68268 10.1622H7.38834C7.18675 10.1622 6.99909 10.1026 6.84205 9.99997H5.57171ZM5.55229 5.99997C5.85962 5.29059 6.56602 4.79431 7.38834 4.79431H8.68268C9.50499 4.79431 10.2114 5.29059 10.5187 5.99997H9.29024C9.12183 5.87097 8.91121 5.79431 8.68268 5.79431L7.38834 5.79431C7.15981 5.79431 6.94919 5.87097 6.78078 5.99997H5.55229Z" fill="currentColor"/>
<path d="M7.80186 8.09284C8.22827 8.21403 8.46101 8.64872 8.32174 9.06383V9.06383C8.18636 9.46734 7.74787 9.70596 7.32827 9.60446L6.0111 9.28585C5.93026 9.26629 5.85146 9.24025 5.77552 9.20797L5.71163 9.18082C5.24234 8.98138 4.93447 8.54431 4.9118 8.04535V8.04535C4.89781 7.73743 4.99404 7.43084 5.18443 7.17678L5.75634 6.41359C6.01941 6.06253 6.49787 5.93256 6.89757 6.10358V6.10358C7.41604 6.32543 7.58663 6.95092 7.2545 7.4124L7.21706 7.46443C7.20166 7.48582 7.18452 7.50603 7.1658 7.52484L7.03848 7.65285C6.93256 7.75933 7.00857 7.93209 7.15923 7.92733V7.92733C7.19512 7.92619 7.2308 7.93055 7.26491 7.94025L7.80186 8.09284Z" stroke="currentColor"/>
<path d="M8.53259 8.01966C8.10748 8.14635 7.88039 8.58415 8.02536 8.99753V8.99753C8.16623 9.39923 8.60807 9.63214 9.02649 9.52527L10.3387 9.1901C10.4193 9.16952 10.4978 9.14246 10.5733 9.10922L10.636 9.08162C11.103 8.87606 11.4052 8.43482 11.421 7.93544V7.93544C11.4308 7.62758 11.3304 7.32249 11.1367 7.07106L10.5539 6.3145C10.2862 5.96703 9.80606 5.84329 9.40869 6.01938V6.01938C8.89333 6.24776 8.73112 6.87495 9.06926 7.33179L9.108 7.38414C9.12368 7.40532 9.14108 7.42529 9.16004 7.44385L9.28931 7.57043C9.3966 7.67549 9.32287 7.84909 9.17217 7.84624V7.84624C9.13625 7.84556 9.10062 7.85037 9.06662 7.86051L8.53259 8.01966Z" stroke="currentColor"/>
<circle cx="8.03551" cy="3.14717" r="2.14717" stroke="currentColor"/>
</svg>
