<svg width="16" height="16" viewBox="0 0 16 16" fill="none" xmlns="http://www.w3.org/2000/svg">
<path fill-rule="evenodd" clip-rule="evenodd" d="M9.4412 6.12952C9.07323 5.60568 8.76976 5.17364 9.33809 4.82082L12.0144 3.15934C12.7183 2.7224 13.643 2.93876 14.08 3.64259C14.5169 4.34642 14.3006 5.2712 13.5967 5.70814L10.9204 7.36961C10.3585 7.71842 10.1973 7.41744 9.93281 6.92377C9.86598 6.79903 9.79257 6.66199 9.70443 6.52002C9.62032 6.38452 9.52892 6.25441 9.4412 6.12952ZM9.86552 5.67042C9.63091 5.81606 9.55879 6.12432 9.70443 6.35893C9.85008 6.59354 10.1583 6.66566 10.3929 6.52002L13.0693 4.85854C13.3039 4.71289 13.376 4.40463 13.2304 4.17002C13.0847 3.93541 12.7765 3.86329 12.5419 4.00894L9.86552 5.67042ZM2.33809 5.70814C1.63426 5.2712 1.4179 4.34642 1.85484 3.64259C2.29177 2.93876 3.21655 2.7224 3.92038 3.15934L6.59673 4.82082C7.30056 5.25776 7.03367 5.81619 6.59673 6.52002C6.15979 7.22385 5.71827 7.80655 5.01444 7.36961L2.33809 5.70814ZM2.70443 4.17002C2.55879 4.40463 2.63091 4.71289 2.86552 4.85854L5.54187 6.52002C5.77648 6.66566 6.08474 6.59354 6.23038 6.35893C6.37603 6.12432 6.30391 5.81606 6.0693 5.67042L3.39295 4.00894C3.15834 3.86329 2.85008 3.93541 2.70443 4.17002ZM6.18512 9.41898C6.00205 9.14161 5.89984 8.98676 5.82401 9.39053L5.08563 13.3218C4.93271 14.136 5.46877 14.92 6.28296 15.0729C7.09715 15.2258 7.88115 14.6898 8.03408 13.8756L8.05504 13.764L8.07401 13.8755C8.22693 14.6897 9.01093 15.2258 9.82512 15.0729C10.6393 14.92 11.1754 14.136 11.0225 13.3218L10.4485 9.94623C10.3433 9.38659 10.0086 9.52405 9.54514 9.71437C9.33435 9.80093 9.09693 9.89843 8.84239 9.94623C8.81794 9.95083 8.79369 9.95514 8.76965 9.95921L8.77245 9.94431C8.738 9.95135 8.69777 9.96293 8.65211 9.97748C8.50352 9.99864 8.3642 10.0116 8.23729 10.0233L8.23727 10.0233C7.90093 10.0545 7.6517 10.0776 7.54788 10.2247C7.53119 10.2252 7.5144 10.2255 7.49749 10.2257C7.36176 10.1103 7.15662 10.0294 7.00001 10C6.86062 9.97384 6.78679 9.99354 6.74104 10.0557C6.4977 9.89257 6.31959 9.62272 6.18512 9.41898ZM6.74104 10.0557C6.83443 10.1183 6.93743 10.1651 7.05126 10.1865C7.207 10.2158 7.35617 10.227 7.49749 10.2257C7.50866 10.2352 7.51937 10.2449 7.52953 10.2548C7.49794 10.3159 7.48709 10.3953 7.50001 10.5L7.56832 10.9017L7.05126 13.691C7.00029 13.9624 6.73895 14.1411 6.46756 14.0901C6.19616 14.0391 6.01747 13.7778 6.06845 13.5064L6.65478 10.3434L6.65491 10.3427C6.67964 10.2111 6.69779 10.1144 6.74104 10.0557ZM8.57398 11.001L8.72857 10.1779C8.78356 10.1407 8.8469 10.1139 8.9163 10.1009C9.1877 10.0499 9.44903 10.2286 9.50001 10.5L10.0396 13.5064C10.0906 13.7778 9.91192 14.0391 9.64053 14.0901C9.36913 14.141 9.1078 13.9623 9.05682 13.691L8.57398 11.001Z" fill="currentColor"/>
<path fill-rule="evenodd" clip-rule="evenodd" d="M7.5 11C6.39543 11 5.5 10.1046 5.5 9L5.5 7C5.5 5.89543 6.39543 5 7.5 5L8.5 5C9.60457 5 10.5 5.89543 10.5 7L10.5 9C10.5 10.1046 9.60457 11 8.5 11L7.5 11ZM6.5 9C6.5 9.55228 6.94772 10 7.5 10L8.5 10C9.05228 10 9.5 9.55228 9.5 9L9.5 7C9.5 6.44772 9.05228 6 8.5 6L7.5 6C6.94772 6 6.5 6.44772 6.5 7L6.5 9Z" fill="currentColor"/>
<path fill-rule="evenodd" clip-rule="evenodd" d="M7.5 11C6.39543 11 5.5 10.1046 5.5 9L5.5 7C5.5 5.89543 6.39543 5 7.5 5L8.5 5C9.60457 5 10.5 5.89543 10.5 7L10.5 9C10.5 10.1046 9.60457 11 8.5 11L7.5 11ZM6.5 9C6.5 9.55228 6.94772 10 7.5 10L8.5 10C9.05228 10 9.5 9.55228 9.5 9L9.5 7C9.5 6.44772 9.05228 6 8.5 6L7.5 6C6.94772 6 6.5 6.44772 6.5 7L6.5 9Z" fill="currentColor"/>
<circle cx="8" cy="3.5" r="2" stroke="currentColor"/>
<path d="M2.24458 8.85675L3.25541 11.1433" stroke="currentColor" stroke-linecap="round" stroke-linejoin="round"/>
<path d="M13.686 8.82849L12.814 11.1715" stroke="currentColor" stroke-linecap="round" stroke-linejoin="round"/>
</svg>
