<svg width="16" height="16" viewBox="0 0 16 16" fill="none" xmlns="http://www.w3.org/2000/svg">
<path d="M11.2614 14.5H7.70704C7.3866 14.5 7.07841 14.3769 6.8461 14.1562L1.22164 8.81301C0.715181 8.33187 0.701336 7.52905 1.19091 7.03073L3.58061 4.59836C3.95665 4.2156 4.49345 3.94222 4.98838 4.14947C5.47594 4.35364 5.7342 4.73658 5.82636 5.10526C6.24083 6.76316 7.48426 7.02429 8.72389 7.02429L10.6619 11.0461L12.5286 11.8461C12.8629 11.9893 13.0797 12.318 13.0797 12.6817C13.0797 13.6859 12.2656 14.5 11.2614 14.5Z" stroke="currentColor" stroke-linecap="round" stroke-linejoin="round"/>
<path d="M2.37242 5.86511C2.94808 6.5559 3.82308 8.35195 2.71782 10.0098" stroke="currentColor" stroke-linecap="round" stroke-linejoin="round"/>
<path d="M7.48425 8.97371L9.14215 8.42108M8.65859 10.4244L9.69478 10.079" stroke="currentColor" stroke-linecap="round" stroke-linejoin="round"/>
<path d="M10.6 4.5L10 6C10 6 10.5 6.5 12 6.5C13.5 6.5 14 6 14 6L13.4 4.5M10.6 4.5L12 1L13.4 4.5M10.6 4.5C11.5 5 12.5 5 13.4 4.5" stroke="currentColor" stroke-linecap="round" stroke-linejoin="round"/>
</svg>
