<svg width="16" height="16" viewBox="0 0 16 16" fill="none" xmlns="http://www.w3.org/2000/svg">
<path d="M13.5 9.5C13.5 12.5376 11.0376 15 8 15C4.96243 15 2.5 12.5376 2.5 9.5C2.5 6.46243 4.96243 4 8 4C11.0376 4 13.5 6.46243 13.5 9.5Z" stroke="currentColor" stroke-linecap="round" stroke-linejoin="round"/>
<path d="M8 7V10L10.5 8.5" stroke="currentColor" stroke-linecap="round" stroke-linejoin="round"/>
<path d="M8 3L8 3.5L8 4" stroke="currentColor" stroke-linecap="round" stroke-linejoin="round"/>
<rect x="7" y="1" width="2" height="1.5" rx="0.5" stroke="currentColor"/>
<path fill-rule="evenodd" clip-rule="evenodd" d="M6.71734 6.78802C6.5847 6.85076 6.4563 6.92339 6.33329 7.00558C6.21028 7.08778 6.09404 7.1786 5.98532 7.27714L5.31376 6.53619C5.45873 6.4048 5.61372 6.2837 5.77772 6.17412C5.94172 6.06453 6.11292 5.96768 6.28978 5.88403L6.71734 6.78802ZM5.42681 7.95769C5.35138 8.08354 5.28498 8.21526 5.22836 8.35194C5.17175 8.48863 5.12556 8.62872 5.08991 8.77105L4.11987 8.52807C4.16741 8.33829 4.229 8.15149 4.30448 7.96926C4.37997 7.78703 4.4685 7.61139 4.56909 7.44358L5.42681 7.95769ZM5.00361 9.6472C5.01081 9.79375 5.02878 9.94016 5.05765 10.0853C5.08651 10.2304 5.12594 10.3725 5.17537 10.5107L4.23382 10.8476C4.16791 10.6633 4.11534 10.4738 4.07686 10.2804C4.03838 10.0869 4.01442 9.89168 4.00482 9.69626L5.00361 9.6472Z" fill="currentColor"/>
</svg>
