<svg width="16" height="16" viewBox="0 0 16 16" fill="none" xmlns="http://www.w3.org/2000/svg">
<path d="M13 2L13 6" stroke="currentColor" stroke-linecap="round"/>
<path d="M15 4H11" stroke="currentColor" stroke-linecap="round"/>
<path d="M11.2614 13.5H7.70704C7.3866 13.5 7.07841 13.3769 6.8461 13.1562L1.22164 7.81301C0.715181 7.33187 0.701336 6.52905 1.19091 6.03073L3.58061 3.59836C3.95665 3.2156 4.49345 2.94222 4.98838 3.14947C5.47594 3.35364 5.7342 3.73658 5.82636 4.10526C6.24083 5.76316 7.48426 6.02429 8.72389 6.02429L10.6619 10.0461L12.5286 10.8461C12.8629 10.9893 13.0797 11.318 13.0797 11.6817C13.0797 12.6859 12.2656 13.5 11.2614 13.5Z" stroke="currentColor" stroke-linecap="round" stroke-linejoin="round"/>
<path d="M2.37241 4.86511C2.94807 5.5559 3.82307 7.35195 2.71781 9.00985" stroke="currentColor" stroke-linecap="round" stroke-linejoin="round"/>
<path d="M7.48426 7.97371L9.14216 7.42108M8.6586 9.42437L9.69479 9.07898" stroke="currentColor" stroke-linecap="round" stroke-linejoin="round"/>
</svg>
