<svg width="16" height="16" viewBox="0 0 16 16" fill="none" xmlns="http://www.w3.org/2000/svg">
<path d="M14 13L2.00003 13" stroke="currentColor" stroke-linecap="round"/>
<path fill-rule="evenodd" clip-rule="evenodd" d="M7.05584 7.89365L8.19156 8.90951C8.28092 8.98943 8.35845 9.07764 8.42403 9.17195C8.62741 9.06215 8.832 9 9 9C9.2142 9 9.41266 9.10102 9.57538 9.27302C9.44489 8.85937 9.20498 8.4743 8.85824 8.16416L7.81175 7.22812C7.64479 7.52827 7.3778 7.76513 7.05584 7.89365ZM8.81671 11.9419C8.7039 11.9797 8.59598 12 8.5 12C8.19387 12 7.91987 11.7937 7.73643 11.4686C7.15153 11.7264 6.43495 11.5917 5.98931 11.0692L4.48669 9.30766C4.02337 8.76449 4.04701 7.95861 4.54137 7.44354C4.70629 7.2717 4.9051 7.15125 5.1175 7.08296C5.04184 6.90375 5 6.70676 5 6.5C5 6.34859 5.02244 6.20242 5.06416 6.06464C4.6046 6.15846 4.16829 6.38809 3.8199 6.75109C2.9698 7.63682 2.92915 9.0226 3.72588 9.95663L5.22849 11.7182C6.15597 12.8055 7.78755 12.8852 8.81671 11.9419Z" fill="currentColor"/>
<path d="M8.55079 11.8066C7.84084 12.2123 6.95749 11.6996 6.95749 10.882V10.882C6.95749 10.4786 7.18539 10.1098 7.54618 9.92944L9.94147 8.73179C10.5045 8.45026 11.1673 8.45026 11.7303 8.73179L14.1256 9.92944C14.4864 10.1098 14.7143 10.4786 14.7143 10.882V10.882C14.7143 11.6996 13.831 12.2123 13.121 11.8066L11.8017 11.0527C11.2033 10.7107 10.4685 10.7107 9.87005 11.0527L8.55079 11.8066Z" stroke="currentColor"/>
<path fill-rule="evenodd" clip-rule="evenodd" d="M4.37367 6.08888C3.6796 6.73439 2.59365 6.69502 1.94815 6.00095C1.30264 5.30687 1.34201 4.22093 2.03608 3.57542C2.73015 2.92991 3.8161 2.96928 4.46161 3.66335C4.48282 3.68616 4.50329 3.70939 4.52302 3.73301C4.72785 3.58632 4.97885 3.49998 5.25 3.49998C5.37151 3.49998 5.48896 3.51732 5.60003 3.54965C5.49206 3.34834 5.35674 3.15745 5.19387 2.98233C4.17224 1.88384 2.45355 1.82153 1.35506 2.84316C0.256567 3.86478 0.194257 5.58348 1.21588 6.68197C2.23751 7.78046 3.95621 7.84277 5.0547 6.82114C5.33682 6.55876 5.5506 6.2504 5.69522 5.91837C5.55691 5.9711 5.40683 5.99998 5.25 5.99998C5.01492 5.99998 4.79499 5.93509 4.60715 5.82223C4.54001 5.91712 4.46216 6.00658 4.37367 6.08888Z" fill="currentColor"/>
<path d="M5.43145 6.5476C5.0798 7.15024 5.38589 7.89169 6.05541 8.05907V8.05907C6.57224 8.18828 7.12354 7.92115 7.34645 7.4335L7.87443 6.27849C7.98612 6.03414 8.04391 5.77148 8.04391 5.50812V5.50812C8.04391 5.01374 7.84053 4.54826 7.47927 4.21583L7.45348 4.1921C7.20018 3.95901 6.87961 3.80584 6.53093 3.75131L5.2787 3.55544C4.52193 3.43708 3.86821 4.14196 4.0684 4.86047V4.86047C4.17866 5.25622 4.52792 5.53646 4.95023 5.56804L5.43787 5.6045C5.465 5.60653 5.49235 5.60639 5.51964 5.60408L5.68766 5.58989C5.84868 5.57629 5.93845 5.75844 5.83028 5.87929V5.87929C5.81337 5.89819 5.79844 5.91868 5.78576 5.94042L5.43145 6.5476Z" stroke="currentColor"/>
</svg>
