<svg width="16" height="16" viewBox="0 0 16 16" fill="none" xmlns="http://www.w3.org/2000/svg">
<path d="M7.76289 3.55981C8.00601 3.42886 8.30925 3.5198 8.4402 3.76291C8.57115 4.00603 8.48022 4.30928 8.2371 4.44022L7.76289 3.55981ZM8.37935 3.8605L8.59222 4.31292L8.37935 3.8605ZM7.99999 4.00002C8.2371 4.44022 8.23711 4.44022 8.23713 4.44021C8.23713 4.44021 8.23714 4.4402 8.23715 4.4402C8.23715 4.44019 8.23715 4.44019 8.23715 4.4402C8.23713 4.44021 8.23708 4.44023 8.237 4.44028C8.23683 4.44037 8.23654 4.44053 8.23612 4.44075C8.2353 4.4412 8.23399 4.4419 8.23226 4.44284C8.22881 4.44471 8.22372 4.44748 8.21749 4.4509C8.20489 4.4578 8.18826 4.46698 8.17134 4.47654C8.15383 4.48643 8.1388 4.49514 8.12843 4.50143C8.1231 4.50466 8.12182 4.50555 8.12337 4.50453C8.1242 4.50397 8.12757 4.50173 8.13256 4.49811C8.13645 4.49528 8.1478 4.48696 8.16211 4.47444C8.16544 4.47153 8.21543 4.42998 8.25767 4.36013C8.27576 4.33022 8.33683 4.22499 8.32872 4.07541C8.32412 3.99051 8.2972 3.8992 8.23956 3.81665C8.18381 3.73678 8.11511 3.68759 8.05874 3.65858C7.95813 3.60679 7.86786 3.60397 7.84012 3.60348C7.80193 3.60281 7.77208 3.60678 7.7574 3.60905C7.7274 3.61367 7.70565 3.62006 7.70017 3.62167C7.68146 3.62717 7.68077 3.62898 7.72314 3.61097C7.79385 3.58093 7.92906 3.51978 8.16649 3.40807L8.59222 4.31292C8.35392 4.42504 8.20385 4.49325 8.11423 4.53133C8.07644 4.54739 8.02683 4.56795 7.98224 4.58106C7.97029 4.58458 7.94352 4.59217 7.9098 4.59737C7.89326 4.59992 7.86188 4.60402 7.82247 4.60332C7.79352 4.60281 7.70234 4.59982 7.60112 4.54772C7.46731 4.47885 7.34121 4.33293 7.33019 4.12953C7.32205 3.97936 7.38337 3.87341 7.40197 3.84266C7.44524 3.77111 7.49731 3.72736 7.50365 3.72182C7.54857 3.68252 7.60183 3.65127 7.60989 3.64638C7.63311 3.6323 7.65835 3.6178 7.6796 3.6058C7.70145 3.59346 7.72208 3.58207 7.73705 3.57387C7.74461 3.56973 7.75088 3.56632 7.75534 3.5639C7.75757 3.56268 7.75936 3.56172 7.76064 3.56103C7.76128 3.56068 7.76179 3.5604 7.76217 3.5602C7.76236 3.5601 7.76251 3.56001 7.76263 3.55995C7.7627 3.55992 7.76275 3.55989 7.76279 3.55986C7.76281 3.55985 7.76284 3.55984 7.76285 3.55983C7.76287 3.55982 7.76289 3.55981 7.99999 4.00002ZM8.16649 3.40807C8.65904 3.17632 9.18612 3.0396 9.57948 2.96061C9.77838 2.92067 9.94815 2.8945 10.0692 2.87822C10.1298 2.87006 10.1785 2.86435 10.2128 2.86061C10.2299 2.85874 10.2435 2.85736 10.2532 2.85641C10.258 2.85593 10.2619 2.85557 10.2648 2.8553C10.2662 2.85517 10.2674 2.85506 10.2683 2.85498C10.2688 2.85493 10.2692 2.8549 10.2695 2.85487C10.2697 2.85485 10.2698 2.85484 10.27 2.85483C10.27 2.85482 10.2701 2.85481 10.2702 2.85481C10.2703 2.8548 10.2703 2.8548 10.3139 3.35289C10.3575 3.85099 10.3576 3.85099 10.3576 3.85098C10.3576 3.85098 10.3577 3.85097 10.3577 3.85097C10.3578 3.85096 10.3579 3.85096 10.3579 3.85095C10.358 3.85095 10.358 3.85094 10.358 3.85095C10.3579 3.85096 10.3575 3.85099 10.357 3.85104C10.3558 3.85115 10.3537 3.85135 10.3506 3.85165C10.3445 3.85225 10.3346 3.85325 10.3213 3.8547C10.2946 3.85761 10.2543 3.86233 10.2025 3.86929C10.0989 3.88323 9.95068 3.90603 9.77636 3.94104C9.4233 4.01193 8.9831 4.12901 8.59222 4.31292L8.16649 3.40807Z" fill="currentColor"/>
<path fill-rule="evenodd" clip-rule="evenodd" d="M4.96485 9.94448C4.91228 10.6087 5.4143 11.1643 6.02101 11.1643L6.9789 11.1643C7.47329 11.1643 7.87198 10.8109 7.92173 10.3532C7.96598 9.94622 7.99996 9.51642 7.99996 9.16431C7.99996 8.81219 7.96598 8.3824 7.92173 7.97539C7.87198 7.51767 7.47329 7.16431 6.9789 7.16431L6.02101 7.16431C5.4143 7.16431 4.91228 7.71993 4.96485 8.38414C4.98582 8.64898 4.99996 8.91793 4.99996 9.16431C4.99996 9.41068 4.98582 9.67964 4.96485 9.94448ZM6.02101 12.1643C4.77217 12.1643 3.87412 11.0511 3.96797 9.86557C3.98771 9.61619 3.99996 9.37538 3.99996 9.16431C3.99996 8.95323 3.98771 8.71242 3.96797 8.46305C3.87412 7.27748 4.5 6.5 5.5 6.5L6.5 7L7.5 7C7.92173 7 8 8 8.91588 7.86732C8.96155 8.28749 8.99996 8.7588 8.99996 9.16431C8.99996 9.56981 8.96155 10.0411 8.91588 10.4613C8 10.5 8.60932 11.4049 8.24754 11.7069C7.90125 11.9958 7.45354 12.1643 6.9789 12.1643L6.02101 12.1643Z" fill="currentColor"/>
<rect x="8" y="10" width="2" height="5" rx="1" stroke="currentColor"/>
<path d="M10.137 4.49182C10.5464 4.05616 11.2419 4.05822 11.6435 4.50121V4.50121C11.9843 4.87718 11.9951 5.44707 11.6687 5.83567L10.7341 6.94872C10.6167 7.08851 10.4807 7.21158 10.3299 7.31448L9.13166 8.13229C8.72521 8.40969 8.17642 8.34476 7.84593 7.98016V7.98016C7.44195 7.5345 7.52855 6.83464 8.01461 6.48028C8.24429 6.31283 8.47497 6.13803 8.65266 5.98876C8.95304 5.73644 9.611 5.05138 10.137 4.49182Z" stroke="currentColor"/>
<circle cx="5.99996" cy="5" r="2" stroke="currentColor"/>
<path fill-rule="evenodd" clip-rule="evenodd" d="M10.5622 2.55457C11.0571 1.5116 12.3038 1.06732 13.3468 1.56224C13.796 1.77538 14.134 2.12745 14.334 2.54349C12.3281 3.84869 10.9284 3.63104 10.3613 3.37016C10.3717 3.09596 10.4367 2.81914 10.5622 2.55457ZM11.6721 4.55952C12.4796 4.50802 13.451 4.23603 14.5368 3.59408C14.5194 3.8479 14.455 4.10279 14.3391 4.34684C13.9105 5.25012 12.918 5.70434 11.9823 5.48832C11.9069 5.88395 11.5985 6.19693 11.2052 6.27895C12.7305 6.95158 14.5234 6.29111 15.2426 4.77555C15.5784 4.0678 15.6216 3.29535 15.4209 2.59743C15.1847 1.77612 14.6095 1.05452 13.7755 0.658797C12.2336 -0.0728946 10.3905 0.583933 9.65877 2.12586C9.41781 2.63364 9.32725 3.17555 9.36998 3.69952C9.41827 4.29171 9.63714 4.86162 10.0006 5.33503C10.0002 5.32341 10 5.31174 10 5.30003C10 4.74774 10.4477 4.30003 11 4.30003C11.2587 4.30003 11.4945 4.39828 11.6721 4.55952Z" fill="currentColor"/>
<path d="M2 8L2 13M2 13L7 13L7 15M2 13L2 15" stroke="currentColor" stroke-linecap="round" stroke-linejoin="round"/>
</svg>
