<svg width="16" height="16" viewBox="0 0 16 16" fill="none" xmlns="http://www.w3.org/2000/svg">
<g clip-path="url(#clip0_950_580)">
<path fill-rule="evenodd" clip-rule="evenodd" d="M2.72166 2.51734C3.43737 1.75649 4.41496 1.24481 5.51045 1.1263C5.0593 1.43348 4.66127 1.78453 4.32373 2.14247C3.87107 2.62249 3.50884 3.13469 3.27046 3.59798C2.98618 3.19356 2.80664 2.80667 2.73009 2.54361C2.7275 2.53472 2.72469 2.52597 2.72166 2.51734ZM7.32478 1.32443C7.33776 1.3201 7.35044 1.31529 7.36281 1.31003C7.88433 1.47556 8.36467 1.73355 8.78458 2.06475C8.34282 2.19629 7.85044 2.40588 7.37479 2.70437C6.5524 3.22046 5.74489 4.02514 5.35316 5.19683L5.35228 5.19948C4.83006 5.03352 4.37961 4.75236 4.00209 4.41901C4.13296 4.02948 4.48783 3.42604 5.05127 2.82854C5.64158 2.20255 6.42155 1.6255 7.32478 1.32443ZM7.88748 4.6023C8.22181 4.50402 8.5707 4.43974 8.93014 4.41345C8.72421 4.02326 8.48187 3.67276 8.21693 3.3726C8.74636 3.09377 9.25932 2.94962 9.60472 2.90582C9.95869 3.37867 10.2218 3.92347 10.3682 4.51433C10.7481 4.597 11.1119 4.72286 11.4541 4.88651C11.1043 2.186 8.79578 0.0999756 6 0.0999756C2.9642 0.0999756 0.50286 2.55955 0.500002 5.59468L0.5 5.59998L0.500003 5.60611C0.502759 8.13161 2.2077 10.2585 4.5293 10.9011C4.41611 10.5411 4.34256 10.1635 4.31376 9.77338C3.13818 9.29793 2.20929 8.34019 1.77241 7.14546C2.52716 7.78678 3.41826 8.28937 4.3757 8.52856C4.43445 8.19432 4.52639 7.87152 4.648 7.56368C3.44784 7.27369 2.3196 6.46753 1.50301 5.43379C1.52867 4.7269 1.71739 4.0616 2.03266 3.47438C2.25504 3.91726 2.58611 4.41187 3.02142 4.8633C3.60857 5.47219 4.40778 6.02506 5.41536 6.2518C5.6894 5.91407 6.0066 5.61278 6.35855 5.35631C6.58635 4.77156 6.954 4.30414 7.37954 3.93843C7.56152 4.13038 7.7332 4.35339 7.88748 4.6023Z" fill="currentColor"/>
<circle cx="9.71429" cy="9.81426" r="5.21429" stroke="currentColor"/>
<path d="M9.62741 7.62184L11.8815 9.25956L11.0205 11.9094H8.23428L7.37328 9.25956L9.62741 7.62184Z" fill="currentColor"/>
<path d="M9.62741 7.62184L11.8815 9.25956M9.62741 7.62184L7.37328 9.25956M9.62741 7.62184V5.25171M11.8815 9.25956L11.0205 11.9094M11.8815 9.25956L13.9726 8.41188M11.0205 11.9094H8.23428M11.0205 11.9094L12.3925 13.9422M8.23428 11.9094L7.37328 9.25956M8.23428 11.9094L6.86224 13.9422M7.37328 9.25956L5.28216 8.41188" stroke="currentColor" stroke-linejoin="round"/>
<path d="M11.0179 5.03448H8.41077L9.71435 5.46901L11.0179 5.03448Z" stroke="currentColor" stroke-linejoin="round"/>
<path d="M14.724 9.67584L13.8857 7.20715L13.8934 8.58122L14.724 9.67584Z" stroke="currentColor" stroke-linejoin="round"/>
<path d="M4.70454 9.67584L5.54287 7.20715L5.53515 8.58122L4.70454 9.67584Z" stroke="currentColor" stroke-linejoin="round"/>
<path d="M8.10691 14.5526L5.9455 13.0947L7.26919 13.4634L8.10691 14.5526Z" stroke="currentColor" stroke-linejoin="round"/>
<path d="M11.4028 14.5526L13.5642 13.0947L12.2405 13.4634L11.4028 14.5526Z" stroke="currentColor" stroke-linejoin="round"/>
</g>
<defs>
<clipPath id="clip0_950_580">
<rect width="16" height="16" fill="white"/>
</clipPath>
</defs>
</svg>
