<svg width="16" height="16" viewBox="0 0 16 16" fill="none" xmlns="http://www.w3.org/2000/svg">
<g clip-path="url(#clip0_950_719)">
<path d="M12.6244 2.23C12.6244 2.47667 12.5494 2.67333 12.3994 2.82C12.2527 2.96667 12.071 3.06667 11.8544 3.12V3.135C12.1377 3.17167 12.3544 3.26 12.5044 3.4C12.6544 3.54 12.7294 3.72667 12.7294 3.96C12.7294 4.16667 12.6777 4.35333 12.5744 4.52C12.4744 4.68333 12.3177 4.81333 12.1044 4.91C11.8944 5.00333 11.6227 5.05 11.2894 5.05C10.9027 5.05 10.5594 4.985 10.2594 4.855V4.215C10.4127 4.29167 10.5727 4.35 10.7394 4.39C10.906 4.43 11.0627 4.45 11.2094 4.45C11.4794 4.45 11.6677 4.40333 11.7744 4.31C11.8844 4.21667 11.9394 4.085 11.9394 3.915C11.9394 3.81833 11.9144 3.735 11.8644 3.665C11.8144 3.595 11.726 3.54333 11.5994 3.51C11.476 3.47333 11.3027 3.455 11.0794 3.455H10.8094V2.875H11.0844C11.3044 2.875 11.471 2.855 11.5844 2.815C11.701 2.77167 11.7794 2.715 11.8194 2.645C11.8627 2.57167 11.8844 2.48833 11.8844 2.395C11.8844 2.26833 11.8444 2.17 11.7644 2.1C11.6877 2.02667 11.5577 1.99 11.3744 1.99C11.2044 1.99 11.056 2.02 10.9294 2.08C10.8027 2.14 10.6977 2.19667 10.6144 2.25L10.2644 1.73C10.4044 1.63 10.5677 1.54667 10.7544 1.48C10.9444 1.41333 11.1694 1.38 11.4294 1.38C11.796 1.38 12.086 1.455 12.2994 1.605C12.516 1.75167 12.6244 1.96 12.6244 2.23Z" fill="currentColor"/>
<path d="M14.9635 1.5V3.8415H15.429V1.5H14.9635ZM15.296 2.382V2.7635H15.8595V2.382H15.296ZM13 2.9385V3.313H13.2695C13.9905 3.313 14.3615 3.2955 14.757 3.208L14.7115 2.8405C14.323 2.9245 13.973 2.9385 13.2695 2.9385H13ZM13 1.7555V3.138H13.462V2.13H14.449V1.7555H13ZM13.3395 4.314V4.685H15.5445V4.314H13.3395ZM13.3395 3.5965V4.503H13.805V3.5965H13.3395Z" fill="currentColor"/>
<path d="M14 15.0001L2.00005 15.0001" stroke="currentColor" stroke-linecap="round"/>
<path fill-rule="evenodd" clip-rule="evenodd" d="M3.13862 12.3064C1.5 12 3.36834 11.7685 3.5 11.0011C4.11973 10.8356 4.5 9.99999 4.82689 9.68089L10.2552 10.6665C11.0226 10.7982 11.538 11.527 11.4063 12.2944C11.2747 13.0618 10.5458 13.5772 9.77842 13.4455L3.13862 12.3064ZM4.18459 11.0011C4.14632 11.2242 3.08463 11.2825 3.30771 11.3208L9.94751 12.4599C10.1706 12.4982 10.3825 12.3484 10.4207 12.1253C10.459 11.9022 10.3092 11.6904 10.0861 11.6521L4.6578 10.6665C4.43473 10.6282 4.22286 10.778 4.18459 11.0011Z" fill="currentColor"/>
<path d="M2.3798 11.5798C0.929606 11.331 0.337217 9.57003 1.3422 8.49533L3.25137 6.45374C3.65843 6.01843 4.26298 5.82682 4.84648 5.94817V5.94817C6.07676 6.20402 6.61876 7.65612 5.85698 8.65551L4.16251 10.8785C3.74521 11.426 3.05827 11.6962 2.3798 11.5798V11.5798Z" stroke="currentColor"/>
<rect x="6.03659" y="8.8855" width="1.81964" height="4.91449" rx="0.909821" transform="rotate(-80.2652 6.03659 8.8855)" stroke="currentColor"/>
<circle cx="7.09796" cy="4.59797" r="2.12122" transform="rotate(-75 7.09796 4.59797)" stroke="currentColor"/>
</g>
<defs>
<clipPath id="clip0_950_719">
<rect width="16" height="16" fill="white"/>
</clipPath>
</defs>
</svg>
