<svg width="16" height="16" viewBox="0 0 16 16" fill="none" xmlns="http://www.w3.org/2000/svg">
<path fill-rule="evenodd" clip-rule="evenodd" d="M4.63862 11.3064C3 11 4.86834 10.7685 5 10.0011C5.61973 9.83559 6 8.99999 6.32689 8.68089L11.7552 9.6665C12.5226 9.79815 13.038 10.527 12.9063 11.2944C12.7747 12.0618 12.0458 12.5772 11.2784 12.4455L4.63862 11.3064ZM5.68459 10.0011C5.64632 10.2242 4.58463 10.2825 4.80771 10.3208L11.4475 11.4599C11.6706 11.4982 11.8825 11.3484 11.9207 11.1253C11.959 10.9022 11.8092 10.6904 11.5861 10.6521L6.1578 9.6665C5.93473 9.62822 5.72286 9.77804 5.68459 10.0011Z" fill="currentColor"/>
<path d="M3.8798 10.5798C2.42961 10.331 1.83722 8.57003 2.8422 7.49533L4.75137 5.45374C5.15843 5.01843 5.76298 4.82682 6.34648 4.94817V4.94817C7.57676 5.20402 8.11876 6.65612 7.35698 7.65551L5.66251 9.87852C5.24521 10.426 4.55827 10.6962 3.8798 10.5798V10.5798Z" stroke="currentColor"/>
<rect x="7.53659" y="7.8855" width="1.81964" height="4.91449" rx="0.909821" transform="rotate(-80.2652 7.53659 7.8855)" stroke="currentColor"/>
<circle cx="8.59796" cy="3.59797" r="2.12122" transform="rotate(-75 8.59796 3.59797)" stroke="currentColor"/>
<path d="M14.0001 14L2.00005 14" stroke="currentColor" stroke-linecap="round"/>
</svg>
