<svg width="16" height="16" viewBox="0 0 16 16" fill="none" xmlns="http://www.w3.org/2000/svg">
<path fill-rule="evenodd" clip-rule="evenodd" d="M4.18573 13.0898C3.3573 13.0898 4.5 12.5898 5 12C5.5 11.4101 5.17157 10.0898 5.99999 10.0898H9.18572C10.0142 10.0898 10.6857 10.7614 10.6857 11.5898C10.6857 12.4183 10.0142 13.0898 9.18572 13.0898H4.18573ZM5.49999 11.5898C5.49999 11.866 4.72385 12.0898 4.99999 12.0898H9.18572C9.46187 12.0898 9.68572 11.866 9.68572 11.5898C9.68572 11.3137 9.46187 11.0898 9.18572 11.0898H5.99999C5.72385 11.0898 5.49999 11.3137 5.49999 11.5898Z" fill="currentColor"/>
<path fill-rule="evenodd" clip-rule="evenodd" d="M3.34499 13.4033C1.48296 13.4033 0.331244 11.3737 1.28613 9.77519L2.92446 7.03253C3.3434 6.33119 4.11078 5.91337 4.92721 5.94207C5.69866 5.96918 5.1211 7.92904 5.5 8.49999C5.91094 9.11924 7.23273 8.37949 6.87595 9.13688L5.51455 12.027C5.11881 12.8671 4.27364 13.4033 3.34499 13.4033ZM2.14463 10.288C1.58791 11.22 2.25938 12.4033 3.34499 12.4033C3.88641 12.4033 4.37917 12.0907 4.60989 11.6009L5.9713 8.71074C5.5 9.49999 4.60989 7.99999 4.89208 6.94145C4.43994 6.92556 4.01497 7.15695 3.78296 7.54535L2.14463 10.288Z" fill="currentColor"/>
<rect x="5" y="9" width="2" height="7" rx="1" transform="rotate(-90 5 9)" stroke="currentColor"/>
<circle cx="6.40941" cy="4.41768" r="2" transform="rotate(-84.6961 6.40941 4.41768)" stroke="currentColor"/>
<path d="M15 10H11V13" stroke="currentColor" stroke-linecap="round" stroke-linejoin="round"/>
</svg>
