<svg width="16" height="16" viewBox="0 0 16 16" fill="none" xmlns="http://www.w3.org/2000/svg">
<path d="M1 12H7V15" stroke="currentColor" stroke-linecap="round" stroke-linejoin="round"/>
<path fill-rule="evenodd" clip-rule="evenodd" d="M3.59394 2.68282C4.09434 1.39597 5.54319 0.758441 6.83003 1.25885L9.62607 2.34612C10.9129 2.84653 11.5504 4.29537 11.05 5.58222L10.8688 6.04822C10.3684 7.33506 8.91957 7.9726 7.63273 7.47219L4.83669 6.38492C3.54985 5.88451 2.91232 4.43566 3.41272 3.14882L3.59394 2.68282ZM6.46761 2.19086C5.6955 1.89062 4.82619 2.27314 4.52595 3.04524L4.34474 3.51125C4.0445 4.28335 4.42701 5.15266 5.19912 5.4529L7.99516 6.54018C8.76726 6.84042 9.63657 6.4579 9.93682 5.6858L10.118 5.21979C10.4183 4.44769 10.0358 3.57838 9.26365 3.27813L6.46761 2.19086Z" fill="currentColor"/>
<path fill-rule="evenodd" clip-rule="evenodd" d="M12.8158 5.75046C11.915 5.40018 10.9008 5.84645 10.5505 6.74724C10.2003 7.64803 10.6465 8.66222 11.5473 9.0125C12.4481 9.36279 13.4623 8.91651 13.8126 8.01573C14.1629 7.11494 13.7166 6.10074 12.8158 5.75046ZM9.61854 6.38481C10.169 4.96929 11.7627 4.268 13.1782 4.81845C14.5938 5.36889 15.2951 6.96263 14.7446 8.37815C14.1942 9.79368 12.6004 10.495 11.1849 9.94452C9.76938 9.39407 9.06809 7.80034 9.61854 6.38481Z" fill="currentColor"/>
<path fill-rule="evenodd" clip-rule="evenodd" d="M7.5 8C7.5 7.17157 8.17157 6.5 9 6.5C9.82843 6.5 10.5 7.17157 10.5 8V13C10.5 13.8284 9.82843 14.5 9 14.5C8.17157 14.5 7.5 13.8284 7.5 13V8ZM9 7.5C8.72386 7.5 8.5 7.72386 8.5 8V13C8.5 13.2761 8.72386 13.5 9 13.5C9.27614 13.5 9.5 13.2761 9.5 13V8C9.5 7.72386 9.27614 7.5 9 7.5Z" fill="currentColor"/>
<path fill-rule="evenodd" clip-rule="evenodd" d="M3.6291 5.39026C3.54612 5.57655 3.5 5.78288 3.5 5.99998V11C3.5 11.8284 4.17157 12.5 5 12.5C5.82843 12.5 6.5 11.8284 6.5 11V7.0317L5.5 6.64284V11C5.5 11.2761 5.27614 11.5 5 11.5C4.72386 11.5 4.5 11.2761 4.5 11V6.22449C4.13742 6.0174 3.8422 5.72813 3.6291 5.39026Z" fill="currentColor"/>
</svg>
