<svg width="16" height="16" viewBox="0 0 16 16" fill="none" xmlns="http://www.w3.org/2000/svg">
<path d="M6.00002 7.00006V2.00006C6.00002 1.44778 6.44774 1.00006 7.00002 1.00006V1.00006C7.55231 1.00006 8.00002 1.44778 8.00002 2.00006V5.00001" stroke="currentColor"/>
<path d="M10 7.00006V2.00006C10 1.44778 9.55228 1.00006 9 1.00006V1.00006C8.44772 1.00006 8 1.44778 8 2.00006L8 5.00001" stroke="currentColor"/>
<path fill-rule="evenodd" clip-rule="evenodd" d="M6.12582 12.6997C6.04447 12.4819 6 12.2462 6 12C6 10.8954 6.89543 9.99999 8 9.99999C9.10457 9.99999 10 10.8954 10 12C10 12.3504 9.90988 12.6798 9.75156 12.9662L10.0782 13.7821C10.386 14.5512 11.2591 14.9251 12.0282 14.6172C12.7973 14.3093 13.1712 13.4363 12.8633 12.6672L11.6926 9.74267C11.4813 9.21473 11.0036 8.87301 10.4761 8.81019C10.4919 8.70912 10.5 8.60553 10.5 8.50004L10.5 6.50004C10.5 5.39547 9.60459 4.50004 8.50002 4.50004L7.50002 4.50004C6.39545 4.50004 5.50002 5.39547 5.50002 6.50004L5.50002 8.50004C5.50002 8.60217 5.50768 8.70251 5.52244 8.80052C4.90857 8.77937 4.31956 9.13946 4.07813 9.74259L2.90744 12.6671C2.59957 13.4362 2.97347 14.3093 3.74257 14.6171C4.51166 14.925 5.38472 14.5511 5.69258 13.782L6.12582 12.6997ZM9.83586 10.4859C9.73324 10.2296 9.85787 9.93854 10.1142 9.83592C10.3706 9.7333 10.6616 9.85793 10.7642 10.1143L11.9349 13.0388C12.0376 13.2952 11.9129 13.5862 11.6566 13.6888C11.4002 13.7915 11.1092 13.6668 11.0065 13.4105L9.83586 10.4859ZM5.93489 10.4859C6.03751 10.2295 5.91288 9.93847 5.65652 9.83585C5.40015 9.73322 5.10913 9.85786 5.00651 10.1142L3.83582 13.0387C3.7332 13.2951 3.85783 13.5861 4.1142 13.6888C4.37056 13.7914 4.66158 13.6667 4.7642 13.4104L5.93489 10.4859ZM9.50002 6.50004C9.50002 5.94775 9.05231 5.50004 8.50002 5.50004L7.50002 5.50004C6.94774 5.50004 6.50002 5.94775 6.50002 6.50004L6.50002 8.50004C6.50002 9.05232 6.94774 9.50004 7.50002 9.50004L8.50002 9.50004C9.05231 9.50004 9.50002 9.05232 9.50002 8.50004L9.50002 6.50004Z" fill="currentColor"/>
<circle cx="7.93484" cy="11.7661" r="2" transform="rotate(-180 7.93484 11.7661)" stroke="currentColor"/>
<path d="M14.0001 14.5247L2.00006 14.5247" stroke="currentColor" stroke-linecap="round"/>
</svg>
