<svg width="16" height="16" viewBox="0 0 16 16" fill="none" xmlns="http://www.w3.org/2000/svg">
<mask id="mask0_559_8557" style="mask-type:alpha" maskUnits="userSpaceOnUse" x="0" y="0" width="16" height="16">
<rect width="16" height="16" fill="#D9D9D9"/>
</mask>
<g mask="url(#mask0_559_8557)">
<path d="M8.00016 12.6666C7.81127 12.6666 7.65294 12.6028 7.52516 12.475C7.39738 12.3472 7.3335 12.1889 7.3335 12V8.66665H4.00016C3.81127 8.66665 3.65294 8.60276 3.52516 8.47498C3.39738 8.3472 3.3335 8.18887 3.3335 7.99998C3.3335 7.81109 3.39738 7.65276 3.52516 7.52498C3.65294 7.3972 3.81127 7.33331 4.00016 7.33331H7.3335V3.99998C7.3335 3.81109 7.39738 3.65276 7.52516 3.52498C7.65294 3.3972 7.81127 3.33331 8.00016 3.33331C8.18905 3.33331 8.34738 3.3972 8.47516 3.52498C8.60294 3.65276 8.66683 3.81109 8.66683 3.99998V7.33331H12.0002C12.1891 7.33331 12.3474 7.3972 12.4752 7.52498C12.6029 7.65276 12.6668 7.81109 12.6668 7.99998C12.6668 8.18887 12.6029 8.3472 12.4752 8.47498C12.3474 8.60276 12.1891 8.66665 12.0002 8.66665H8.66683V12C8.66683 12.1889 8.60294 12.3472 8.47516 12.475C8.34738 12.6028 8.18905 12.6666 8.00016 12.6666Z" fill="#9395A6"/>
</g>
</svg>
