<svg width="17" height="16" viewBox="0 0 17 16" fill="none" xmlns="http://www.w3.org/2000/svg">
<mask id="mask0_262_9901" style="mask-type:alpha" maskUnits="userSpaceOnUse" x="0" y="0" width="17" height="16">
<rect x="0.5" width="16" height="16" fill="#D9D9D9"/>
</mask>
<g mask="url(#mask0_262_9901)">
<path d="M9.24195 8.38114V6.07535C9.24195 5.86761 9.17022 5.69201 9.02674 5.54853C8.88326 5.40505 8.70765 5.33331 8.49992 5.33331C8.29219 5.33331 8.11658 5.40505 7.9731 5.54853C7.82963 5.69201 7.75789 5.86761 7.75789 6.07535V8.64056C7.75789 8.76085 7.77926 8.87365 7.82202 8.97896C7.86478 9.08428 7.92891 9.17969 8.01442 9.26519L9.76804 11.0188C9.90909 11.1599 10.0851 11.2288 10.2959 11.2257C10.5068 11.2226 10.6828 11.1505 10.8238 11.0094C10.9649 10.8683 11.0354 10.6924 11.0354 10.4815C11.0354 10.2706 10.9649 10.0947 10.8238 9.95359L9.24195 8.38114ZM8.49992 14.9869C7.62891 14.9869 6.8091 14.8208 6.04049 14.4884C5.27189 14.156 4.60244 13.7047 4.03215 13.1344C3.46187 12.5641 3.01054 11.8947 2.67817 11.1261C2.3458 10.3575 2.17962 9.53766 2.17962 8.66664C2.17962 7.79563 2.3458 6.97582 2.67817 6.20721C3.01054 5.43861 3.46187 4.76917 4.03215 4.19888C4.60244 3.62859 5.27189 3.17726 6.04049 2.84489C6.8091 2.51253 7.62891 2.34634 8.49992 2.34634C9.37093 2.34634 10.1907 2.51253 10.9594 2.84489C11.728 3.17726 12.3974 3.62859 12.9677 4.19888C13.538 4.76917 13.9893 5.43861 14.3217 6.20721C14.654 6.97582 14.8202 7.79563 14.8202 8.66664C14.8202 9.53766 14.654 10.3575 14.3217 11.1261C13.9893 11.8947 13.538 12.5641 12.9677 13.1344C12.3974 13.7047 11.728 14.156 10.9594 14.4884C10.1907 14.8208 9.37093 14.9869 8.49992 14.9869ZM1.51802 4.78186C1.37695 4.64079 1.30799 4.46639 1.31114 4.25866C1.31427 4.05094 1.38637 3.87654 1.52744 3.73548L3.57817 1.68474C3.71924 1.54368 3.89207 1.47314 4.09665 1.47314C4.30124 1.47314 4.47407 1.54368 4.61514 1.68474C4.7562 1.82581 4.82674 2.00021 4.82674 2.20793C4.82674 2.41566 4.7562 2.59006 4.61514 2.73113L2.5644 4.78186C2.42334 4.92293 2.24894 4.99346 2.0412 4.99346C1.83348 4.99346 1.65909 4.92293 1.51802 4.78186ZM15.4818 4.78186C15.3408 4.92293 15.1664 4.99346 14.9586 4.99346C14.7509 4.99346 14.5765 4.92293 14.4354 4.78186L12.3847 2.73113C12.2436 2.59006 12.1731 2.41566 12.1731 2.20793C12.1731 2.00021 12.2436 1.82581 12.3847 1.68474C12.5258 1.54368 12.7002 1.47472 12.9079 1.47786C13.1156 1.48099 13.29 1.55309 13.4311 1.69416L15.4818 3.74489C15.6229 3.88596 15.6934 4.05879 15.6934 4.26338C15.6934 4.46797 15.6229 4.64079 15.4818 4.78186ZM8.49992 13.2203C9.76852 13.2203 10.8446 12.7785 11.7282 11.8949C12.6117 11.0113 13.0535 9.93524 13.0535 8.66664C13.0535 7.39804 12.6117 6.32196 11.7282 5.43839C10.8446 4.55482 9.76852 4.11303 8.49992 4.11303C7.23132 4.11303 6.15524 4.55482 5.27167 5.43839C4.38809 6.32196 3.9463 7.39804 3.9463 8.66664C3.9463 9.93524 4.38809 11.0113 5.27167 11.8949C6.15524 12.7785 7.23132 13.2203 8.49992 13.2203Z" fill="#6B77F8"/>
</g>
</svg>
