<svg width="current" height="current" viewBox="0 0 24 24" fill="none" xmlns="http://www.w3.org/2000/svg">
  <mask id="a" style="mask-type:alpha" maskUnits="userSpaceOnUse" x="0" y="0" width="24" height="24">
    <path fill="#737C89" d="M0 0h24v24H0z"/>
  </mask>
  <g mask="url(#a)">
    <path d="m11.3 14.3-2.6-2.6c-.317-.317-.388-.68-.213-1.087.175-.409.488-.613.938-.613h5.15c.45 0 .763.204.938.613.175.408.104.77-.213 1.087l-2.6 2.6c-.1.1-.208.175-.325.225A.942.942 0 0 1 12 14.6a.941.941 0 0 1-.375-.075 1.038 1.038 0 0 1-.325-.225Z" fill="currentColor"/>
  </g>
</svg>
