<svg width="current" height="current" viewBox="0 0 24 24" fill="currentColor" xmlns="http://www.w3.org/2000/svg">
  <mask id="a" style="mask-type:alpha" maskUnits="userSpaceOnUse" x="0" y="0" width="24" height="24">
    <path fill="#D9D9D9" d="M0 0h24v24H0z"/>
  </mask>
  <g mask="url(#a)">
    <path d="M9.425 14c-.45 0-.763-.204-.938-.613-.175-.408-.104-.77.213-1.087l2.6-2.6c.1-.1.208-.175.325-.225A.941.941 0 0 1 12 9.4c.133 0 .258.025.375.075.117.05.225.125.325.225l2.6 2.6c.317.317.387.68.212 1.087-.175.409-.487.613-.937.613h-5.15Z" fill="currentColor"/>
  </g>
</svg>
