<svg width="14" height="21" viewBox="0 0 14 21" fill="none" xmlns="http://www.w3.org/2000/svg">
<path d="M7.00005 20.3251C6.63194 20.3251 6.31907 20.1963 6.06145 19.9387C5.80384 19.6811 5.67503 19.3682 5.67503 19.0001V4.5882L2.29788 7.95447C2.04861 8.20376 1.74173 8.33022 1.37723 8.33385C1.01273 8.33747 0.702219 8.21101 0.445702 7.95447C0.196419 7.70521 0.0717773 7.39651 0.0717773 7.02837C0.0717773 6.66026 0.196419 6.35157 0.445702 6.1023L6.07395 0.474023C6.21164 0.336339 6.35765 0.239598 6.512 0.183798C6.66635 0.127998 6.82904 0.100098 7.00005 0.100098C7.17107 0.100098 7.33375 0.127998 7.4881 0.183798C7.64245 0.239598 7.78847 0.336339 7.92615 0.474023L13.5544 6.1023C13.8037 6.35157 13.9283 6.65845 13.9283 7.02295C13.9283 7.38745 13.8037 7.69796 13.5544 7.95447C13.2979 8.21101 12.9874 8.33927 12.6229 8.33927C12.2584 8.33927 11.9479 8.21101 11.6914 7.95447L8.32508 4.5882V19.0001C8.32508 19.3682 8.19627 19.6811 7.93865 19.9387C7.68104 20.1963 7.36817 20.3251 7.00005 20.3251Z" fill="#6B77F8"/>
</svg>
