<svg width="16" height="16" viewBox="0 0 16 16" fill="none" xmlns="http://www.w3.org/2000/svg">
<mask id="mask0_559_6414" style="mask-type:alpha" maskUnits="userSpaceOnUse" x="0" y="0" width="16" height="16">
<rect width="16" height="16" transform="matrix(1 0 0 -1 0 16)" fill="#D9D9D9"/>
</mask>
<g mask="url(#mask0_559_6414)">
<path d="M6.28348 6.66673C5.98348 6.66673 5.77515 6.80284 5.65848 7.07507C5.54181 7.34729 5.58904 7.58895 5.80015 7.80006L7.53348 9.5334C7.60015 9.60007 7.67237 9.65007 7.75015 9.6834C7.82792 9.71673 7.91126 9.7334 8.00015 9.7334C8.08904 9.7334 8.17237 9.71673 8.25015 9.6834C8.32792 9.65007 8.40015 9.60007 8.46681 9.5334L10.2001 7.80006C10.4113 7.58895 10.4585 7.34729 10.3418 7.07507C10.2251 6.80284 10.0168 6.66673 9.71681 6.66673H6.28348Z" fill="#45BFD9"/>
</g>
</svg>
