<svg width="17" height="16" viewBox="0 0 17 16" fill="none" xmlns="http://www.w3.org/2000/svg">
<mask id="mask0_559_6514" style="mask-type:alpha" maskUnits="userSpaceOnUse" x="0" y="0" width="17" height="16">
<rect x="0.5" width="16" height="16" fill="#D9D9D9"/>
</mask>
<g mask="url(#mask0_559_6514)">
<path d="M6.78348 11.0667C6.48348 11.0667 6.27515 10.9306 6.15848 10.6583C6.04181 10.3861 6.08904 10.1444 6.30015 9.93333L8.03348 8.2C8.10015 8.13333 8.17237 8.08333 8.25015 8.05C8.32792 8.01667 8.41126 8 8.50015 8C8.58904 8 8.67237 8.01667 8.75015 8.05C8.82792 8.08333 8.90015 8.13333 8.96681 8.2L10.7001 9.93333C10.9113 10.1444 10.9585 10.3861 10.8418 10.6583C10.7251 10.9306 10.5168 11.0667 10.2168 11.0667H6.78348Z" fill="#FF4444"/>
<path d="M6.78348 7.06667C6.48348 7.06667 6.27515 6.93056 6.15848 6.65833C6.04181 6.38611 6.08904 6.14444 6.30015 5.93333L8.03348 4.2C8.10015 4.13333 8.17237 4.08333 8.25015 4.05C8.32792 4.01667 8.41126 4 8.50015 4C8.58904 4 8.67237 4.01667 8.75015 4.05C8.82792 4.08333 8.90015 4.13333 8.96681 4.2L10.7001 5.93333C10.9113 6.14444 10.9585 6.38611 10.8418 6.65833C10.7251 6.93056 10.5168 7.06667 10.2168 7.06667H6.78348Z" fill="#FF4444"/>
</g>
</svg>
