<svg width="6" height="10" viewBox="0 0 6 10" fill="none" xmlns="http://www.w3.org/2000/svg">
<path d="M0.250163 9.41663C0.097385 9.26385 0.0209961 9.0694 0.0209961 8.83329C0.0209961 8.59718 0.097385 8.40274 0.250163 8.24996L3.50016 4.99996L0.250163 1.74996C0.097385 1.59718 0.0209961 1.40274 0.0209961 1.16663C0.0209961 0.930515 0.097385 0.73607 0.250163 0.583293C0.402941 0.430515 0.597385 0.354126 0.833496 0.354126C1.06961 0.354126 1.26405 0.430515 1.41683 0.583293L5.25016 4.41663C5.3335 4.49996 5.39252 4.59024 5.42725 4.68746C5.46197 4.78468 5.47933 4.88885 5.47933 4.99996C5.47933 5.11107 5.46197 5.21524 5.42725 5.31246C5.39252 5.40968 5.3335 5.49996 5.25016 5.58329L1.41683 9.41663C1.26405 9.5694 1.06961 9.64579 0.833496 9.64579C0.597385 9.64579 0.402941 9.5694 0.250163 9.41663Z" fill="#626474"/>
</svg>
