<svg width="10" height="6" viewBox="0 0 10 6" fill="none" xmlns="http://www.w3.org/2000/svg">
<path d="M5.00045 5.78952C4.88934 5.78952 4.78518 5.77215 4.68795 5.73743C4.59073 5.70271 4.50045 5.64368 4.41712 5.56035L0.562953 1.70618C0.410175 1.5534 0.337258 1.36243 0.344203 1.13327C0.351147 0.904099 0.431008 0.713127 0.583786 0.560349C0.736564 0.407571 0.931009 0.331182 1.16712 0.331182C1.40323 0.331182 1.59768 0.407571 1.75045 0.560349L5.00045 3.81035L8.27129 0.539515C8.42406 0.386738 8.61504 0.313821 8.8442 0.320765C9.07337 0.32771 9.26434 0.407571 9.41712 0.560349C9.5699 0.713127 9.64629 0.907571 9.64629 1.14368C9.64629 1.37979 9.5699 1.57424 9.41712 1.72702L5.58379 5.56035C5.50045 5.64368 5.41018 5.70271 5.31295 5.73743C5.21573 5.77215 5.11156 5.78952 5.00045 5.78952Z" fill="#626474"/>
</svg>
