<svg width="17" height="16" viewBox="0 0 17 16" fill="none" xmlns="http://www.w3.org/2000/svg">
<mask id="mask0_559_6508" style="mask-type:alpha" maskUnits="userSpaceOnUse" x="0" y="0" width="17" height="16">
<rect width="16" height="16" transform="matrix(1 0 0 -1 0.5 16)" fill="#D9D9D9"/>
</mask>
<g mask="url(#mask0_559_6508)">
<path d="M6.68729 3.99998C6.38729 3.99998 6.17895 4.13609 6.06229 4.40832C5.94562 4.68054 5.99284 4.92221 6.20395 5.13332L7.93729 6.86665C8.00395 6.93332 8.07618 6.98332 8.15395 7.01665C8.23173 7.04998 8.31507 7.06665 8.40395 7.06665C8.49284 7.06665 8.57618 7.04998 8.65395 7.01665C8.73173 6.98332 8.80396 6.93332 8.87062 6.86665L10.604 5.13332C10.8151 4.92221 10.8623 4.68054 10.7456 4.40832C10.629 4.13609 10.4206 3.99998 10.1206 3.99998H6.68729Z" fill="#45BFD9"/>
<path d="M6.68729 7.99998C6.38729 7.99998 6.17895 8.13609 6.06229 8.40832C5.94562 8.68054 5.99284 8.92221 6.20395 9.13332L7.93729 10.8667C8.00395 10.9333 8.07618 10.9833 8.15395 11.0167C8.23173 11.05 8.31507 11.0667 8.40395 11.0667C8.49284 11.0667 8.57618 11.05 8.65395 11.0167C8.73173 10.9833 8.80396 10.9333 8.87062 10.8667L10.604 9.13332C10.8151 8.92221 10.8623 8.68054 10.7456 8.40832C10.629 8.13609 10.4206 7.99998 10.1206 7.99998H6.68729Z" fill="#45BFD9"/>
</g>
</svg>
