<svg width="16" height="16" viewBox="0 0 16 16" fill="none" xmlns="http://www.w3.org/2000/svg">
<mask id="mask0_559_6626" style="mask-type:alpha" maskUnits="userSpaceOnUse" x="0" y="0" width="16" height="16">
<rect width="16" height="16" fill="#D9D9D9"/>
</mask>
<g mask="url(#mask0_559_6626)">
<path d="M6.28348 9.33327C5.98348 9.33327 5.77515 9.19716 5.65848 8.92493C5.54181 8.65271 5.58904 8.41105 5.80015 8.19993L7.53348 6.4666C7.60015 6.39993 7.67237 6.34993 7.75015 6.3166C7.82792 6.28327 7.91126 6.2666 8.00015 6.2666C8.08904 6.2666 8.17237 6.28327 8.25015 6.3166C8.32792 6.34993 8.40015 6.39993 8.46681 6.4666L10.2001 8.19993C10.4113 8.41105 10.4585 8.65271 10.3418 8.92493C10.2251 9.19716 10.0168 9.33327 9.71681 9.33327H6.28348Z" fill="#FF4444"/>
</g>
</svg>
