<svg width="129" height="128" viewBox="0 0 129 128" fill="none" xmlns="http://www.w3.org/2000/svg">
<mask id="mask0_262_8465" style="mask-type:alpha" maskUnits="userSpaceOnUse" x="0" y="0" width="129" height="128">
<rect x="0.5" width="128" height="128" fill="#D9D9D9"/>
</mask>
<g mask="url(#mask0_262_8465)">
<path d="M63.4334 69.3334H80.5001C82.0112 69.3334 83.2779 68.8222 84.3001 67.8C85.3223 66.7778 85.8334 65.5111 85.8334 64C85.8334 62.4889 85.3223 61.2222 84.3001 60.2C83.2779 59.1778 82.0112 58.6667 80.5001 58.6667H63.4334L68.2334 53.8667C69.2112 52.8889 69.7001 51.6445 69.7001 50.1334C69.7001 48.6222 69.2112 47.3778 68.2334 46.4C67.2556 45.4222 66.0112 44.9334 64.5001 44.9334C62.989 44.9334 61.7445 45.4222 60.7667 46.4L46.9001 60.2667C45.8334 61.3334 45.3001 62.5778 45.3001 64C45.3001 65.4222 45.8334 66.6667 46.9001 67.7333L60.7667 81.6C61.7445 82.5778 62.989 83.0667 64.5001 83.0667C66.0112 83.0667 67.2556 82.5778 68.2334 81.6C69.2112 80.6222 69.7001 79.3778 69.7001 77.8667C69.7001 76.3556 69.2112 75.1111 68.2334 74.1334L63.4334 69.3334ZM64.5001 117.333C57.1223 117.333 50.189 115.933 43.7001 113.133C37.2112 110.333 31.5667 106.533 26.7667 101.733C21.9667 96.9333 18.1667 91.2889 15.3667 84.8C12.5667 78.3111 11.1667 71.3778 11.1667 64C11.1667 56.6222 12.5667 49.6889 15.3667 43.2C18.1667 36.7111 21.9667 31.0667 26.7667 26.2667C31.5667 21.4667 37.2112 17.6667 43.7001 14.8667C50.189 12.0667 57.1223 10.6667 64.5001 10.6667C71.8779 10.6667 78.8112 12.0667 85.3001 14.8667C91.789 17.6667 97.4334 21.4667 102.233 26.2667C107.033 31.0667 110.833 36.7111 113.633 43.2C116.433 49.6889 117.833 56.6222 117.833 64C117.833 71.3778 116.433 78.3111 113.633 84.8C110.833 91.2889 107.033 96.9333 102.233 101.733C97.4334 106.533 91.789 110.333 85.3001 113.133C78.8112 115.933 71.8779 117.333 64.5001 117.333ZM64.5001 106.667C76.4112 106.667 86.5001 102.533 94.7667 94.2667C103.033 86 107.167 75.9111 107.167 64C107.167 52.0889 103.033 42 94.7667 33.7334C86.5001 25.4667 76.4112 21.3334 64.5001 21.3334C52.589 21.3334 42.5001 25.4667 34.2334 33.7334C25.9667 42 21.8334 52.0889 21.8334 64C21.8334 75.9111 25.9667 86 34.2334 94.2667C42.5001 102.533 52.589 106.667 64.5001 106.667Z" fill="#E4E6F0"/>
</g>
</svg>
