<svg width="20" height="20" viewBox="0 0 20 20" fill="none" xmlns="http://www.w3.org/2000/svg">
<mask id="mask0_154_1527" style="mask-type:alpha" maskUnits="userSpaceOnUse" x="0" y="0" width="20" height="20">
<rect width="20" height="20" fill="#D9D9D9"/>
</mask>
<g mask="url(#mask0_154_1527)">
<path d="M7.25065 14.416C7.09787 14.2632 7.02148 14.0688 7.02148 13.8327C7.02148 13.5966 7.09787 13.4021 7.25065 13.2493L10.5007 9.99935L7.25065 6.74935C7.09787 6.59657 7.02148 6.40213 7.02148 6.16602C7.02148 5.9299 7.09787 5.73546 7.25065 5.58268C7.40343 5.4299 7.59787 5.35352 7.83398 5.35352C8.0701 5.35352 8.26454 5.4299 8.41732 5.58268L12.2507 9.41602C12.334 9.49935 12.393 9.58963 12.4277 9.68685C12.4625 9.78407 12.4798 9.88824 12.4798 9.99935C12.4798 10.1105 12.4625 10.2146 12.4277 10.3118C12.393 10.4091 12.334 10.4993 12.2507 10.5827L8.41732 14.416C8.26454 14.5688 8.0701 14.6452 7.83398 14.6452C7.59787 14.6452 7.40343 14.5688 7.25065 14.416Z" fill="white"/>
</g>
</svg>
