<svg width="current" height="current" viewBox="0 0 20 21" fill="none" xmlns="http://www.w3.org/2000/svg">
  <mask id="a" style="mask-type:alpha" maskUnits="userSpaceOnUse" x="0" y="0" width="20" height="20">
    <path fill="currentColor" d="M0 .5h20v20H0z"/>
  </mask>
  <g mask="url(#a)">
    <path d="M6.5 15c-1.255 0-2.318-.434-3.19-1.302C2.435 12.83 2 11.76 2 10.49c0-1.271.458-2.337 1.375-3.198C4.292 6.43 5.382 6 6.645 6h8.105c.903 0 1.67.316 2.302.948.632.632.948 1.4.948 2.302 0 .93-.337 1.705-1.01 2.323a3.412 3.412 0 0 1-2.386.927H7.001c-.56 0-1.034-.193-1.42-.58A1.93 1.93 0 0 1 5 10.5c0-.583.208-1.063.625-1.438A2.112 2.112 0 0 1 7.083 8.5H15V10H7a.485.485 0 0 0-.356.143.48.48 0 0 0-.144.354c0 .14.048.26.144.357A.48.48 0 0 0 7 11h7.75c.49 0 .904-.169 1.242-.506.339-.338.508-.751.508-1.24s-.173-.903-.52-1.244c-.346-.34-.77-.51-1.272-.51H6.5c-.833 0-1.538.292-2.115.875A2.986 2.986 0 0 0 3.5 10.5c-.014.847.292 1.559.917 2.135.625.577 1.354.865 2.187.865H15V15H6.5Z" fill="currentColor"/>
  </g>
</svg>
