<svg width="12" height="12" viewBox="0 0 12 12" fill="none" xmlns="http://www.w3.org/2000/svg">
<mask id="mask0_262_7822" style="mask-type:alpha" maskUnits="userSpaceOnUse" x="0" y="0" width="12" height="12">
<rect width="12" height="12" fill="#D9D9D9"/>
</mask>
<g mask="url(#mask0_262_7822)">
<path d="M1.5 10.5C1.35833 10.5 1.23958 10.4521 1.14375 10.3562C1.04792 10.2604 1 10.1417 1 10C1 9.85833 1.04792 9.73958 1.14375 9.64375C1.23958 9.54792 1.35833 9.5 1.5 9.5H10.5C10.6417 9.5 10.7604 9.54792 10.8562 9.64375C10.9521 9.73958 11 9.85833 11 10C11 10.1417 10.9521 10.2604 10.8562 10.3562C10.7604 10.4521 10.6417 10.5 10.5 10.5H1.5ZM2.25 9C2.04167 9 1.86458 8.92708 1.71875 8.78125C1.57292 8.63542 1.5 8.45833 1.5 8.25V6.25C1.5 6.04167 1.57292 5.86458 1.71875 5.71875C1.86458 5.57292 2.04167 5.5 2.25 5.5C2.45833 5.5 2.63542 5.57292 2.78125 5.71875C2.92708 5.86458 3 6.04167 3 6.25V8.25C3 8.45833 2.92708 8.63542 2.78125 8.78125C2.63542 8.92708 2.45833 9 2.25 9ZM4.75 9C4.54167 9 4.36458 8.92708 4.21875 8.78125C4.07292 8.63542 4 8.45833 4 8.25V3.75C4 3.54167 4.07292 3.36458 4.21875 3.21875C4.36458 3.07292 4.54167 3 4.75 3C4.95833 3 5.13542 3.07292 5.28125 3.21875C5.42708 3.36458 5.5 3.54167 5.5 3.75V8.25C5.5 8.45833 5.42708 8.63542 5.28125 8.78125C5.13542 8.92708 4.95833 9 4.75 9ZM7.25 9C7.04167 9 6.86458 8.92708 6.71875 8.78125C6.57292 8.63542 6.5 8.45833 6.5 8.25V5.25C6.5 5.04167 6.57292 4.86458 6.71875 4.71875C6.86458 4.57292 7.04167 4.5 7.25 4.5C7.45833 4.5 7.63542 4.57292 7.78125 4.71875C7.92708 4.86458 8 5.04167 8 5.25V8.25C8 8.45833 7.92708 8.63542 7.78125 8.78125C7.63542 8.92708 7.45833 9 7.25 9ZM9.75 9C9.54167 9 9.36458 8.92708 9.21875 8.78125C9.07292 8.63542 9 8.45833 9 8.25V2.25C9 2.04167 9.07292 1.86458 9.21875 1.71875C9.36458 1.57292 9.54167 1.5 9.75 1.5C9.95833 1.5 10.1354 1.57292 10.2812 1.71875C10.4271 1.86458 10.5 2.04167 10.5 2.25V8.25C10.5 8.45833 10.4271 8.63542 10.2812 8.78125C10.1354 8.92708 9.95833 9 9.75 9Z" fill="#45BFD9"/>
</g>
</svg>
