<svg width="20" height="21" viewBox="0 0 20 21" fill="none" xmlns="http://www.w3.org/2000/svg">
<mask id="mask0_733_2732" style="mask-type:alpha" maskUnits="userSpaceOnUse" x="0" y="0" width="20" height="21">
<rect y="0.00585938" width="20" height="20" fill="#D9D9D9"/>
</mask>
<g mask="url(#mask0_733_2732)">
<path d="M10.834 14.2148C11.4451 13.9232 12.0597 13.7044 12.6777 13.5586C13.2958 13.4128 13.9312 13.3398 14.584 13.3398C15.084 13.3398 15.5736 13.3815 16.0527 13.4648C16.5319 13.5482 17.0145 13.6732 17.5007 13.8398V5.58984C17.0423 5.3954 16.5666 5.24957 16.0736 5.15234C15.5805 5.05512 15.084 5.00651 14.584 5.00651C13.9312 5.00651 13.2854 5.08984 12.6465 5.25651C12.0076 5.42318 11.4034 5.67318 10.834 6.00651V14.2148ZM10.0007 16.2357C9.80621 16.2357 9.62218 16.2114 9.44857 16.1628C9.27496 16.1142 9.11176 16.0482 8.95898 15.9648C8.41732 15.6454 7.84787 15.4058 7.25065 15.2461C6.65343 15.0864 6.04232 15.0065 5.41732 15.0065C4.83398 15.0065 4.26107 15.0829 3.69857 15.2357C3.13607 15.3885 2.59787 15.6037 2.08398 15.8815C1.79232 16.0343 1.51107 16.0273 1.24023 15.8607C0.969401 15.694 0.833984 15.451 0.833984 15.1315V5.08984C0.833984 4.93707 0.872179 4.79123 0.948568 4.65234C1.02496 4.51345 1.13954 4.40929 1.29232 4.33984C1.9451 4.0204 2.61523 3.77387 3.30273 3.60026C3.99023 3.42665 4.6951 3.33984 5.41732 3.33984C6.22287 3.33984 7.01107 3.44401 7.7819 3.65234C8.55274 3.86068 9.29232 4.17318 10.0007 4.58984C10.709 4.17318 11.4486 3.86068 12.2194 3.65234C12.9902 3.44401 13.7784 3.33984 14.584 3.33984C15.3062 3.33984 16.0111 3.42665 16.6986 3.60026C17.3861 3.77387 18.0562 4.0204 18.709 4.33984C18.8618 4.40929 18.9763 4.51345 19.0527 4.65234C19.1291 4.79123 19.1673 4.93707 19.1673 5.08984V15.1315C19.1673 15.451 19.0319 15.694 18.7611 15.8607C18.4902 16.0273 18.209 16.0343 17.9173 15.8815C17.4034 15.6037 16.8652 15.3885 16.3027 15.2357C15.7402 15.0829 15.1673 15.0065 14.584 15.0065C13.959 15.0065 13.3479 15.0864 12.7507 15.2461C12.1534 15.4058 11.584 15.6454 11.0423 15.9648C10.8895 16.0482 10.7263 16.1142 10.5527 16.1628C10.3791 16.2114 10.1951 16.2357 10.0007 16.2357Z" fill="#9395A6"/>
</g>
</svg>
