<svg width="32" height="32" viewBox="0 0 32 32" fill="none" xmlns="http://www.w3.org/2000/svg">
<mask id="mask0_262_7250" style="mask-type:alpha" maskUnits="userSpaceOnUse" x="0" y="0" width="32" height="32">
<rect width="32" height="32" fill="#D9D9D9"/>
</mask>
<g mask="url(#mask0_262_7250)">
<path d="M9.33322 23.9331L15.9999 21.0665L22.6666 23.9331V7.07677C22.6666 6.97419 22.6238 6.88016 22.5384 6.79467C22.4529 6.7092 22.3588 6.66647 22.2563 6.66647H9.74352C9.64094 6.66647 9.54691 6.7092 9.46142 6.79467C9.37595 6.88016 9.33322 6.97419 9.33322 7.07677V23.9331ZM9.02042 26.2767C8.61873 26.4459 8.23712 26.4134 7.87558 26.1792C7.51403 25.945 7.33325 25.6049 7.33325 25.1587V7.07677C7.33325 6.40326 7.56659 5.83317 8.03325 5.3665C8.49992 4.89984 9.07001 4.6665 9.74352 4.6665H22.2563C22.9298 4.6665 23.4999 4.89984 23.9665 5.3665C24.4332 5.83317 24.6665 6.40326 24.6665 7.07677V25.1587C24.6665 25.6049 24.4857 25.945 24.1242 26.1792C23.7627 26.4134 23.381 26.4459 22.9794 26.2767L15.9999 23.2818L9.02042 26.2767Z" fill="#9395A6"/>
</g>
</svg>
