<svg width="20" height="20" viewBox="0 0 20 20" fill="none" xmlns="http://www.w3.org/2000/svg">
<mask id="mask0_674_3376" style="mask-type:alpha" maskUnits="userSpaceOnUse" x="0" y="0" width="20" height="20">
<rect width="20" height="20" fill="#D9D9D9"/>
</mask>
<g mask="url(#mask0_674_3376)">
<path d="M10.8335 14.2083C11.4446 13.9166 12.0592 13.6979 12.6772 13.5521C13.2953 13.4062 13.9307 13.3333 14.5835 13.3333C15.0835 13.3333 15.5731 13.375 16.0522 13.4583C16.5314 13.5416 17.0141 13.6666 17.5002 13.8333V5.58331C17.0418 5.38887 16.5661 5.24304 16.0731 5.14581C15.58 5.04859 15.0835 4.99998 14.5835 4.99998C13.9307 4.99998 13.2849 5.08331 12.646 5.24998C12.0071 5.41665 11.4029 5.66665 10.8335 5.99998V14.2083ZM10.0002 16.2291C9.80572 16.2291 9.62169 16.2048 9.44808 16.1562C9.27447 16.1076 9.11127 16.0416 8.9585 15.9583C8.41683 15.6389 7.84739 15.3993 7.25016 15.2396C6.65294 15.0798 6.04183 15 5.41683 15C4.8335 15 4.26058 15.0764 3.69808 15.2291C3.13558 15.3819 2.59739 15.5972 2.0835 15.875C1.79183 16.0278 1.51058 16.0208 1.23975 15.8541C0.968913 15.6875 0.833496 15.4444 0.833496 15.125V5.08331C0.833496 4.93054 0.871691 4.7847 0.948079 4.64581C1.02447 4.50692 1.13905 4.40276 1.29183 4.33331C1.94461 4.01387 2.61475 3.76734 3.30225 3.59373C3.98975 3.42012 4.69461 3.33331 5.41683 3.33331C6.22239 3.33331 7.01058 3.43748 7.78141 3.64581C8.55225 3.85415 9.29183 4.16665 10.0002 4.58331C10.7085 4.16665 11.4481 3.85415 12.2189 3.64581C12.9897 3.43748 13.7779 3.33331 14.5835 3.33331C15.3057 3.33331 16.0106 3.42012 16.6981 3.59373C17.3856 3.76734 18.0557 4.01387 18.7085 4.33331C18.8613 4.40276 18.9759 4.50692 19.0522 4.64581C19.1286 4.7847 19.1668 4.93054 19.1668 5.08331V15.125C19.1668 15.4444 19.0314 15.6875 18.7606 15.8541C18.4897 16.0208 18.2085 16.0278 17.9168 15.875C17.4029 15.5972 16.8647 15.3819 16.3022 15.2291C15.7397 15.0764 15.1668 15 14.5835 15C13.9585 15 13.3474 15.0798 12.7502 15.2396C12.1529 15.3993 11.5835 15.6389 11.0418 15.9583C10.8891 16.0416 10.7259 16.1076 10.5522 16.1562C10.3786 16.2048 10.1946 16.2291 10.0002 16.2291Z" fill="#60C8DE"/>
</g>
</svg>
