<svg width="current" height="current" viewBox="0 0 20 21" fill="currentColor" xmlns="http://www.w3.org/2000/svg">
<g id="calendar_month">
<mask id="mask0_625_6860" style="mask-type:alpha" maskUnits="userSpaceOnUse" x="0" y="0" width="20" height="21">
<rect id="Bounding box" y="0.5" width="20" height="20" fill="#D9D9D9"/>
</mask>
<g mask="url(#mask0_625_6860)">
<path id="calendar_month_2" d="M4.16667 18.8333C3.70833 18.8333 3.31597 18.6701 2.98958 18.3437C2.66319 18.0174 2.5 17.625 2.5 17.1667V5.49999C2.5 5.04166 2.66319 4.6493 2.98958 4.32291C3.31597 3.99652 3.70833 3.83332 4.16667 3.83332H5V2.99999C5 2.76388 5.07986 2.56596 5.23958 2.40624C5.39931 2.24652 5.59722 2.16666 5.83333 2.16666C6.06944 2.16666 6.26736 2.24652 6.42708 2.40624C6.58681 2.56596 6.66667 2.76388 6.66667 2.99999V3.83332H13.3333V2.99999C13.3333 2.76388 13.4132 2.56596 13.5729 2.40624C13.7326 2.24652 13.9306 2.16666 14.1667 2.16666C14.4028 2.16666 14.6007 2.24652 14.7604 2.40624C14.9201 2.56596 15 2.76388 15 2.99999V3.83332H15.8333C16.2917 3.83332 16.684 3.99652 17.0104 4.32291C17.3368 4.6493 17.5 5.04166 17.5 5.49999V17.1667C17.5 17.625 17.3368 18.0174 17.0104 18.3437C16.684 18.6701 16.2917 18.8333 15.8333 18.8333H4.16667ZM4.16667 17.1667H15.8333V8.83332H4.16667V17.1667ZM4.16667 7.16666H15.8333V5.49999H4.16667V7.16666ZM10 12.1667C9.76389 12.1667 9.56597 12.0868 9.40625 11.9271C9.24653 11.7674 9.16667 11.5694 9.16667 11.3333C9.16667 11.0972 9.24653 10.8993 9.40625 10.7396C9.56597 10.5799 9.76389 10.5 10 10.5C10.2361 10.5 10.434 10.5799 10.5938 10.7396C10.7535 10.8993 10.8333 11.0972 10.8333 11.3333C10.8333 11.5694 10.7535 11.7674 10.5938 11.9271C10.434 12.0868 10.2361 12.1667 10 12.1667ZM6.66667 12.1667C6.43056 12.1667 6.23264 12.0868 6.07292 11.9271C5.91319 11.7674 5.83333 11.5694 5.83333 11.3333C5.83333 11.0972 5.91319 10.8993 6.07292 10.7396C6.23264 10.5799 6.43056 10.5 6.66667 10.5C6.90278 10.5 7.10069 10.5799 7.26042 10.7396C7.42014 10.8993 7.5 11.0972 7.5 11.3333C7.5 11.5694 7.42014 11.7674 7.26042 11.9271C7.10069 12.0868 6.90278 12.1667 6.66667 12.1667ZM13.3333 12.1667C13.0972 12.1667 12.8993 12.0868 12.7396 11.9271C12.5799 11.7674 12.5 11.5694 12.5 11.3333C12.5 11.0972 12.5799 10.8993 12.7396 10.7396C12.8993 10.5799 13.0972 10.5 13.3333 10.5C13.5694 10.5 13.7674 10.5799 13.9271 10.7396C14.0868 10.8993 14.1667 11.0972 14.1667 11.3333C14.1667 11.5694 14.0868 11.7674 13.9271 11.9271C13.7674 12.0868 13.5694 12.1667 13.3333 12.1667ZM10 15.5C9.76389 15.5 9.56597 15.4201 9.40625 15.2604C9.24653 15.1007 9.16667 14.9028 9.16667 14.6667C9.16667 14.4305 9.24653 14.2326 9.40625 14.0729C9.56597 13.9132 9.76389 13.8333 10 13.8333C10.2361 13.8333 10.434 13.9132 10.5938 14.0729C10.7535 14.2326 10.8333 14.4305 10.8333 14.6667C10.8333 14.9028 10.7535 15.1007 10.5938 15.2604C10.434 15.4201 10.2361 15.5 10 15.5ZM6.66667 15.5C6.43056 15.5 6.23264 15.4201 6.07292 15.2604C5.91319 15.1007 5.83333 14.9028 5.83333 14.6667C5.83333 14.4305 5.91319 14.2326 6.07292 14.0729C6.23264 13.9132 6.43056 13.8333 6.66667 13.8333C6.90278 13.8333 7.10069 13.9132 7.26042 14.0729C7.42014 14.2326 7.5 14.4305 7.5 14.6667C7.5 14.9028 7.42014 15.1007 7.26042 15.2604C7.10069 15.4201 6.90278 15.5 6.66667 15.5ZM13.3333 15.5C13.0972 15.5 12.8993 15.4201 12.7396 15.2604C12.5799 15.1007 12.5 14.9028 12.5 14.6667C12.5 14.4305 12.5799 14.2326 12.7396 14.0729C12.8993 13.9132 13.0972 13.8333 13.3333 13.8333C13.5694 13.8333 13.7674 13.9132 13.9271 14.0729C14.0868 14.2326 14.1667 14.4305 14.1667 14.6667C14.1667 14.9028 14.0868 15.1007 13.9271 15.2604C13.7674 15.4201 13.5694 15.5 13.3333 15.5Z" fill="#B7B9C9"/>
</g>
</g>
</svg>
