<svg width="current" height="current" viewBox="0 0 16 17" fill="none" xmlns="http://www.w3.org/2000/svg"><path d="M2.167 16.833c-.459 0-.851-.163-1.177-.49a1.605 1.605 0 0 1-.49-1.176V3.5c0-.458.163-.85.49-1.177.326-.326.718-.49 1.177-.49H3V1c0-.236.08-.434.24-.594.16-.16.357-.24.593-.24s.434.08.594.24c.16.16.24.358.24.594v.833h6.666V1c0-.236.08-.434.24-.594.16-.16.358-.24.594-.24s.434.08.593.24c.16.16.24.358.24.594v.833h.833c.459 0 .851.164 1.177.49.327.326.49.719.49 1.177v11.667c0 .458-.163.85-.49 1.177-.326.326-.718.49-1.177.49H2.167Zm0-1.666h11.666V6.833H2.167v8.334Zm0-10h11.666V3.5H2.167v1.667Zm5.833 5a.806.806 0 0 1-.594-.24.806.806 0 0 1-.24-.594c0-.236.08-.434.24-.593.16-.16.358-.24.594-.24s.434.08.594.24c.16.16.24.357.24.593s-.08.434-.24.594a.806.806 0 0 1-.594.24Zm-3.333 0a.806.806 0 0 1-.594-.24.806.806 0 0 1-.24-.594c0-.236.08-.434.24-.593.16-.16.358-.24.594-.24s.434.08.593.24c.16.16.24.357.24.593s-.08.434-.24.594a.806.806 0 0 1-.593.24Zm6.666 0a.806.806 0 0 1-.593-.24.806.806 0 0 1-.24-.594c0-.236.08-.434.24-.593.16-.16.357-.24.593-.24s.434.08.594.24c.16.16.24.357.24.593s-.08.434-.24.594a.806.806 0 0 1-.594.24ZM8 13.5a.806.806 0 0 1-.594-.24.806.806 0 0 1-.24-.593c0-.236.08-.434.24-.594.16-.16.358-.24.594-.24s.434.08.594.24c.16.16.24.357.24.594 0 .236-.08.434-.24.593A.806.806 0 0 1 8 13.5Zm-3.333 0a.806.806 0 0 1-.594-.24.806.806 0 0 1-.24-.593c0-.236.08-.434.24-.594.16-.16.358-.24.594-.24s.434.08.593.24c.16.16.24.357.24.594 0 .236-.08.434-.24.593a.806.806 0 0 1-.593.24Zm6.666 0a.806.806 0 0 1-.593-.24.806.806 0 0 1-.24-.593c0-.236.08-.434.24-.594.16-.16.357-.24.593-.24s.434.08.594.24c.16.16.24.357.24.594 0 .236-.08.434-.24.593a.807.807 0 0 1-.594.24Z" fill="currentColor"/></svg>