<svg width="40" height="40" viewBox="0 0 40 40" fill="none" xmlns="http://www.w3.org/2000/svg">
<g filter="url(#filter0_iii_262_9631)">
<rect x="2.55859" y="2.56836" width="34.8828" height="34.8828" rx="3.8" fill="url(#paint0_linear_262_9631)"/>
</g>
<rect x="2.55859" y="2.56836" width="34.8828" height="34.8828" rx="3.8" fill="url(#paint1_linear_262_9631)"/>
<rect x="2.55859" y="2.56836" width="34.8828" height="34.8828" rx="3.8" fill="url(#paint2_radial_262_9631)"/>
<rect x="2.55859" y="2.56836" width="34.8828" height="34.8828" rx="3.8" fill="url(#paint3_radial_262_9631)"/>
<g filter="url(#filter1_f_262_9631)">
<path d="M34.0744 35.9747C33.4166 36.3082 32.6624 36.4977 31.8607 36.4977H26.8816V10.1673C26.8816 9.41408 27.5372 8.80347 28.3459 8.80347H32.61C33.4187 8.80347 34.0744 9.41408 34.0744 10.1673V35.9747Z" fill="url(#paint4_linear_262_9631)"/>
</g>
<path fill-rule="evenodd" clip-rule="evenodd" d="M14.4043 2.56836H13.1543V13.0566H2.55859V14.3066H13.1543V25.5176H2.55859V26.7676H13.1543V37.4512H14.4043V26.7676H25.6543V37.4512H26.9043V26.7676H37.4414V25.5176H26.9043V14.3066H37.4414V13.0566H26.9043V2.56836H25.6543V13.0566H14.4043V2.56836ZM25.6543 14.3066V25.5176H14.4043V14.3066H25.6543Z" fill="url(#paint5_linear_262_9631)"/>
<path fill-rule="evenodd" clip-rule="evenodd" d="M14.4043 2.56836H13.1543V13.0566H2.55859V14.3066H13.1543V25.5176H2.55859V26.7676H13.1543V37.4512H14.4043V26.7676H25.6543V37.4512H26.9043V26.7676H37.4414V25.5176H26.9043V14.3066H37.4414V13.0566H26.9043V2.56836H25.6543V13.0566H14.4043V2.56836ZM25.6543 14.3066V25.5176H14.4043V14.3066H25.6543Z" fill="url(#paint6_linear_262_9631)"/>
<path fill-rule="evenodd" clip-rule="evenodd" d="M14.4043 2.56836H13.1543V13.0566H2.55859V14.3066H13.1543V25.5176H2.55859V26.7676H13.1543V37.4512H14.4043V26.7676H25.6543V37.4512H26.9043V26.7676H37.4414V25.5176H26.9043V14.3066H37.4414V13.0566H26.9043V2.56836H25.6543V13.0566H14.4043V2.56836ZM25.6543 14.3066V25.5176H14.4043V14.3066H25.6543Z" fill="url(#paint7_linear_262_9631)"/>
<path fill-rule="evenodd" clip-rule="evenodd" d="M14.4043 2.56836H13.1543V13.0566H2.55859V14.3066H13.1543V25.5176H2.55859V26.7676H13.1543V37.4512H14.4043V26.7676H25.6543V37.4512H26.9043V26.7676H37.4414V25.5176H26.9043V14.3066H37.4414V13.0566H26.9043V2.56836H25.6543V13.0566H14.4043V2.56836ZM25.6543 14.3066V25.5176H14.4043V14.3066H25.6543Z" fill="url(#paint8_linear_262_9631)"/>
<path fill-rule="evenodd" clip-rule="evenodd" d="M14.4043 2.56836H13.1543V13.0566H2.55859V14.3066H13.1543V25.5176H2.55859V26.7676H13.1543V37.4512H14.4043V26.7676H25.6543V37.4512H26.9043V26.7676H29.3691V25.5176H26.9043V14.3066H29.3691V13.0566H26.9043V2.56836H25.6543V13.0566H14.4043V2.56836ZM25.6543 14.3066V25.5176H14.4043V14.3066H25.6543Z" fill="url(#paint9_linear_262_9631)"/>
<path fill-rule="evenodd" clip-rule="evenodd" d="M14.4043 2.56836H13.1543V13.0566H2.55859V14.3066H13.1543V25.5176H2.55859V26.7676H13.1543V37.4512H14.4043V26.7676H25.6543V37.4512H26.9043V26.7676H29.3691V25.5176H26.9043V14.3066H29.3691V13.0566H26.9043V2.56836H25.6543V13.0566H14.4043V2.56836ZM25.6543 14.3066V25.5176H14.4043V14.3066H25.6543Z" fill="url(#paint10_linear_262_9631)"/>
<path fill-rule="evenodd" clip-rule="evenodd" d="M14.4043 2.56836H13.1543V13.0566H2.55859V14.3066H13.1543V25.5176H2.55859V26.7676H13.1543V37.4512H14.4043V26.7676H25.6543V37.4512H26.9043V26.7676H29.3691V25.5176H26.9043V14.3066H29.3691V13.0566H26.9043V2.56836H25.6543V13.0566H14.4043V2.56836ZM25.6543 14.3066V25.5176H14.4043V14.3066H25.6543Z" fill="url(#paint11_linear_262_9631)"/>
<g filter="url(#filter2_f_262_9631)">
<path d="M22.7987 36.7343C22.1409 36.9238 21.3867 37.0314 20.5851 37.0314H15.606V22.0701C15.606 21.6421 16.2615 21.2952 17.0703 21.2952H21.3344C22.1431 21.2952 22.7987 21.6421 22.7987 22.0701V36.7343Z" fill="url(#paint12_linear_262_9631)"/>
</g>
<g filter="url(#filter3_f_262_9631)">
<path d="M11.3886 35.5467C10.7308 35.8384 9.97658 36.004 9.17495 36.004H4.1958V12.9776C4.1958 12.3189 4.85138 11.7849 5.66016 11.7849H9.92422C10.7329 11.7849 11.3886 12.3189 11.3886 12.9776V35.5467Z" fill="url(#paint13_linear_262_9631)"/>
</g>
<g filter="url(#filter4_i_262_9631)">
<path d="M34.959 36.876C34.2852 37.2428 33.5126 37.4511 32.6915 37.4511H27.5911V8.49196C27.5911 7.66352 28.2626 6.99194 29.0911 6.99194H33.459C34.2874 6.99194 34.959 7.66352 34.959 8.49196V36.876Z" fill="url(#paint14_linear_262_9631)"/>
</g>
<path d="M34.959 36.876C34.2852 37.2428 33.5126 37.4511 32.6915 37.4511H27.5911V8.49196C27.5911 7.66352 28.2626 6.99194 29.0911 6.99194H33.459C34.2874 6.99194 34.959 7.66352 34.959 8.49196V36.876Z" fill="url(#paint15_linear_262_9631)"/>
<g filter="url(#filter5_f_262_9631)">
<rect x="32.9927" y="8.1582" width="1.0816" height="28.1268" rx="0.5408" fill="url(#paint16_linear_262_9631)"/>
</g>
<path d="M16.8233 13.0566H14.4043V2.56836H13.1543V13.0566H2.55859V14.3066H13.1543V25.5176H2.55859V26.7676H13.1543V37.4512H14.4043V26.7676H16.8233V25.5176H14.4043V14.3066H16.8233V13.0566Z" fill="url(#paint17_radial_262_9631)"/>
<path d="M16.8233 13.0566H14.4043V2.56836H13.1543V13.0566H2.55859V14.3066H13.1543V25.5176H2.55859V26.7676H13.1543V37.4512H14.4043V26.7676H16.8233V25.5176H14.4043V14.3066H16.8233V13.0566Z" fill="url(#paint18_linear_262_9631)"/>
<g filter="url(#filter6_i_262_9631)">
<path d="M23.6841 37.4512H16.3162V22.3086C16.3162 21.4802 16.9877 20.8086 17.8162 20.8086H22.1841C23.0125 20.8086 23.6841 21.4802 23.6841 22.3086V37.4512Z" fill="url(#paint19_linear_262_9631)"/>
</g>
<g filter="url(#filter7_f_262_9631)">
<rect x="21.7173" y="21.9441" width="1.0816" height="14.5536" rx="0.540799" fill="url(#paint20_linear_262_9631)"/>
</g>
<g filter="url(#filter8_i_262_9631)">
<path d="M12.409 37.4513H7.30855C6.4874 37.4513 5.71484 37.2429 5.04102 36.8761V12.3316C5.04102 11.5031 5.71255 10.8315 6.54103 10.8315H10.9089C11.7373 10.8315 12.409 11.5031 12.409 12.3316V37.4513Z" fill="url(#paint21_linear_262_9631)"/>
</g>
<g filter="url(#filter9_f_262_9631)">
<rect x="10.8479" y="11.7849" width="1.0816" height="24.7129" rx="0.540799" fill="url(#paint22_linear_262_9631)"/>
</g>
<defs>
<filter id="filter0_iii_262_9631" x="1.55859" y="1.56836" width="37.3828" height="36.8828" filterUnits="userSpaceOnUse" color-interpolation-filters="sRGB">
<feFlood flood-opacity="0" result="BackgroundImageFix"/>
<feBlend mode="normal" in="SourceGraphic" in2="BackgroundImageFix" result="shape"/>
<feColorMatrix in="SourceAlpha" type="matrix" values="0 0 0 0 0 0 0 0 0 0 0 0 0 0 0 0 0 0 127 0" result="hardAlpha"/>
<feOffset dx="-1" dy="1"/>
<feGaussianBlur stdDeviation="1"/>
<feComposite in2="hardAlpha" operator="arithmetic" k2="-1" k3="1"/>
<feColorMatrix type="matrix" values="0 0 0 0 0.878431 0 0 0 0 0.87451 0 0 0 0 0.886275 0 0 0 1 0"/>
<feBlend mode="normal" in2="shape" result="effect1_innerShadow_262_9631"/>
<feColorMatrix in="SourceAlpha" type="matrix" values="0 0 0 0 0 0 0 0 0 0 0 0 0 0 0 0 0 0 127 0" result="hardAlpha"/>
<feOffset dx="1.5" dy="-1"/>
<feGaussianBlur stdDeviation="1.5"/>
<feComposite in2="hardAlpha" operator="arithmetic" k2="-1" k3="1"/>
<feColorMatrix type="matrix" values="0 0 0 0 0.698039 0 0 0 0 0.67451 0 0 0 0 0.721569 0 0 0 1 0"/>
<feBlend mode="normal" in2="effect1_innerShadow_262_9631" result="effect2_innerShadow_262_9631"/>
<feColorMatrix in="SourceAlpha" type="matrix" values="0 0 0 0 0 0 0 0 0 0 0 0 0 0 0 0 0 0 127 0" result="hardAlpha"/>
<feOffset dx="0.25"/>
<feGaussianBlur stdDeviation="0.25"/>
<feComposite in2="hardAlpha" operator="arithmetic" k2="-1" k3="1"/>
<feColorMatrix type="matrix" values="0 0 0 0 0.729412 0 0 0 0 0.729412 0 0 0 0 0.729412 0 0 0 1 0"/>
<feBlend mode="normal" in2="effect2_innerShadow_262_9631" result="effect3_innerShadow_262_9631"/>
</filter>
<filter id="filter1_f_262_9631" x="25.8816" y="7.80347" width="9.19287" height="29.6941" filterUnits="userSpaceOnUse" color-interpolation-filters="sRGB">
<feFlood flood-opacity="0" result="BackgroundImageFix"/>
<feBlend mode="normal" in="SourceGraphic" in2="BackgroundImageFix" result="shape"/>
<feGaussianBlur stdDeviation="0.5" result="effect1_foregroundBlur_262_9631"/>
</filter>
<filter id="filter2_f_262_9631" x="14.606" y="20.2952" width="9.19287" height="17.7363" filterUnits="userSpaceOnUse" color-interpolation-filters="sRGB">
<feFlood flood-opacity="0" result="BackgroundImageFix"/>
<feBlend mode="normal" in="SourceGraphic" in2="BackgroundImageFix" result="shape"/>
<feGaussianBlur stdDeviation="0.5" result="effect1_foregroundBlur_262_9631"/>
</filter>
<filter id="filter3_f_262_9631" x="3.1958" y="10.7849" width="9.19287" height="26.2192" filterUnits="userSpaceOnUse" color-interpolation-filters="sRGB">
<feFlood flood-opacity="0" result="BackgroundImageFix"/>
<feBlend mode="normal" in="SourceGraphic" in2="BackgroundImageFix" result="shape"/>
<feGaussianBlur stdDeviation="0.5" result="effect1_foregroundBlur_262_9631"/>
</filter>
<filter id="filter4_i_262_9631" x="27.5911" y="6.99194" width="8.11792" height="30.4592" filterUnits="userSpaceOnUse" color-interpolation-filters="sRGB">
<feFlood flood-opacity="0" result="BackgroundImageFix"/>
<feBlend mode="normal" in="SourceGraphic" in2="BackgroundImageFix" result="shape"/>
<feColorMatrix in="SourceAlpha" type="matrix" values="0 0 0 0 0 0 0 0 0 0 0 0 0 0 0 0 0 0 127 0" result="hardAlpha"/>
<feOffset dx="0.75"/>
<feGaussianBlur stdDeviation="0.5"/>
<feComposite in2="hardAlpha" operator="arithmetic" k2="-1" k3="1"/>
<feColorMatrix type="matrix" values="0 0 0 0 0.203922 0 0 0 0 0.482353 0 0 0 0 0.74902 0 0 0 1 0"/>
<feBlend mode="normal" in2="shape" result="effect1_innerShadow_262_9631"/>
</filter>
<filter id="filter5_f_262_9631" x="31.9927" y="7.1582" width="3.08154" height="30.1267" filterUnits="userSpaceOnUse" color-interpolation-filters="sRGB">
<feFlood flood-opacity="0" result="BackgroundImageFix"/>
<feBlend mode="normal" in="SourceGraphic" in2="BackgroundImageFix" result="shape"/>
<feGaussianBlur stdDeviation="0.5" result="effect1_foregroundBlur_262_9631"/>
</filter>
<filter id="filter6_i_262_9631" x="16.3162" y="20.8086" width="8.11792" height="16.6426" filterUnits="userSpaceOnUse" color-interpolation-filters="sRGB">
<feFlood flood-opacity="0" result="BackgroundImageFix"/>
<feBlend mode="normal" in="SourceGraphic" in2="BackgroundImageFix" result="shape"/>
<feColorMatrix in="SourceAlpha" type="matrix" values="0 0 0 0 0 0 0 0 0 0 0 0 0 0 0 0 0 0 127 0" result="hardAlpha"/>
<feOffset dx="0.75"/>
<feGaussianBlur stdDeviation="0.5"/>
<feComposite in2="hardAlpha" operator="arithmetic" k2="-1" k3="1"/>
<feColorMatrix type="matrix" values="0 0 0 0 0.67451 0 0 0 0 0.239216 0 0 0 0 0.372549 0 0 0 1 0"/>
<feBlend mode="normal" in2="shape" result="effect1_innerShadow_262_9631"/>
</filter>
<filter id="filter7_f_262_9631" x="20.7173" y="20.9441" width="3.08154" height="16.5537" filterUnits="userSpaceOnUse" color-interpolation-filters="sRGB">
<feFlood flood-opacity="0" result="BackgroundImageFix"/>
<feBlend mode="normal" in="SourceGraphic" in2="BackgroundImageFix" result="shape"/>
<feGaussianBlur stdDeviation="0.5" result="effect1_foregroundBlur_262_9631"/>
</filter>
<filter id="filter8_i_262_9631" x="5.04102" y="10.8315" width="8.11792" height="26.6196" filterUnits="userSpaceOnUse" color-interpolation-filters="sRGB">
<feFlood flood-opacity="0" result="BackgroundImageFix"/>
<feBlend mode="normal" in="SourceGraphic" in2="BackgroundImageFix" result="shape"/>
<feColorMatrix in="SourceAlpha" type="matrix" values="0 0 0 0 0 0 0 0 0 0 0 0 0 0 0 0 0 0 127 0" result="hardAlpha"/>
<feOffset dx="0.75"/>
<feGaussianBlur stdDeviation="0.5"/>
<feComposite in2="hardAlpha" operator="arithmetic" k2="-1" k3="1"/>
<feColorMatrix type="matrix" values="0 0 0 0 0.415686 0 0 0 0 0.792157 0 0 0 0 0.466667 0 0 0 1 0"/>
<feBlend mode="normal" in2="shape" result="effect1_innerShadow_262_9631"/>
</filter>
<filter id="filter9_f_262_9631" x="9.8479" y="10.7849" width="3.08154" height="26.7129" filterUnits="userSpaceOnUse" color-interpolation-filters="sRGB">
<feFlood flood-opacity="0" result="BackgroundImageFix"/>
<feBlend mode="normal" in="SourceGraphic" in2="BackgroundImageFix" result="shape"/>
<feGaussianBlur stdDeviation="0.5" result="effect1_foregroundBlur_262_9631"/>
</filter>
<linearGradient id="paint0_linear_262_9631" x1="33.9062" y1="4.85352" x2="14.8437" y2="29.1504" gradientUnits="userSpaceOnUse">
<stop stop-color="#D8D1E0"/>
<stop offset="1" stop-color="#D5C9E3"/>
</linearGradient>
<linearGradient id="paint1_linear_262_9631" x1="26.8439" y1="37.7794" x2="26.8439" y2="34.9074" gradientUnits="userSpaceOnUse">
<stop stop-color="#A88AC4"/>
<stop offset="1" stop-color="#CDBCE0" stop-opacity="0"/>
</linearGradient>
<radialGradient id="paint2_radial_262_9631" cx="0" cy="0" r="1" gradientUnits="userSpaceOnUse" gradientTransform="translate(37.4414 20.504) rotate(177.86) scale(6.99061 27.2547)">
<stop stop-color="#F2EDF5"/>
<stop offset="1" stop-color="#DED3E7" stop-opacity="0"/>
</radialGradient>
<radialGradient id="paint3_radial_262_9631" cx="0" cy="0" r="1" gradientUnits="userSpaceOnUse" gradientTransform="translate(36.9829 3.62016) rotate(138.434) scale(6.16501 6.38124)">
<stop stop-color="#F7F4F7"/>
<stop offset="1" stop-color="#E2DCE5" stop-opacity="0"/>
</radialGradient>
<linearGradient id="paint4_linear_262_9631" x1="30.478" y1="8.80347" x2="30.478" y2="36.4977" gradientUnits="userSpaceOnUse">
<stop stop-color="#9B98B3"/>
<stop offset="1" stop-color="#9C83AE"/>
</linearGradient>
<linearGradient id="paint5_linear_262_9631" x1="20" y1="5.45898" x2="20" y2="37.4512" gradientUnits="userSpaceOnUse">
<stop stop-color="#C2BEC6"/>
<stop offset="1" stop-color="#BAACC6"/>
</linearGradient>
<linearGradient id="paint6_linear_262_9631" x1="27.1485" y1="38.3451" x2="27.1485" y2="33.9936" gradientUnits="userSpaceOnUse">
<stop stop-color="#9E83B7"/>
<stop offset="1" stop-color="#9E83B7" stop-opacity="0"/>
</linearGradient>
<linearGradient id="paint7_linear_262_9631" x1="1.34766" y1="21.709" x2="7.98828" y2="21.709" gradientUnits="userSpaceOnUse">
<stop stop-color="#96909C"/>
<stop offset="1" stop-color="#96909C" stop-opacity="0"/>
</linearGradient>
<linearGradient id="paint8_linear_262_9631" x1="38.457" y1="22.5684" x2="33.6914" y2="22.5684" gradientUnits="userSpaceOnUse">
<stop stop-color="#D6D1DA"/>
<stop offset="1" stop-color="#D6D1DA" stop-opacity="0"/>
</linearGradient>
<linearGradient id="paint9_linear_262_9631" x1="30.2343" y1="22.9175" x2="25.2052" y2="22.9175" gradientUnits="userSpaceOnUse">
<stop offset="0.451612" stop-color="#7C7695"/>
<stop offset="1" stop-color="#7C7695" stop-opacity="0"/>
</linearGradient>
<linearGradient id="paint10_linear_262_9631" x1="26.2867" y1="38.167" x2="26.2867" y2="35.4632" gradientUnits="userSpaceOnUse">
<stop stop-color="#9070AD"/>
<stop offset="1" stop-color="#9070AD" stop-opacity="0"/>
</linearGradient>
<linearGradient id="paint11_linear_262_9631" x1="24.5563" y1="1.93587" x2="24.5563" y2="12.6971" gradientUnits="userSpaceOnUse">
<stop offset="0.668342" stop-color="#C3BFC7"/>
<stop offset="1" stop-color="#C3BFC7" stop-opacity="0"/>
</linearGradient>
<linearGradient id="paint12_linear_262_9631" x1="19.2023" y1="21.2952" x2="19.2023" y2="37.0314" gradientUnits="userSpaceOnUse">
<stop stop-color="#9B98B3"/>
<stop offset="1" stop-color="#9C83AE"/>
</linearGradient>
<linearGradient id="paint13_linear_262_9631" x1="7.79219" y1="11.7849" x2="7.79219" y2="36.004" gradientUnits="userSpaceOnUse">
<stop stop-color="#9B98B3"/>
<stop offset="1" stop-color="#9C83AE"/>
</linearGradient>
<linearGradient id="paint14_linear_262_9631" x1="31.275" y1="6.99194" x2="31.275" y2="37.4511" gradientUnits="userSpaceOnUse">
<stop offset="0.179782" stop-color="#36A4F2"/>
<stop offset="1" stop-color="#3E79CB"/>
</linearGradient>
<linearGradient id="paint15_linear_262_9631" x1="27.152" y1="36.8151" x2="29.4232" y2="36.7069" gradientUnits="userSpaceOnUse">
<stop offset="0.0113206" stop-color="#404E95"/>
<stop offset="1" stop-color="#2F66B3" stop-opacity="0"/>
</linearGradient>
<linearGradient id="paint16_linear_262_9631" x1="33.5335" y1="8.1582" x2="33.5335" y2="36.285" gradientUnits="userSpaceOnUse">
<stop stop-color="#53BFFF"/>
<stop offset="1" stop-color="#508EDC"/>
</linearGradient>
<radialGradient id="paint17_radial_262_9631" cx="0" cy="0" r="1" gradientUnits="userSpaceOnUse" gradientTransform="translate(17.9049 26.1621) rotate(-180) scale(3.08235 2.9742)">
<stop offset="0.22807" stop-color="#86738A"/>
<stop offset="1" stop-color="#86738A" stop-opacity="0"/>
</radialGradient>
<linearGradient id="paint18_linear_262_9631" x1="1.89826" y1="21.836" x2="7.46813" y2="21.836" gradientUnits="userSpaceOnUse">
<stop stop-color="#88858D"/>
<stop offset="1" stop-color="#88858D" stop-opacity="0"/>
</linearGradient>
<linearGradient id="paint19_linear_262_9631" x1="20.0001" y1="20.8086" x2="20.0001" y2="37.4512" gradientUnits="userSpaceOnUse">
<stop offset="0.179782" stop-color="#E93586"/>
<stop offset="1" stop-color="#DD385F"/>
</linearGradient>
<linearGradient id="paint20_linear_262_9631" x1="22.2581" y1="21.9441" x2="22.2581" y2="36.4977" gradientUnits="userSpaceOnUse">
<stop stop-color="#FA5598"/>
<stop offset="1" stop-color="#F34F70"/>
</linearGradient>
<linearGradient id="paint21_linear_262_9631" x1="8.72498" y1="10.8315" x2="8.72498" y2="37.4513" gradientUnits="userSpaceOnUse">
<stop offset="0.179782" stop-color="#ABE263"/>
<stop offset="1" stop-color="#61E19B"/>
</linearGradient>
<linearGradient id="paint22_linear_262_9631" x1="11.3887" y1="11.7849" x2="11.3887" y2="36.4978" gradientUnits="userSpaceOnUse">
<stop stop-color="#C9FE70"/>
<stop offset="1" stop-color="#6CEDA7"/>
</linearGradient>
</defs>
</svg>
