<svg width="current" height="current" viewBox="0 0 65 64" fill="none" xmlns="http://www.w3.org/2000/svg">
<g id="check_circle">
<mask id="mask0_625_3650" style="mask-type:alpha" maskUnits="userSpaceOnUse" x="0" y="0" width="65" height="64">
<rect id="Bounding box" x="0.5" width="64" height="64" fill="#D9D9D9"/>
</mask>
<g mask="url(#mask0_625_3650)">
<path id="check_circle_2" d="M28.7665 36.7999L23.0332 31.0665C22.5443 30.5776 21.9221 30.3332 21.1665 30.3332C20.411 30.3332 19.7887 30.5776 19.2999 31.0665C18.811 31.5554 18.5665 32.1776 18.5665 32.9332C18.5665 33.6887 18.811 34.311 19.2999 34.7999L26.8999 42.3999C27.4332 42.9332 28.0554 43.1999 28.7665 43.1999C29.4776 43.1999 30.0999 42.9332 30.6332 42.3999L45.6999 27.3332C46.1887 26.8443 46.4332 26.2221 46.4332 25.4665C46.4332 24.711 46.1887 24.0887 45.6999 23.5999C45.211 23.111 44.5887 22.8665 43.8332 22.8665C43.0776 22.8665 42.4554 23.111 41.9665 23.5999L28.7665 36.7999ZM32.4999 58.6665C28.811 58.6665 25.3443 57.9665 22.0999 56.5665C18.8554 55.1665 16.0332 53.2665 13.6332 50.8665C11.2332 48.4665 9.33319 45.6443 7.93319 42.3999C6.53319 39.1554 5.83319 35.6887 5.83319 31.9999C5.83319 28.311 6.53319 24.8443 7.93319 21.5999C9.33319 18.3554 11.2332 15.5332 13.6332 13.1332C16.0332 10.7332 18.8554 8.83319 22.0999 7.43319C25.3443 6.03319 28.811 5.33319 32.4999 5.33319C36.1887 5.33319 39.6554 6.03319 42.8999 7.43319C46.1443 8.83319 48.9665 10.7332 51.3665 13.1332C53.7665 15.5332 55.6665 18.3554 57.0665 21.5999C58.4665 24.8443 59.1665 28.311 59.1665 31.9999C59.1665 35.6887 58.4665 39.1554 57.0665 42.3999C55.6665 45.6443 53.7665 48.4665 51.3665 50.8665C48.9665 53.2665 46.1443 55.1665 42.8999 56.5665C39.6554 57.9665 36.1887 58.6665 32.4999 58.6665Z" fill="currentColor"/>
</g>
</g>
</svg>
