<svg width="16" height="16" viewBox="0 0 16 16" fill="none" xmlns="http://www.w3.org/2000/svg">
<mask id="mask0_559_8552" style="mask-type:alpha" maskUnits="userSpaceOnUse" x="0" y="0" width="16" height="16">
<rect width="16" height="16" fill="#D9D9D9"/>
</mask>
<g mask="url(#mask0_559_8552)">
<path d="M6.36661 11.7167C6.27772 11.7167 6.19438 11.7028 6.11661 11.675C6.03883 11.6472 5.96661 11.6 5.89994 11.5333L3.03327 8.66666C2.91105 8.54444 2.85272 8.38611 2.85827 8.19166C2.86383 7.99722 2.92772 7.83889 3.04994 7.71666C3.17216 7.59444 3.32772 7.53333 3.51661 7.53333C3.70549 7.53333 3.86105 7.59444 3.98327 7.71666L6.36661 10.1L12.0166 4.45C12.1388 4.32777 12.2972 4.26666 12.4916 4.26666C12.6861 4.26666 12.8444 4.32777 12.9666 4.45C13.0888 4.57222 13.1499 4.73055 13.1499 4.925C13.1499 5.11944 13.0888 5.27777 12.9666 5.4L6.83327 11.5333C6.76661 11.6 6.69438 11.6472 6.61661 11.675C6.53883 11.7028 6.4555 11.7167 6.36661 11.7167Z" fill="white"/>
</g>
</svg>
