<svg width="20" height="20" viewBox="0 0 20 20" fill="none" xmlns="http://www.w3.org/2000/svg">
<g id="check_box_outline_blank">
<mask id="mask0_494_1910" style="mask-type:alpha" maskUnits="userSpaceOnUse" x="0" y="0" width="20" height="20">
<rect id="Bounding box" width="20" height="20" fill="#D9D9D9"/>
</mask>
<g mask="url(#mask0_494_1910)">
<path id="check_box_outline_blank_2" d="M4.4231 17.0834C4.00216 17.0834 3.64585 16.9375 3.35419 16.6459C3.06252 16.3542 2.91669 15.9979 2.91669 15.577V4.42316C2.91669 4.00222 3.06252 3.64591 3.35419 3.35425C3.64585 3.06258 4.00216 2.91675 4.4231 2.91675H15.5769C15.9978 2.91675 16.3541 3.06258 16.6458 3.35425C16.9375 3.64591 17.0833 4.00222 17.0833 4.42316V15.577C17.0833 15.9979 16.9375 16.3542 16.6458 16.6459C16.3541 16.9375 15.9978 17.0834 15.5769 17.0834H4.4231ZM4.4231 15.8334H15.5769C15.641 15.8334 15.6998 15.8067 15.7532 15.7533C15.8066 15.6998 15.8333 15.6411 15.8333 15.577V4.42316C15.8333 4.35905 15.8066 4.30028 15.7532 4.24685C15.6998 4.19344 15.641 4.16673 15.5769 4.16673H4.4231C4.35899 4.16673 4.30022 4.19344 4.24679 4.24685C4.19337 4.30028 4.16667 4.35905 4.16667 4.42316V15.577C4.16667 15.6411 4.19337 15.6998 4.24679 15.7533C4.30022 15.8067 4.35899 15.8334 4.4231 15.8334Z" fill="#626474"/>
</g>
</g>
</svg>
