<svg width="current" height="current" viewBox="0 0 20 20" fill="none" xmlns="http://www.w3.org/2000/svg">
  <mask id="a" style="mask-type:alpha" maskUnits="userSpaceOnUse" x="0" y="0" width="20" height="20">
    <path fill="#D9D9D9" d="M0 0h20v20H0z"/>
  </mask>
  <g mask="url(#a)">
    <path d="M8.833 11.167 7.042 9.375a.79.79 0 0 0-.584-.23.79.79 0 0 0-.583.23.79.79 0 0 0-.23.583c0 .236.077.43.23.584l2.375 2.375a.8.8 0 0 0 .583.25.8.8 0 0 0 .584-.25l4.708-4.709a.79.79 0 0 0 .23-.583.79.79 0 0 0-.23-.583.79.79 0 0 0-.583-.23.79.79 0 0 0-.584.23l-4.125 4.125ZM4.167 17.5c-.459 0-.851-.163-1.177-.49a1.605 1.605 0 0 1-.49-1.177V4.167c0-.459.163-.851.49-1.177.326-.327.718-.49 1.177-.49h11.666c.459 0 .851.163 1.177.49.327.326.49.718.49 1.177v11.666c0 .459-.163.851-.49 1.177-.326.327-.718.49-1.177.49H4.167Z" fill="currentColor"/>
  </g>
</svg>
