<svg width="20" height="20" viewBox="0 0 20 20" fill="none" xmlns="http://www.w3.org/2000/svg">
<mask id="mask0_154_3655" style="mask-type:alpha" maskUnits="userSpaceOnUse" x="0" y="0" width="20" height="20">
<rect width="20" height="20" fill="#D9D9D9"/>
</mask>
<g mask="url(#mask0_154_3655)">
<path d="M9.99935 15.8327C8.38824 15.8327 7.01324 15.2632 5.87435 14.1243C4.73546 12.9855 4.16602 11.6105 4.16602 9.99935C4.16602 8.38824 4.73546 7.01324 5.87435 5.87435C7.01324 4.73546 8.38824 4.16602 9.99935 4.16602C11.6105 4.16602 12.9855 4.73546 14.1243 5.87435C15.2632 7.01324 15.8327 8.38824 15.8327 9.99935C15.8327 11.6105 15.2632 12.9855 14.1243 14.1243C12.9855 15.2632 11.6105 15.8327 9.99935 15.8327ZM9.99935 14.166C11.1521 14.166 12.1348 13.7598 12.9473 12.9473C13.7598 12.1348 14.166 11.1521 14.166 9.99935C14.166 8.84657 13.7598 7.86393 12.9473 7.05143C12.1348 6.23893 11.1521 5.83268 9.99935 5.83268C8.84657 5.83268 7.86393 6.23893 7.05143 7.05143C6.23893 7.86393 5.83268 8.84657 5.83268 9.99935C5.83268 11.1521 6.23893 12.1348 7.05143 12.9473C7.86393 13.7598 8.84657 14.166 9.99935 14.166Z" fill="#626474"/>
</g>
</svg>
