<svg width="20" height="20" viewBox="0 0 20 20" fill="none" xmlns="http://www.w3.org/2000/svg">
<mask id="mask0_83_3503" style="mask-type:alpha" maskUnits="userSpaceOnUse" x="0" y="0" width="20" height="20">
<rect width="20" height="20" fill="#D9D9D9"/>
</mask>
<g mask="url(#mask0_83_3503)">
<path d="M4.16673 17.4999C3.93062 17.4999 3.73271 17.4201 3.57298 17.2603C3.41326 17.1006 3.3334 16.9027 3.3334 16.6666V9.68742L2.50007 10.3333C2.30562 10.4721 2.09729 10.5277 1.87507 10.4999C1.65285 10.4721 1.47229 10.361 1.3334 10.1666C1.19451 9.97214 1.13896 9.76381 1.16673 9.54158C1.19451 9.31936 1.29868 9.13881 1.47923 8.99992L3.3334 7.58325V5.83325C3.3334 5.59714 3.41326 5.39922 3.57298 5.2395C3.73271 5.07978 3.93062 4.99992 4.16673 4.99992C4.40285 4.99992 4.60076 5.07978 4.76048 5.2395C4.92021 5.39922 5.00007 5.59714 5.00007 5.83325V6.31242L9.50007 2.89575C9.56951 2.8402 9.6459 2.79506 9.72923 2.76034C9.81257 2.72561 9.90285 2.70825 10.0001 2.70825C10.0973 2.70825 10.1876 2.72561 10.2709 2.76034C10.3542 2.79506 10.4306 2.8402 10.5001 2.89575L18.5209 8.99992C18.7015 9.13881 18.8056 9.31936 18.8334 9.54158C18.8612 9.76381 18.8056 9.97214 18.6667 10.1666C18.5278 10.3471 18.3473 10.4513 18.1251 10.4791C17.9028 10.5069 17.7015 10.4513 17.5209 10.3124L16.6667 9.68742V16.6666C16.6667 16.9027 16.5869 17.1006 16.4272 17.2603C16.2674 17.4201 16.0695 17.4999 15.8334 17.4999H4.16673ZM5.00007 15.8333H9.16673V13.3333C9.16673 13.0971 9.2466 12.8992 9.40632 12.7395C9.56604 12.5798 9.76396 12.4999 10.0001 12.4999C10.2362 12.4999 10.4341 12.5798 10.5938 12.7395C10.7535 12.8992 10.8334 13.0971 10.8334 13.3333V15.8333H15.0001V8.41659L10.0001 4.60409L5.00007 8.41659V15.8333ZM4.41673 4.16659C4.11118 4.16659 3.86465 4.03811 3.67715 3.78117C3.48965 3.52422 3.47923 3.24992 3.6459 2.95825C3.86812 2.56936 4.17021 2.25686 4.55215 2.02075C4.9341 1.78464 5.36118 1.66659 5.8334 1.66659C5.98618 1.66659 6.13201 1.63186 6.2709 1.56242C6.40979 1.49297 6.51396 1.38186 6.5834 1.22909C6.65285 1.10409 6.7466 1.00686 6.86465 0.937419C6.98271 0.867974 7.11812 0.833252 7.2709 0.833252C7.59035 0.833252 7.8334 0.965196 8.00007 1.22909C8.16673 1.49297 8.17368 1.76381 8.0209 2.04159C7.79868 2.43047 7.4966 2.74297 7.11465 2.97909C6.73271 3.2152 6.30562 3.33325 5.8334 3.33325C5.68062 3.33325 5.53479 3.37145 5.3959 3.44784C5.25701 3.52422 5.15285 3.63186 5.0834 3.77075C5.01396 3.90964 4.91673 4.01034 4.79173 4.07284C4.66673 4.13534 4.54173 4.16659 4.41673 4.16659Z" fill="#B7B9C9"/>
</g>
</svg>
