<svg width="current" height="current" viewBox="0 0 16 16" fill="none" xmlns="http://www.w3.org/2000/svg">
  <mask id="a" style="mask-type:alpha" maskUnits="userSpaceOnUse" x="0" y="0" width="16" height="16">
    <path fill="currentColor" d="M0 0h16v16H0z"/>
  </mask>
  <g mask="url(#a)">
    <path d="M6 12h4a.645.645 0 0 0 .475-.192.645.645 0 0 0 .192-.475.645.645 0 0 0-.192-.475.645.645 0 0 0-.475-.191H6a.645.645 0 0 0-.475.191.645.645 0 0 0-.192.475c0 .19.064.348.192.475A.645.645 0 0 0 6 12Zm0-2.667h4a.645.645 0 0 0 .475-.191.645.645 0 0 0 .192-.475.645.645 0 0 0-.192-.475A.645.645 0 0 0 10 8H6a.645.645 0 0 0-.475.192.645.645 0 0 0-.192.475c0 .189.064.347.192.475A.645.645 0 0 0 6 9.333Zm-2 5.334c-.367 0-.68-.13-.942-.392a1.284 1.284 0 0 1-.391-.942V2.667c0-.367.13-.68.391-.942.262-.261.575-.392.942-.392h4.783a1.317 1.317 0 0 1 .934.384L12.95 4.95a1.316 1.316 0 0 1 .383.933v7.45c0 .367-.13.68-.391.942a1.284 1.284 0 0 1-.942.392H4Zm4.667-9.334V2.667H4v10.666h8V6H9.333a.645.645 0 0 1-.475-.192.645.645 0 0 1-.191-.475Z" fill="currentColor"/>
  </g>
</svg>
