<svg width="80" height="80" viewBox="0 0 80 80" fill="none" xmlns="http://www.w3.org/2000/svg">
<mask id="mask0_625_3287" style="mask-type:alpha" maskUnits="userSpaceOnUse" x="0" y="0" width="80" height="80">
<rect width="80" height="80" fill="#D9D9D9"/>
</mask>
<g mask="url(#mask0_625_3287)">
<path d="M37.0001 56.3335H43.6667V42.3335L49.0001 47.6668L53.6667 43.0001L40.3334 29.6668L27.0001 43.0001L31.6667 47.6668L37.0001 42.3335V56.3335ZM13.6667 66.3335C11.8334 66.3335 10.2645 65.6812 8.96006 64.3768C7.65339 63.0701 7.00006 61.5001 7.00006 59.6668V19.6668C7.00006 17.8335 7.65339 16.2646 8.96006 14.9601C10.2645 13.6535 11.8334 13.0001 13.6667 13.0001H33.6667L40.3334 19.6668H67.0001C68.8334 19.6668 70.4034 20.3201 71.7101 21.6268C73.0145 22.9312 73.6667 24.5001 73.6667 26.3335V59.6668C73.6667 61.5001 73.0145 63.0701 71.7101 64.3768C70.4034 65.6812 68.8334 66.3335 67.0001 66.3335H13.6667Z" fill="#B7B9C9"/>
</g>
</svg>
