<svg width="24" height="24" viewBox="0 0 24 24" fill="none" xmlns="http://www.w3.org/2000/svg">
<mask id="mask0_154_1836" style="mask-type:alpha" maskUnits="userSpaceOnUse" x="0" y="0" width="24" height="24">
<rect width="24" height="24" fill="#D9D9D9"/>
</mask>
<g mask="url(#mask0_154_1836)">
<path d="M5 23.7008C4.45 23.7008 3.97917 23.5049 3.5875 23.1133C3.19583 22.7216 3 22.2508 3 21.7008V7.70078C3 7.15078 3.19583 6.67995 3.5875 6.28828C3.97917 5.89661 4.45 5.70078 5 5.70078H13.925L11.925 7.70078H5V21.7008H19V14.7508L21 12.7508V21.7008C21 22.2508 20.8042 22.7216 20.4125 23.1133C20.0208 23.5049 19.55 23.7008 19 23.7008H5ZM16.175 6.27578L17.6 7.67578L11 14.2758V15.7008H12.4L19.025 9.07578L20.45 10.4758L13.825 17.1008C13.6417 17.2841 13.4292 17.4299 13.1875 17.5383C12.9458 17.6466 12.6917 17.7008 12.425 17.7008H10C9.71667 17.7008 9.47917 17.6049 9.2875 17.4133C9.09583 17.2216 9 16.9841 9 16.7008V14.2758C9 14.0091 9.05 13.7549 9.15 13.5133C9.25 13.2716 9.39167 13.0591 9.575 12.8758L16.175 6.27578ZM20.45 10.4758L16.175 6.27578L18.675 3.77578C19.075 3.37578 19.5542 3.17578 20.1125 3.17578C20.6708 3.17578 21.1417 3.37578 21.525 3.77578L22.925 5.20078C23.3083 5.58411 23.5 6.05078 23.5 6.60078C23.5 7.15078 23.3083 7.61745 22.925 8.00078L20.45 10.4758Z" fill="#737C89"/>
</g>
</svg>
