<svg width="20" height="20" viewBox="0 0 20 20" fill="none" xmlns="http://www.w3.org/2000/svg">
<mask id="mask0_1048_3913" style="mask-type:alpha" maskUnits="userSpaceOnUse" x="0" y="0" width="20" height="20">
<rect width="20" height="20" fill="#D9D9D9"/>
</mask>
<g mask="url(#mask0_1048_3913)">
<path d="M16.375 15.25L13.8586 17.7664C13.7862 17.8388 13.7049 17.8958 13.6146 17.9375C13.5243 17.9792 13.4236 18 13.3125 18H12.25C12.0375 18 11.8594 17.9281 11.7156 17.7844C11.5719 17.6406 11.5 17.4625 11.5 17.25V16.1875C11.5 16.0764 11.5208 15.9757 11.5625 15.8854C11.6042 15.7951 11.6612 15.7138 11.7336 15.6414L14.25 13.125L16.375 15.25ZM17.0833 14.5417L14.9375 12.4375L16.7708 10.6042C16.9223 10.4514 17.0991 10.375 17.3011 10.375C17.5032 10.375 17.6806 10.4514 17.8333 10.6042L18.8958 11.6875C19.0486 11.8403 19.1215 12.0174 19.1146 12.2188C19.1076 12.4201 19.0278 12.5972 18.875 12.75L17.0833 14.5417ZM8.25 7.5C8.0375 7.5 7.85938 7.42855 7.71563 7.28565C7.57188 7.14273 7.5 6.96565 7.5 6.7544C7.5 6.54313 7.57188 6.36458 7.71563 6.21875C7.85938 6.07292 8.0375 6 8.25 6H13.75C13.9625 6 14.1406 6.07145 14.2844 6.21435C14.4281 6.35727 14.5 6.53435 14.5 6.7456C14.5 6.95687 14.4281 7.13542 14.2844 7.28125C14.1406 7.42708 13.9625 7.5 13.75 7.5H8.25ZM8.25 10C8.0375 10 7.85938 9.92855 7.71563 9.78565C7.57188 9.64273 7.5 9.46565 7.5 9.2544C7.5 9.04313 7.57188 8.86458 7.71563 8.71875C7.85938 8.57292 8.0375 8.5 8.25 8.5H13.75C13.9625 8.5 14.1406 8.57145 14.2844 8.71435C14.4281 8.85727 14.5 9.03435 14.5 9.2456C14.5 9.45687 14.4281 9.63542 14.2844 9.78125C14.1406 9.92708 13.9625 10 13.75 10H8.25ZM5 18C4.44444 18 3.97222 17.8056 3.58333 17.4167C3.19444 17.0278 3 16.5556 3 16V14.5C3 14.0875 3.14687 13.7344 3.44062 13.4406C3.73437 13.1469 4.0875 13 4.5 13H5V3.5C5 3.0875 5.14687 2.73438 5.44062 2.44063C5.73438 2.14688 6.0875 2 6.5 2H15.5C15.9125 2 16.2656 2.14688 16.5594 2.44063C16.8531 2.73438 17 3.0875 17 3.5V8.1875L15.5 9.70833V3.5H6.5V13H12.25L10.4375 14.8333C10.298 14.9747 10.1902 15.1385 10.1141 15.3247C10.038 15.511 10 15.7014 10 15.8958V18H5Z" fill="#9395A6"/>
</g>
</svg>
