<svg width="24" height="24" viewBox="0 0 24 24" fill="none" xmlns="http://www.w3.org/2000/svg">
<g id="edit_document">
<mask id="mask0_625_6376" style="mask-type:alpha" maskUnits="userSpaceOnUse" x="0" y="0" width="24" height="24">
<rect id="Bounding box" width="24" height="24" fill="#D9D9D9"/>
</mask>
<g mask="url(#mask0_625_6376)">
<path id="edit_document_2" d="M6 22C5.45 22 4.97917 21.8042 4.5875 21.4125C4.19583 21.0208 4 20.55 4 20V4C4 3.45 4.19583 2.97917 4.5875 2.5875C4.97917 2.19583 5.45 2 6 2H13.175C13.4417 2 13.6958 2.05 13.9375 2.15C14.1792 2.25 14.3917 2.39167 14.575 2.575L19.425 7.425C19.6083 7.60833 19.75 7.82083 19.85 8.0625C19.95 8.30417 20 8.55833 20 8.825V11.1L12 19.075V22H6ZM14.5 22C14.3667 22 14.25 21.95 14.15 21.85C14.05 21.75 14 21.6333 14 21.5V20.3C14 20.1667 14.0292 20.0333 14.0875 19.9C14.1458 19.7667 14.2167 19.6583 14.3 19.575L19.15 14.7L21.3 16.8L16.425 21.7C16.3417 21.8 16.2333 21.875 16.1 21.925C15.9667 21.975 15.8333 22 15.7 22H14.5ZM22.025 16.1L19.9 13.975L20.6 13.275C20.8 13.075 21.0417 12.975 21.325 12.975C21.6083 12.975 21.8417 13.075 22.025 13.275L22.725 14C22.9083 14.2 23 14.4375 23 14.7125C23 14.9875 22.9083 15.2167 22.725 15.4L22.025 16.1ZM14 9H18L13 4V8C13 8.28333 13.0958 8.52083 13.2875 8.7125C13.4792 8.90417 13.7167 9 14 9Z" fill="#6B77F8"/>
</g>
</g>
</svg>
