<svg width="20" height="20" viewBox="0 0 20 20" fill="none" xmlns="http://www.w3.org/2000/svg">
<mask id="mask0_83_3495" style="mask-type:alpha" maskUnits="userSpaceOnUse" x="0" y="0" width="20" height="20">
<rect width="20" height="20" fill="#D9D9D9"/>
</mask>
<g mask="url(#mask0_83_3495)">
<path d="M3.33329 16.6667C2.87496 16.6667 2.4826 16.5035 2.15621 16.1771C1.82982 15.8507 1.66663 15.4584 1.66663 15V5.00004C1.66663 4.54171 1.82982 4.14935 2.15621 3.82296C2.4826 3.49657 2.87496 3.33337 3.33329 3.33337H16.6666C17.125 3.33337 17.5173 3.49657 17.8437 3.82296C18.1701 4.14935 18.3333 4.54171 18.3333 5.00004V15C18.3333 15.4584 18.1701 15.8507 17.8437 16.1771C17.5173 16.5035 17.125 16.6667 16.6666 16.6667H3.33329ZM16.6666 6.66671L10.4375 10.5625C10.368 10.6042 10.2951 10.6355 10.2187 10.6563C10.1423 10.6771 10.0694 10.6875 9.99996 10.6875C9.93051 10.6875 9.8576 10.6771 9.78121 10.6563C9.70482 10.6355 9.6319 10.6042 9.56246 10.5625L3.33329 6.66671V15H16.6666V6.66671ZM9.99996 9.16671L16.6666 5.00004H3.33329L9.99996 9.16671ZM3.33329 6.87504V5.64587V5.66671V5.65629V6.87504Z" fill="#B7B9C9"/>
</g>
</svg>
