<svg width="20" height="20" viewBox="0 0 20 20" fill="none" xmlns="http://www.w3.org/2000/svg">
<mask id="mask0_83_3549" style="mask-type:alpha" maskUnits="userSpaceOnUse" x="0" y="0" width="20" height="20">
<rect width="20" height="20" fill="#D9D9D9"/>
</mask>
<g mask="url(#mask0_83_3549)">
<path d="M11.0833 16.8955C10.9305 16.7288 10.8507 16.5344 10.8437 16.3122C10.8368 16.09 10.9166 15.8955 11.0833 15.7288L13.4791 13.333H4.99996C4.76385 13.333 4.56593 13.2531 4.40621 13.0934C4.24649 12.9337 4.16663 12.7358 4.16663 12.4997V4.16634C4.16663 3.93023 4.24649 3.73231 4.40621 3.57259C4.56593 3.41287 4.76385 3.33301 4.99996 3.33301C5.23607 3.33301 5.43399 3.41287 5.59371 3.57259C5.75343 3.73231 5.83329 3.93023 5.83329 4.16634V11.6663H13.4791L11.0625 9.24967C10.9097 9.0969 10.8298 8.90592 10.8229 8.67676C10.8159 8.44759 10.8958 8.24967 11.0625 8.08301C11.2291 7.91634 11.427 7.83648 11.6562 7.84342C11.8854 7.85037 12.0833 7.93023 12.25 8.08301L16.0833 11.9163C16.1666 11.9997 16.2257 12.09 16.2604 12.1872C16.2951 12.2844 16.3125 12.3886 16.3125 12.4997C16.3125 12.6108 16.2951 12.715 16.2604 12.8122C16.2257 12.9094 16.1666 12.9997 16.0833 13.083L12.25 16.9163C12.0972 17.0691 11.9062 17.1455 11.677 17.1455C11.4479 17.1455 11.25 17.0622 11.0833 16.8955Z" fill="#B7B9C9"/>
</g>
</svg>
