<svg width="current" height="current" viewBox="0 0 16 16" fill="none" xmlns="http://www.w3.org/2000/svg">
  <mask id="a" style="mask-type:alpha" maskUnits="userSpaceOnUse" x="0" y="0" width="16" height="16">
    <path fill="currentColor" d="M0 0h16v16H0z"/>
  </mask>
  <g mask="url(#a)">
    <path d="M8 10.667a.645.645 0 0 1-.475-.192.645.645 0 0 1-.192-.475V5.217l-1.266 1.25a.651.651 0 0 1-.459.191.62.62 0 0 1-.475-.191A.632.632 0 0 1 4.95 6c0-.189.061-.344.183-.467l2.4-2.4a.585.585 0 0 1 .217-.141A.738.738 0 0 1 8 2.95c.089 0 .172.014.25.042.078.027.15.075.217.141l2.4 2.4a.65.65 0 0 1 .191.459.62.62 0 0 1-.191.475.632.632 0 0 1-.467.183.632.632 0 0 1-.467-.183l-1.266-1.25V10a.645.645 0 0 1-.192.475.645.645 0 0 1-.475.192Zm-2.667 2.666a.645.645 0 0 1-.475-.191.645.645 0 0 1-.191-.475c0-.19.064-.348.191-.475A.645.645 0 0 1 5.333 12h5.334c.189 0 .347.064.475.192a.645.645 0 0 1 .191.475.645.645 0 0 1-.191.475.645.645 0 0 1-.475.191H5.333Z" fill="currentColor"/>
  </g>
</svg>
