<svg width="20" height="21" viewBox="0 0 20 21" fill="none" xmlns="http://www.w3.org/2000/svg">
<g clip-path="url(#clip0_733_2720)">
<path d="M10 18.0059C14.4183 18.0059 18 14.4241 18 10.0059C18 5.58758 14.4183 2.00586 10 2.00586C5.58172 2.00586 2 5.58758 2 10.0059C2 14.4241 5.58172 18.0059 10 18.0059Z" fill="#9395A6"/>
<path d="M13.1145 12.3178L13.4689 10.0047H11.2503V8.50396C11.2503 7.8717 11.5597 7.25406 12.5542 7.25406H13.5634V5.28528C13.5634 5.28528 12.6476 5.12891 11.7723 5.12891C9.9453 5.12891 8.75053 6.23592 8.75053 8.24183V10.0047H6.71875V12.3178H8.75053V17.908C9.15779 17.9721 9.57517 18.0047 10.0004 18.0047C10.4257 18.0047 10.8431 17.971 11.2503 17.908V12.3178H13.1145Z" fill="white"/>
</g>
<defs>
<clipPath id="clip0_733_2720">
<rect width="16" height="16" fill="white" transform="translate(2 2.00391)"/>
</clipPath>
</defs>
</svg>
