<svg width="16" height="16" viewBox="0 0 16 16" fill="none" xmlns="http://www.w3.org/2000/svg">
<mask id="mask0_154_2121" style="mask-type:alpha" maskUnits="userSpaceOnUse" x="0" y="0" width="16" height="16">
<rect width="16" height="16" fill="#D9D9D9"/>
</mask>
<g mask="url(#mask0_154_2121)">
<path d="M12.6673 12.666H5.33398C4.96732 12.666 4.65343 12.5355 4.39232 12.2743C4.13121 12.0132 4.00065 11.6993 4.00065 11.3327V1.99935C4.00065 1.63268 4.13121 1.31879 4.39232 1.05768C4.65343 0.796571 4.96732 0.666016 5.33398 0.666016H9.45065C9.62843 0.666016 9.79787 0.699349 9.95898 0.766016C10.1201 0.832682 10.2618 0.927127 10.384 1.04935L13.6173 4.28268C13.7395 4.4049 13.834 4.54657 13.9007 4.70768C13.9673 4.86879 14.0007 5.03824 14.0007 5.21602V11.3327C14.0007 11.6993 13.8701 12.0132 13.609 12.2743C13.3479 12.5355 13.034 12.666 12.6673 12.666ZM2.66732 15.3327C2.30065 15.3327 1.98676 15.2021 1.72565 14.941C1.46454 14.6799 1.33398 14.366 1.33398 13.9993V5.33268C1.33398 5.14379 1.39787 4.98546 1.52565 4.85768C1.65343 4.7299 1.81176 4.66602 2.00065 4.66602C2.18954 4.66602 2.34787 4.7299 2.47565 4.85768C2.60343 4.98546 2.66732 5.14379 2.66732 5.33268V13.9993H9.33398C9.52287 13.9993 9.68121 14.0632 9.80898 14.191C9.93676 14.3188 10.0007 14.4771 10.0007 14.666C10.0007 14.8549 9.93676 15.0132 9.80898 15.141C9.68121 15.2688 9.52287 15.3327 9.33398 15.3327H2.66732ZM10.0007 5.33268H12.6673L9.33398 1.99935V4.66602C9.33398 4.8549 9.39787 5.01324 9.52565 5.14102C9.65343 5.26879 9.81176 5.33268 10.0007 5.33268Z" fill="#9395A6"/>
</g>
</svg>
