<svg width="16" height="16" viewBox="0 0 16 16" fill="none" xmlns="http://www.w3.org/2000/svg">
<mask id="mask0_559_6335" style="mask-type:alpha" maskUnits="userSpaceOnUse" x="0" y="0" width="16" height="16">
<rect width="16" height="16" fill="#D9D9D9"/>
</mask>
<g mask="url(#mask0_559_6335)">
<path d="M7.33322 13.3333C7.14434 13.3333 6.986 13.2694 6.85822 13.1416C6.73045 13.0138 6.66656 12.8555 6.66656 12.6666V8.66663L2.79989 3.73329C2.63322 3.51107 2.60822 3.27774 2.72489 3.03329C2.84156 2.78885 3.04434 2.66663 3.33322 2.66663H12.6666C12.9554 2.66663 13.1582 2.78885 13.2749 3.03329C13.3916 3.27774 13.3666 3.51107 13.1999 3.73329L9.33322 8.66663V12.6666C9.33322 12.8555 9.26934 13.0138 9.14156 13.1416C9.01378 13.2694 8.85545 13.3333 8.66656 13.3333H7.33322Z" fill="white"/>
</g>
</svg>
