<svg width="24" height="24" viewBox="0 0 24 24" fill="none" xmlns="http://www.w3.org/2000/svg">
<g id="Frame 42403">
<circle id="Ellipse 173" cx="12" cy="12" r="10" fill="#6B77F8"/>
<path id="&#226;&#130;&#169;" d="M9.15625 16.4844H10.8672L11.7051 12.8047H12.8301L13.668 16.4844H15.3789L16.2461 12.8047H17.5352V11.6797H16.5156L17.3828 8H15.7656L15.0098 11.6797H13.8672L13.0234 8H11.5117L10.668 11.6797H9.53125L8.76953 8H7.15234L8.01953 11.6797H7V12.8047H8.28906L9.15625 16.4844ZM9.75977 12.8047H10.4102L10.1055 14.1289H10.0352L9.75977 12.8047ZM11.9629 11.6797L12.2383 10.4609H12.2969L12.5723 11.6797H11.9629ZM14.125 12.8047H14.7754L14.5 14.1406H14.4297L14.125 12.8047Z" fill="white"/>
</g>
</svg>
