<svg width="16" height="16" viewBox="0 0 16 16" fill="none" xmlns="http://www.w3.org/2000/svg">
<mask id="mask0_194_1693" style="mask-type:alpha" maskUnits="userSpaceOnUse" x="0" y="0" width="16" height="16">
<rect width="16" height="16" fill="#D9D9D9"/>
</mask>
<g mask="url(#mask0_194_1693)">
<path d="M7.96683 12C8.20016 12 8.39739 11.9194 8.5585 11.7583C8.71961 11.5972 8.80016 11.4 8.80016 11.1666C8.80016 10.9333 8.71961 10.7361 8.5585 10.575C8.39739 10.4139 8.20016 10.3333 7.96683 10.3333C7.7335 10.3333 7.53627 10.4139 7.37516 10.575C7.21405 10.7361 7.1335 10.9333 7.1335 11.1666C7.1335 11.4 7.21405 11.5972 7.37516 11.7583C7.53627 11.9194 7.7335 12 7.96683 12ZM8.00016 14.6666C7.07794 14.6666 6.21127 14.4916 5.40016 14.1416C4.58905 13.7916 3.8835 13.3166 3.2835 12.7166C2.6835 12.1166 2.2085 11.4111 1.8585 10.6C1.5085 9.78887 1.3335 8.9222 1.3335 7.99998C1.3335 7.07776 1.5085 6.21109 1.8585 5.39998C2.2085 4.58887 2.6835 3.88331 3.2835 3.28331C3.8835 2.68331 4.58905 2.20831 5.40016 1.85831C6.21127 1.50831 7.07794 1.33331 8.00016 1.33331C8.92238 1.33331 9.78905 1.50831 10.6002 1.85831C11.4113 2.20831 12.1168 2.68331 12.7168 3.28331C13.3168 3.88331 13.7918 4.58887 14.1418 5.39998C14.4918 6.21109 14.6668 7.07776 14.6668 7.99998C14.6668 8.9222 14.4918 9.78887 14.1418 10.6C13.7918 11.4111 13.3168 12.1166 12.7168 12.7166C12.1168 13.3166 11.4113 13.7916 10.6002 14.1416C9.78905 14.4916 8.92238 14.6666 8.00016 14.6666ZM8.00016 13.3333C9.48905 13.3333 10.7502 12.8166 11.7835 11.7833C12.8168 10.75 13.3335 9.48887 13.3335 7.99998C13.3335 6.51109 12.8168 5.24998 11.7835 4.21665C10.7502 3.18331 9.48905 2.66665 8.00016 2.66665C6.51127 2.66665 5.25016 3.18331 4.21683 4.21665C3.1835 5.24998 2.66683 6.51109 2.66683 7.99998C2.66683 9.48887 3.1835 10.75 4.21683 11.7833C5.25016 12.8166 6.51127 13.3333 8.00016 13.3333ZM8.06683 5.13331C8.34461 5.13331 8.58627 5.2222 8.79183 5.39998C8.99738 5.57776 9.10016 5.79998 9.10016 6.06665C9.10016 6.31109 9.02516 6.52776 8.87516 6.71665C8.72516 6.90553 8.55572 7.08331 8.36683 7.24998C8.11127 7.4722 7.88627 7.71665 7.69183 7.98331C7.49739 8.24998 7.40016 8.54998 7.40016 8.88331C7.40016 9.03887 7.4585 9.16942 7.57516 9.27498C7.69183 9.38054 7.82794 9.43331 7.9835 9.43331C8.15016 9.43331 8.29183 9.37776 8.4085 9.26665C8.52516 9.15554 8.60016 9.01665 8.6335 8.84998C8.67794 8.61665 8.77794 8.40831 8.9335 8.22498C9.08905 8.04165 9.25572 7.86665 9.4335 7.69998C9.68905 7.45553 9.9085 7.18887 10.0918 6.89998C10.2752 6.61109 10.3668 6.28887 10.3668 5.93331C10.3668 5.36665 10.1363 4.90276 9.67516 4.54165C9.21405 4.18054 8.67794 3.99998 8.06683 3.99998C7.64461 3.99998 7.24183 4.08887 6.8585 4.26665C6.47516 4.44442 6.1835 4.71665 5.9835 5.08331C5.90572 5.21665 5.88072 5.35831 5.9085 5.50831C5.93627 5.65831 6.01127 5.7722 6.1335 5.84998C6.28905 5.93887 6.45016 5.96665 6.61683 5.93331C6.7835 5.89998 6.92238 5.80553 7.0335 5.64998C7.15572 5.48331 7.3085 5.35554 7.49183 5.26665C7.67516 5.17776 7.86683 5.13331 8.06683 5.13331Z" fill="#9395A6"/>
</g>
</svg>
