<svg width="21" height="20" viewBox="0 0 21 20" fill="none" xmlns="http://www.w3.org/2000/svg">
<mask id="mask0_83_3480" style="mask-type:alpha" maskUnits="userSpaceOnUse" x="0" y="0" width="21" height="20">
<rect x="0.5" width="20" height="20" fill="#D9D9D9"/>
</mask>
<g mask="url(#mask0_83_3480)">
<path d="M10.5 17.5C8.75 17.5 7.20139 16.9687 5.85417 15.9062C4.50694 14.8437 3.63194 13.4861 3.22917 11.8333C3.17361 11.625 3.21528 11.434 3.35417 11.2604C3.49306 11.0868 3.68056 10.9861 3.91667 10.9583C4.13889 10.9306 4.34028 10.9722 4.52083 11.0833C4.70139 11.1944 4.82639 11.3611 4.89583 11.5833C5.22917 12.8333 5.91667 13.8542 6.95833 14.6458C8 15.4375 9.18056 15.8333 10.5 15.8333C12.125 15.8333 13.5035 15.2674 14.6354 14.1354C15.7674 13.0035 16.3333 11.625 16.3333 10C16.3333 8.375 15.7674 6.99653 14.6354 5.86458C13.5035 4.73264 12.125 4.16667 10.5 4.16667C9.54167 4.16667 8.64583 4.38889 7.8125 4.83333C6.97917 5.27778 6.27778 5.88889 5.70833 6.66667H7.16667C7.40278 6.66667 7.60069 6.74653 7.76042 6.90625C7.92014 7.06597 8 7.26389 8 7.5C8 7.73611 7.92014 7.93403 7.76042 8.09375C7.60069 8.25347 7.40278 8.33333 7.16667 8.33333H3.83333C3.59722 8.33333 3.39931 8.25347 3.23958 8.09375C3.07986 7.93403 3 7.73611 3 7.5V4.16667C3 3.93056 3.07986 3.73264 3.23958 3.57292C3.39931 3.41319 3.59722 3.33333 3.83333 3.33333C4.06944 3.33333 4.26736 3.41319 4.42708 3.57292C4.58681 3.73264 4.66667 3.93056 4.66667 4.16667V5.29167C5.375 4.40278 6.23958 3.71528 7.26042 3.22917C8.28125 2.74306 9.36111 2.5 10.5 2.5C11.5417 2.5 12.5174 2.69792 13.4271 3.09375C14.3368 3.48958 15.1285 4.02431 15.8021 4.69792C16.4757 5.37153 17.0104 6.16319 17.4062 7.07292C17.8021 7.98264 18 8.95833 18 10C18 11.0417 17.8021 12.0174 17.4062 12.9271C17.0104 13.8368 16.4757 14.6285 15.8021 15.3021C15.1285 15.9757 14.3368 16.5104 13.4271 16.9062C12.5174 17.3021 11.5417 17.5 10.5 17.5ZM11.3333 9.66667L13.4167 11.75C13.5694 11.9028 13.6458 12.0972 13.6458 12.3333C13.6458 12.5694 13.5694 12.7639 13.4167 12.9167C13.2639 13.0694 13.0694 13.1458 12.8333 13.1458C12.5972 13.1458 12.4028 13.0694 12.25 12.9167L9.91667 10.5833C9.83333 10.5 9.77083 10.4062 9.72917 10.3021C9.6875 10.1979 9.66667 10.0903 9.66667 9.97917V6.66667C9.66667 6.43056 9.74653 6.23264 9.90625 6.07292C10.066 5.91319 10.2639 5.83333 10.5 5.83333C10.7361 5.83333 10.934 5.91319 11.0938 6.07292C11.2535 6.23264 11.3333 6.43056 11.3333 6.66667V9.66667Z" fill="#6B77F8"/>
</g>
</svg>
