<svg width="16" height="16" viewBox="0 0 16 16" fill="none" xmlns="http://www.w3.org/2000/svg">
<mask id="mask0_559_6552" style="mask-type:alpha" maskUnits="userSpaceOnUse" x="0" y="0" width="16" height="16">
<rect width="16" height="16" fill="#D9D9D9"/>
</mask>
<g mask="url(#mask0_559_6552)">
<path d="M5.66667 8.33333C5.47778 8.33333 5.31944 8.26944 5.19167 8.14167C5.06389 8.01389 5 7.85556 5 7.66667C5 7.47778 5.06389 7.31944 5.19167 7.19167C5.31944 7.06389 5.47778 7 5.66667 7H11C11.1889 7 11.3472 7.06389 11.475 7.19167C11.6028 7.31944 11.6667 7.47778 11.6667 7.66667C11.6667 7.85556 11.6028 8.01389 11.475 8.14167C11.3472 8.26944 11.1889 8.33333 11 8.33333H5.66667Z" fill="#626474"/>
</g>
</svg>
