<svg width="18" height="18" viewBox="0 0 18 18" fill="none" xmlns="http://www.w3.org/2000/svg">
<path d="M8.16663 13.1667H9.83329V8.16667H8.16663V13.1667ZM8.99996 6.5C9.23607 6.5 9.43399 6.42014 9.59371 6.26042C9.75343 6.10069 9.83329 5.90278 9.83329 5.66667C9.83329 5.43056 9.75343 5.23264 9.59371 5.07292C9.43399 4.91319 9.23607 4.83333 8.99996 4.83333C8.76385 4.83333 8.56593 4.91319 8.40621 5.07292C8.24649 5.23264 8.16663 5.43056 8.16663 5.66667C8.16663 5.90278 8.24649 6.10069 8.40621 6.26042C8.56593 6.42014 8.76385 6.5 8.99996 6.5ZM8.99996 17.3333C7.84718 17.3333 6.76385 17.1146 5.74996 16.6771C4.73607 16.2396 3.85413 15.6458 3.10413 14.8958C2.35413 14.1458 1.76038 13.2639 1.32288 12.25C0.885376 11.2361 0.666626 10.1528 0.666626 9C0.666626 7.84722 0.885376 6.76389 1.32288 5.75C1.76038 4.73611 2.35413 3.85417 3.10413 3.10417C3.85413 2.35417 4.73607 1.76042 5.74996 1.32292C6.76385 0.885417 7.84718 0.666667 8.99996 0.666667C10.1527 0.666667 11.2361 0.885417 12.25 1.32292C13.2638 1.76042 14.1458 2.35417 14.8958 3.10417C15.6458 3.85417 16.2395 4.73611 16.677 5.75C17.1145 6.76389 17.3333 7.84722 17.3333 9C17.3333 10.1528 17.1145 11.2361 16.677 12.25C16.2395 13.2639 15.6458 14.1458 14.8958 14.8958C14.1458 15.6458 13.2638 16.2396 12.25 16.6771C11.2361 17.1146 10.1527 17.3333 8.99996 17.3333ZM8.99996 15.6667C10.8611 15.6667 12.4375 15.0208 13.7291 13.7292C15.0208 12.4375 15.6666 10.8611 15.6666 9C15.6666 7.13889 15.0208 5.5625 13.7291 4.27083C12.4375 2.97917 10.8611 2.33333 8.99996 2.33333C7.13885 2.33333 5.56246 2.97917 4.27079 4.27083C2.97913 5.5625 2.33329 7.13889 2.33329 9C2.33329 10.8611 2.97913 12.4375 4.27079 13.7292C5.56246 15.0208 7.13885 15.6667 8.99996 15.6667Z" fill="#60C8DE"/>
</svg>
