<svg width="20" height="20" viewBox="0 0 20 20" fill="none" xmlns="http://www.w3.org/2000/svg">
<mask id="mask0_154_2489" style="mask-type:alpha" maskUnits="userSpaceOnUse" x="0" y="0" width="20" height="20">
<rect width="20" height="20" fill="#D9D9D9"/>
</mask>
<g mask="url(#mask0_154_2489)">
<path d="M9.16602 14.166H10.8327V9.16602H9.16602V14.166ZM9.99935 7.49935C10.2355 7.49935 10.4334 7.41949 10.5931 7.25977C10.7528 7.10004 10.8327 6.90213 10.8327 6.66602C10.8327 6.4299 10.7528 6.23199 10.5931 6.07227C10.4334 5.91254 10.2355 5.83268 9.99935 5.83268C9.76324 5.83268 9.56532 5.91254 9.4056 6.07227C9.24588 6.23199 9.16602 6.4299 9.16602 6.66602C9.16602 6.90213 9.24588 7.10004 9.4056 7.25977C9.56532 7.41949 9.76324 7.49935 9.99935 7.49935ZM9.99935 18.3327C8.84657 18.3327 7.76324 18.1139 6.74935 17.6764C5.73546 17.2389 4.85352 16.6452 4.10352 15.8952C3.35352 15.1452 2.75977 14.2632 2.32227 13.2493C1.88477 12.2355 1.66602 11.1521 1.66602 9.99935C1.66602 8.84657 1.88477 7.76324 2.32227 6.74935C2.75977 5.73546 3.35352 4.85352 4.10352 4.10352C4.85352 3.35352 5.73546 2.75977 6.74935 2.32227C7.76324 1.88477 8.84657 1.66602 9.99935 1.66602C11.1521 1.66602 12.2355 1.88477 13.2493 2.32227C14.2632 2.75977 15.1452 3.35352 15.8952 4.10352C16.6452 4.85352 17.2389 5.73546 17.6764 6.74935C18.1139 7.76324 18.3327 8.84657 18.3327 9.99935C18.3327 11.1521 18.1139 12.2355 17.6764 13.2493C17.2389 14.2632 16.6452 15.1452 15.8952 15.8952C15.1452 16.6452 14.2632 17.2389 13.2493 17.6764C12.2355 18.1139 11.1521 18.3327 9.99935 18.3327ZM9.99935 16.666C11.8605 16.666 13.4368 16.0202 14.7285 14.7285C16.0202 13.4368 16.666 11.8605 16.666 9.99935C16.666 8.13824 16.0202 6.56185 14.7285 5.27018C13.4368 3.97852 11.8605 3.33268 9.99935 3.33268C8.13824 3.33268 6.56185 3.97852 5.27018 5.27018C3.97852 6.56185 3.33268 8.13824 3.33268 9.99935C3.33268 11.8605 3.97852 13.4368 5.27018 14.7285C6.56185 16.0202 8.13824 16.666 9.99935 16.666Z" fill="#6B77F8"/>
</g>
</svg>
