<svg width="21" height="21" viewBox="0 0 21 21" fill="none" xmlns="http://www.w3.org/2000/svg">
<mask id="mask0_733_2696" style="mask-type:alpha" maskUnits="userSpaceOnUse" x="0" y="0" width="21" height="21">
<rect width="20.0018" height="20.0018" fill="#D9D9D9"/>
</mask>
<g mask="url(#mask0_733_2696)">
<path d="M4.16681 17.5013C3.70844 17.5013 3.31604 17.3381 2.98963 17.0117C2.66321 16.6853 2.5 16.2929 2.5 15.8345V4.16681C2.5 3.70844 2.66321 3.31604 2.98963 2.98963C3.31604 2.66321 3.70844 2.5 4.16681 2.5H9.16726C9.40339 2.5 9.60132 2.57987 9.76106 2.7396C9.9208 2.89934 10.0007 3.09728 10.0007 3.33341C10.0007 3.56954 9.9208 3.76747 9.76106 3.92721C9.60132 4.08695 9.40339 4.16681 9.16726 4.16681H4.16681V15.8345H15.8345V10.8341C15.8345 10.5979 15.9144 10.4 16.0741 10.2403C16.2339 10.0805 16.4318 10.0007 16.6679 10.0007C16.9041 10.0007 17.102 10.0805 17.2617 10.2403C17.4215 10.4 17.5013 10.5979 17.5013 10.8341V15.8345C17.5013 16.2929 17.3381 16.6853 17.0117 17.0117C16.6853 17.3381 16.2929 17.5013 15.8345 17.5013H4.16681ZM7.50044 12.5009C7.34765 12.3481 7.27126 12.1536 7.27126 11.9175C7.27126 11.6814 7.34765 11.4869 7.50044 11.3341L14.6677 4.16681H12.5009C12.2648 4.16681 12.0668 4.08695 11.9071 3.92721C11.7473 3.76747 11.6675 3.56954 11.6675 3.33341C11.6675 3.09728 11.7473 2.89934 11.9071 2.7396C12.0668 2.57987 12.2648 2.5 12.5009 2.5H16.6679C16.9041 2.5 17.102 2.57987 17.2617 2.7396C17.4215 2.89934 17.5013 3.09728 17.5013 3.33341V7.50044C17.5013 7.73657 17.4215 7.93451 17.2617 8.09425C17.102 8.25398 16.9041 8.33385 16.6679 8.33385C16.4318 8.33385 16.2339 8.25398 16.0741 8.09425C15.9144 7.93451 15.8345 7.73657 15.8345 7.50044V5.33358L8.64638 12.5217C8.49359 12.6745 8.30607 12.7509 8.08383 12.7509C7.86159 12.7509 7.66712 12.6676 7.50044 12.5009Z" fill="#626474"/>
</g>
</svg>
