<svg width="100%" height="100%" viewBox="0 0 17 16" fill="none" xmlns="http://www.w3.org/2000/svg">
<mask id="mask0_559_6302" style="mask-type:alpha" maskUnits="userSpaceOnUse" x="0" y="0" width="17" height="16">
<rect x="0.213867" width="16" height="16" fill="#D9D9D9"/>
</mask>
<g mask="url(#mask0_559_6302)">
<path d="M8.2137 8.00004C8.58037 8.00004 8.89426 7.86948 9.15537 7.60837C9.41648 7.34726 9.54704 7.03337 9.54704 6.66671C9.54704 6.30004 9.41648 5.98615 9.15537 5.72504C8.89426 5.46393 8.58037 5.33337 8.2137 5.33337C7.84704 5.33337 7.53315 5.46393 7.27204 5.72504C7.01093 5.98615 6.88037 6.30004 6.88037 6.66671C6.88037 7.03337 7.01093 7.34726 7.27204 7.60837C7.53315 7.86948 7.84704 8.00004 8.2137 8.00004ZM8.2137 12.9C9.56926 11.6556 10.5748 10.525 11.2304 9.50837C11.8859 8.49171 12.2137 7.58893 12.2137 6.80004C12.2137 5.58893 11.8276 4.59726 11.0554 3.82504C10.2831 3.05282 9.33593 2.66671 8.2137 2.66671C7.09148 2.66671 6.14426 3.05282 5.37204 3.82504C4.59982 4.59726 4.2137 5.58893 4.2137 6.80004C4.2137 7.58893 4.54148 8.49171 5.19704 9.50837C5.85259 10.525 6.85815 11.6556 8.2137 12.9ZM8.2137 14.4167C8.12482 14.4167 8.03593 14.4 7.94704 14.3667C7.85815 14.3334 7.78037 14.2889 7.7137 14.2334C6.09148 12.8 4.88037 11.4695 4.08037 10.2417C3.28037 9.01393 2.88037 7.86671 2.88037 6.80004C2.88037 5.13337 3.41648 3.8056 4.4887 2.81671C5.56093 1.82782 6.80259 1.33337 8.2137 1.33337C9.62482 1.33337 10.8665 1.82782 11.9387 2.81671C13.0109 3.8056 13.547 5.13337 13.547 6.80004C13.547 7.86671 13.147 9.01393 12.347 10.2417C11.547 11.4695 10.3359 12.8 8.7137 14.2334C8.64704 14.2889 8.56926 14.3334 8.48037 14.3667C8.39148 14.4 8.30259 14.4167 8.2137 14.4167Z" fill="currentColor"/>
</g>
</svg>
