<svg width="73" height="72" viewBox="0 0 73 72" fill="none" xmlns="http://www.w3.org/2000/svg">
<mask id="mask0_1048_3301" style="mask-type:alpha" maskUnits="userSpaceOnUse" x="0" y="0" width="73" height="72">
<rect x="0.5" width="72" height="72" fill="#D9D9D9"/>
</mask>
<g mask="url(#mask0_1048_3301)">
<path d="M18.5 66C16.85 66 15.4375 65.4125 14.2625 64.2375C13.0875 63.0625 12.5 61.65 12.5 60V30C12.5 28.35 13.0875 26.9375 14.2625 25.7625C15.4375 24.5875 16.85 24 18.5 24H21.5V18C21.5 13.85 22.9625 10.3125 25.8875 7.3875C28.8125 4.4625 32.35 3 36.5 3C40.65 3 44.1875 4.4625 47.1125 7.3875C50.0375 10.3125 51.5 13.85 51.5 18V24H54.5C56.15 24 57.5625 24.5875 58.7375 25.7625C59.9125 26.9375 60.5 28.35 60.5 30V60C60.5 61.65 59.9125 63.0625 58.7375 64.2375C57.5625 65.4125 56.15 66 54.5 66H18.5ZM36.5 51C38.15 51 39.5625 50.4125 40.7375 49.2375C41.9125 48.0625 42.5 46.65 42.5 45C42.5 43.35 41.9125 41.9375 40.7375 40.7625C39.5625 39.5875 38.15 39 36.5 39C34.85 39 33.4375 39.5875 32.2625 40.7625C31.0875 41.9375 30.5 43.35 30.5 45C30.5 46.65 31.0875 48.0625 32.2625 49.2375C33.4375 50.4125 34.85 51 36.5 51ZM27.5 24H45.5V18C45.5 15.5 44.625 13.375 42.875 11.625C41.125 9.875 39 9 36.5 9C34 9 31.875 9.875 30.125 11.625C28.375 13.375 27.5 15.5 27.5 18V24Z" fill="#E4E6F0"/>
</g>
</svg>
