<svg width="20" height="21" viewBox="0 0 20 21" fill="none" xmlns="http://www.w3.org/2000/svg">
<mask id="mask0_733_2713" style="mask-type:alpha" maskUnits="userSpaceOnUse" x="0" y="0" width="20" height="21">
<rect y="0.00390625" width="20" height="20" fill="#D9D9D9"/>
</mask>
<g mask="url(#mask0_733_2713)">
<path d="M3.33268 16.6712C2.87435 16.6712 2.48199 16.508 2.1556 16.1816C1.82921 15.8553 1.66602 15.4629 1.66602 15.0046V5.00456C1.66602 4.54622 1.82921 4.15386 2.1556 3.82747C2.48199 3.50109 2.87435 3.33789 3.33268 3.33789H16.666C17.1243 3.33789 17.5167 3.50109 17.8431 3.82747C18.1695 4.15386 18.3327 4.54622 18.3327 5.00456V15.0046C18.3327 15.4629 18.1695 15.8553 17.8431 16.1816C17.5167 16.508 17.1243 16.6712 16.666 16.6712H3.33268ZM9.99935 10.6921C10.0688 10.6921 10.1417 10.6816 10.2181 10.6608C10.2945 10.64 10.3674 10.6087 10.4368 10.5671L16.3327 6.87956C16.4438 6.81011 16.5271 6.72331 16.5827 6.61914C16.6382 6.51497 16.666 6.40039 16.666 6.27539C16.666 5.99761 16.548 5.78928 16.3118 5.65039C16.0757 5.5115 15.8327 5.51845 15.5827 5.67122L9.99935 9.17122L4.41602 5.67122C4.16602 5.51845 3.92296 5.51497 3.68685 5.66081C3.45074 5.80664 3.33268 6.0115 3.33268 6.27539C3.33268 6.41428 3.36046 6.53581 3.41602 6.63997C3.47157 6.74414 3.5549 6.824 3.66602 6.87956L9.56185 10.5671C9.63129 10.6087 9.70421 10.64 9.7806 10.6608C9.85699 10.6816 9.9299 10.6921 9.99935 10.6921Z" fill="#9395A6"/>
</g>
</svg>
