<svg width="current" height="current" viewBox="0 0 24 24" fill="none" xmlns="http://www.w3.org/2000/svg">
  <mask id="a" style="mask-type:alpha" maskUnits="userSpaceOnUse" x="0" y="0" width="24" height="24">
    <path fill="currentColor" d="M0 0h24v24H0z"/>
  </mask>
  <g mask="url(#a)">
    <path d="M10 12c-1.1 0-2.042-.392-2.825-1.175C6.392 10.042 6 9.1 6 8s.392-2.042 1.175-2.825C7.958 4.392 8.9 4 10 4s2.042.392 2.825 1.175C13.608 5.958 14 6.9 14 8s-.392 2.042-1.175 2.825C12.042 11.608 11.1 12 10 12Zm-7 8a.967.967 0 0 1-.712-.288A.968.968 0 0 1 2 19v-1.8c0-.55.142-1.067.425-1.55.283-.483.675-.85 1.175-1.1.85-.433 1.808-.8 2.875-1.1C7.542 13.15 8.717 13 10 13h.35c.1 0 .2.017.3.05a6.96 6.96 0 0 0-.338.938A7.773 7.773 0 0 0 10.1 15H10c-1.183 0-2.246.15-3.188.45-.941.3-1.712.6-2.312.9a.973.973 0 0 0-.5.85v.8h6.3c.1.35.233.696.4 1.038.167.341.35.662.55.962H3Zm7-10c.55 0 1.02-.196 1.412-.588C11.804 9.021 12 8.55 12 8c0-.55-.196-1.02-.588-1.412A1.926 1.926 0 0 0 10 6c-.55 0-1.02.196-1.412.588A1.926 1.926 0 0 0 8 8c0 .55.196 1.02.588 1.412.391.392.862.588 1.412.588Zm7 8c.55 0 1.02-.196 1.413-.587.391-.392.587-.863.587-1.413s-.196-1.02-.587-1.412A1.926 1.926 0 0 0 17 14c-.55 0-1.02.196-1.412.588A1.926 1.926 0 0 0 15 16c0 .55.196 1.02.588 1.413.391.391.862.587 1.412.587Zm-1.3 1.5a7.03 7.03 0 0 1-.563-.262 4.358 4.358 0 0 1-.537-.338l-1.075.325a.48.48 0 0 1-.325-.013.556.556 0 0 1-.25-.212l-.6-1a.41.41 0 0 1-.063-.325.528.528 0 0 1 .188-.3l.825-.725a4.62 4.62 0 0 1-.05-.65c0-.2.017-.417.05-.65l-.825-.725a.528.528 0 0 1-.188-.3.41.41 0 0 1 .063-.325l.6-1c.067-.1.15-.17.25-.213a.48.48 0 0 1 .325-.012l1.075.325c.183-.133.363-.246.537-.338a7.22 7.22 0 0 1 .563-.262l.225-1.1a.598.598 0 0 1 .175-.287.433.433 0 0 1 .3-.113h1.2c.117 0 .217.037.3.113.083.075.142.17.175.287l.225 1.1c.2.083.387.175.563.275.175.1.354.225.537.375l1.05-.375a.4.4 0 0 1 .338 0c.108.05.195.125.262.225l.6 1.05c.067.1.092.208.075.325a.47.47 0 0 1-.175.3l-.85.725c.033.2.05.408.05.625a3.8 3.8 0 0 1-.05.625l.825.725c.1.083.163.183.188.3a.41.41 0 0 1-.063.325l-.6 1c-.067.1-.15.17-.25.212a.48.48 0 0 1-.325.013L19.4 18.9a4.358 4.358 0 0 1-.537.338 7.22 7.22 0 0 1-.563.262l-.225 1.1a.598.598 0 0 1-.175.287.433.433 0 0 1-.3.113h-1.2a.433.433 0 0 1-.3-.113.598.598 0 0 1-.175-.287l-.225-1.1Z" fill="currentColor"/>
  </g>
</svg>
