<svg width="current" height="current" viewBox="0 0 20 21" fill="none" xmlns="http://www.w3.org/2000/svg">
  <mask id="a" style="mask-type:alpha" maskUnits="userSpaceOnUse" x="0" y="0" width="20" height="20">
    <path fill="currentColor" d="M0 .5h20v20H0z"/>
  </mask>
  <g mask="url(#a)">
    <path d="M4.27 13.75h12.315V7.185a5.52 5.52 0 0 0 .924-.284c.297-.122.572-.284.824-.484v7.333c0 .481-.17.893-.514 1.236a1.685 1.685 0 0 1-1.236.514H5l-3.333 3.333V3.917c0-.482.171-.894.514-1.236a1.685 1.685 0 0 1 1.236-.514h8.291a3.769 3.769 0 0 0 0 1.75H3.417v10.687l.854-.854ZM5 12.167h6.708v-1.75H5v1.75Zm0-2.459h10v-1.75H5v1.75ZM5 7.25h10v-.083a4.218 4.218 0 0 1-1.458-.605 4.252 4.252 0 0 1-1.12-1.062H5v1.75Zm10.833-1.52a2.41 2.41 0 0 1-1.77-.73 2.411 2.411 0 0 1-.73-1.77c0-.695.243-1.286.73-1.772a2.41 2.41 0 0 1 1.77-.729 2.41 2.41 0 0 1 1.771.73 2.41 2.41 0 0 1 .73 1.77A2.41 2.41 0 0 1 17.603 5a2.41 2.41 0 0 1-1.77.73Z" fill="currentColor"/>
  </g>
</svg>
