<svg width="16" height="16" viewBox="0 0 16 16" fill="none" xmlns="http://www.w3.org/2000/svg">
<mask id="mask0_262_7852" style="mask-type:alpha" maskUnits="userSpaceOnUse" x="0" y="0" width="16" height="16">
<rect width="16" height="16" fill="#D9D9D9"/>
</mask>
<g mask="url(#mask0_262_7852)">
<path d="M7.28317 8.50016L7.99984 7.95016L8.69984 8.50016C8.83317 8.60016 8.9665 8.60294 9.09984 8.5085C9.23317 8.41405 9.27762 8.28905 9.23317 8.1335L8.94984 7.2335L9.74984 6.60016C9.87206 6.50016 9.90817 6.37516 9.85817 6.22516C9.80817 6.07516 9.70539 6.00016 9.54984 6.00016H8.59984L8.3165 5.11683C8.26095 4.96127 8.15539 4.8835 7.99984 4.8835C7.84428 4.8835 7.73873 4.96127 7.68317 5.11683L7.39984 6.00016H6.44984C6.28317 6.00016 6.17484 6.07516 6.12484 6.22516C6.07484 6.37516 6.11095 6.50016 6.23317 6.60016L7.03317 7.2335L6.74984 8.1335C6.69428 8.28905 6.73595 8.41405 6.87484 8.5085C7.01373 8.60294 7.14984 8.60016 7.28317 8.50016ZM4.88317 15.0335C4.66095 15.1113 4.45817 15.0835 4.27484 14.9502C4.0915 14.8168 3.99984 14.6391 3.99984 14.4168V10.1835C3.57761 9.71683 3.24984 9.1835 3.0165 8.5835C2.78317 7.9835 2.6665 7.34461 2.6665 6.66683C2.6665 5.17794 3.18317 3.91683 4.2165 2.8835C5.24984 1.85016 6.51095 1.3335 7.99984 1.3335C9.48873 1.3335 10.7498 1.85016 11.7832 2.8835C12.8165 3.91683 13.3332 5.17794 13.3332 6.66683C13.3332 7.34461 13.2165 7.9835 12.9832 8.5835C12.7498 9.1835 12.4221 9.71683 11.9998 10.1835V14.4168C11.9998 14.6391 11.9082 14.8168 11.7248 14.9502C11.5415 15.0835 11.3387 15.1113 11.1165 15.0335L7.99984 14.0002L4.88317 15.0335ZM7.99984 10.6668C9.11095 10.6668 10.0554 10.2779 10.8332 9.50016C11.6109 8.72238 11.9998 7.77794 11.9998 6.66683C11.9998 5.55572 11.6109 4.61127 10.8332 3.8335C10.0554 3.05572 9.11095 2.66683 7.99984 2.66683C6.88873 2.66683 5.94428 3.05572 5.1665 3.8335C4.38873 4.61127 3.99984 5.55572 3.99984 6.66683C3.99984 7.77794 4.38873 8.72238 5.1665 9.50016C5.94428 10.2779 6.88873 10.6668 7.99984 10.6668Z" fill="#6B77F8"/>
</g>
</svg>
