<svg width="24" height="24" viewBox="0 0 24 24" fill="none" xmlns="http://www.w3.org/2000/svg">
<mask id="mask0_618_2293" style="mask-type:alpha" maskUnits="userSpaceOnUse" x="0" y="0" width="24" height="24">
<rect width="24" height="24" fill="#D9D9D9"/>
</mask>
<g mask="url(#mask0_618_2293)">
<path d="M4 13V15H20V13H4ZM4 2H20C20.55 2 21.0208 2.19583 21.4125 2.5875C21.8042 2.97917 22 3.45 22 4V15C22 15.55 21.8042 16.0208 21.4125 16.4125C21.0208 16.8042 20.55 17 20 17H16V20.375C16 20.7583 15.8417 21.0458 15.525 21.2375C15.2083 21.4292 14.8833 21.4417 14.55 21.275L12.45 20.225C12.3167 20.1417 12.1667 20.1 12 20.1C11.8333 20.1 11.6833 20.1417 11.55 20.225L9.45 21.275C9.11667 21.4417 8.79167 21.4292 8.475 21.2375C8.15833 21.0458 8 20.7583 8 20.375V17H4C3.45 17 2.97917 16.8042 2.5875 16.4125C2.19583 16.0208 2 15.55 2 15V4C2 3.45 2.19583 2.97917 2.5875 2.5875C2.97917 2.19583 3.45 2 4 2ZM4 10H20V4H4V10Z" fill="currentColor"/>
</g>
</svg>
