<svg width="4" height="14" viewBox="0 0 4 14" fill="none" xmlns="http://www.w3.org/2000/svg">
<path d="M2.00065 13.6673C1.54232 13.6673 1.14996 13.5041 0.823568 13.1777C0.497179 12.8513 0.333984 12.459 0.333984 12.0007C0.333984 11.5423 0.497179 11.15 0.823568 10.8236C1.14996 10.4972 1.54232 10.334 2.00065 10.334C2.45898 10.334 2.85135 10.4972 3.17773 10.8236C3.50412 11.15 3.66732 11.5423 3.66732 12.0007C3.66732 12.459 3.50412 12.8513 3.17773 13.1777C2.85135 13.5041 2.45898 13.6673 2.00065 13.6673ZM2.00065 8.66732C1.54232 8.66732 1.14996 8.50412 0.823568 8.17773C0.497179 7.85135 0.333984 7.45898 0.333984 7.00065C0.333984 6.54232 0.497179 6.14996 0.823568 5.82357C1.14996 5.49718 1.54232 5.33398 2.00065 5.33398C2.45898 5.33398 2.85135 5.49718 3.17773 5.82357C3.50412 6.14996 3.66732 6.54232 3.66732 7.00065C3.66732 7.45898 3.50412 7.85135 3.17773 8.17773C2.85135 8.50412 2.45898 8.66732 2.00065 8.66732ZM2.00065 3.66732C1.54232 3.66732 1.14996 3.50412 0.823568 3.17773C0.497179 2.85135 0.333984 2.45898 0.333984 2.00065C0.333984 1.54232 0.497179 1.14996 0.823568 0.823568C1.14996 0.497179 1.54232 0.333984 2.00065 0.333984C2.45898 0.333984 2.85135 0.497179 3.17773 0.823568C3.50412 1.14996 3.66732 1.54232 3.66732 2.00065C3.66732 2.45898 3.50412 2.85135 3.17773 3.17773C2.85135 3.50412 2.45898 3.66732 2.00065 3.66732Z" fill="#B7B9C9"/>
</svg>
