<svg width="24" height="24" viewBox="0 0 24 24" fill="none" xmlns="http://www.w3.org/2000/svg">
<mask id="mask0_154_1841" style="mask-type:alpha" maskUnits="userSpaceOnUse" x="0" y="0" width="24" height="24">
<rect width="24" height="24" fill="#D9D9D9"/>
</mask>
<g mask="url(#mask0_154_1841)">
<path d="M11.9992 20.7254C11.8326 20.7254 11.6701 20.7046 11.5117 20.6629C11.3534 20.6212 11.1992 20.5587 11.0492 20.4754L6.04922 17.7754C5.71589 17.5921 5.45755 17.3462 5.27422 17.0379C5.09089 16.7296 4.99922 16.3837 4.99922 16.0004V11.2004L2.59922 9.87539C2.41589 9.77539 2.28255 9.65039 2.19922 9.50039C2.11589 9.35039 2.07422 9.18372 2.07422 9.00039C2.07422 8.81706 2.11589 8.65039 2.19922 8.50039C2.28255 8.35039 2.41589 8.22539 2.59922 8.12539L11.0492 3.52539C11.1992 3.44206 11.3534 3.37956 11.5117 3.33789C11.6701 3.29622 11.8326 3.27539 11.9992 3.27539C12.1659 3.27539 12.3284 3.29622 12.4867 3.33789C12.6451 3.37956 12.7992 3.44206 12.9492 3.52539L22.4742 8.72539C22.6409 8.80872 22.7701 8.92956 22.8617 9.08789C22.9534 9.24622 22.9992 9.41706 22.9992 9.60039V16.0004C22.9992 16.2837 22.9034 16.5212 22.7117 16.7129C22.5201 16.9046 22.2826 17.0004 21.9992 17.0004C21.7159 17.0004 21.4784 16.9046 21.2867 16.7129C21.0951 16.5212 20.9992 16.2837 20.9992 16.0004V10.1004L18.9992 11.2004V16.0004C18.9992 16.3837 18.9076 16.7296 18.7242 17.0379C18.5409 17.3462 18.2826 17.5921 17.9492 17.7754L12.9492 20.4754C12.7992 20.5587 12.6451 20.6212 12.4867 20.6629C12.3284 20.7046 12.1659 20.7254 11.9992 20.7254ZM11.9992 12.7004L18.8492 9.00039L11.9992 5.30039L5.14922 9.00039L11.9992 12.7004ZM11.9992 18.7254L16.9992 16.0254V12.2504L12.9742 14.4754C12.8242 14.5587 12.6659 14.6212 12.4992 14.6629C12.3326 14.7046 12.1659 14.7254 11.9992 14.7254C11.8326 14.7254 11.6659 14.7046 11.4992 14.6629C11.3326 14.6212 11.1742 14.5587 11.0242 14.4754L6.99922 12.2504V16.0254L11.9992 18.7254Z" fill="currentColor"/>
</g>
</svg>
