<svg width="21" height="20" viewBox="0 0 21 20" fill="none" xmlns="http://www.w3.org/2000/svg">
<mask id="mask0_674_3381" style="mask-type:alpha" maskUnits="userSpaceOnUse" x="0" y="0" width="21" height="20">
<rect x="0.666992" width="20" height="20" fill="#D9D9D9"/>
</mask>
<g mask="url(#mask0_674_3381)">
<path d="M4.83366 17.5C4.37533 17.5 3.98296 17.3368 3.65658 17.0104C3.33019 16.684 3.16699 16.2916 3.16699 15.8333V4.16665C3.16699 3.70831 3.33019 3.31595 3.65658 2.98956C3.98296 2.66317 4.37533 2.49998 4.83366 2.49998H8.33366C8.51421 1.99998 8.8163 1.5972 9.23991 1.29165C9.66352 0.986091 10.1392 0.833313 10.667 0.833313C11.1948 0.833313 11.6705 0.986091 12.0941 1.29165C12.5177 1.5972 12.8198 1.99998 13.0003 2.49998H16.5003C16.9587 2.49998 17.351 2.66317 17.6774 2.98956C18.0038 3.31595 18.167 3.70831 18.167 4.16665V15.8333C18.167 16.2916 18.0038 16.684 17.6774 17.0104C17.351 17.3368 16.9587 17.5 16.5003 17.5H4.83366ZM7.33366 14.1666H11.5003C11.7364 14.1666 11.9344 14.0868 12.0941 13.9271C12.2538 13.7673 12.3337 13.5694 12.3337 13.3333C12.3337 13.0972 12.2538 12.8993 12.0941 12.7396C11.9344 12.5798 11.7364 12.5 11.5003 12.5H7.33366C7.09755 12.5 6.89963 12.5798 6.73991 12.7396C6.58019 12.8993 6.50033 13.0972 6.50033 13.3333C6.50033 13.5694 6.58019 13.7673 6.73991 13.9271C6.89963 14.0868 7.09755 14.1666 7.33366 14.1666ZM7.33366 10.8333H14.0003C14.2364 10.8333 14.4344 10.7535 14.5941 10.5937C14.7538 10.434 14.8337 10.2361 14.8337 9.99998C14.8337 9.76387 14.7538 9.56595 14.5941 9.40623C14.4344 9.24651 14.2364 9.16665 14.0003 9.16665H7.33366C7.09755 9.16665 6.89963 9.24651 6.73991 9.40623C6.58019 9.56595 6.50033 9.76387 6.50033 9.99998C6.50033 10.2361 6.58019 10.434 6.73991 10.5937C6.89963 10.7535 7.09755 10.8333 7.33366 10.8333ZM7.33366 7.49998H14.0003C14.2364 7.49998 14.4344 7.42012 14.5941 7.2604C14.7538 7.10067 14.8337 6.90276 14.8337 6.66665C14.8337 6.43054 14.7538 6.23262 14.5941 6.0729C14.4344 5.91317 14.2364 5.83331 14.0003 5.83331H7.33366C7.09755 5.83331 6.89963 5.91317 6.73991 6.0729C6.58019 6.23262 6.50033 6.43054 6.50033 6.66665C6.50033 6.90276 6.58019 7.10067 6.73991 7.2604C6.89963 7.42012 7.09755 7.49998 7.33366 7.49998ZM10.667 3.54165C10.8475 3.54165 10.9969 3.48262 11.1149 3.36456C11.233 3.24651 11.292 3.0972 11.292 2.91665C11.292 2.73609 11.233 2.58679 11.1149 2.46873C10.9969 2.35067 10.8475 2.29165 10.667 2.29165C10.4864 2.29165 10.3371 2.35067 10.2191 2.46873C10.101 2.58679 10.042 2.73609 10.042 2.91665C10.042 3.0972 10.101 3.24651 10.2191 3.36456C10.3371 3.48262 10.4864 3.54165 10.667 3.54165Z" fill="#60C8DE"/>
</g>
</svg>
