<svg width="24" height="24" viewBox="0 0 24 24" fill="none" xmlns="http://www.w3.org/2000/svg">
<mask id="mask0_618_2288" style="mask-type:alpha" maskUnits="userSpaceOnUse" x="0" y="0" width="24" height="24">
<rect width="24" height="24" fill="#D9D9D9"/>
</mask>
<g mask="url(#mask0_618_2288)">
<path d="M3.00001 10C2.71668 10 2.47918 9.9 2.28751 9.7C2.09584 9.5 2.01668 9.26667 2.05001 9C2.16668 7.9 2.45418 6.84583 2.91251 5.8375C3.37084 4.82917 3.97501 3.925 4.72501 3.125C4.90834 2.94167 5.14168 2.85 5.42501 2.85C5.70834 2.85 5.95001 2.95 6.15001 3.15C6.33334 3.33333 6.42501 3.55833 6.42501 3.825C6.42501 4.09167 6.33334 4.33333 6.15001 4.55C5.56668 5.18333 5.09584 5.87083 4.73751 6.6125C4.37918 7.35417 4.15001 8.15 4.05001 9C4.01668 9.28333 3.90418 9.52083 3.71251 9.7125C3.52084 9.90417 3.28334 10 3.00001 10ZM21 10C20.7333 10 20.5 9.90417 20.3 9.7125C20.1 9.52083 19.9833 9.28333 19.95 9C19.85 8.15 19.6208 7.35417 19.2625 6.6125C18.9042 5.87083 18.4333 5.18333 17.85 4.55C17.6667 4.33333 17.575 4.09167 17.575 3.825C17.575 3.55833 17.675 3.33333 17.875 3.15C18.075 2.95 18.3125 2.85 18.5875 2.85C18.8625 2.85 19.0917 2.94167 19.275 3.125C20.025 3.925 20.6292 4.82917 21.0875 5.8375C21.5458 6.84583 21.8333 7.9 21.95 9C21.9833 9.26667 21.9042 9.5 21.7125 9.7C21.5208 9.9 21.2833 10 21 10ZM5.00001 19C4.71668 19 4.47918 18.9042 4.28751 18.7125C4.09584 18.5208 4.00001 18.2833 4.00001 18C4.00001 17.7167 4.09584 17.4792 4.28751 17.2875C4.47918 17.0958 4.71668 17 5.00001 17H6.00001V10C6.00001 8.61667 6.41668 7.3875 7.25001 6.3125C8.08334 5.2375 9.16668 4.53333 10.5 4.2V3.5C10.5 3.08333 10.6458 2.72917 10.9375 2.4375C11.2292 2.14583 11.5833 2 12 2C12.4167 2 12.7708 2.14583 13.0625 2.4375C13.3542 2.72917 13.5 3.08333 13.5 3.5V4.2C14.8333 4.53333 15.9167 5.2375 16.75 6.3125C17.5833 7.3875 18 8.61667 18 10V17H19C19.2833 17 19.5208 17.0958 19.7125 17.2875C19.9042 17.4792 20 17.7167 20 18C20 18.2833 19.9042 18.5208 19.7125 18.7125C19.5208 18.9042 19.2833 19 19 19H5.00001ZM12 22C11.45 22 10.9792 21.8042 10.5875 21.4125C10.1958 21.0208 10 20.55 10 20H14C14 20.55 13.8042 21.0208 13.4125 21.4125C13.0208 21.8042 12.55 22 12 22ZM8.00001 17H16V10C16 8.9 15.6083 7.95833 14.825 7.175C14.0417 6.39167 13.1 6 12 6C10.9 6 9.95834 6.39167 9.17501 7.175C8.39168 7.95833 8.00001 8.9 8.00001 10V17Z" fill="currentColor"/>
</g>
</svg>
