<svg width="24" height="24" viewBox="0 0 24 24" fill="none" xmlns="http://www.w3.org/2000/svg">
<mask id="mask0_154_1592" style="mask-type:alpha" maskUnits="userSpaceOnUse" x="0" y="0" width="24" height="24">
<rect width="24" height="24" fill="#D9D9D9"/>
</mask>
<g mask="url(#mask0_154_1592)">
<path d="M17 17.0004C17.4167 17.0004 17.7708 16.8546 18.0625 16.5629C18.3542 16.2712 18.5 15.9171 18.5 15.5004C18.5 15.0837 18.3542 14.7296 18.0625 14.4379C17.7708 14.1462 17.4167 14.0004 17 14.0004C16.5833 14.0004 16.2292 14.1462 15.9375 14.4379C15.6458 14.7296 15.5 15.0837 15.5 15.5004C15.5 15.9171 15.6458 16.2712 15.9375 16.5629C16.2292 16.8546 16.5833 17.0004 17 17.0004ZM17 20.0004C17.5167 20.0004 17.9917 19.8796 18.425 19.6379C18.8583 19.3962 19.2083 19.0754 19.475 18.6754C19.1083 18.4587 18.7167 18.2921 18.3 18.1754C17.8833 18.0587 17.45 18.0004 17 18.0004C16.55 18.0004 16.1167 18.0587 15.7 18.1754C15.2833 18.2921 14.8917 18.4587 14.525 18.6754C14.7917 19.0754 15.1417 19.3962 15.575 19.6379C16.0083 19.8796 16.4833 20.0004 17 20.0004ZM17 22.0004C15.6167 22.0004 14.4375 21.5129 13.4625 20.5379C12.4875 19.5629 12 18.3837 12 17.0004C12 15.6171 12.4875 14.4379 13.4625 13.4629C14.4375 12.4879 15.6167 12.0004 17 12.0004C18.3833 12.0004 19.5625 12.4879 20.5375 13.4629C21.5125 14.4379 22 15.6171 22 17.0004C22 18.3837 21.5125 19.5629 20.5375 20.5379C19.5625 21.5129 18.3833 22.0004 17 22.0004ZM11.7625 21.9254C11.6875 21.9254 11.6083 21.9087 11.525 21.8754C9.34167 21.2087 7.54167 19.8587 6.125 17.8254C4.70833 15.7921 4 13.5504 4 11.1004V6.37539C4 5.95872 4.12083 5.58372 4.3625 5.25039C4.60417 4.91706 4.91667 4.67539 5.3 4.52539L11.3 2.27539C11.5333 2.19206 11.7667 2.15039 12 2.15039C12.2333 2.15039 12.4667 2.19206 12.7 2.27539L18.7 4.52539C19.0833 4.67539 19.3958 4.91706 19.6375 5.25039C19.8792 5.58372 20 5.95872 20 6.37539V10.6754C19.5167 10.4587 19.0292 10.2921 18.5375 10.1754C18.0458 10.0587 17.5333 10.0004 17 10.0004C15.0667 10.0004 13.4167 10.6837 12.05 12.0504C10.6833 13.4171 10 15.0671 10 17.0004C10 17.9504 10.1667 18.8379 10.5 19.6629C10.8333 20.4879 11.3417 21.2421 12.025 21.9254H11.7625Z" fill="#6B77F8"/>
</g>
</svg>
