<svg width="20" height="20" viewBox="0 0 20 20" fill="none" xmlns="http://www.w3.org/2000/svg">
<g id="percent">
<mask id="mask0_661_2750" style="mask-type:alpha" maskUnits="userSpaceOnUse" x="0" y="0" width="20" height="20">
<rect id="Bounding box" width="20" height="20" fill="#D9D9D9"/>
</mask>
<g mask="url(#mask0_661_2750)">
<path id="percent_2" d="M6.28931 9.25004C5.47154 9.25004 4.77447 8.96101 4.19808 8.38294C3.62169 7.80487 3.3335 7.10695 3.3335 6.28919C3.3335 5.47142 3.62253 4.77435 4.2006 4.19796C4.77867 3.62157 5.47659 3.33337 6.29435 3.33337C7.11211 3.33337 7.80919 3.62241 8.38558 4.20048C8.96197 4.77855 9.25016 5.47646 9.25016 6.29423C9.25016 7.11199 8.96113 7.80907 8.38306 8.38546C7.80499 8.96185 7.10707 9.25004 6.28931 9.25004ZM6.28937 7.50004C6.62434 7.50004 6.90988 7.3828 7.146 7.14833C7.38211 6.91385 7.50016 6.62912 7.50016 6.29417C7.50016 5.95919 7.38293 5.67365 7.14845 5.43754C6.91397 5.20143 6.62925 5.08337 6.29429 5.08337C5.95932 5.08337 5.67377 5.20061 5.43766 5.43508C5.20155 5.66957 5.0835 5.95429 5.0835 6.28925C5.0835 6.62422 5.20073 6.90976 5.4352 7.14587C5.66969 7.38199 5.95441 7.50004 6.28937 7.50004ZM13.706 16.6667C12.8882 16.6667 12.1911 16.3777 11.6147 15.7996C11.0384 15.2215 10.7502 14.5236 10.7502 13.7059C10.7502 12.8881 11.0392 12.191 11.6173 11.6146C12.1953 11.0382 12.8933 10.75 13.711 10.75C14.5288 10.75 15.2259 11.0391 15.8022 11.6171C16.3786 12.1952 16.6668 12.8931 16.6668 13.7109C16.6668 14.5287 16.3778 15.2257 15.7997 15.8021C15.2217 16.3785 14.5237 16.6667 13.706 16.6667ZM13.706 14.9167C14.041 14.9167 14.3266 14.7995 14.5627 14.565C14.7988 14.3305 14.9168 14.0458 14.9168 13.7108C14.9168 13.3759 14.7996 13.0903 14.5651 12.8542C14.3306 12.6181 14.0459 12.5 13.711 12.5C13.376 12.5 13.0904 12.6173 12.8543 12.8517C12.6182 13.0862 12.5002 13.371 12.5002 13.7059C12.5002 14.0409 12.6174 14.3264 12.8519 14.5625C13.0864 14.7987 13.3711 14.9167 13.706 14.9167ZM3.9585 16.0417C3.79183 15.875 3.70502 15.6737 3.69808 15.4375C3.69113 15.2014 3.771 15 3.93766 14.8334L14.8335 3.93754C15.0002 3.77087 15.2016 3.69101 15.4377 3.69796C15.6738 3.7049 15.8752 3.79171 16.0418 3.95837C16.2085 4.12504 16.2918 4.3299 16.2918 4.57296C16.2918 4.81601 16.2085 5.02087 16.0418 5.18754L5.16683 16.0625C5.00016 16.2292 4.79877 16.3091 4.56266 16.3021C4.32655 16.2952 4.12516 16.2084 3.9585 16.0417Z" fill="#626474"/>
</g>
</g>
</svg>
