<svg width="100%" height="100%" viewBox="0 0 20 20" fill="none" xmlns="http://www.w3.org/2000/svg">
<mask id="mask0_83_3464" style="mask-type:alpha" maskUnits="userSpaceOnUse" x="0" y="0" width="20" height="20">
<rect width="20" height="20" fill="#D9D9D9"/>
</mask>
<g mask="url(#mask0_83_3464)">
<path d="M10 9.99998C9.08337 9.99998 8.29865 9.67359 7.64587 9.02081C6.9931 8.36804 6.66671 7.58331 6.66671 6.66665C6.66671 5.74998 6.9931 4.96526 7.64587 4.31248C8.29865 3.6597 9.08337 3.33331 10 3.33331C10.9167 3.33331 11.7014 3.6597 12.3542 4.31248C13.007 4.96526 13.3334 5.74998 13.3334 6.66665C13.3334 7.58331 13.007 8.36804 12.3542 9.02081C11.7014 9.67359 10.9167 9.99998 10 9.99998ZM15 16.6666H5.00004C4.54171 16.6666 4.14935 16.5035 3.82296 16.1771C3.49657 15.8507 3.33337 15.4583 3.33337 15V14.3333C3.33337 13.8611 3.4549 13.4271 3.69796 13.0312C3.94101 12.6354 4.26393 12.3333 4.66671 12.125C5.52782 11.6944 6.40282 11.3715 7.29171 11.1562C8.1806 10.941 9.08337 10.8333 10 10.8333C10.9167 10.8333 11.8195 10.941 12.7084 11.1562C13.5973 11.3715 14.4723 11.6944 15.3334 12.125C15.7362 12.3333 16.0591 12.6354 16.3021 13.0312C16.5452 13.4271 16.6667 13.8611 16.6667 14.3333V15C16.6667 15.4583 16.5035 15.8507 16.1771 16.1771C15.8507 16.5035 15.4584 16.6666 15 16.6666ZM5.00004 15H15V14.3333C15 14.1805 14.9618 14.0416 14.8855 13.9166C14.8091 13.7916 14.7084 13.6944 14.5834 13.625C13.8334 13.25 13.0764 12.9687 12.3125 12.7812C11.5487 12.5937 10.7778 12.5 10 12.5C9.22226 12.5 8.45143 12.5937 7.68754 12.7812C6.92365 12.9687 6.16671 13.25 5.41671 13.625C5.29171 13.6944 5.19101 13.7916 5.11462 13.9166C5.03824 14.0416 5.00004 14.1805 5.00004 14.3333V15ZM10 8.33331C10.4584 8.33331 10.8507 8.17012 11.1771 7.84373C11.5035 7.51734 11.6667 7.12498 11.6667 6.66665C11.6667 6.20831 11.5035 5.81595 11.1771 5.48956C10.8507 5.16317 10.4584 4.99998 10 4.99998C9.54171 4.99998 9.14935 5.16317 8.82296 5.48956C8.49657 5.81595 8.33337 6.20831 8.33337 6.66665C8.33337 7.12498 8.49657 7.51734 8.82296 7.84373C9.14935 8.17012 9.54171 8.33331 10 8.33331Z" fill="currentColor"/>
</g>
</svg>
