<svg width="20" height="20" viewBox="0 0 20 20" fill="none" xmlns="http://www.w3.org/2000/svg">
<mask id="mask0_1106_2823" style="mask-type:alpha" maskUnits="userSpaceOnUse" x="0" y="0" width="20" height="20">
<rect width="20" height="20" fill="#D9D9D9"/>
</mask>
<g mask="url(#mask0_1106_2823)">
<path d="M9.9999 15.8317C9.76379 15.8317 9.56587 15.7518 9.40615 15.5921C9.24643 15.4324 9.16656 15.2345 9.16656 14.9984V10.8317H4.9999C4.76379 10.8317 4.56587 10.7518 4.40615 10.5921C4.24643 10.4324 4.16656 10.2345 4.16656 9.99837C4.16656 9.76226 4.24643 9.56434 4.40615 9.40462C4.56587 9.2449 4.76379 9.16504 4.9999 9.16504H9.16656V4.99837C9.16656 4.76226 9.24643 4.56434 9.40615 4.40462C9.56587 4.2449 9.76379 4.16504 9.9999 4.16504C10.236 4.16504 10.4339 4.2449 10.5936 4.40462C10.7534 4.56434 10.8332 4.76226 10.8332 4.99837V9.16504H14.9999C15.236 9.16504 15.4339 9.2449 15.5936 9.40462C15.7534 9.56434 15.8332 9.76226 15.8332 9.99837C15.8332 10.2345 15.7534 10.4324 15.5936 10.5921C15.4339 10.7518 15.236 10.8317 14.9999 10.8317H10.8332V14.9984C10.8332 15.2345 10.7534 15.4324 10.5936 15.5921C10.4339 15.7518 10.236 15.8317 9.9999 15.8317Z" fill="currentColor"/>
</g>
</svg>
