<svg width="24" height="26" viewBox="0 0 24 26" fill="none" xmlns="http://www.w3.org/2000/svg">
<path fill-rule="evenodd" clip-rule="evenodd" d="M4.92916 25.0666L11.6682 19.2666C12.0814 18.911 12.6494 18.911 13.0625 19.2666L18.1749 25.3332H20.4126C21.0441 25.3868 21.6607 24.831 21.6607 24.0058V3H23.9844C23.9844 1 22.8225 0 21.6606 0H5.39393C4.23202 0 3.07011 1.33333 3.07011 2.66665V24.0058L1.9082 25.3332L4.23202 25.3368C4.46913 25.3372 4.71226 25.2532 4.92916 25.0666Z" fill="#5C66D8"/>
<path d="M10.7385 19.2666L17.4776 25.0666C18.2436 25.7258 19.3366 25.1046 19.3366 24.0058V2.66665C19.3366 1.33333 20.4985 0 21.6604 0H3.06991C1.908 0 0.746094 1.33333 0.746094 2.66665V24.0058C0.746094 25.1046 1.83917 25.7258 2.60515 25.0666L9.34422 19.2666C9.75734 18.911 10.3254 18.911 10.7385 19.2666Z" fill="#6B77F8"/>
<path d="M12.5117 6.51562H10.8477L8.75 7.85156V9.41016L10.6953 8.19141H10.7422V15H12.5117V6.51562Z" fill="white"/>
</svg>
