<svg width="41" height="40" viewBox="0 0 41 40" fill="none" xmlns="http://www.w3.org/2000/svg">
<circle cx="7.38965" cy="27.8135" r="1.93848" fill="url(#paint0_radial_154_3606)"/>
<circle cx="33.958" cy="27.8291" r="1.93848" fill="url(#paint1_radial_154_3606)"/>
<circle cx="33.958" cy="27.8291" r="1.93848" fill="url(#paint2_radial_154_3606)"/>
<path d="M11.9258 15.1045C11.1758 16.2295 10.6302 17.7607 10.4414 18.3467L13.3711 20.4561L15.6074 17.624C15.3438 17.2171 14.7168 16.3105 14.3574 15.8418C13.998 15.373 13.4557 14.8001 13.2344 14.5723L11.9258 15.1045Z" fill="url(#paint3_radial_154_3606)"/>
<path d="M11.9258 15.1045C11.1758 16.2295 10.6302 17.7607 10.4414 18.3467L13.3711 20.4561L15.6074 17.624C15.3438 17.2171 14.7168 16.3105 14.3574 15.8418C13.998 15.373 13.4557 14.8001 13.2344 14.5723L11.9258 15.1045Z" fill="url(#paint4_radial_154_3606)"/>
<path d="M29.4062 15.1045C30.1562 16.2295 30.7018 17.7607 30.8906 18.3467L27.9609 20.4561L25.7246 17.624C25.9883 17.2171 26.6152 16.3105 26.9746 15.8418C27.334 15.373 27.8763 14.8001 28.0977 14.5723L29.4062 15.1045Z" fill="url(#paint5_radial_154_3606)"/>
<path d="M29.4062 15.1045C30.1562 16.2295 30.7018 17.7607 30.8906 18.3467L27.9609 20.4561L25.7246 17.624C25.9883 17.2171 26.6152 16.3105 26.9746 15.8418C27.334 15.373 27.8763 14.8001 28.0977 14.5723L29.4062 15.1045Z" fill="url(#paint6_radial_154_3606)"/>
<path d="M29.4062 15.1045C30.1562 16.2295 30.7018 17.7607 30.8906 18.3467L27.9609 20.4561L25.7246 17.624C25.9883 17.2171 26.6152 16.3105 26.9746 15.8418C27.334 15.373 27.8763 14.8001 28.0977 14.5723L29.4062 15.1045Z" fill="url(#paint7_radial_154_3606)"/>
<g filter="url(#filter0_ii_154_3606)">
<path d="M4.57227 15.1914L8.45505 34.1398C8.64572 35.0702 9.46453 35.7383 10.4143 35.7383H30.9177C31.8675 35.7383 32.6863 35.0702 32.877 34.1398L36.7598 15.1914L35.5203 14.5859C33.6643 15.9336 29.7802 18.6973 28.7768 19.3027C27.9768 19.7855 27.2418 18.9987 27.0897 18.7754C25.6929 16.7246 23.5625 13.7398 22.7656 12.6914C21.9491 11.6172 21.0267 11.0866 20.666 11.041C20.3053 11.0866 19.3829 11.6172 18.5664 12.6914C17.7696 13.7398 15.6392 16.7246 14.2423 18.7754C14.0902 18.9987 13.3552 19.7855 12.5552 19.3027C11.5518 18.6973 7.66772 15.9336 5.81176 14.5859L4.57227 15.1914Z" fill="url(#paint8_linear_154_3606)"/>
<path d="M4.57227 15.1914L8.45505 34.1398C8.64572 35.0702 9.46453 35.7383 10.4143 35.7383H30.9177C31.8675 35.7383 32.6863 35.0702 32.877 34.1398L36.7598 15.1914L35.5203 14.5859C33.6643 15.9336 29.7802 18.6973 28.7768 19.3027C27.9768 19.7855 27.2418 18.9987 27.0897 18.7754C25.6929 16.7246 23.5625 13.7398 22.7656 12.6914C21.9491 11.6172 21.0267 11.0866 20.666 11.041C20.3053 11.0866 19.3829 11.6172 18.5664 12.6914C17.7696 13.7398 15.6392 16.7246 14.2423 18.7754C14.0902 18.9987 13.3552 19.7855 12.5552 19.3027C11.5518 18.6973 7.66772 15.9336 5.81176 14.5859L4.57227 15.1914Z" fill="url(#paint9_radial_154_3606)"/>
</g>
<path d="M4.57227 15.1914L8.45505 34.1398C8.64572 35.0702 9.46453 35.7383 10.4143 35.7383H30.9177C31.8675 35.7383 32.6863 35.0702 32.877 34.1398L36.7598 15.1914L35.5203 14.5859C33.6643 15.9336 29.7802 18.6973 28.7768 19.3027C27.9768 19.7855 27.2418 18.9987 27.0897 18.7754C25.6929 16.7246 23.5625 13.7398 22.7656 12.6914C21.9491 11.6172 21.0267 11.0866 20.666 11.041C20.3053 11.0866 19.3829 11.6172 18.5664 12.6914C17.7696 13.7398 15.6392 16.7246 14.2423 18.7754C14.0902 18.9987 13.3552 19.7855 12.5552 19.3027C11.5518 18.6973 7.66772 15.9336 5.81176 14.5859L4.57227 15.1914Z" fill="url(#paint10_linear_154_3606)"/>
<path d="M4.57227 15.1914L8.45505 34.1398C8.64572 35.0702 9.46453 35.7383 10.4143 35.7383H30.9177C31.8675 35.7383 32.6863 35.0702 32.877 34.1398L36.7598 15.1914L35.5203 14.5859C33.6643 15.9336 29.7802 18.6973 28.7768 19.3027C27.9768 19.7855 27.2418 18.9987 27.0897 18.7754C25.6929 16.7246 23.5625 13.7398 22.7656 12.6914C21.9491 11.6172 21.0267 11.0866 20.666 11.041C20.3053 11.0866 19.3829 11.6172 18.5664 12.6914C17.7696 13.7398 15.6392 16.7246 14.2423 18.7754C14.0902 18.9987 13.3552 19.7855 12.5552 19.3027C11.5518 18.6973 7.66772 15.9336 5.81176 14.5859L4.57227 15.1914Z" fill="url(#paint11_linear_154_3606)"/>
<path d="M4.57227 15.1914L8.45505 34.1398C8.64572 35.0702 9.46453 35.7383 10.4143 35.7383H30.9177C31.8675 35.7383 32.6863 35.0702 32.877 34.1398L36.7598 15.1914L35.5203 14.5859C33.6643 15.9336 29.7802 18.6973 28.7768 19.3027C27.9768 19.7855 27.2418 18.9987 27.0897 18.7754C25.6929 16.7246 23.5625 13.7398 22.7656 12.6914C21.9491 11.6172 21.0267 11.0866 20.666 11.041C20.3053 11.0866 19.3829 11.6172 18.5664 12.6914C17.7696 13.7398 15.6392 16.7246 14.2423 18.7754C14.0902 18.9987 13.3552 19.7855 12.5552 19.3027C11.5518 18.6973 7.66772 15.9336 5.81176 14.5859L4.57227 15.1914Z" fill="url(#paint12_linear_154_3606)"/>
<path d="M4.57227 15.1914L8.45505 34.1398C8.64572 35.0702 9.46453 35.7383 10.4143 35.7383H30.9177C31.8675 35.7383 32.6863 35.0702 32.877 34.1398L36.7598 15.1914L35.5203 14.5859C33.6643 15.9336 29.7802 18.6973 28.7768 19.3027C27.9768 19.7855 27.2418 18.9987 27.0897 18.7754C25.6929 16.7246 23.5625 13.7398 22.7656 12.6914C21.9491 11.6172 21.0267 11.0866 20.666 11.041C20.3053 11.0866 19.3829 11.6172 18.5664 12.6914C17.7696 13.7398 15.6392 16.7246 14.2423 18.7754C14.0902 18.9987 13.3552 19.7855 12.5552 19.3027C11.5518 18.6973 7.66772 15.9336 5.81176 14.5859L4.57227 15.1914Z" fill="url(#paint13_radial_154_3606)"/>
<path d="M4.57227 15.1914L8.45505 34.1398C8.64572 35.0702 9.46453 35.7383 10.4143 35.7383H30.9177C31.8675 35.7383 32.6863 35.0702 32.877 34.1398L36.7598 15.1914L35.5203 14.5859C33.6643 15.9336 29.7802 18.6973 28.7768 19.3027C27.9768 19.7855 27.2418 18.9987 27.0897 18.7754C25.6929 16.7246 23.5625 13.7398 22.7656 12.6914C21.9491 11.6172 21.0267 11.0866 20.666 11.041C20.3053 11.0866 19.3829 11.6172 18.5664 12.6914C17.7696 13.7398 15.6392 16.7246 14.2423 18.7754C14.0902 18.9987 13.3552 19.7855 12.5552 19.3027C11.5518 18.6973 7.66772 15.9336 5.81176 14.5859L4.57227 15.1914Z" fill="url(#paint14_radial_154_3606)"/>
<path d="M4.57227 15.1914L8.45505 34.1398C8.64572 35.0702 9.46453 35.7383 10.4143 35.7383H30.9177C31.8675 35.7383 32.6863 35.0702 32.877 34.1398L36.7598 15.1914L35.5203 14.5859C33.6643 15.9336 29.7802 18.6973 28.7768 19.3027C27.9768 19.7855 27.2418 18.9987 27.0897 18.7754C25.6929 16.7246 23.5625 13.7398 22.7656 12.6914C21.9491 11.6172 21.0267 11.0866 20.666 11.041C20.3053 11.0866 19.3829 11.6172 18.5664 12.6914C17.7696 13.7398 15.6392 16.7246 14.2423 18.7754C14.0902 18.9987 13.3552 19.7855 12.5552 19.3027C11.5518 18.6973 7.66772 15.9336 5.81176 14.5859L4.57227 15.1914Z" fill="url(#paint15_radial_154_3606)"/>
<g filter="url(#filter1_di_154_3606)">
<path d="M30.3904 28.4279C30.059 29.4459 28.9938 29.9563 27.9758 29.6249C27.2092 29.3124 26.8778 28.4358 27.2092 27.4178C27.5406 26.3998 28.5842 25.8157 29.216 26.0213C30.234 26.3527 30.7218 27.4099 30.3904 28.4279Z" fill="url(#paint16_radial_154_3606)"/>
<path d="M30.3904 28.4279C30.059 29.4459 28.9938 29.9563 27.9758 29.6249C27.2092 29.3124 26.8778 28.4358 27.2092 27.4178C27.5406 26.3998 28.5842 25.8157 29.216 26.0213C30.234 26.3527 30.7218 27.4099 30.3904 28.4279Z" fill="url(#paint17_radial_154_3606)"/>
</g>
<g filter="url(#filter2_di_154_3606)">
<path d="M11.0374 28.4279C11.3688 29.4459 12.434 29.9563 13.452 29.6249C14.2186 29.3124 14.55 28.4358 14.2186 27.4178C13.8872 26.3998 12.8435 25.8157 12.2118 26.0213C11.1937 26.3527 10.706 27.4099 11.0374 28.4279Z" fill="url(#paint18_radial_154_3606)"/>
<path d="M11.0374 28.4279C11.3688 29.4459 12.434 29.9563 13.452 29.6249C14.2186 29.3124 14.55 28.4358 14.2186 27.4178C13.8872 26.3998 12.8435 25.8157 12.2118 26.0213C11.1937 26.3527 10.706 27.4099 11.0374 28.4279Z" fill="url(#paint19_radial_154_3606)"/>
</g>
<path d="M6.81836 14.9062C6.81836 15.8663 6.0401 16.6445 5.08008 16.6445C4.12005 16.6445 3.3418 15.8663 3.3418 14.9062C3.3418 13.9462 4.12005 13.168 5.08008 13.168C6.0401 13.168 6.81836 13.9462 6.81836 14.9062Z" fill="url(#paint20_radial_154_3606)"/>
<path d="M6.81836 14.9062C6.81836 15.8663 6.0401 16.6445 5.08008 16.6445C4.12005 16.6445 3.3418 15.8663 3.3418 14.9062C3.3418 13.9462 4.12005 13.168 5.08008 13.168C6.0401 13.168 6.81836 13.9462 6.81836 14.9062Z" fill="url(#paint21_radial_154_3606)"/>
<path d="M6.81836 14.9062C6.81836 15.8663 6.0401 16.6445 5.08008 16.6445C4.12005 16.6445 3.3418 15.8663 3.3418 14.9062C3.3418 13.9462 4.12005 13.168 5.08008 13.168C6.0401 13.168 6.81836 13.9462 6.81836 14.9062Z" fill="url(#paint22_radial_154_3606)"/>
<path d="M6.81836 14.9062C6.81836 15.8663 6.0401 16.6445 5.08008 16.6445C4.12005 16.6445 3.3418 15.8663 3.3418 14.9062C3.3418 13.9462 4.12005 13.168 5.08008 13.168C6.0401 13.168 6.81836 13.9462 6.81836 14.9062Z" fill="url(#paint23_radial_154_3606)"/>
<path d="M13.5169 15.225C14.0315 14.9232 14.377 14.3643 14.377 13.7246C14.377 12.7646 13.5987 11.9863 12.6387 11.9863C11.6786 11.9863 10.9004 12.7646 10.9004 13.7246C10.9004 14.3898 11.274 14.9676 11.8228 15.2599C11.9316 15.2166 12.1302 15.1738 12.3457 15.2359C12.6136 15.313 13.0535 15.4103 13.5169 15.225Z" fill="url(#paint24_radial_154_3606)"/>
<path d="M13.5169 15.225C14.0315 14.9232 14.377 14.3643 14.377 13.7246C14.377 12.7646 13.5987 11.9863 12.6387 11.9863C11.6786 11.9863 10.9004 12.7646 10.9004 13.7246C10.9004 14.3898 11.274 14.9676 11.8228 15.2599C11.9316 15.2166 12.1302 15.1738 12.3457 15.2359C12.6136 15.313 13.0535 15.4103 13.5169 15.225Z" fill="url(#paint25_radial_154_3606)"/>
<path d="M13.5169 15.225C14.0315 14.9232 14.377 14.3643 14.377 13.7246C14.377 12.7646 13.5987 11.9863 12.6387 11.9863C11.6786 11.9863 10.9004 12.7646 10.9004 13.7246C10.9004 14.3898 11.274 14.9676 11.8228 15.2599C11.9316 15.2166 12.1302 15.1738 12.3457 15.2359C12.6136 15.313 13.0535 15.4103 13.5169 15.225Z" fill="url(#paint26_radial_154_3606)"/>
<path d="M13.5169 15.225C14.0315 14.9232 14.377 14.3643 14.377 13.7246C14.377 12.7646 13.5987 11.9863 12.6387 11.9863C11.6786 11.9863 10.9004 12.7646 10.9004 13.7246C10.9004 14.3898 11.274 14.9676 11.8228 15.2599C11.9316 15.2166 12.1302 15.1738 12.3457 15.2359C12.6136 15.313 13.0535 15.4103 13.5169 15.225Z" fill="url(#paint27_radial_154_3606)"/>
<g filter="url(#filter3_i_154_3606)">
<path d="M27.8151 15.225C27.3006 14.9232 26.9551 14.3643 26.9551 13.7246C26.9551 12.7646 27.7333 11.9863 28.6934 11.9863C29.6534 11.9863 30.4316 12.7646 30.4316 13.7246C30.4316 14.3898 30.0581 14.9676 29.5093 15.2599C29.4004 15.2166 29.2018 15.1738 28.9863 15.2359C28.7184 15.313 28.2785 15.4103 27.8151 15.225Z" fill="url(#paint28_radial_154_3606)"/>
<path d="M27.8151 15.225C27.3006 14.9232 26.9551 14.3643 26.9551 13.7246C26.9551 12.7646 27.7333 11.9863 28.6934 11.9863C29.6534 11.9863 30.4316 12.7646 30.4316 13.7246C30.4316 14.3898 30.0581 14.9676 29.5093 15.2599C29.4004 15.2166 29.2018 15.1738 28.9863 15.2359C28.7184 15.313 28.2785 15.4103 27.8151 15.225Z" fill="url(#paint29_radial_154_3606)"/>
</g>
<g filter="url(#filter4_di_154_3606)">
<circle cx="20.7138" cy="27.9072" r="3.08489" fill="url(#paint30_radial_154_3606)"/>
</g>
<g filter="url(#filter5_f_154_3606)">
<path d="M20.9297 11.6948C21.1445 11.6688 21.6953 11.7807 22.1797 12.437C22.6641 13.0932 25.6107 17.2938 27.0234 19.312C27.2969 19.7352 28.1055 20.4018 29.1523 19.6831C30.1992 18.9643 33.5664 16.527 34.8359 15.6807" stroke="url(#paint31_linear_154_3606)" stroke-width="0.15"/>
<path d="M20.9297 11.6948C21.1445 11.6688 21.6953 11.7807 22.1797 12.437C22.6641 13.0932 25.6107 17.2938 27.0234 19.312C27.2969 19.7352 28.1055 20.4018 29.1523 19.6831C30.1992 18.9643 33.5664 16.527 34.8359 15.6807" stroke="url(#paint32_radial_154_3606)" stroke-width="0.15"/>
</g>
<circle cx="20.6611" cy="9.55762" r="2.25098" fill="url(#paint33_radial_154_3606)"/>
<circle cx="20.6611" cy="9.55762" r="2.25098" fill="url(#paint34_radial_154_3606)"/>
<circle cx="20.6611" cy="9.55762" r="2.25098" fill="url(#paint35_radial_154_3606)"/>
<circle cx="20.6611" cy="9.55762" r="2.25098" fill="url(#paint36_radial_154_3606)"/>
<path d="M38.0684 14.9062C38.0684 15.8663 37.2901 16.6445 36.3301 16.6445C35.3701 16.6445 34.5918 15.8663 34.5918 14.9062C34.5918 13.9462 35.3701 13.168 36.3301 13.168C37.2901 13.168 38.0684 13.9462 38.0684 14.9062Z" fill="url(#paint37_radial_154_3606)"/>
<path d="M38.0684 14.9062C38.0684 15.8663 37.2901 16.6445 36.3301 16.6445C35.3701 16.6445 34.5918 15.8663 34.5918 14.9062C34.5918 13.9462 35.3701 13.168 36.3301 13.168C37.2901 13.168 38.0684 13.9462 38.0684 14.9062Z" fill="url(#paint38_radial_154_3606)"/>
<path d="M38.0684 14.9062C38.0684 15.8663 37.2901 16.6445 36.3301 16.6445C35.3701 16.6445 34.5918 15.8663 34.5918 14.9062C34.5918 13.9462 35.3701 13.168 36.3301 13.168C37.2901 13.168 38.0684 13.9462 38.0684 14.9062Z" fill="url(#paint39_radial_154_3606)"/>
<path d="M38.0684 14.9062C38.0684 15.8663 37.2901 16.6445 36.3301 16.6445C35.3701 16.6445 34.5918 15.8663 34.5918 14.9062C34.5918 13.9462 35.3701 13.168 36.3301 13.168C37.2901 13.168 38.0684 13.9462 38.0684 14.9062Z" fill="url(#paint40_radial_154_3606)"/>
<defs>
<filter id="filter0_ii_154_3606" x="4.17227" y="10.941" width="32.9875" height="24.7973" filterUnits="userSpaceOnUse" color-interpolation-filters="sRGB">
<feFlood flood-opacity="0" result="BackgroundImageFix"/>
<feBlend mode="normal" in="SourceGraphic" in2="BackgroundImageFix" result="shape"/>
<feColorMatrix in="SourceAlpha" type="matrix" values="0 0 0 0 0 0 0 0 0 0 0 0 0 0 0 0 0 0 127 0" result="hardAlpha"/>
<feOffset dx="0.4" dy="-0.1"/>
<feGaussianBlur stdDeviation="0.25"/>
<feComposite in2="hardAlpha" operator="arithmetic" k2="-1" k3="1"/>
<feColorMatrix type="matrix" values="0 0 0 0 0.803922 0 0 0 0 0.580392 0 0 0 0 0.262745 0 0 0 1 0"/>
<feBlend mode="normal" in2="shape" result="effect1_innerShadow_154_3606"/>
<feColorMatrix in="SourceAlpha" type="matrix" values="0 0 0 0 0 0 0 0 0 0 0 0 0 0 0 0 0 0 127 0" result="hardAlpha"/>
<feOffset dx="-0.4" dy="-0.1"/>
<feGaussianBlur stdDeviation="0.25"/>
<feComposite in2="hardAlpha" operator="arithmetic" k2="-1" k3="1"/>
<feColorMatrix type="matrix" values="0 0 0 0 0.894118 0 0 0 0 0.686275 0 0 0 0 0.301961 0 0 0 1 0"/>
<feBlend mode="normal" in2="effect1_innerShadow_154_3606" result="effect2_innerShadow_154_3606"/>
</filter>
<filter id="filter1_di_154_3606" x="26.082" y="25.4805" width="4.91211" height="5.24414" filterUnits="userSpaceOnUse" color-interpolation-filters="sRGB">
<feFlood flood-opacity="0" result="BackgroundImageFix"/>
<feColorMatrix in="SourceAlpha" type="matrix" values="0 0 0 0 0 0 0 0 0 0 0 0 0 0 0 0 0 0 127 0" result="hardAlpha"/>
<feOffset dx="-0.25" dy="0.25"/>
<feGaussianBlur stdDeviation="0.375"/>
<feComposite in2="hardAlpha" operator="out"/>
<feColorMatrix type="matrix" values="0 0 0 0 1 0 0 0 0 0.54902 0 0 0 0 0.305882 0 0 0 1 0"/>
<feBlend mode="normal" in2="BackgroundImageFix" result="effect1_dropShadow_154_3606"/>
<feBlend mode="normal" in="SourceGraphic" in2="effect1_dropShadow_154_3606" result="shape"/>
<feColorMatrix in="SourceAlpha" type="matrix" values="0 0 0 0 0 0 0 0 0 0 0 0 0 0 0 0 0 0 127 0" result="hardAlpha"/>
<feOffset dx="0.15" dy="-0.15"/>
<feGaussianBlur stdDeviation="0.25"/>
<feComposite in2="hardAlpha" operator="arithmetic" k2="-1" k3="1"/>
<feColorMatrix type="matrix" values="0 0 0 0 0.984314 0 0 0 0 0.219608 0 0 0 0 0.254902 0 0 0 1 0"/>
<feBlend mode="normal" in2="shape" result="effect2_innerShadow_154_3606"/>
</filter>
<filter id="filter2_di_154_3606" x="9.93359" y="25.4805" width="4.91211" height="5.24414" filterUnits="userSpaceOnUse" color-interpolation-filters="sRGB">
<feFlood flood-opacity="0" result="BackgroundImageFix"/>
<feColorMatrix in="SourceAlpha" type="matrix" values="0 0 0 0 0 0 0 0 0 0 0 0 0 0 0 0 0 0 127 0" result="hardAlpha"/>
<feOffset dx="-0.25" dy="0.25"/>
<feGaussianBlur stdDeviation="0.375"/>
<feComposite in2="hardAlpha" operator="out"/>
<feColorMatrix type="matrix" values="0 0 0 0 0.905882 0 0 0 0 0.439216 0 0 0 0 0.278431 0 0 0 1 0"/>
<feBlend mode="normal" in2="BackgroundImageFix" result="effect1_dropShadow_154_3606"/>
<feBlend mode="normal" in="SourceGraphic" in2="effect1_dropShadow_154_3606" result="shape"/>
<feColorMatrix in="SourceAlpha" type="matrix" values="0 0 0 0 0 0 0 0 0 0 0 0 0 0 0 0 0 0 127 0" result="hardAlpha"/>
<feOffset dx="0.3" dy="0.3"/>
<feGaussianBlur stdDeviation="0.3"/>
<feComposite in2="hardAlpha" operator="arithmetic" k2="-1" k3="1"/>
<feColorMatrix type="matrix" values="0 0 0 0 0.796078 0 0 0 0 0.141176 0 0 0 0 0.223529 0 0 0 1 0"/>
<feBlend mode="normal" in2="shape" result="effect2_innerShadow_154_3606"/>
</filter>
<filter id="filter3_i_154_3606" x="26.9551" y="11.9863" width="3.47656" height="3.3457" filterUnits="userSpaceOnUse" color-interpolation-filters="sRGB">
<feFlood flood-opacity="0" result="BackgroundImageFix"/>
<feBlend mode="normal" in="SourceGraphic" in2="BackgroundImageFix" result="shape"/>
<feColorMatrix in="SourceAlpha" type="matrix" values="0 0 0 0 0 0 0 0 0 0 0 0 0 0 0 0 0 0 127 0" result="hardAlpha"/>
<feOffset/>
<feGaussianBlur stdDeviation="0.125"/>
<feComposite in2="hardAlpha" operator="arithmetic" k2="-1" k3="1"/>
<feColorMatrix type="matrix" values="0 0 0 0 0.756863 0 0 0 0 0.619608 0 0 0 0 0.321569 0 0 0 1 0"/>
<feBlend mode="normal" in2="shape" result="effect1_innerShadow_154_3606"/>
</filter>
<filter id="filter4_di_154_3606" x="15.8789" y="24.0723" width="8.66992" height="8.66992" filterUnits="userSpaceOnUse" color-interpolation-filters="sRGB">
<feFlood flood-opacity="0" result="BackgroundImageFix"/>
<feColorMatrix in="SourceAlpha" type="matrix" values="0 0 0 0 0 0 0 0 0 0 0 0 0 0 0 0 0 0 127 0" result="hardAlpha"/>
<feOffset dx="-0.5" dy="0.5"/>
<feGaussianBlur stdDeviation="0.625"/>
<feComposite in2="hardAlpha" operator="out"/>
<feColorMatrix type="matrix" values="0 0 0 0 0.937255 0 0 0 0 0.443137 0 0 0 0 0.376471 0 0 0 1 0"/>
<feBlend mode="normal" in2="BackgroundImageFix" result="effect1_dropShadow_154_3606"/>
<feBlend mode="normal" in="SourceGraphic" in2="effect1_dropShadow_154_3606" result="shape"/>
<feColorMatrix in="SourceAlpha" type="matrix" values="0 0 0 0 0 0 0 0 0 0 0 0 0 0 0 0 0 0 127 0" result="hardAlpha"/>
<feOffset dx="0.75" dy="-0.75"/>
<feGaussianBlur stdDeviation="0.75"/>
<feComposite in2="hardAlpha" operator="arithmetic" k2="-1" k3="1"/>
<feColorMatrix type="matrix" values="0 0 0 0 0.313726 0 0 0 0 0.384314 0 0 0 0 1 0 0 0 1 0"/>
<feBlend mode="normal" in2="shape" result="effect2_innerShadow_154_3606"/>
</filter>
<filter id="filter5_f_154_3606" x="20.7699" y="11.4672" width="14.257" height="8.75898" filterUnits="userSpaceOnUse" color-interpolation-filters="sRGB">
<feFlood flood-opacity="0" result="BackgroundImageFix"/>
<feBlend mode="normal" in="SourceGraphic" in2="BackgroundImageFix" result="shape"/>
<feGaussianBlur stdDeviation="0.075" result="effect1_foregroundBlur_154_3606"/>
</filter>
<radialGradient id="paint0_radial_154_3606" cx="0" cy="0" r="1" gradientUnits="userSpaceOnUse" gradientTransform="translate(7.38965 29.0586) rotate(-103.54) scale(2.18977 2.69587)">
<stop stop-color="#395DE0"/>
<stop offset="1" stop-color="#2C68A3"/>
</radialGradient>
<radialGradient id="paint1_radial_154_3606" cx="0" cy="0" r="1" gradientUnits="userSpaceOnUse" gradientTransform="translate(35.1592 26.2275) rotate(108.743) scale(3.73827)">
<stop offset="0.248616" stop-color="#3DB3F3"/>
<stop offset="1" stop-color="#5B73F4"/>
</radialGradient>
<radialGradient id="paint2_radial_154_3606" cx="0" cy="0" r="1" gradientUnits="userSpaceOnUse" gradientTransform="translate(35.7842 27.0674) rotate(161.162) scale(1.75412 1.11215)">
<stop offset="0.257996" stop-color="#5FBEFF"/>
<stop offset="1" stop-color="#5FBEFF" stop-opacity="0"/>
</radialGradient>
<radialGradient id="paint3_radial_154_3606" cx="0" cy="0" r="1" gradientUnits="userSpaceOnUse" gradientTransform="translate(11.4863 16.9502) rotate(15.9454) scale(3.98131 9.93718)">
<stop stop-color="#FBC96E"/>
<stop offset="1" stop-color="#FAC567"/>
</radialGradient>
<radialGradient id="paint4_radial_154_3606" cx="0" cy="0" r="1" gradientUnits="userSpaceOnUse" gradientTransform="translate(13.8301 17.8096) rotate(-156.753) scale(3.01851 9.07833)">
<stop offset="0.765376" stop-color="#D89F3A" stop-opacity="0"/>
<stop offset="0.91124" stop-color="#DAA139"/>
</radialGradient>
<radialGradient id="paint5_radial_154_3606" cx="0" cy="0" r="1" gradientUnits="userSpaceOnUse" gradientTransform="translate(30.5098 19.3721) rotate(-125.455) scale(3.16503 3.24603)">
<stop offset="0.254227" stop-color="#BF812A"/>
<stop offset="1" stop-color="#CE9333"/>
</radialGradient>
<radialGradient id="paint6_radial_154_3606" cx="0" cy="0" r="1" gradientUnits="userSpaceOnUse" gradientTransform="translate(28.0684 17.8291) rotate(-23.0913) scale(2.73898 7.13546)">
<stop offset="0.734364" stop-color="#E9BB61" stop-opacity="0"/>
<stop offset="0.929116" stop-color="#E9BB61"/>
</radialGradient>
<radialGradient id="paint7_radial_154_3606" cx="0" cy="0" r="1" gradientUnits="userSpaceOnUse" gradientTransform="translate(29.6895 18.6104) rotate(-142.922) scale(4.30862 7.26884)">
<stop offset="0.772711" stop-color="#C18739" stop-opacity="0"/>
<stop offset="0.948485" stop-color="#C18739"/>
</radialGradient>
<linearGradient id="paint8_linear_154_3606" x1="29.6732" y1="25.7247" x2="7.59139" y2="30.875" gradientUnits="userSpaceOnUse">
<stop stop-color="#FFBC5D"/>
<stop offset="0.303505" stop-color="#FCAD6A"/>
<stop offset="1" stop-color="#CB7547"/>
</linearGradient>
<radialGradient id="paint9_radial_154_3606" cx="0" cy="0" r="1" gradientUnits="userSpaceOnUse" gradientTransform="translate(15.8318 39.8236) rotate(-69.4212) scale(13.7533 26.7683)">
<stop stop-color="#F67B4E"/>
<stop offset="1" stop-color="#F67B4E" stop-opacity="0"/>
</radialGradient>
<linearGradient id="paint10_linear_154_3606" x1="7.26758" y1="30.3477" x2="10.666" y2="29.6445" gradientUnits="userSpaceOnUse">
<stop stop-color="#C2794C"/>
<stop offset="1" stop-color="#E07648" stop-opacity="0"/>
</linearGradient>
<linearGradient id="paint11_linear_154_3606" x1="33.9473" y1="32.5352" x2="28.166" y2="31.207" gradientUnits="userSpaceOnUse">
<stop offset="0.128534" stop-color="#FFBB5B"/>
<stop offset="1" stop-color="#FFBB5B" stop-opacity="0"/>
</linearGradient>
<linearGradient id="paint12_linear_154_3606" x1="22.4629" y1="36.0898" x2="22.4629" y2="34.6055" gradientUnits="userSpaceOnUse">
<stop offset="0.184212" stop-color="#FF6F8C"/>
<stop offset="1" stop-color="#FF7A6A" stop-opacity="0"/>
</linearGradient>
<radialGradient id="paint13_radial_154_3606" cx="0" cy="0" r="1" gradientUnits="userSpaceOnUse" gradientTransform="translate(35.7441 15.5039) rotate(113.385) scale(3.14932 2.61054)">
<stop offset="0.377231" stop-color="#DD9049"/>
<stop offset="1" stop-color="#F8BF60" stop-opacity="0"/>
</radialGradient>
<radialGradient id="paint14_radial_154_3606" cx="0" cy="0" r="1" gradientUnits="userSpaceOnUse" gradientTransform="translate(5.72461 15.6797) rotate(64.2171) scale(2.55949 1.39997)">
<stop offset="0.195602" stop-color="#D7783D"/>
<stop offset="1" stop-color="#D7783D" stop-opacity="0"/>
</radialGradient>
<radialGradient id="paint15_radial_154_3606" cx="0" cy="0" r="1" gradientUnits="userSpaceOnUse" gradientTransform="translate(20.666 11.041) rotate(76.0568) scale(1.45901 3.19503)">
<stop offset="0.382465" stop-color="#D48C33"/>
<stop offset="1" stop-color="#FEB16A" stop-opacity="0"/>
</radialGradient>
<radialGradient id="paint16_radial_154_3606" cx="0" cy="0" r="1" gradientUnits="userSpaceOnUse" gradientTransform="translate(28.2052 28.8241) rotate(-51.5819) scale(2.89168 1.86587)">
<stop stop-color="#FF196C"/>
<stop offset="1" stop-color="#FF1F4A"/>
</radialGradient>
<radialGradient id="paint17_radial_154_3606" cx="0" cy="0" r="1" gradientUnits="userSpaceOnUse" gradientTransform="translate(30.1974 27.3006) rotate(149.744) scale(2.17069 1.37495)">
<stop offset="0.222789" stop-color="#FF5873"/>
<stop offset="1" stop-color="#FF5873" stop-opacity="0"/>
</radialGradient>
<radialGradient id="paint18_radial_154_3606" cx="0" cy="0" r="1" gradientUnits="userSpaceOnUse" gradientTransform="translate(12.9318 28.9022) rotate(-104.281) scale(2.21695 2.12265)">
<stop stop-color="#F6196C"/>
<stop offset="1" stop-color="#E42047"/>
</radialGradient>
<radialGradient id="paint19_radial_154_3606" cx="0" cy="0" r="1" gradientUnits="userSpaceOnUse" gradientTransform="translate(13.8497 27.5545) rotate(155.726) scale(1.0927 0.957116)">
<stop stop-color="#FE536F"/>
<stop offset="1" stop-color="#FE536F" stop-opacity="0"/>
</radialGradient>
<radialGradient id="paint20_radial_154_3606" cx="0" cy="0" r="1" gradientUnits="userSpaceOnUse" gradientTransform="translate(6.48633 13.7186) rotate(135.198) scale(3.71608 3.86608)">
<stop offset="0.172433" stop-color="#E7C04E"/>
<stop offset="1" stop-color="#D9972A"/>
</radialGradient>
<radialGradient id="paint21_radial_154_3606" cx="0" cy="0" r="1" gradientUnits="userSpaceOnUse" gradientTransform="translate(4.68945 16.8716) rotate(-71.3305) scale(2.07449 2.24715)">
<stop offset="0.0645976" stop-color="#DF8089"/>
<stop offset="1" stop-color="#DF8089" stop-opacity="0"/>
</radialGradient>
<radialGradient id="paint22_radial_154_3606" cx="0" cy="0" r="1" gradientUnits="userSpaceOnUse" gradientTransform="translate(6.62305 13.7998) rotate(141.017) scale(1.75882 0.908911)">
<stop stop-color="#FFDE71"/>
<stop offset="1" stop-color="#FFDE71" stop-opacity="0"/>
</radialGradient>
<radialGradient id="paint23_radial_154_3606" cx="0" cy="0" r="1" gradientUnits="userSpaceOnUse" gradientTransform="translate(5.68555 15.0177) rotate(180) scale(2.34375 2.4359)">
<stop offset="0.487603" stop-color="#E1AD3D" stop-opacity="0"/>
<stop offset="1" stop-color="#B9894B"/>
</radialGradient>
<radialGradient id="paint24_radial_154_3606" cx="0" cy="0" r="1" gradientUnits="userSpaceOnUse" gradientTransform="translate(14.0449 12.5161) rotate(136.302) scale(3.64696 3.79034)">
<stop offset="0.172433" stop-color="#E7C04E"/>
<stop offset="1" stop-color="#D9972A"/>
</radialGradient>
<radialGradient id="paint25_radial_154_3606" cx="0" cy="0" r="1" gradientUnits="userSpaceOnUse" gradientTransform="translate(14.1816 12.5942) rotate(142.093) scale(1.7328 0.887663)">
<stop stop-color="#FFDE71"/>
<stop offset="1" stop-color="#FFDE71" stop-opacity="0"/>
</radialGradient>
<radialGradient id="paint26_radial_154_3606" cx="0" cy="0" r="1" gradientUnits="userSpaceOnUse" gradientTransform="translate(12.6387 15.5435) rotate(-76.7989) scale(1.62497 2.16726)">
<stop stop-color="#E4A122"/>
<stop offset="1" stop-color="#E4A122" stop-opacity="0"/>
</radialGradient>
<radialGradient id="paint27_radial_154_3606" cx="0" cy="0" r="1" gradientUnits="userSpaceOnUse" gradientTransform="translate(13.2441 13.7661) rotate(180) scale(2.34375)">
<stop offset="0.487603" stop-color="#E1AD3D" stop-opacity="0"/>
<stop offset="1" stop-color="#B9894B"/>
</radialGradient>
<radialGradient id="paint28_radial_154_3606" cx="0" cy="0" r="1" gradientUnits="userSpaceOnUse" gradientTransform="translate(30.002 13.0825) rotate(136.32) scale(2.99771 3.11557)">
<stop offset="0.172433" stop-color="#F0C950"/>
<stop offset="1" stop-color="#C8861F"/>
</radialGradient>
<radialGradient id="paint29_radial_154_3606" cx="0" cy="0" r="1" gradientUnits="userSpaceOnUse" gradientTransform="translate(30.2559 12.7505) rotate(147.14) scale(1.67411 0.8576)">
<stop offset="0.183948" stop-color="#FFDE71"/>
<stop offset="1" stop-color="#FFDE71" stop-opacity="0"/>
</radialGradient>
<radialGradient id="paint30_radial_154_3606" cx="0" cy="0" r="1" gradientUnits="userSpaceOnUse" gradientTransform="translate(22.0723 26.9491) rotate(138.155) scale(3.51324)">
<stop stop-color="#5FBFFF"/>
<stop offset="1" stop-color="#3E94FF"/>
</radialGradient>
<linearGradient id="paint31_linear_154_3606" x1="20.9297" y1="11.4424" x2="28.8594" y2="21.4424" gradientUnits="userSpaceOnUse">
<stop stop-color="#FFD678"/>
<stop offset="1" stop-color="#FFD678" stop-opacity="0"/>
</linearGradient>
<radialGradient id="paint32_radial_154_3606" cx="0" cy="0" r="1" gradientUnits="userSpaceOnUse" gradientTransform="translate(28.8594 20.4658) rotate(-34.6679) scale(8.12156 2.17528)">
<stop offset="0.289296" stop-color="#FFD175"/>
<stop offset="1" stop-color="#FFD175" stop-opacity="0"/>
</radialGradient>
<radialGradient id="paint33_radial_154_3606" cx="0" cy="0" r="1" gradientUnits="userSpaceOnUse" gradientTransform="translate(22.4629 8.31738) rotate(125.606) scale(4.29401 3.64572)">
<stop offset="0.376296" stop-color="#F3D154"/>
<stop offset="1" stop-color="#CC9848"/>
</radialGradient>
<radialGradient id="paint34_radial_154_3606" cx="0" cy="0" r="1" gradientUnits="userSpaceOnUse" gradientTransform="translate(20.2363 11.8086) rotate(-79.3128) scale(2.29071 2.72301)">
<stop stop-color="#E78F5E"/>
<stop offset="1" stop-color="#E78F5E" stop-opacity="0"/>
</radialGradient>
<radialGradient id="paint35_radial_154_3606" cx="0" cy="0" r="1" gradientUnits="userSpaceOnUse" gradientTransform="translate(21.6035 10.3096) rotate(-146.725) scale(4.48539 5.36474)">
<stop offset="0.557117" stop-color="#E9C251" stop-opacity="0"/>
<stop offset="1" stop-color="#B49858"/>
</radialGradient>
<radialGradient id="paint36_radial_154_3606" cx="0" cy="0" r="1" gradientUnits="userSpaceOnUse" gradientTransform="translate(23.2441 8.55176) rotate(156.06) scale(2.47887 1.9076)">
<stop stop-color="#FFED77"/>
<stop offset="1" stop-color="#FFED77" stop-opacity="0"/>
</radialGradient>
<radialGradient id="paint37_radial_154_3606" cx="0" cy="0" r="1" gradientUnits="userSpaceOnUse" gradientTransform="translate(37.7363 13.7186) rotate(135.198) scale(3.71608 3.86608)">
<stop offset="0.172433" stop-color="#F8CB54"/>
<stop offset="1" stop-color="#EAA34B"/>
</radialGradient>
<radialGradient id="paint38_radial_154_3606" cx="0" cy="0" r="1" gradientUnits="userSpaceOnUse" gradientTransform="translate(35.9395 16.8716) rotate(-71.3305) scale(2.07449 2.80408)">
<stop offset="0.159577" stop-color="#F1907C"/>
<stop offset="1" stop-color="#F1907C" stop-opacity="0"/>
</radialGradient>
<radialGradient id="paint39_radial_154_3606" cx="0" cy="0" r="1" gradientUnits="userSpaceOnUse" gradientTransform="translate(37.873 13.7998) rotate(141.017) scale(1.75882 0.908911)">
<stop stop-color="#FFDE71"/>
<stop offset="1" stop-color="#FFDE71" stop-opacity="0"/>
</radialGradient>
<radialGradient id="paint40_radial_154_3606" cx="0" cy="0" r="1" gradientUnits="userSpaceOnUse" gradientTransform="translate(36.9355 15.0177) rotate(180) scale(2.34375 2.4359)">
<stop offset="0.487603" stop-color="#E0A444" stop-opacity="0"/>
<stop offset="1" stop-color="#C6924D"/>
</radialGradient>
</defs>
</svg>
