<svg width="current" height="current" viewBox="0 0 20 20" fill="none" xmlns="http://www.w3.org/2000/svg">
  <mask id="a" style="mask-type:alpha" maskUnits="userSpaceOnUse" x="0" y="0" width="20" height="20">
    <path fill="#D9D9D9" d="M0 0h20v20H0z"/>
  </mask>
  <g mask="url(#a)">
    <path d="M10 14.167c1.153 0 2.135-.407 2.948-1.22.812-.812 1.219-1.794 1.219-2.947s-.407-2.135-1.22-2.948C12.136 6.24 11.154 5.833 10 5.833s-2.135.407-2.948 1.219C6.24 7.865 5.833 8.847 5.833 10s.407 2.135 1.219 2.948c.813.812 1.795 1.219 2.948 1.219Zm0 4.166a8.115 8.115 0 0 1-3.25-.656 8.415 8.415 0 0 1-2.646-1.781 8.416 8.416 0 0 1-1.781-2.646A8.115 8.115 0 0 1 1.667 10c0-1.153.218-2.236.656-3.25a8.415 8.415 0 0 1 1.781-2.646A8.415 8.415 0 0 1 6.75 2.323 8.115 8.115 0 0 1 10 1.667c1.153 0 2.236.218 3.25.656a8.416 8.416 0 0 1 2.646 1.781 8.415 8.415 0 0 1 1.781 2.646 8.115 8.115 0 0 1 .656 3.25 8.115 8.115 0 0 1-.656 3.25 8.416 8.416 0 0 1-1.781 2.646 8.416 8.416 0 0 1-2.646 1.781 8.115 8.115 0 0 1-3.25.656Zm0-1.666c1.861 0 3.438-.646 4.73-1.938 1.29-1.291 1.937-2.868 1.937-4.729 0-1.861-.646-3.438-1.938-4.73C13.438 3.98 11.861 3.334 10 3.334c-1.861 0-3.438.646-4.73 1.938C3.98 6.562 3.334 8.139 3.334 10c0 1.861.646 3.438 1.938 4.73 1.291 1.29 2.868 1.937 4.729 1.937Z" fill="currentColor"/>
  </g>
</svg>
