<svg width="20" height="20" viewBox="0 0 20 20" fill="none" xmlns="http://www.w3.org/2000/svg">
<mask id="mask0_154_2139" style="mask-type:alpha" maskUnits="userSpaceOnUse" x="0" y="0" width="20" height="20">
<rect width="20" height="20" fill="#D9D9D9"/>
</mask>
<g mask="url(#mask0_154_2139)">
<path d="M6.66602 16.6673C6.20768 16.6673 5.81532 16.5041 5.48893 16.1777C5.16254 15.8513 4.99935 15.459 4.99935 15.0007V13.334C4.99935 13.0979 5.07921 12.9 5.23893 12.7402C5.39865 12.5805 5.59657 12.5007 5.83268 12.5007H7.49935V10.6257C7.01324 10.5979 6.55143 10.4902 6.11393 10.3027C5.67643 10.1152 5.27713 9.83398 4.91602 9.45898V8.54232H3.95768L1.95768 6.54232C1.72157 6.30621 1.60352 6.06315 1.60352 5.81315C1.60352 5.56315 1.72157 5.34093 1.95768 5.14648C2.36046 4.79926 2.85699 4.53537 3.44727 4.35482C4.03754 4.17426 4.66602 4.08398 5.33268 4.08398C5.70768 4.08398 6.07227 4.11176 6.42643 4.16732C6.7806 4.22287 7.13824 4.32704 7.49935 4.47982V4.16732C7.49935 3.93121 7.57921 3.73329 7.73893 3.57357C7.89865 3.41385 8.09657 3.33398 8.33268 3.33398H16.666C16.9021 3.33398 17.1 3.41385 17.2598 3.57357C17.4195 3.73329 17.4993 3.93121 17.4993 4.16732V14.1673C17.4993 14.8618 17.2563 15.452 16.7702 15.9382C16.2841 16.4243 15.6938 16.6673 14.9993 16.6673H6.66602ZM9.16602 12.5007H13.3327C13.5688 12.5007 13.7667 12.5805 13.9264 12.7402C14.0862 12.9 14.166 13.0979 14.166 13.334V14.1673C14.166 14.4034 14.2459 14.6013 14.4056 14.7611C14.5653 14.9208 14.7632 15.0007 14.9993 15.0007C15.2355 15.0007 15.4334 14.9208 15.5931 14.7611C15.7528 14.6013 15.8327 14.4034 15.8327 14.1673V5.00065H9.16602V5.50065L13.916 10.2507C14.0132 10.3479 14.0792 10.4382 14.1139 10.5215C14.1487 10.6048 14.166 10.709 14.166 10.834C14.166 11.0701 14.0862 11.268 13.9264 11.4277C13.7667 11.5875 13.5688 11.6673 13.3327 11.6673C13.2077 11.6673 13.1035 11.65 13.0202 11.6152C12.9368 11.5805 12.8466 11.5145 12.7493 11.4173L10.6243 9.29232L10.4577 9.45898C10.2632 9.65343 10.0584 9.82704 9.8431 9.97982C9.62782 10.1326 9.40213 10.2507 9.16602 10.334V12.5007ZM4.66602 6.87565H6.58268V8.66732C6.74935 8.77843 6.92296 8.85482 7.10352 8.89648C7.28407 8.93815 7.47157 8.95898 7.66602 8.95898C7.98546 8.95898 8.27365 8.91037 8.5306 8.81315C8.78754 8.71593 9.04102 8.54232 9.29102 8.29232L9.45768 8.12565L8.29102 6.95898C7.88824 6.55621 7.43685 6.25412 6.93685 6.05273C6.43685 5.85135 5.90213 5.75065 5.33268 5.75065C5.0549 5.75065 4.79102 5.77148 4.54102 5.81315C4.29102 5.85482 4.04102 5.91732 3.79102 6.00065L4.66602 6.87565ZM6.66602 15.0007H12.6243C12.5827 14.8757 12.5514 14.7437 12.5306 14.6048C12.5098 14.4659 12.4993 14.3201 12.4993 14.1673H6.66602V15.0007Z" fill="#B7B9C9"/>
</g>
</svg>
