<svg width="129" height="128" viewBox="0 0 129 128" fill="none" xmlns="http://www.w3.org/2000/svg">
<mask id="mask0_262_9893" style="mask-type:alpha" maskUnits="userSpaceOnUse" x="0" y="0" width="129" height="128">
<rect x="0.5" width="128" height="128" fill="#D9D9D9"/>
</mask>
<g mask="url(#mask0_262_9893)">
<path d="M32.4999 64.2668C32.4999 68.2668 33.2555 72.1557 34.7666 75.9335C36.2777 79.7113 38.6333 83.2002 41.8333 86.4002L43.1666 87.7335V80.0002C43.1666 78.4891 43.6777 77.2224 44.6999 76.2002C45.7221 75.1779 46.9888 74.6668 48.4999 74.6668C50.011 74.6668 51.2777 75.1779 52.2999 76.2002C53.3221 77.2224 53.8333 78.4891 53.8333 80.0002V101.333C53.8333 102.845 53.3221 104.111 52.2999 105.133C51.2777 106.156 50.011 106.667 48.4999 106.667H27.1666C25.6555 106.667 24.3888 106.156 23.3666 105.133C22.3444 104.111 21.8333 102.845 21.8333 101.333C21.8333 99.8224 22.3444 98.5557 23.3666 97.5335C24.3888 96.5113 25.6555 96.0002 27.1666 96.0002H36.4999L34.3666 94.1335C29.7444 90.0446 26.4999 85.3779 24.6333 80.1335C22.7666 74.8891 21.8333 69.6002 21.8333 64.2668C21.8333 55.9113 23.9666 48.3335 28.2333 41.5335C32.4999 34.7335 38.2333 29.5113 45.4333 25.8668C46.6777 25.1557 47.9888 25.1113 49.3666 25.7335C50.7444 26.3557 51.6555 27.3779 52.0999 28.8002C52.5444 30.1335 52.5221 31.4668 52.0333 32.8002C51.5444 34.1335 50.6777 35.1557 49.4333 35.8668C44.2777 38.7113 40.1666 42.6446 37.0999 47.6668C34.0333 52.6891 32.4999 58.2224 32.4999 64.2668ZM96.4999 63.7335C96.4999 59.7335 95.7444 55.8446 94.2333 52.0668C92.7221 48.2891 90.3666 44.8002 87.1666 41.6002L85.8333 40.2668V48.0002C85.8333 49.5113 85.3221 50.7779 84.2999 51.8002C83.2777 52.8224 82.011 53.3335 80.4999 53.3335C78.9888 53.3335 77.7221 52.8224 76.6999 51.8002C75.6777 50.7779 75.1666 49.5113 75.1666 48.0002V26.6668C75.1666 25.1557 75.6777 23.8891 76.6999 22.8668C77.7221 21.8446 78.9888 21.3335 80.4999 21.3335H101.833C103.344 21.3335 104.611 21.8446 105.633 22.8668C106.655 23.8891 107.167 25.1557 107.167 26.6668C107.167 28.1779 106.655 29.4446 105.633 30.4668C104.611 31.4891 103.344 32.0002 101.833 32.0002H92.4999L94.6333 33.8668C98.9888 38.2224 102.167 42.9557 104.167 48.0668C106.167 53.1779 107.167 58.4002 107.167 63.7335C107.167 72.0891 105.033 79.6668 100.767 86.4668C96.4999 93.2668 90.7666 98.4891 83.5666 102.133C82.3221 102.845 81.011 102.889 79.6333 102.267C78.2555 101.645 77.3444 100.622 76.8999 99.2002C76.4555 97.8668 76.4777 96.5335 76.9666 95.2002C77.4555 93.8668 78.3221 92.8446 79.5666 92.1335C84.7221 89.2891 88.8333 85.3557 91.8999 80.3335C94.9666 75.3113 96.4999 69.7779 96.4999 63.7335Z" fill="#E4E6F0"/>
</g>
</svg>
