<svg width="129" height="128" viewBox="0 0 129 128" fill="none" xmlns="http://www.w3.org/2000/svg">
<mask id="mask0_262_8200" style="mask-type:alpha" maskUnits="userSpaceOnUse" x="0" y="0" width="129" height="128">
<rect x="0.5" width="128" height="128" fill="#D9D9D9"/>
</mask>
<g mask="url(#mask0_262_8200)">
<path d="M83.1667 58.6666C85.4779 58.6666 87.389 57.9111 88.9001 56.4C90.4112 54.8888 91.1667 52.9777 91.1667 50.6666C91.1667 48.3555 90.4112 46.4444 88.9001 44.9333C87.389 43.4222 85.4779 42.6666 83.1667 42.6666C80.8556 42.6666 78.9445 43.4222 77.4334 44.9333C75.9223 46.4444 75.1667 48.3555 75.1667 50.6666C75.1667 52.9777 75.9223 54.8888 77.4334 56.4C78.9445 57.9111 80.8556 58.6666 83.1667 58.6666ZM45.8334 58.6666C48.1445 58.6666 50.0556 57.9111 51.5667 56.4C53.0779 54.8888 53.8334 52.9777 53.8334 50.6666C53.8334 48.3555 53.0779 46.4444 51.5667 44.9333C50.0556 43.4222 48.1445 42.6666 45.8334 42.6666C43.5223 42.6666 41.6112 43.4222 40.1001 44.9333C38.589 46.4444 37.8334 48.3555 37.8334 50.6666C37.8334 52.9777 38.589 54.8888 40.1001 56.4C41.6112 57.9111 43.5223 58.6666 45.8334 58.6666ZM64.5001 117.333C57.1223 117.333 50.189 115.933 43.7001 113.133C37.2112 110.333 31.5667 106.533 26.7667 101.733C21.9667 96.9333 18.1667 91.2889 15.3667 84.8C12.5667 78.3111 11.1667 71.3777 11.1667 64C11.1667 56.6222 12.5667 49.6889 15.3667 43.2C18.1667 36.7111 21.9667 31.0666 26.7667 26.2666C31.5667 21.4666 37.2112 17.6666 43.7001 14.8666C50.189 12.0666 57.1223 10.6666 64.5001 10.6666C71.8779 10.6666 78.8112 12.0666 85.3001 14.8666C91.789 17.6666 97.4334 21.4666 102.233 26.2666C107.033 31.0666 110.833 36.7111 113.633 43.2C116.433 49.6889 117.833 56.6222 117.833 64C117.833 71.3777 116.433 78.3111 113.633 84.8C110.833 91.2889 107.033 96.9333 102.233 101.733C97.4334 106.533 91.789 110.333 85.3001 113.133C78.8112 115.933 71.8779 117.333 64.5001 117.333ZM64.5001 106.667C76.3223 106.667 86.389 102.511 94.7001 94.2C103.011 85.8889 107.167 75.8222 107.167 64C107.167 52.1777 103.011 42.1111 94.7001 33.8C86.389 25.4888 76.3223 21.3333 64.5001 21.3333C52.6779 21.3333 42.6112 25.4888 34.3001 33.8C25.989 42.1111 21.8334 52.1777 21.8334 64C21.8334 75.8222 25.989 85.8889 34.3001 94.2C42.6112 102.511 52.6779 106.667 64.5001 106.667ZM43.8334 90.6666C44.4556 90.6666 45.1001 90.4889 45.7668 90.1333C46.4334 89.7777 46.9445 89.3333 47.3001 88.8C49.2556 86.1333 51.7001 84 54.6334 82.4C57.5668 80.8 60.8556 80 64.5001 80C68.1445 80 71.4334 80.8 74.3668 82.4C77.3001 84 79.7445 86.1333 81.7001 88.8C82.0556 89.3333 82.5445 89.7777 83.1667 90.1333C83.789 90.4889 84.4112 90.6666 85.0334 90.6666C86.6334 90.6666 87.8112 89.9555 88.5667 88.5333C89.3223 87.1111 89.1667 85.6 88.1001 84C85.789 80.5333 82.5445 77.6666 78.3668 75.4C74.189 73.1333 69.5667 72 64.5001 72C59.4334 72 54.8112 73.1333 50.6334 75.4C46.4556 77.6666 43.1668 80.6222 40.7668 84.2666C39.789 85.7777 39.6779 87.2222 40.4334 88.6C41.189 89.9777 42.3223 90.6666 43.8334 90.6666Z" fill="#E4E6F0"/>
</g>
</svg>
