<svg width="18" height="16" viewBox="0 0 18 16" fill="none" xmlns="http://www.w3.org/2000/svg">
<path d="M16.6667 12.1667C16.4306 12.1667 16.2326 12.0868 16.0729 11.9271C15.9132 11.7674 15.8333 11.5695 15.8333 11.3334V6.41669L9.14583 10.0625C9.02083 10.132 8.89236 10.184 8.76042 10.2188C8.62847 10.2535 8.48611 10.2709 8.33333 10.2709C8.18056 10.2709 8.03819 10.2535 7.90625 10.2188C7.77431 10.184 7.64583 10.132 7.52083 10.0625L0.5 6.22919C0.361111 6.15974 0.253472 6.05905 0.177083 5.9271C0.100694 5.79516 0.0625 5.6528 0.0625 5.50002C0.0625 5.34724 0.100694 5.20488 0.177083 5.07294C0.253472 4.94099 0.361111 4.8403 0.5 4.77085L7.54167 0.93752C7.66667 0.868076 7.79514 0.815993 7.92708 0.78127C8.05903 0.746548 8.19445 0.729187 8.33333 0.729187C8.47222 0.729187 8.60764 0.746548 8.73958 0.78127C8.87153 0.815993 9 0.868076 9.125 0.93752L17.0625 5.27085C17.2014 5.3403 17.309 5.44099 17.3854 5.57294C17.4618 5.70488 17.5 5.84724 17.5 6.00002V11.3334C17.5 11.5695 17.4201 11.7674 17.2604 11.9271C17.1007 12.0868 16.9028 12.1667 16.6667 12.1667ZM8.33333 15.2709C8.19445 15.2709 8.05903 15.2535 7.92708 15.2188C7.79514 15.184 7.66667 15.132 7.54167 15.0625L3.375 12.8125C3.09722 12.6597 2.88194 12.4549 2.72917 12.1979C2.57639 11.941 2.5 11.6528 2.5 11.3334V8.16669L7.22917 10.7292C7.40972 10.8264 7.59028 10.9132 7.77083 10.9896C7.95139 11.066 8.13889 11.1042 8.33333 11.1042C8.52778 11.1042 8.71875 11.0625 8.90625 10.9792C9.09375 10.8959 9.27778 10.8056 9.45833 10.7084L14.1667 8.16669V11.3334C14.1667 11.6528 14.0903 11.941 13.9375 12.1979C13.7847 12.4549 13.5694 12.6597 13.2917 12.8125L9.125 15.0625C9 15.132 8.87153 15.184 8.73958 15.2188C8.60764 15.2535 8.47222 15.2709 8.33333 15.2709Z" fill="currentColor"/>
</svg>
