<svg width="17" height="16" viewBox="0 0 17 16" fill="none" xmlns="http://www.w3.org/2000/svg">
<mask id="mask0_559_6316" style="mask-type:alpha" maskUnits="userSpaceOnUse" x="0" y="0" width="17" height="16">
<rect x="0.142578" width="16" height="16" fill="#D9D9D9"/>
</mask>
<g mask="url(#mask0_559_6316)">
<path d="M8.14255 13.8167C8.03144 13.8167 7.9231 13.8028 7.81755 13.775C7.71199 13.7472 7.60921 13.7056 7.50921 13.65L4.17588 11.85C3.95366 11.7278 3.78143 11.5639 3.65921 11.3583C3.53699 11.1528 3.47588 10.9222 3.47588 10.6667V7.46668L1.87588 6.58335C1.75366 6.51668 1.66477 6.43335 1.60921 6.33335C1.55366 6.23335 1.52588 6.12224 1.52588 6.00002C1.52588 5.87779 1.55366 5.76668 1.60921 5.66668C1.66477 5.56668 1.75366 5.48335 1.87588 5.41668L7.50921 2.35002C7.60921 2.29446 7.71199 2.25279 7.81755 2.22502C7.9231 2.19724 8.03144 2.18335 8.14255 2.18335C8.25366 2.18335 8.36199 2.19724 8.46755 2.22502C8.5731 2.25279 8.67588 2.29446 8.77588 2.35002L15.1259 5.81668C15.237 5.87224 15.3231 5.95279 15.3842 6.05835C15.4453 6.16391 15.4759 6.27779 15.4759 6.40002V10.6667C15.4759 10.8556 15.412 11.0139 15.2842 11.1417C15.1564 11.2695 14.9981 11.3334 14.8092 11.3334C14.6203 11.3334 14.462 11.2695 14.3342 11.1417C14.2064 11.0139 14.1425 10.8556 14.1425 10.6667V6.73335L12.8092 7.46668V10.6667C12.8092 10.9222 12.7481 11.1528 12.6259 11.3583C12.5037 11.5639 12.3314 11.7278 12.1092 11.85L8.77588 13.65C8.67588 13.7056 8.5731 13.7472 8.46755 13.775C8.36199 13.8028 8.25366 13.8167 8.14255 13.8167ZM8.14255 8.46668L12.7092 6.00002L8.14255 3.53335L3.57588 6.00002L8.14255 8.46668ZM8.14255 12.4833L11.4759 10.6833V8.16668L8.79255 9.65002C8.69255 9.70557 8.58699 9.74724 8.47588 9.77502C8.36477 9.80279 8.25366 9.81668 8.14255 9.81668C8.03144 9.81668 7.92032 9.80279 7.80921 9.77502C7.6981 9.74724 7.59255 9.70557 7.49255 9.65002L4.80921 8.16668V10.6833L8.14255 12.4833Z" fill="currentColor"/>
</g>
</svg>
