<svg width="current" height="current" viewBox="0 0 16 16" fill="none" xmlns="http://www.w3.org/2000/svg">
  <mask id="a" style="mask-type:alpha" maskUnits="userSpaceOnUse" x="0" y="0" width="16" height="16">
    <path fill="currentColor" d="M0 0h16v16H0z"/>
  </mask>
  <g mask="url(#a)">
    <path d="M12.55 13.517 8.9 9.867a4.017 4.017 0 0 1-1.192.625 4.317 4.317 0 0 1-1.341.208c-1.211 0-2.242-.42-3.092-1.258C2.425 8.602 2 7.578 2 6.367s.425-2.242 1.275-3.092C4.125 2.425 5.155 2 6.367 2c1.21 0 2.236.425 3.075 1.275.839.85 1.258 1.88 1.258 3.092 0 .466-.067.914-.2 1.341a3.5 3.5 0 0 1-.633 1.175l3.666 3.684a.62.62 0 0 1 .192.475.68.68 0 0 1-.208.475.659.659 0 0 1-.484.2.658.658 0 0 1-.483-.2ZM6.367 9.3a2.83 2.83 0 0 0 2.075-.858A2.827 2.827 0 0 0 9.3 6.367c0-.823-.283-1.523-.85-2.1-.567-.578-1.261-.867-2.083-.867a2.86 2.86 0 0 0-2.1.867 2.86 2.86 0 0 0-.867 2.1c0 .822.289 1.516.867 2.083.577.567 1.277.85 2.1.85Z" fill="currentColor"/>
  </g>
</svg>
