<svg width="100%" height="100%" viewBox="0 0 16 16" fill="none" xmlns="http://www.w3.org/2000/svg">
<mask id="mask0_559_6324" style="mask-type:alpha" maskUnits="userSpaceOnUse" x="0" y="0" width="16" height="16">
<rect width="16" height="16" fill="#D9D9D9"/>
</mask>
<g mask="url(#mask0_559_6324)">
<path d="M12.55 13.5167L8.9 9.86667C8.53333 10.1444 8.13611 10.3528 7.70833 10.4917C7.28056 10.6306 6.83333 10.7 6.36667 10.7C5.15556 10.7 4.125 10.2806 3.275 9.44167C2.425 8.60278 2 7.57778 2 6.36667C2 5.15556 2.425 4.125 3.275 3.275C4.125 2.425 5.15556 2 6.36667 2C7.57778 2 8.60278 2.425 9.44167 3.275C10.2806 4.125 10.7 5.15556 10.7 6.36667C10.7 6.83333 10.6333 7.28056 10.5 7.70833C10.3667 8.13611 10.1556 8.52778 9.86667 8.88333L13.5333 12.5667C13.6667 12.7 13.7306 12.8583 13.725 13.0417C13.7194 13.225 13.65 13.3833 13.5167 13.5167C13.3833 13.65 13.2222 13.7167 13.0333 13.7167C12.8444 13.7167 12.6833 13.65 12.55 13.5167ZM6.36667 9.3C7.17778 9.3 7.86944 9.01389 8.44167 8.44167C9.01389 7.86944 9.3 7.17778 9.3 6.36667C9.3 5.54444 9.01667 4.84444 8.45 4.26667C7.88333 3.68889 7.18889 3.4 6.36667 3.4C5.54444 3.4 4.84444 3.68889 4.26667 4.26667C3.68889 4.84444 3.4 5.54444 3.4 6.36667C3.4 7.18889 3.68889 7.88333 4.26667 8.45C4.84444 9.01667 5.54444 9.3 6.36667 9.3Z" fill="currentColor"/>
</g>
</svg>
