<svg width="20" height="20" viewBox="0 0 20 20" fill="none" xmlns="http://www.w3.org/2000/svg">
<mask id="mask0_618_2662" style="mask-type:alpha" maskUnits="userSpaceOnUse" x="0" y="0" width="20" height="20">
<rect width="20" height="20" fill="#D9D9D9"/>
</mask>
<g mask="url(#mask0_618_2662)">
<path d="M3.33335 16.6667C2.87502 16.6667 2.48266 16.5035 2.15627 16.1771C1.82988 15.8507 1.66669 15.4583 1.66669 15V12.1875C1.66669 12.0347 1.7153 11.9028 1.81252 11.7917C1.90974 11.6806 2.03474 11.6111 2.18752 11.5833C2.52085 11.4722 2.79516 11.2708 3.01044 10.9792C3.22571 10.6875 3.33335 10.3611 3.33335 10C3.33335 9.6389 3.22571 9.31251 3.01044 9.02084C2.79516 8.72918 2.52085 8.52779 2.18752 8.41668C2.03474 8.3889 1.90974 8.31945 1.81252 8.20834C1.7153 8.09723 1.66669 7.96529 1.66669 7.81251V5.00001C1.66669 4.54168 1.82988 4.14932 2.15627 3.82293C2.48266 3.49654 2.87502 3.33334 3.33335 3.33334H16.6667C17.125 3.33334 17.5174 3.49654 17.8438 3.82293C18.1702 4.14932 18.3334 4.54168 18.3334 5.00001V7.81251C18.3334 7.96529 18.2847 8.09723 18.1875 8.20834C18.0903 8.31945 17.9653 8.3889 17.8125 8.41668C17.4792 8.52779 17.2049 8.72918 16.9896 9.02084C16.7743 9.31251 16.6667 9.6389 16.6667 10C16.6667 10.3611 16.7743 10.6875 16.9896 10.9792C17.2049 11.2708 17.4792 11.4722 17.8125 11.5833C17.9653 11.6111 18.0903 11.6806 18.1875 11.7917C18.2847 11.9028 18.3334 12.0347 18.3334 12.1875V15C18.3334 15.4583 18.1702 15.8507 17.8438 16.1771C17.5174 16.5035 17.125 16.6667 16.6667 16.6667H3.33335ZM10 14.1667C10.2361 14.1667 10.434 14.0868 10.5938 13.9271C10.7535 13.7674 10.8334 13.5695 10.8334 13.3333C10.8334 13.0972 10.7535 12.8993 10.5938 12.7396C10.434 12.5799 10.2361 12.5 10 12.5C9.76391 12.5 9.56599 12.5799 9.40627 12.7396C9.24655 12.8993 9.16669 13.0972 9.16669 13.3333C9.16669 13.5695 9.24655 13.7674 9.40627 13.9271C9.56599 14.0868 9.76391 14.1667 10 14.1667ZM10 10.8333C10.2361 10.8333 10.434 10.7535 10.5938 10.5938C10.7535 10.434 10.8334 10.2361 10.8334 10C10.8334 9.7639 10.7535 9.56598 10.5938 9.40626C10.434 9.24654 10.2361 9.16668 10 9.16668C9.76391 9.16668 9.56599 9.24654 9.40627 9.40626C9.24655 9.56598 9.16669 9.7639 9.16669 10C9.16669 10.2361 9.24655 10.434 9.40627 10.5938C9.56599 10.7535 9.76391 10.8333 10 10.8333ZM10 7.50001C10.2361 7.50001 10.434 7.42015 10.5938 7.26043C10.7535 7.1007 10.8334 6.90279 10.8334 6.66668C10.8334 6.43057 10.7535 6.23265 10.5938 6.07293C10.434 5.9132 10.2361 5.83334 10 5.83334C9.76391 5.83334 9.56599 5.9132 9.40627 6.07293C9.24655 6.23265 9.16669 6.43057 9.16669 6.66668C9.16669 6.90279 9.24655 7.1007 9.40627 7.26043C9.56599 7.42015 9.76391 7.50001 10 7.50001Z" fill="currentColor"/>
</g>
</svg>
