<svg width="21" height="20" viewBox="0 0 21 20" fill="none" xmlns="http://www.w3.org/2000/svg">
<mask id="mask0_154_1213" style="mask-type:alpha" maskUnits="userSpaceOnUse" x="0" y="0" width="21" height="20">
<rect x="0.5" width="20" height="20" fill="#D9D9D9"/>
</mask>
<g mask="url(#mask0_154_1213)">
<path d="M7.16602 14.9993L10.4993 12.4577L13.8327 14.9993L12.5827 10.8743L15.916 8.49935H11.8327L10.4993 4.16602L9.16602 8.49935H5.08268L8.41602 10.8743L7.16602 14.9993ZM10.4993 18.3327C9.34657 18.3327 8.26324 18.1139 7.24935 17.6764C6.23546 17.2389 5.35352 16.6452 4.60352 15.8952C3.85352 15.1452 3.25977 14.2632 2.82227 13.2493C2.38477 12.2355 2.16602 11.1521 2.16602 9.99935C2.16602 8.84657 2.38477 7.76324 2.82227 6.74935C3.25977 5.73546 3.85352 4.85352 4.60352 4.10352C5.35352 3.35352 6.23546 2.75977 7.24935 2.32227C8.26324 1.88477 9.34657 1.66602 10.4993 1.66602C11.6521 1.66602 12.7355 1.88477 13.7493 2.32227C14.7632 2.75977 15.6452 3.35352 16.3952 4.10352C17.1452 4.85352 17.7389 5.73546 18.1764 6.74935C18.6139 7.76324 18.8327 8.84657 18.8327 9.99935C18.8327 11.1521 18.6139 12.2355 18.1764 13.2493C17.7389 14.2632 17.1452 15.1452 16.3952 15.8952C15.6452 16.6452 14.7632 17.2389 13.7493 17.6764C12.7355 18.1139 11.6521 18.3327 10.4993 18.3327Z" fill="#6B77F8"/>
</g>
</svg>
