<svg width="12" height="12" viewBox="0 0 12 12" fill="none" xmlns="http://www.w3.org/2000/svg">
<mask id="mask0_262_7829" style="mask-type:alpha" maskUnits="userSpaceOnUse" x="0" y="0" width="12" height="12">
<rect width="12" height="12" fill="#D9D9D9"/>
</mask>
<g mask="url(#mask0_262_7829)">
<path d="M5.99952 9.13711L3.92452 10.3871C3.83285 10.4454 3.73702 10.4704 3.63702 10.4621C3.53702 10.4538 3.44952 10.4204 3.37452 10.3621C3.29952 10.3038 3.24119 10.2309 3.19952 10.1434C3.15785 10.0559 3.14952 9.95794 3.17452 9.84961L3.72452 7.48711L1.88702 5.89961C1.80369 5.82461 1.7516 5.73919 1.73077 5.64336C1.70994 5.54753 1.71619 5.45378 1.74952 5.36211C1.78285 5.27044 1.83285 5.19544 1.89952 5.13711C1.96619 5.07878 2.05785 5.04128 2.17452 5.02461L4.59952 4.81211L5.53702 2.58711C5.57869 2.48711 5.64327 2.41211 5.73077 2.36211C5.81827 2.31211 5.90785 2.28711 5.99952 2.28711C6.09119 2.28711 6.18077 2.31211 6.26827 2.36211C6.35577 2.41211 6.42035 2.48711 6.46202 2.58711L7.39952 4.81211L9.82452 5.02461C9.94119 5.04128 10.0329 5.07878 10.0995 5.13711C10.1662 5.19544 10.2162 5.27044 10.2495 5.36211C10.2829 5.45378 10.2891 5.54753 10.2683 5.64336C10.2474 5.73919 10.1954 5.82461 10.112 5.89961L8.27452 7.48711L8.82452 9.84961C8.84952 9.95794 8.84119 10.0559 8.79952 10.1434C8.75785 10.2309 8.69952 10.3038 8.62452 10.3621C8.54952 10.4204 8.46202 10.4538 8.36202 10.4621C8.26202 10.4704 8.16619 10.4454 8.07452 10.3871L5.99952 9.13711Z" fill="#45BFD9"/>
</g>
</svg>
