<svg width="100%" height="100%" viewBox="0 0 17 16" fill="none" xmlns="http://www.w3.org/2000/svg">
<mask id="mask0_559_6281" style="mask-type:alpha" maskUnits="userSpaceOnUse" x="0" y="0" width="17" height="16">
<rect x="0.571289" width="16" height="16" fill="#D9D9D9"/>
</mask>
<g mask="url(#mask0_559_6281)">
<path d="M3.90462 12.6667H9.90462V10C9.90462 9.81111 9.96851 9.65278 10.0963 9.525C10.2241 9.39722 10.3824 9.33333 10.5713 9.33333H13.238V3.33333H3.90462V12.6667ZM3.90462 14C3.53796 14 3.22407 13.8694 2.96296 13.6083C2.70184 13.3472 2.57129 13.0333 2.57129 12.6667V3.33333C2.57129 2.96667 2.70184 2.65278 2.96296 2.39167C3.22407 2.13056 3.53796 2 3.90462 2H13.238C13.6046 2 13.9185 2.13056 14.1796 2.39167C14.4407 2.65278 14.5713 2.96667 14.5713 3.33333V10L10.5713 14H3.90462ZM5.90462 9.33333C5.71573 9.33333 5.5574 9.26944 5.42962 9.14167C5.30184 9.01389 5.23796 8.85556 5.23796 8.66667C5.23796 8.47778 5.30184 8.31944 5.42962 8.19167C5.5574 8.06389 5.71573 8 5.90462 8H7.90462C8.09351 8 8.25185 8.06389 8.37962 8.19167C8.5074 8.31944 8.57129 8.47778 8.57129 8.66667C8.57129 8.85556 8.5074 9.01389 8.37962 9.14167C8.25185 9.26944 8.09351 9.33333 7.90462 9.33333H5.90462ZM5.90462 6.66667C5.71573 6.66667 5.5574 6.60278 5.42962 6.475C5.30184 6.34722 5.23796 6.18889 5.23796 6C5.23796 5.81111 5.30184 5.65278 5.42962 5.525C5.5574 5.39722 5.71573 5.33333 5.90462 5.33333H11.238C11.4268 5.33333 11.5852 5.39722 11.713 5.525C11.8407 5.65278 11.9046 5.81111 11.9046 6C11.9046 6.18889 11.8407 6.34722 11.713 6.475C11.5852 6.60278 11.4268 6.66667 11.238 6.66667H5.90462Z" fill="currentColor"/>
</g>
</svg>
