<svg width="49" height="48" viewBox="0 0 49 48" fill="none" xmlns="http://www.w3.org/2000/svg">
<path d="M24.9426 23.2428C15.8376 23.2428 8.44263 30.6228 8.44263 39.7428V44.9928H41.4276V39.7428C41.4276 30.6228 34.0476 23.2428 24.9426 23.2428Z" fill="#56436B"/>
<path d="M24.9426 23.2428C15.8376 23.2428 8.44263 30.6228 8.44263 39.7428V44.9928H41.4276V39.7428C41.4276 30.6228 34.0476 23.2428 24.9426 23.2428Z" fill="url(#paint0_radial_83_3435)"/>
<path d="M24.9426 23.2428C15.8376 23.2428 8.44263 30.6228 8.44263 39.7428V44.9928H41.4276V39.7428C41.4276 30.6228 34.0476 23.2428 24.9426 23.2428Z" fill="url(#paint1_radial_83_3435)"/>
<path d="M35.5073 27.0582C35.5555 26.959 35.5314 26.84 35.4484 26.7674C32.6573 24.3252 28.8914 22.9765 24.9468 22.9765C21.0023 22.9765 17.2139 24.3396 14.422 26.7678C14.3388 26.8402 14.3144 26.9591 14.3623 27.0584C16.2628 30.998 20.0012 34.0625 24.9468 34.0625C29.8925 34.0625 33.594 30.9979 35.5073 27.0582Z" fill="url(#paint2_radial_83_3435)"/>
<path d="M35.5073 27.0582C35.5555 26.959 35.5314 26.84 35.4484 26.7674C32.6573 24.3252 28.8914 22.9765 24.9468 22.9765C21.0023 22.9765 17.2139 24.3396 14.422 26.7678C14.3388 26.8402 14.3144 26.9591 14.3623 27.0584C16.2628 30.998 20.0012 34.0625 24.9468 34.0625C29.8925 34.0625 33.594 30.9979 35.5073 27.0582Z" fill="url(#paint3_radial_83_3435)"/>
<path d="M35.5073 27.0582C35.5555 26.959 35.5314 26.84 35.4484 26.7674C32.6573 24.3252 28.8914 22.9765 24.9468 22.9765C21.0023 22.9765 17.2139 24.3396 14.422 26.7678C14.3388 26.8402 14.3144 26.9591 14.3623 27.0584C16.2628 30.998 20.0012 34.0625 24.9468 34.0625C29.8925 34.0625 33.594 30.9979 35.5073 27.0582Z" fill="url(#paint4_radial_83_3435)"/>
<path d="M35.5073 27.0582C35.5555 26.959 35.5314 26.84 35.4484 26.7674C32.6573 24.3252 28.8914 22.9765 24.9468 22.9765C21.0023 22.9765 17.2139 24.3396 14.422 26.7678C14.3388 26.8402 14.3144 26.9591 14.3623 27.0584C16.2628 30.998 20.0012 34.0625 24.9468 34.0625C29.8925 34.0625 33.594 30.9979 35.5073 27.0582Z" fill="url(#paint5_radial_83_3435)"/>
<path d="M35.5073 27.0582C35.5555 26.959 35.5314 26.84 35.4484 26.7674C32.6573 24.3252 28.8914 22.9765 24.9468 22.9765C21.0023 22.9765 17.2139 24.3396 14.422 26.7678C14.3388 26.8402 14.3144 26.9591 14.3623 27.0584C16.2628 30.998 20.0012 34.0625 24.9468 34.0625C29.8925 34.0625 33.594 30.9979 35.5073 27.0582Z" fill="url(#paint6_radial_83_3435)"/>
<path d="M35.5073 27.0582C35.5555 26.959 35.5314 26.84 35.4484 26.7674C32.6573 24.3252 28.8914 22.9765 24.9468 22.9765C21.0023 22.9765 17.2139 24.3396 14.422 26.7678C14.3388 26.8402 14.3144 26.9591 14.3623 27.0584C16.2628 30.998 20.0012 34.0625 24.9468 34.0625C29.8925 34.0625 33.594 30.9979 35.5073 27.0582Z" fill="url(#paint7_radial_83_3435)"/>
<g filter="url(#filter0_f_83_3435)">
<path d="M24.4945 28.2978C24.5888 28.3623 24.749 28.4178 24.9145 28.4236C25.0799 28.4178 25.2401 28.3623 25.3345 28.2978C26.8598 27.2539 28.0045 26.214 28.0045 24.4179V18.9678C28.0045 17.2578 26.6245 15.8778 24.9145 15.8778C23.2045 15.8778 21.8245 17.2578 21.8245 18.9678V24.4179C21.8245 26.214 22.9691 27.2539 24.4945 28.2978Z" stroke="#1F0F21" stroke-width="0.4"/>
</g>
<path d="M24.4945 28.2978C24.5888 28.3623 24.749 28.4178 24.9145 28.4236C25.0799 28.4178 25.2401 28.3623 25.3345 28.2978C26.8598 27.2539 28.0045 26.214 28.0045 24.4179V18.9678C28.0045 17.2578 26.6245 15.8778 24.9145 15.8778C23.2045 15.8778 21.8245 17.2578 21.8245 18.9678V24.4179C21.8245 26.214 22.9691 27.2539 24.4945 28.2978Z" fill="url(#paint8_radial_83_3435)"/>
<path d="M24.4945 28.2978C24.5888 28.3623 24.749 28.4178 24.9145 28.4236C25.0799 28.4178 25.2401 28.3623 25.3345 28.2978C26.8598 27.2539 28.0045 26.214 28.0045 24.4179V18.9678C28.0045 17.2578 26.6245 15.8778 24.9145 15.8778C23.2045 15.8778 21.8245 17.2578 21.8245 18.9678V24.4179C21.8245 26.214 22.9691 27.2539 24.4945 28.2978Z" fill="url(#paint9_radial_83_3435)"/>
<path d="M24.4945 28.2978C24.5888 28.3623 24.749 28.4178 24.9145 28.4236C25.0799 28.4178 25.2401 28.3623 25.3345 28.2978C26.8598 27.2539 28.0045 26.214 28.0045 24.4179V18.9678C28.0045 17.2578 26.6245 15.8778 24.9145 15.8778C23.2045 15.8778 21.8245 17.2578 21.8245 18.9678V24.4179C21.8245 26.214 22.9691 27.2539 24.4945 28.2978Z" fill="url(#paint10_radial_83_3435)"/>
<path d="M38.0347 17.5021V4.20782H36.8347V17.5021H38.0347Z" fill="url(#paint11_linear_83_3435)"/>
<path d="M38.0347 17.5021V4.20782H36.8347V17.5021H38.0347Z" fill="url(#paint12_radial_83_3435)"/>
<path d="M36.8339 17.4664C36.4433 17.6795 36.1782 18.0938 36.1782 18.5701C36.1782 19.264 36.7407 19.8266 37.4346 19.8266C38.1286 19.8266 38.6911 19.264 38.6911 18.5701C38.6911 18.0938 38.4261 17.6795 38.0354 17.4664H36.8339Z" fill="url(#paint13_radial_83_3435)"/>
<path d="M36.8339 17.4664C36.4433 17.6795 36.1782 18.0938 36.1782 18.5701C36.1782 19.264 36.7407 19.8266 37.4346 19.8266C38.1286 19.8266 38.6911 19.264 38.6911 18.5701C38.6911 18.0938 38.4261 17.6795 38.0354 17.4664H36.8339Z" fill="url(#paint14_radial_83_3435)"/>
<g filter="url(#filter1_f_83_3435)">
<path d="M37.5891 5.56311V17.2144" stroke="url(#paint15_linear_83_3435)" stroke-width="0.15"/>
</g>
<path d="M36.1542 20.408L35.3796 23.7658C35.2812 24.1923 35.6086 24.5983 36.0463 24.5925H38.841C39.2751 24.5867 39.591 24.1786 39.4877 23.7569L38.674 20.3981C38.5918 20.0626 38.291 19.8266 37.9455 19.8266H36.885C36.5357 19.8266 36.2327 20.0677 36.1542 20.408Z" fill="url(#paint16_linear_83_3435)"/>
<path d="M36.1542 20.408L35.3796 23.7658C35.2812 24.1923 35.6086 24.5983 36.0463 24.5925H38.841C39.2751 24.5867 39.591 24.1786 39.4877 23.7569L38.674 20.3981C38.5918 20.0626 38.291 19.8266 37.9455 19.8266H36.885C36.5357 19.8266 36.2327 20.0677 36.1542 20.408Z" fill="url(#paint17_linear_83_3435)"/>
<path d="M36.1542 20.408L35.3796 23.7658C35.2812 24.1923 35.6086 24.5983 36.0463 24.5925H38.841C39.2751 24.5867 39.591 24.1786 39.4877 23.7569L38.674 20.3981C38.5918 20.0626 38.291 19.8266 37.9455 19.8266H36.885C36.5357 19.8266 36.2327 20.0677 36.1542 20.408Z" fill="url(#paint18_radial_83_3435)"/>
<path d="M36.1542 20.408L35.3796 23.7658C35.2812 24.1923 35.6086 24.5983 36.0463 24.5925H38.841C39.2751 24.5867 39.591 24.1786 39.4877 23.7569L38.674 20.3981C38.5918 20.0626 38.291 19.8266 37.9455 19.8266H36.885C36.5357 19.8266 36.2327 20.0677 36.1542 20.408Z" fill="url(#paint19_radial_83_3435)"/>
<path d="M36.1542 20.408L35.3796 23.7658C35.2812 24.1923 35.6086 24.5983 36.0463 24.5925H38.841C39.2751 24.5867 39.591 24.1786 39.4877 23.7569L38.674 20.3981C38.5918 20.0626 38.291 19.8266 37.9455 19.8266H36.885C36.5357 19.8266 36.2327 20.0677 36.1542 20.408Z" fill="url(#paint20_radial_83_3435)"/>
<path d="M14.0908 44.9928V27.3134C10.6303 30.3368 8.44263 34.7824 8.44263 39.7428V44.9928H14.0908Z" fill="url(#paint21_radial_83_3435)"/>
<path d="M14.0908 44.9928V27.3134C10.6303 30.3368 8.44263 34.7824 8.44263 39.7428V44.9928H14.0908Z" fill="url(#paint22_radial_83_3435)"/>
<path d="M14.0908 44.9928V27.3134C10.6303 30.3368 8.44263 34.7824 8.44263 39.7428V44.9928H14.0908Z" fill="url(#paint23_linear_83_3435)"/>
<path d="M35.7793 44.9928V27.3134C39.2399 30.3368 41.4275 34.7824 41.4275 39.7428V44.9928H35.7793Z" fill="url(#paint24_radial_83_3435)"/>
<path d="M35.7793 44.9928V27.3134C39.2399 30.3368 41.4275 34.7824 41.4275 39.7428V44.9928H35.7793Z" fill="url(#paint25_radial_83_3435)"/>
<g filter="url(#filter2_f_83_3435)">
<path d="M18.437 35.6573C18.437 35.3752 18.6692 35.1465 18.9556 35.1465C19.242 35.1465 19.4741 35.3752 19.4741 35.6573V44.7969H18.437V35.6573Z" fill="url(#paint26_linear_83_3435)"/>
<path d="M24.4165 35.6573C24.4165 35.3752 24.6487 35.1465 24.9351 35.1465C25.2214 35.1465 25.4536 35.3752 25.4536 35.6573V44.7969H24.4165V35.6573Z" fill="url(#paint27_linear_83_3435)"/>
<path d="M30.396 35.6573C30.396 35.3752 30.6282 35.1465 30.9146 35.1465C31.2009 35.1465 31.4331 35.3752 31.4331 35.6573V44.7969H30.396V35.6573Z" fill="url(#paint28_linear_83_3435)"/>
</g>
<g filter="url(#filter3_f_83_3435)">
<path d="M31.3518 7.68101L28.1672 7.68101C27.7593 7.68101 27.4286 7.35033 27.4286 6.94242C27.4286 6.48739 27.836 6.1385 28.2854 6.21012C29.1115 6.34178 30.2088 6.52534 30.9435 6.7075C32.6048 7.1194 33.0635 7.92815 33.1916 8.50481C32.5985 7.77987 31.7179 7.65355 31.3518 7.68101Z" fill="#504A4C"/>
</g>
<g filter="url(#filter4_f_83_3435)">
<path d="M31.3518 7.58637L28.1672 7.58637C27.7593 7.58637 27.4286 7.25569 27.4286 6.84778C27.4286 6.39276 27.836 6.04386 28.2854 6.11548C29.1115 6.24715 30.2088 6.4307 30.9435 6.61287C32.6048 7.02476 33.0635 7.83351 33.1916 8.41017C32.5985 7.68523 31.7179 7.55891 31.3518 7.58637Z" fill="#49373D"/>
</g>
<g filter="url(#filter5_f_83_3435)">
<path d="M31.6912 7.65716L28.4087 7.65716C27.9882 7.65716 27.6474 7.31632 27.6474 6.89586C27.6474 6.42684 28.0673 6.06722 28.5305 6.14104C29.382 6.27675 30.513 6.46595 31.2703 6.65372C32.9827 7.07828 33.4555 7.9119 33.5876 8.50629C32.9762 7.75906 32.0686 7.62886 31.6912 7.65716Z" fill="#725050"/>
</g>
<path d="M32.3383 18.1169C32.8504 18.1003 33.3299 17.9267 33.72 17.6456V19.0676C33.72 20.4318 32.9072 21.6471 31.6719 22.1514C31.932 21.5975 32.1108 20.994 32.2002 20.3491L32.3383 18.1169Z" fill="url(#paint29_radial_83_3435)"/>
<path d="M17.4881 18.1169C16.9761 18.1003 16.4966 17.9267 16.1064 17.6456V19.0676C16.1064 20.4318 16.9192 21.6471 18.1545 22.1514C17.8944 21.5975 17.7156 20.994 17.6262 20.3491L17.4881 18.1169Z" fill="url(#paint30_radial_83_3435)"/>
<g filter="url(#filter6_ii_83_3435)">
<path d="M17.5436 20.431C17.9366 23.413 20.4743 25.6331 23.4786 25.6331H26.3601C29.3644 25.6331 31.9021 23.413 32.2951 20.431C32.4752 17.5539 32.6565 14.6883 32.7901 11.8127C32.7739 10.6412 31.8504 9.67454 30.6839 9.62538H28.5453C27.0871 9.62538 25.7666 8.76519 25.1672 7.42165C25.0133 7.03661 24.6406 6.78265 24.2275 6.78265H22.2833C19.4641 6.78265 17.1797 9.09288 17.1797 11.9438C17.1797 14.7858 17.3572 17.5818 17.5436 20.431Z" fill="url(#paint31_radial_83_3435)"/>
</g>
<path d="M17.5436 20.431C17.9366 23.413 20.4743 25.6331 23.4786 25.6331H26.3601C29.3644 25.6331 31.9021 23.413 32.2951 20.431C32.4752 17.5539 32.6565 14.6883 32.7901 11.8127C32.7739 10.6412 31.8504 9.67454 30.6839 9.62538H28.5453C27.0871 9.62538 25.7666 8.76519 25.1672 7.42165C25.0133 7.03661 24.6406 6.78265 24.2275 6.78265H22.2833C19.4641 6.78265 17.1797 9.09288 17.1797 11.9438C17.1797 14.7858 17.3572 17.5818 17.5436 20.431Z" fill="url(#paint32_linear_83_3435)"/>
<path d="M17.5436 20.431C17.9366 23.413 20.4743 25.6331 23.4786 25.6331H26.3601C29.3644 25.6331 31.9021 23.413 32.2951 20.431C32.4752 17.5539 32.6565 14.6883 32.7901 11.8127C32.7739 10.6412 31.8504 9.67454 30.6839 9.62538H28.5453C27.0871 9.62538 25.7666 8.76519 25.1672 7.42165C25.0133 7.03661 24.6406 6.78265 24.2275 6.78265H22.2833C19.4641 6.78265 17.1797 9.09288 17.1797 11.9438C17.1797 14.7858 17.3572 17.5818 17.5436 20.431Z" fill="url(#paint33_radial_83_3435)"/>
<path d="M17.5436 20.431C17.9366 23.413 20.4743 25.6331 23.4786 25.6331H26.3601C29.3644 25.6331 31.9021 23.413 32.2951 20.431C32.4752 17.5539 32.6565 14.6883 32.7901 11.8127C32.7739 10.6412 31.8504 9.67454 30.6839 9.62538H28.5453C27.0871 9.62538 25.7666 8.76519 25.1672 7.42165C25.0133 7.03661 24.6406 6.78265 24.2275 6.78265H22.2833C19.4641 6.78265 17.1797 9.09288 17.1797 11.9438C17.1797 14.7858 17.3572 17.5818 17.5436 20.431Z" fill="url(#paint34_radial_83_3435)"/>
<path d="M17.5436 20.431C17.9366 23.413 20.4743 25.6331 23.4786 25.6331H26.3601C29.3644 25.6331 31.9021 23.413 32.2951 20.431C32.4752 17.5539 32.6565 14.6883 32.7901 11.8127C32.7739 10.6412 31.8504 9.67454 30.6839 9.62538H28.5453C27.0871 9.62538 25.7666 8.76519 25.1672 7.42165C25.0133 7.03661 24.6406 6.78265 24.2275 6.78265H22.2833C19.4641 6.78265 17.1797 9.09288 17.1797 11.9438C17.1797 14.7858 17.3572 17.5818 17.5436 20.431Z" fill="url(#paint35_radial_83_3435)"/>
<path d="M17.5436 20.431C17.9366 23.413 20.4743 25.6331 23.4786 25.6331H26.3601C29.3644 25.6331 31.9021 23.413 32.2951 20.431C32.4752 17.5539 32.6565 14.6883 32.7901 11.8127C32.7739 10.6412 31.8504 9.67454 30.6839 9.62538H28.5453C27.0871 9.62538 25.7666 8.76519 25.1672 7.42165C25.0133 7.03661 24.6406 6.78265 24.2275 6.78265H22.2833C19.4641 6.78265 17.1797 9.09288 17.1797 11.9438C17.1797 14.7858 17.3572 17.5818 17.5436 20.431Z" fill="url(#paint36_radial_83_3435)"/>
<path d="M17.5436 20.431C17.9366 23.413 20.4743 25.6331 23.4786 25.6331H26.3601C29.3644 25.6331 31.9021 23.413 32.2951 20.431C32.4752 17.5539 32.6565 14.6883 32.7901 11.8127C32.7739 10.6412 31.8504 9.67454 30.6839 9.62538H28.5453C27.0871 9.62538 25.7666 8.76519 25.1672 7.42165C25.0133 7.03661 24.6406 6.78265 24.2275 6.78265H22.2833C19.4641 6.78265 17.1797 9.09288 17.1797 11.9438C17.1797 14.7858 17.3572 17.5818 17.5436 20.431Z" fill="url(#paint37_radial_83_3435)"/>
<path d="M17.5436 20.431C17.9366 23.413 20.4743 25.6331 23.4786 25.6331H26.3601C29.3644 25.6331 31.9021 23.413 32.2951 20.431C32.4752 17.5539 32.6565 14.6883 32.7901 11.8127C32.7739 10.6412 31.8504 9.67454 30.6839 9.62538H28.5453C27.0871 9.62538 25.7666 8.76519 25.1672 7.42165C25.0133 7.03661 24.6406 6.78265 24.2275 6.78265H22.2833C19.4641 6.78265 17.1797 9.09288 17.1797 11.9438C17.1797 14.7858 17.3572 17.5818 17.5436 20.431Z" fill="url(#paint38_radial_83_3435)"/>
<path d="M17.5436 20.431C17.9366 23.413 20.4743 25.6331 23.4786 25.6331H26.3601C29.3644 25.6331 31.9021 23.413 32.2951 20.431C32.4752 17.5539 32.6565 14.6883 32.7901 11.8127C32.7739 10.6412 31.8504 9.67454 30.6839 9.62538H28.5453C27.0871 9.62538 25.7666 8.76519 25.1672 7.42165C25.0133 7.03661 24.6406 6.78265 24.2275 6.78265H22.2833C19.4641 6.78265 17.1797 9.09288 17.1797 11.9438C17.1797 14.7858 17.3572 17.5818 17.5436 20.431Z" fill="url(#paint39_radial_83_3435)"/>
<g filter="url(#filter7_f_83_3435)">
<path d="M24.3 15.4076L23.3976 18.2154C23.2434 18.793 23.6134 19.3706 24.1375 19.3706H25.2551C25.7792 19.3706 26.1491 18.7841 25.995 18.2154L25.2396 15.4076C25.0778 14.7856 24.4695 14.7856 24.3 15.4076Z" fill="#D69790"/>
</g>
<g filter="url(#filter8_f_83_3435)">
<path d="M24.3292 15.1163L23.5174 17.9241C23.3517 18.5017 23.7493 19.0793 24.3126 19.0793H25.5137C26.0769 19.0793 26.4745 18.4928 26.3089 17.9241L25.4971 15.1163C25.3232 14.4943 24.5114 14.4943 24.3292 15.1163Z" fill="#DEAB9D"/>
<path d="M24.3292 15.1163L23.5174 17.9241C23.3517 18.5017 23.7493 19.0793 24.3126 19.0793H25.5137C26.0769 19.0793 26.4745 18.4928 26.3089 17.9241L25.4971 15.1163C25.3232 14.4943 24.5114 14.4943 24.3292 15.1163Z" fill="url(#paint40_linear_83_3435)"/>
<path d="M24.3292 15.1163L23.5174 17.9241C23.3517 18.5017 23.7493 19.0793 24.3126 19.0793H25.5137C26.0769 19.0793 26.4745 18.4928 26.3089 17.9241L25.4971 15.1163C25.3232 14.4943 24.5114 14.4943 24.3292 15.1163Z" fill="url(#paint41_radial_83_3435)"/>
<path d="M24.3292 15.1163L23.5174 17.9241C23.3517 18.5017 23.7493 19.0793 24.3126 19.0793H25.5137C26.0769 19.0793 26.4745 18.4928 26.3089 17.9241L25.4971 15.1163C25.3232 14.4943 24.5114 14.4943 24.3292 15.1163Z" fill="url(#paint42_linear_83_3435)"/>
<path d="M24.3292 15.1163L23.5174 17.9241C23.3517 18.5017 23.7493 19.0793 24.3126 19.0793H25.5137C26.0769 19.0793 26.4745 18.4928 26.3089 17.9241L25.4971 15.1163C25.3232 14.4943 24.5114 14.4943 24.3292 15.1163Z" fill="url(#paint43_radial_83_3435)"/>
<path d="M24.3292 15.1163L23.5174 17.9241C23.3517 18.5017 23.7493 19.0793 24.3126 19.0793H25.5137C26.0769 19.0793 26.4745 18.4928 26.3089 17.9241L25.4971 15.1163C25.3232 14.4943 24.5114 14.4943 24.3292 15.1163Z" fill="url(#paint44_linear_83_3435)"/>
</g>
<g filter="url(#filter9_f_83_3435)">
<path d="M22.8318 20.0639L22.8318 20.0639L22.8312 20.0635C22.6931 19.9933 22.5494 20.037 22.4637 20.1272C22.3777 20.2177 22.3439 20.3628 22.4327 20.4916C22.9578 21.2869 23.8722 21.8167 24.9133 21.8167C25.9545 21.8167 26.8691 21.2867 27.3942 20.491C27.4817 20.3596 27.4497 20.2146 27.3624 20.1239C27.276 20.0342 27.1323 19.9939 26.9954 20.0635L26.9954 20.0635L26.9947 20.0639C26.3934 20.3773 25.6844 20.557 24.9133 20.557C24.1498 20.557 23.4331 20.3773 22.8318 20.0639Z" stroke="url(#paint45_linear_83_3435)" stroke-width="0.15"/>
</g>
<path d="M24.9133 20.632C24.1381 20.632 23.4095 20.4496 22.7972 20.1304C22.5879 20.024 22.3631 20.2596 22.4949 20.4496C23.0064 21.2249 23.8978 21.7417 24.9133 21.7417C25.9287 21.7417 26.8201 21.2249 27.3317 20.4496C27.4634 20.252 27.2386 20.024 27.0294 20.1304C26.417 20.4496 25.6961 20.632 24.9133 20.632Z" fill="url(#paint46_radial_83_3435)"/>
<g filter="url(#filter10_ii_83_3435)">
<path d="M32.3283 6.06175C33.114 6.3321 33.8188 6.88098 34.2644 7.66745C34.9773 8.92087 34.8719 10.4201 34.1024 11.526C33.835 11.9192 33.6892 12.3862 33.6892 12.8614V14.676C33.4035 14.4769 33.0266 14.3294 32.6701 14.2663L32.79 11.8127C32.7738 10.6412 31.8503 9.67456 30.6838 9.6254H28.5451C27.087 9.6254 25.7665 8.76521 25.1671 7.42168C25.0131 7.03664 24.6405 6.78268 24.2274 6.78268H22.2831C19.464 6.78268 17.1796 9.0929 17.1796 11.9438L17.2264 14.2919C16.8384 14.3489 16.4332 14.4786 16.1264 14.6947V12.8614C16.1264 12.3862 15.9806 11.9192 15.7133 11.526C14.9842 10.4528 14.8546 9.01098 15.4946 7.79033C15.9401 6.94652 16.6611 6.35668 17.4793 6.06995C18.3542 5.75864 19.0995 5.16879 19.5936 4.37414C20.2255 3.36649 21.3262 3.27676 22.598 3.27676C23.0922 3.27676 23.562 3.38326 23.9995 3.56349C24.5827 3.81746 25.2389 3.81746 25.8222 3.56349C26.2515 3.38326 26.7214 3.27676 27.2155 3.27676C28.5036 3.27676 29.6388 3.39106 30.2625 4.42329C30.7324 5.20156 31.4696 5.76683 32.3283 6.06175Z" fill="url(#paint47_linear_83_3435)"/>
<path d="M32.3283 6.06175C33.114 6.3321 33.8188 6.88098 34.2644 7.66745C34.9773 8.92087 34.8719 10.4201 34.1024 11.526C33.835 11.9192 33.6892 12.3862 33.6892 12.8614V14.676C33.4035 14.4769 33.0266 14.3294 32.6701 14.2663L32.79 11.8127C32.7738 10.6412 31.8503 9.67456 30.6838 9.6254H28.5451C27.087 9.6254 25.7665 8.76521 25.1671 7.42168C25.0131 7.03664 24.6405 6.78268 24.2274 6.78268H22.2831C19.464 6.78268 17.1796 9.0929 17.1796 11.9438L17.2264 14.2919C16.8384 14.3489 16.4332 14.4786 16.1264 14.6947V12.8614C16.1264 12.3862 15.9806 11.9192 15.7133 11.526C14.9842 10.4528 14.8546 9.01098 15.4946 7.79033C15.9401 6.94652 16.6611 6.35668 17.4793 6.06995C18.3542 5.75864 19.0995 5.16879 19.5936 4.37414C20.2255 3.36649 21.3262 3.27676 22.598 3.27676C23.0922 3.27676 23.562 3.38326 23.9995 3.56349C24.5827 3.81746 25.2389 3.81746 25.8222 3.56349C26.2515 3.38326 26.7214 3.27676 27.2155 3.27676C28.5036 3.27676 29.6388 3.39106 30.2625 4.42329C30.7324 5.20156 31.4696 5.76683 32.3283 6.06175Z" fill="url(#paint48_radial_83_3435)"/>
<path d="M32.3283 6.06175C33.114 6.3321 33.8188 6.88098 34.2644 7.66745C34.9773 8.92087 34.8719 10.4201 34.1024 11.526C33.835 11.9192 33.6892 12.3862 33.6892 12.8614V14.676C33.4035 14.4769 33.0266 14.3294 32.6701 14.2663L32.79 11.8127C32.7738 10.6412 31.8503 9.67456 30.6838 9.6254H28.5451C27.087 9.6254 25.7665 8.76521 25.1671 7.42168C25.0131 7.03664 24.6405 6.78268 24.2274 6.78268H22.2831C19.464 6.78268 17.1796 9.0929 17.1796 11.9438L17.2264 14.2919C16.8384 14.3489 16.4332 14.4786 16.1264 14.6947V12.8614C16.1264 12.3862 15.9806 11.9192 15.7133 11.526C14.9842 10.4528 14.8546 9.01098 15.4946 7.79033C15.9401 6.94652 16.6611 6.35668 17.4793 6.06995C18.3542 5.75864 19.0995 5.16879 19.5936 4.37414C20.2255 3.36649 21.3262 3.27676 22.598 3.27676C23.0922 3.27676 23.562 3.38326 23.9995 3.56349C24.5827 3.81746 25.2389 3.81746 25.8222 3.56349C26.2515 3.38326 26.7214 3.27676 27.2155 3.27676C28.5036 3.27676 29.6388 3.39106 30.2625 4.42329C30.7324 5.20156 31.4696 5.76683 32.3283 6.06175Z" fill="url(#paint49_radial_83_3435)"/>
<path d="M32.3283 6.06175C33.114 6.3321 33.8188 6.88098 34.2644 7.66745C34.9773 8.92087 34.8719 10.4201 34.1024 11.526C33.835 11.9192 33.6892 12.3862 33.6892 12.8614V14.676C33.4035 14.4769 33.0266 14.3294 32.6701 14.2663L32.79 11.8127C32.7738 10.6412 31.8503 9.67456 30.6838 9.6254H28.5451C27.087 9.6254 25.7665 8.76521 25.1671 7.42168C25.0131 7.03664 24.6405 6.78268 24.2274 6.78268H22.2831C19.464 6.78268 17.1796 9.0929 17.1796 11.9438L17.2264 14.2919C16.8384 14.3489 16.4332 14.4786 16.1264 14.6947V12.8614C16.1264 12.3862 15.9806 11.9192 15.7133 11.526C14.9842 10.4528 14.8546 9.01098 15.4946 7.79033C15.9401 6.94652 16.6611 6.35668 17.4793 6.06995C18.3542 5.75864 19.0995 5.16879 19.5936 4.37414C20.2255 3.36649 21.3262 3.27676 22.598 3.27676C23.0922 3.27676 23.562 3.38326 23.9995 3.56349C24.5827 3.81746 25.2389 3.81746 25.8222 3.56349C26.2515 3.38326 26.7214 3.27676 27.2155 3.27676C28.5036 3.27676 29.6388 3.39106 30.2625 4.42329C30.7324 5.20156 31.4696 5.76683 32.3283 6.06175Z" fill="url(#paint50_radial_83_3435)"/>
<path d="M32.3283 6.06175C33.114 6.3321 33.8188 6.88098 34.2644 7.66745C34.9773 8.92087 34.8719 10.4201 34.1024 11.526C33.835 11.9192 33.6892 12.3862 33.6892 12.8614V14.676C33.4035 14.4769 33.0266 14.3294 32.6701 14.2663L32.79 11.8127C32.7738 10.6412 31.8503 9.67456 30.6838 9.6254H28.5451C27.087 9.6254 25.7665 8.76521 25.1671 7.42168C25.0131 7.03664 24.6405 6.78268 24.2274 6.78268H22.2831C19.464 6.78268 17.1796 9.0929 17.1796 11.9438L17.2264 14.2919C16.8384 14.3489 16.4332 14.4786 16.1264 14.6947V12.8614C16.1264 12.3862 15.9806 11.9192 15.7133 11.526C14.9842 10.4528 14.8546 9.01098 15.4946 7.79033C15.9401 6.94652 16.6611 6.35668 17.4793 6.06995C18.3542 5.75864 19.0995 5.16879 19.5936 4.37414C20.2255 3.36649 21.3262 3.27676 22.598 3.27676C23.0922 3.27676 23.562 3.38326 23.9995 3.56349C24.5827 3.81746 25.2389 3.81746 25.8222 3.56349C26.2515 3.38326 26.7214 3.27676 27.2155 3.27676C28.5036 3.27676 29.6388 3.39106 30.2625 4.42329C30.7324 5.20156 31.4696 5.76683 32.3283 6.06175Z" fill="url(#paint51_radial_83_3435)"/>
</g>
<g filter="url(#filter11_i_83_3435)">
<path d="M30.6148 11.6567C30.3472 11.4237 30.036 11.1767 29.5647 11.0283C29.1 10.882 28.518 10.8428 27.7128 10.9413C27.4806 10.9697 27.3153 11.1809 27.3438 11.4131C27.3722 11.6454 27.5834 11.8106 27.8156 11.7822C28.5506 11.6922 29.0008 11.739 29.3103 11.8364C29.6131 11.9317 29.818 12.0862 30.0584 12.2955C30.2348 12.4492 30.5023 12.4307 30.656 12.2543C30.8096 12.0779 30.7912 11.8104 30.6148 11.6567Z" fill="#202020"/>
</g>
<g filter="url(#filter12_i_83_3435)">
<path d="M19.7037 11.4902C19.8413 11.4078 20.0394 11.3024 20.2895 11.2041C20.7896 11.0075 21.5044 10.8367 22.3597 10.9413C22.5919 10.9697 22.7571 11.181 22.7287 11.4132C22.7003 11.6454 22.489 11.8106 22.2568 11.7822C21.5719 11.6984 21.0005 11.8348 20.5995 11.9925C20.399 12.0713 20.2428 12.1549 20.1387 12.2171C20.0868 12.2482 20.0483 12.2738 20.024 12.2905C20.0119 12.2989 20.0035 12.305 19.9987 12.3085L19.9945 12.3116C19.8099 12.4539 19.5447 12.4204 19.4015 12.2362C19.2579 12.0516 19.2911 11.7854 19.4758 11.6418L19.7037 11.4902Z" fill="#202020"/>
</g>
<g filter="url(#filter13_if_83_3435)">
<path d="M25.2683 7.6306C25.2327 7.56234 25.199 7.49267 25.1673 7.42164C25.0134 7.03661 24.6407 6.78264 24.2276 6.78264H22.2834C19.4643 6.78264 17.1798 9.09287 17.1798 11.9438V12.3641C16.6605 11.9689 16.0073 11.1352 16.0073 9.78615C16.0073 8.14904 17.2013 7.32154 17.963 6.7937C18.178 6.64468 18.3585 6.51955 18.468 6.40682C18.5146 6.35893 18.5652 6.30522 18.6203 6.2468C19.1542 5.68057 20.1054 4.67167 21.7665 4.23075C22.7614 3.96664 23.7724 3.94704 24.4967 3.99905C24.9684 4.03293 25.3005 4.4412 25.3005 4.91405V7.61007L25.2683 7.6306Z" fill="#23181C"/>
<path d="M25.2683 7.6306C25.2327 7.56234 25.199 7.49267 25.1673 7.42164C25.0134 7.03661 24.6407 6.78264 24.2276 6.78264H22.2834C19.4643 6.78264 17.1798 9.09287 17.1798 11.9438V12.3641C16.6605 11.9689 16.0073 11.1352 16.0073 9.78615C16.0073 8.14904 17.2013 7.32154 17.963 6.7937C18.178 6.64468 18.3585 6.51955 18.468 6.40682C18.5146 6.35893 18.5652 6.30522 18.6203 6.2468C19.1542 5.68057 20.1054 4.67167 21.7665 4.23075C22.7614 3.96664 23.7724 3.94704 24.4967 3.99905C24.9684 4.03293 25.3005 4.4412 25.3005 4.91405V7.61007L25.2683 7.6306Z" fill="url(#paint52_radial_83_3435)"/>
<path d="M25.2683 7.6306C25.2327 7.56234 25.199 7.49267 25.1673 7.42164C25.0134 7.03661 24.6407 6.78264 24.2276 6.78264H22.2834C19.4643 6.78264 17.1798 9.09287 17.1798 11.9438V12.3641C16.6605 11.9689 16.0073 11.1352 16.0073 9.78615C16.0073 8.14904 17.2013 7.32154 17.963 6.7937C18.178 6.64468 18.3585 6.51955 18.468 6.40682C18.5146 6.35893 18.5652 6.30522 18.6203 6.2468C19.1542 5.68057 20.1054 4.67167 21.7665 4.23075C22.7614 3.96664 23.7724 3.94704 24.4967 3.99905C24.9684 4.03293 25.3005 4.4412 25.3005 4.91405V7.61007L25.2683 7.6306Z" fill="url(#paint53_radial_83_3435)"/>
</g>
<g filter="url(#filter14_f_83_3435)">
<path d="M32.8751 12.6201L32.8305 11.6561C32.8143 10.49 31.8507 9.52775 30.6841 9.47883H28.5455C27.1879 9.47883 25.9496 8.73659 25.3015 7.55486C25.3015 7.55486 25.0495 6.97115 24.9479 6.085C24.8337 5.08845 25.7434 4.3664 26.7357 4.51325C28.396 4.75898 30.5619 5.2853 32.0795 6.27513C34.7441 8.01308 34.2776 11.1452 32.8751 12.6201Z" fill="#1F151B"/>
<path d="M32.8751 12.6201L32.8305 11.6561C32.8143 10.49 31.8507 9.52775 30.6841 9.47883H28.5455C27.1879 9.47883 25.9496 8.73659 25.3015 7.55486C25.3015 7.55486 25.0495 6.97115 24.9479 6.085C24.8337 5.08845 25.7434 4.3664 26.7357 4.51325C28.396 4.75898 30.5619 5.2853 32.0795 6.27513C34.7441 8.01308 34.2776 11.1452 32.8751 12.6201Z" fill="url(#paint54_radial_83_3435)"/>
<path d="M32.8751 12.6201L32.8305 11.6561C32.8143 10.49 31.8507 9.52775 30.6841 9.47883H28.5455C27.1879 9.47883 25.9496 8.73659 25.3015 7.55486C25.3015 7.55486 25.0495 6.97115 24.9479 6.085C24.8337 5.08845 25.7434 4.3664 26.7357 4.51325C28.396 4.75898 30.5619 5.2853 32.0795 6.27513C34.7441 8.01308 34.2776 11.1452 32.8751 12.6201Z" fill="url(#paint55_radial_83_3435)"/>
<path d="M32.8751 12.6201L32.8305 11.6561C32.8143 10.49 31.8507 9.52775 30.6841 9.47883H28.5455C27.1879 9.47883 25.9496 8.73659 25.3015 7.55486C25.3015 7.55486 25.0495 6.97115 24.9479 6.085C24.8337 5.08845 25.7434 4.3664 26.7357 4.51325C28.396 4.75898 30.5619 5.2853 32.0795 6.27513C34.7441 8.01308 34.2776 11.1452 32.8751 12.6201Z" fill="url(#paint56_radial_83_3435)"/>
</g>
<path d="M28.565 13.6647C29.5626 13.6647 30.4052 14.3525 30.6345 15.2819C30.7027 15.5483 30.4982 15.8023 30.2256 15.8023H26.8178C26.6009 15.8023 26.4274 15.6041 26.4708 15.3872C26.6629 14.4083 27.5241 13.6647 28.565 13.6647Z" fill="white"/>
<path d="M28.2485 14.0799C29.004 14.0799 29.6109 14.6929 29.6109 15.4423C29.6109 15.5661 29.5923 15.69 29.5613 15.8015H26.9294C26.8985 15.6838 26.8799 15.5661 26.8799 15.4423C26.8799 14.6929 27.493 14.0799 28.2485 14.0799Z" fill="url(#paint57_radial_83_3435)"/>
<path d="M27.4685 15.4426C27.4685 15.0091 27.8153 14.6623 28.2488 14.6623C28.6823 14.6623 29.0291 15.0091 29.0291 15.4426C29.0291 15.5726 28.9981 15.6965 28.9424 15.8018H27.5614C27.4995 15.6965 27.4685 15.5726 27.4685 15.4426Z" fill="black"/>
<g filter="url(#filter15_f_83_3435)">
<path d="M28.1489 14.3681C28.246 14.4979 28.043 14.6563 27.8122 14.8289C27.5814 15.0014 27.4102 15.1229 27.313 14.993C27.2159 14.8631 27.3243 14.6179 27.5551 14.4453C27.7859 14.2728 28.0518 14.2382 28.1489 14.3681Z" fill="#C7A7A3"/>
<path d="M28.1489 14.3681C28.246 14.4979 28.043 14.6563 27.8122 14.8289C27.5814 15.0014 27.4102 15.1229 27.313 14.993C27.2159 14.8631 27.3243 14.6179 27.5551 14.4453C27.7859 14.2728 28.0518 14.2382 28.1489 14.3681Z" fill="url(#paint58_radial_83_3435)"/>
</g>
<g filter="url(#filter16_f_83_3435)">
<path d="M29.4617 15.2619C29.4115 14.9103 29.2058 14.6453 29.1092 14.5567L28.7131 14.9914L28.8918 15.3391L29.4617 15.2619Z" fill="url(#paint59_linear_83_3435)"/>
</g>
<path d="M21.2615 13.6647C20.2639 13.6647 19.4212 14.3524 19.1919 15.2819C19.1238 15.5483 19.3282 15.8024 19.6009 15.8024H23.0088C23.2257 15.8024 23.3992 15.6041 23.3558 15.3872C23.1637 14.4082 22.2963 13.6647 21.2615 13.6647Z" fill="white"/>
<path d="M21.5768 14.0798C20.8213 14.0798 20.2144 14.6929 20.2144 15.4422C20.2144 15.5661 20.2329 15.69 20.2639 15.8014H22.896C22.9269 15.6838 22.9455 15.5661 22.9455 15.4422C22.9393 14.6929 22.3324 14.0798 21.5768 14.0798Z" fill="url(#paint60_radial_83_3435)"/>
<path d="M22.357 15.4426C22.357 15.009 22.0102 14.6622 21.5767 14.6622C21.1432 14.6622 20.7964 15.009 20.7964 15.4426C20.7964 15.5726 20.8274 15.6965 20.8831 15.8018H22.2641C22.3199 15.6965 22.357 15.5726 22.357 15.4426Z" fill="black"/>
<g filter="url(#filter17_f_83_3435)">
<path d="M22.8228 15.2828C22.8228 14.8423 22.4646 14.5486 22.3678 14.4599L21.9272 14.8859L22.1983 15.4378L22.8228 15.2828Z" fill="url(#paint61_linear_83_3435)"/>
</g>
<g filter="url(#filter18_f_83_3435)">
<ellipse cx="21.1659" cy="14.6623" rx="0.595103" ry="0.301177" transform="rotate(-27.914 21.1659 14.6623)" fill="#C7A7A3" fill-opacity="0.9"/>
<ellipse cx="21.1659" cy="14.6623" rx="0.595103" ry="0.301177" transform="rotate(-27.914 21.1659 14.6623)" fill="url(#paint62_radial_83_3435)"/>
</g>
<path d="M32.4321 18.2563C32.5326 16.6309 32.6295 15.0074 32.7141 13.382C33.8681 13.5839 34.7452 14.5909 34.7452 15.8028C34.7452 17.1116 33.7222 18.1814 32.4321 18.2563Z" fill="url(#paint63_linear_83_3435)"/>
<path d="M32.4321 18.2563C32.5326 16.6309 32.6295 15.0074 32.7141 13.382C33.8681 13.5839 34.7452 14.5909 34.7452 15.8028C34.7452 17.1116 33.7222 18.1814 32.4321 18.2563Z" fill="url(#paint64_radial_83_3435)"/>
<path d="M32.4321 18.2563C32.5326 16.6309 32.6295 15.0074 32.7141 13.382C33.8681 13.5839 34.7452 14.5909 34.7452 15.8028C34.7452 17.1116 33.7222 18.1814 32.4321 18.2563Z" fill="url(#paint65_radial_83_3435)"/>
<path d="M32.4321 18.2563C32.5326 16.6309 32.6295 15.0074 32.7141 13.382C33.8681 13.5839 34.7452 14.5909 34.7452 15.8028C34.7452 17.1116 33.7222 18.1814 32.4321 18.2563Z" fill="url(#paint66_radial_83_3435)"/>
<path d="M17.2085 13.368C16.0151 13.5363 15.0823 14.5626 15.0823 15.8024C15.0823 17.1145 16.1105 18.1865 17.4052 18.2564C17.3066 16.6243 17.2401 15.0006 17.2085 13.368Z" fill="url(#paint67_linear_83_3435)"/>
<path d="M17.2085 13.368C16.0151 13.5363 15.0823 14.5626 15.0823 15.8024C15.0823 17.1145 16.1105 18.1865 17.4052 18.2564C17.3066 16.6243 17.2401 15.0006 17.2085 13.368Z" fill="url(#paint68_radial_83_3435)"/>
<g filter="url(#filter19_f_83_3435)">
<path d="M17.1454 14.3774C16.494 14.5234 16.0073 15.1052 16.0073 15.8006C16.0073 16.5406 16.5585 17.1519 17.2727 17.2464C17.2198 16.2895 17.1752 15.3345 17.1454 14.3774Z" fill="url(#paint69_radial_83_3435)"/>
</g>
<g filter="url(#filter20_f_83_3435)">
<path d="M32.5601 17.2722C32.6189 16.303 32.6759 15.3342 32.729 14.365C33.4488 14.4548 34.0058 15.0689 34.0058 15.813C34.0058 16.6144 33.3597 17.2649 32.5601 17.2722Z" fill="url(#paint70_linear_83_3435)"/>
</g>
<g filter="url(#filter21_f_83_3435)">
<path d="M19.7607 11.9171C20.1531 11.6356 21.131 11.1405 22.2875 11.335" stroke="#353535" stroke-width="0.15" stroke-linecap="round"/>
</g>
<g filter="url(#filter22_f_83_3435)">
<path d="M30.3523 11.8467C29.96 11.5652 28.9821 11.0701 27.8255 11.2646" stroke="#353535" stroke-width="0.15" stroke-linecap="round"/>
</g>
<g filter="url(#filter23_i_83_3435)">
<path d="M15.4648 7.84171L17.2812 4.88278L32.668 4.71872L34.3438 7.74796C27.3477 10.162 18.5996 8.94327 15.4648 7.84171Z" fill="url(#paint71_radial_83_3435)"/>
<path d="M15.4648 7.84171L17.2812 4.88278L32.668 4.71872L34.3438 7.74796C27.3477 10.162 18.5996 8.94327 15.4648 7.84171Z" fill="url(#paint72_radial_83_3435)"/>
</g>
<path d="M36.8493 5.40778H12.8943C12.2343 5.40778 11.6943 4.86778 11.6943 4.20778C11.6943 3.54778 12.2343 3.00778 12.8943 3.00778H36.8343C37.4943 3.00778 38.0343 3.54778 38.0343 4.20778C38.0493 4.86778 37.5093 5.40778 36.8493 5.40778Z" fill="url(#paint73_linear_83_3435)"/>
<path d="M36.8493 5.40778H12.8943C12.2343 5.40778 11.6943 4.86778 11.6943 4.20778C11.6943 3.54778 12.2343 3.00778 12.8943 3.00778H36.8343C37.4943 3.00778 38.0343 3.54778 38.0343 4.20778C38.0493 4.86778 37.5093 5.40778 36.8493 5.40778Z" fill="url(#paint74_radial_83_3435)"/>
<path d="M36.8493 5.40778H12.8943C12.2343 5.40778 11.6943 4.86778 11.6943 4.20778C11.6943 3.54778 12.2343 3.00778 12.8943 3.00778H36.8343C37.4943 3.00778 38.0343 3.54778 38.0343 4.20778C38.0493 4.86778 37.5093 5.40778 36.8493 5.40778Z" fill="url(#paint75_radial_83_3435)"/>
<defs>
<filter id="filter0_f_83_3435" x="21.2245" y="15.2778" width="7.37983" height="13.7462" filterUnits="userSpaceOnUse" color-interpolation-filters="sRGB">
<feFlood flood-opacity="0" result="BackgroundImageFix"/>
<feBlend mode="normal" in="SourceGraphic" in2="BackgroundImageFix" result="shape"/>
<feGaussianBlur stdDeviation="0.2" result="effect1_foregroundBlur_83_3435"/>
</filter>
<filter id="filter1_f_83_3435" x="37.2642" y="5.31311" width="0.649902" height="12.1513" filterUnits="userSpaceOnUse" color-interpolation-filters="sRGB">
<feFlood flood-opacity="0" result="BackgroundImageFix"/>
<feBlend mode="normal" in="SourceGraphic" in2="BackgroundImageFix" result="shape"/>
<feGaussianBlur stdDeviation="0.125" result="effect1_foregroundBlur_83_3435"/>
</filter>
<filter id="filter2_f_83_3435" x="18.287" y="34.9965" width="13.2961" height="9.95039" filterUnits="userSpaceOnUse" color-interpolation-filters="sRGB">
<feFlood flood-opacity="0" result="BackgroundImageFix"/>
<feBlend mode="normal" in="SourceGraphic" in2="BackgroundImageFix" result="shape"/>
<feGaussianBlur stdDeviation="0.075" result="effect1_foregroundBlur_83_3435"/>
</filter>
<filter id="filter3_f_83_3435" x="26.4287" y="5.20078" width="7.76294" height="4.30402" filterUnits="userSpaceOnUse" color-interpolation-filters="sRGB">
<feFlood flood-opacity="0" result="BackgroundImageFix"/>
<feBlend mode="normal" in="SourceGraphic" in2="BackgroundImageFix" result="shape"/>
<feGaussianBlur stdDeviation="0.5" result="effect1_foregroundBlur_83_3435"/>
</filter>
<filter id="filter4_f_83_3435" x="26.4287" y="5.10614" width="7.76294" height="4.30402" filterUnits="userSpaceOnUse" color-interpolation-filters="sRGB">
<feFlood flood-opacity="0" result="BackgroundImageFix"/>
<feBlend mode="normal" in="SourceGraphic" in2="BackgroundImageFix" result="shape"/>
<feGaussianBlur stdDeviation="0.5" result="effect1_foregroundBlur_83_3435"/>
</filter>
<filter id="filter5_f_83_3435" x="26.6475" y="5.13141" width="7.94019" height="4.37488" filterUnits="userSpaceOnUse" color-interpolation-filters="sRGB">
<feFlood flood-opacity="0" result="BackgroundImageFix"/>
<feBlend mode="normal" in="SourceGraphic" in2="BackgroundImageFix" result="shape"/>
<feGaussianBlur stdDeviation="0.5" result="effect1_foregroundBlur_83_3435"/>
</filter>
<filter id="filter6_ii_83_3435" x="17.1797" y="6.78265" width="16.6104" height="19.0505" filterUnits="userSpaceOnUse" color-interpolation-filters="sRGB">
<feFlood flood-opacity="0" result="BackgroundImageFix"/>
<feBlend mode="normal" in="SourceGraphic" in2="BackgroundImageFix" result="shape"/>
<feColorMatrix in="SourceAlpha" type="matrix" values="0 0 0 0 0 0 0 0 0 0 0 0 0 0 0 0 0 0 127 0" result="hardAlpha"/>
<feOffset dx="1"/>
<feGaussianBlur stdDeviation="0.7"/>
<feComposite in2="hardAlpha" operator="arithmetic" k2="-1" k3="1"/>
<feColorMatrix type="matrix" values="0 0 0 0 0.913725 0 0 0 0 0.686275 0 0 0 0 0.592157 0 0 0 1 0"/>
<feBlend mode="normal" in2="shape" result="effect1_innerShadow_83_3435"/>
<feColorMatrix in="SourceAlpha" type="matrix" values="0 0 0 0 0 0 0 0 0 0 0 0 0 0 0 0 0 0 127 0" result="hardAlpha"/>
<feOffset dy="0.2"/>
<feGaussianBlur stdDeviation="0.375"/>
<feComposite in2="hardAlpha" operator="arithmetic" k2="-1" k3="1"/>
<feColorMatrix type="matrix" values="0 0 0 0 0.780392 0 0 0 0 0.568627 0 0 0 0 0.486275 0 0 0 1 0"/>
<feBlend mode="normal" in2="effect1_innerShadow_83_3435" result="effect2_innerShadow_83_3435"/>
</filter>
<filter id="filter7_f_83_3435" x="22.3623" y="13.9411" width="4.66797" height="6.42949" filterUnits="userSpaceOnUse" color-interpolation-filters="sRGB">
<feFlood flood-opacity="0" result="BackgroundImageFix"/>
<feBlend mode="normal" in="SourceGraphic" in2="BackgroundImageFix" result="shape"/>
<feGaussianBlur stdDeviation="0.5" result="effect1_foregroundBlur_83_3435"/>
</filter>
<filter id="filter8_f_83_3435" x="23.2795" y="14.4498" width="3.26719" height="4.82949" filterUnits="userSpaceOnUse" color-interpolation-filters="sRGB">
<feFlood flood-opacity="0" result="BackgroundImageFix"/>
<feBlend mode="normal" in="SourceGraphic" in2="BackgroundImageFix" result="shape"/>
<feGaussianBlur stdDeviation="0.1" result="effect1_foregroundBlur_83_3435"/>
</filter>
<filter id="filter9_f_83_3435" x="22.2054" y="19.8532" width="5.41558" height="2.13858" filterUnits="userSpaceOnUse" color-interpolation-filters="sRGB">
<feFlood flood-opacity="0" result="BackgroundImageFix"/>
<feBlend mode="normal" in="SourceGraphic" in2="BackgroundImageFix" result="shape"/>
<feGaussianBlur stdDeviation="0.05" result="effect1_foregroundBlur_83_3435"/>
</filter>
<filter id="filter10_ii_83_3435" x="15.0823" y="2.77676" width="19.6616" height="11.9179" filterUnits="userSpaceOnUse" color-interpolation-filters="sRGB">
<feFlood flood-opacity="0" result="BackgroundImageFix"/>
<feBlend mode="normal" in="SourceGraphic" in2="BackgroundImageFix" result="shape"/>
<feColorMatrix in="SourceAlpha" type="matrix" values="0 0 0 0 0 0 0 0 0 0 0 0 0 0 0 0 0 0 127 0" result="hardAlpha"/>
<feOffset dy="-0.5"/>
<feGaussianBlur stdDeviation="0.625"/>
<feComposite in2="hardAlpha" operator="arithmetic" k2="-1" k3="1"/>
<feColorMatrix type="matrix" values="0 0 0 0 0.137255 0 0 0 0 0.0901961 0 0 0 0 0.145098 0 0 0 1 0"/>
<feBlend mode="normal" in2="shape" result="effect1_innerShadow_83_3435"/>
<feColorMatrix in="SourceAlpha" type="matrix" values="0 0 0 0 0 0 0 0 0 0 0 0 0 0 0 0 0 0 127 0" result="hardAlpha"/>
<feOffset dy="-0.2"/>
<feGaussianBlur stdDeviation="0.2"/>
<feComposite in2="hardAlpha" operator="arithmetic" k2="-1" k3="1"/>
<feColorMatrix type="matrix" values="0 0 0 0 0.0784314 0 0 0 0 0.0352941 0 0 0 0 0.0470588 0 0 0 1 0"/>
<feBlend mode="normal" in2="effect1_innerShadow_83_3435" result="effect2_innerShadow_83_3435"/>
</filter>
<filter id="filter11_i_83_3435" x="27.3406" y="10.6869" width="3.51968" height="1.71277" filterUnits="userSpaceOnUse" color-interpolation-filters="sRGB">
<feFlood flood-opacity="0" result="BackgroundImageFix"/>
<feBlend mode="normal" in="SourceGraphic" in2="BackgroundImageFix" result="shape"/>
<feColorMatrix in="SourceAlpha" type="matrix" values="0 0 0 0 0 0 0 0 0 0 0 0 0 0 0 0 0 0 127 0" result="hardAlpha"/>
<feOffset dx="0.1" dy="-0.2"/>
<feGaussianBlur stdDeviation="0.125"/>
<feComposite in2="hardAlpha" operator="arithmetic" k2="-1" k3="1"/>
<feColorMatrix type="matrix" values="0 0 0 0 0.0588235 0 0 0 0 0.054902 0 0 0 0 0.0588235 0 0 0 1 0"/>
<feBlend mode="normal" in2="shape" result="effect1_innerShadow_83_3435"/>
</filter>
<filter id="filter12_i_83_3435" x="19.3123" y="10.7095" width="3.51968" height="1.69025" filterUnits="userSpaceOnUse" color-interpolation-filters="sRGB">
<feFlood flood-opacity="0" result="BackgroundImageFix"/>
<feBlend mode="normal" in="SourceGraphic" in2="BackgroundImageFix" result="shape"/>
<feColorMatrix in="SourceAlpha" type="matrix" values="0 0 0 0 0 0 0 0 0 0 0 0 0 0 0 0 0 0 127 0" result="hardAlpha"/>
<feOffset dx="0.1" dy="-0.2"/>
<feGaussianBlur stdDeviation="0.125"/>
<feComposite in2="hardAlpha" operator="arithmetic" k2="-1" k3="1"/>
<feColorMatrix type="matrix" values="0 0 0 0 0.0588235 0 0 0 0 0.054902 0 0 0 0 0.0588235 0 0 0 1 0"/>
<feBlend mode="normal" in2="shape" result="effect1_innerShadow_83_3435"/>
</filter>
<filter id="filter13_if_83_3435" x="15.5073" y="3.47598" width="10.2932" height="9.38809" filterUnits="userSpaceOnUse" color-interpolation-filters="sRGB">
<feFlood flood-opacity="0" result="BackgroundImageFix"/>
<feBlend mode="normal" in="SourceGraphic" in2="BackgroundImageFix" result="shape"/>
<feColorMatrix in="SourceAlpha" type="matrix" values="0 0 0 0 0 0 0 0 0 0 0 0 0 0 0 0 0 0 127 0" result="hardAlpha"/>
<feOffset dx="0.4" dy="0.2"/>
<feGaussianBlur stdDeviation="0.2"/>
<feComposite in2="hardAlpha" operator="arithmetic" k2="-1" k3="1"/>
<feColorMatrix type="matrix" values="0 0 0 0 0.286275 0 0 0 0 0.243137 0 0 0 0 0.227451 0 0 0 1 0"/>
<feBlend mode="normal" in2="shape" result="effect1_innerShadow_83_3435"/>
<feGaussianBlur stdDeviation="0.25" result="effect2_foregroundBlur_83_3435"/>
</filter>
<filter id="filter14_f_83_3435" x="24.4382" y="3.99426" width="10.0669" height="9.12589" filterUnits="userSpaceOnUse" color-interpolation-filters="sRGB">
<feFlood flood-opacity="0" result="BackgroundImageFix"/>
<feBlend mode="normal" in="SourceGraphic" in2="BackgroundImageFix" result="shape"/>
<feGaussianBlur stdDeviation="0.25" result="effect1_foregroundBlur_83_3435"/>
</filter>
<filter id="filter15_f_83_3435" x="27.1773" y="14.1894" width="1.09648" height="0.958057" filterUnits="userSpaceOnUse" color-interpolation-filters="sRGB">
<feFlood flood-opacity="0" result="BackgroundImageFix"/>
<feBlend mode="normal" in="SourceGraphic" in2="BackgroundImageFix" result="shape"/>
<feGaussianBlur stdDeviation="0.05" result="effect1_foregroundBlur_83_3435"/>
</filter>
<filter id="filter16_f_83_3435" x="28.5131" y="14.3567" width="1.14854" height="1.18239" filterUnits="userSpaceOnUse" color-interpolation-filters="sRGB">
<feFlood flood-opacity="0" result="BackgroundImageFix"/>
<feBlend mode="normal" in="SourceGraphic" in2="BackgroundImageFix" result="shape"/>
<feGaussianBlur stdDeviation="0.1" result="effect1_foregroundBlur_83_3435"/>
</filter>
<filter id="filter17_f_83_3435" x="21.7272" y="14.2599" width="1.29551" height="1.37786" filterUnits="userSpaceOnUse" color-interpolation-filters="sRGB">
<feFlood flood-opacity="0" result="BackgroundImageFix"/>
<feBlend mode="normal" in="SourceGraphic" in2="BackgroundImageFix" result="shape"/>
<feGaussianBlur stdDeviation="0.1" result="effect1_foregroundBlur_83_3435"/>
</filter>
<filter id="filter18_f_83_3435" x="20.5213" y="14.177" width="1.28911" height="0.970569" filterUnits="userSpaceOnUse" color-interpolation-filters="sRGB">
<feFlood flood-opacity="0" result="BackgroundImageFix"/>
<feBlend mode="normal" in="SourceGraphic" in2="BackgroundImageFix" result="shape"/>
<feGaussianBlur stdDeviation="0.05" result="effect1_foregroundBlur_83_3435"/>
</filter>
<filter id="filter19_f_83_3435" x="15.7573" y="14.1274" width="1.76538" height="3.369" filterUnits="userSpaceOnUse" color-interpolation-filters="sRGB">
<feFlood flood-opacity="0" result="BackgroundImageFix"/>
<feBlend mode="normal" in="SourceGraphic" in2="BackgroundImageFix" result="shape"/>
<feGaussianBlur stdDeviation="0.125" result="effect1_foregroundBlur_83_3435"/>
</filter>
<filter id="filter20_f_83_3435" x="32.0601" y="13.865" width="2.4458" height="3.90715" filterUnits="userSpaceOnUse" color-interpolation-filters="sRGB">
<feFlood flood-opacity="0" result="BackgroundImageFix"/>
<feBlend mode="normal" in="SourceGraphic" in2="BackgroundImageFix" result="shape"/>
<feGaussianBlur stdDeviation="0.25" result="effect1_foregroundBlur_83_3435"/>
</filter>
<filter id="filter21_f_83_3435" x="19.4358" y="10.9658" width="3.17676" height="1.27625" filterUnits="userSpaceOnUse" color-interpolation-filters="sRGB">
<feFlood flood-opacity="0" result="BackgroundImageFix"/>
<feBlend mode="normal" in="SourceGraphic" in2="BackgroundImageFix" result="shape"/>
<feGaussianBlur stdDeviation="0.125" result="effect1_foregroundBlur_83_3435"/>
</filter>
<filter id="filter22_f_83_3435" x="27.5005" y="10.8954" width="3.17676" height="1.27625" filterUnits="userSpaceOnUse" color-interpolation-filters="sRGB">
<feFlood flood-opacity="0" result="BackgroundImageFix"/>
<feBlend mode="normal" in="SourceGraphic" in2="BackgroundImageFix" result="shape"/>
<feGaussianBlur stdDeviation="0.125" result="effect1_foregroundBlur_83_3435"/>
</filter>
<filter id="filter23_i_83_3435" x="15.4648" y="4.66872" width="18.8789" height="4.47651" filterUnits="userSpaceOnUse" color-interpolation-filters="sRGB">
<feFlood flood-opacity="0" result="BackgroundImageFix"/>
<feBlend mode="normal" in="SourceGraphic" in2="BackgroundImageFix" result="shape"/>
<feColorMatrix in="SourceAlpha" type="matrix" values="0 0 0 0 0 0 0 0 0 0 0 0 0 0 0 0 0 0 127 0" result="hardAlpha"/>
<feOffset dy="-0.05"/>
<feGaussianBlur stdDeviation="0.025"/>
<feComposite in2="hardAlpha" operator="arithmetic" k2="-1" k3="1"/>
<feColorMatrix type="matrix" values="0 0 0 0 0.360784 0 0 0 0 0.337255 0 0 0 0 0.372549 0 0 0 1 0"/>
<feBlend mode="normal" in2="shape" result="effect1_innerShadow_83_3435"/>
</filter>
<radialGradient id="paint0_radial_83_3435" cx="0" cy="0" r="1" gradientUnits="userSpaceOnUse" gradientTransform="translate(35.8877 34.6718) rotate(90) scale(16.3125 5.48438)">
<stop stop-color="#70647F"/>
<stop offset="1" stop-color="#70647F" stop-opacity="0"/>
</radialGradient>
<radialGradient id="paint1_radial_83_3435" cx="0" cy="0" r="1" gradientUnits="userSpaceOnUse" gradientTransform="translate(13.997 32.1875) scale(1.96875 10.5938)">
<stop stop-color="#5D516A"/>
<stop offset="1" stop-color="#5D516A" stop-opacity="0"/>
</radialGradient>
<radialGradient id="paint2_radial_83_3435" cx="0" cy="0" r="1" gradientUnits="userSpaceOnUse" gradientTransform="translate(24.9468 32.0234) rotate(-90) scale(7.07812 23.7877)">
<stop offset="0.201167" stop-color="#46404E"/>
<stop offset="1" stop-color="#3A3142"/>
</radialGradient>
<radialGradient id="paint3_radial_83_3435" cx="0" cy="0" r="1" gradientUnits="userSpaceOnUse" gradientTransform="translate(24.9351 25.3437) rotate(90) scale(8.90625 11.3131)">
<stop offset="0.931579" stop-color="#342542" stop-opacity="0"/>
<stop offset="0.994737" stop-color="#342542"/>
</radialGradient>
<radialGradient id="paint4_radial_83_3435" cx="0" cy="0" r="1" gradientUnits="userSpaceOnUse" gradientTransform="translate(24.3095 23.3281) rotate(145.631) scale(10.6906 14.7389)">
<stop offset="0.9281" stop-color="#6A656F" stop-opacity="0"/>
<stop offset="1" stop-color="#6A656F"/>
</radialGradient>
<radialGradient id="paint5_radial_83_3435" cx="0" cy="0" r="1" gradientUnits="userSpaceOnUse" gradientTransform="translate(23.9345 22.9765) rotate(34.2663) scale(12.2799 16.9299)">
<stop offset="0.938889" stop-color="#655F6B" stop-opacity="0"/>
<stop offset="0.970636" stop-color="#655F6B"/>
</radialGradient>
<radialGradient id="paint6_radial_83_3435" cx="0" cy="0" r="1" gradientUnits="userSpaceOnUse" gradientTransform="translate(24.9351 35.4218) rotate(-90) scale(15.0937 15.968)">
<stop offset="0.506211" stop-color="#57525D" stop-opacity="0"/>
<stop offset="1" stop-color="#57525D"/>
</radialGradient>
<radialGradient id="paint7_radial_83_3435" cx="0" cy="0" r="1" gradientUnits="userSpaceOnUse" gradientTransform="translate(24.9351 24.0951) rotate(90) scale(5.10937 7.88814)">
<stop offset="0.422018" stop-color="#170919"/>
<stop offset="1" stop-color="#361E27" stop-opacity="0"/>
</radialGradient>
<radialGradient id="paint8_radial_83_3435" cx="0" cy="0" r="1" gradientUnits="userSpaceOnUse" gradientTransform="translate(26.8906 27.3295) rotate(-154.408) scale(4.93753 4.1572)">
<stop stop-color="#CD9E8E"/>
<stop offset="1" stop-color="#A56D67"/>
<stop offset="1" stop-color="#B78273"/>
</radialGradient>
<radialGradient id="paint9_radial_83_3435" cx="0" cy="0" r="1" gradientUnits="userSpaceOnUse" gradientTransform="translate(24.9145 25.478) rotate(90) scale(1.40625 3.09)">
<stop stop-color="#B0797E"/>
<stop offset="1" stop-color="#B0797E" stop-opacity="0"/>
</radialGradient>
<radialGradient id="paint10_radial_83_3435" cx="0" cy="0" r="1" gradientUnits="userSpaceOnUse" gradientTransform="translate(24.9145 21.8157) rotate(90) scale(6.81105 6.39273)">
<stop offset="0.809859" stop-color="#B5836A" stop-opacity="0"/>
<stop offset="1" stop-color="#B5836A"/>
</radialGradient>
<linearGradient id="paint11_linear_83_3435" x1="36.4703" y1="13.4128" x2="38.2494" y2="13.4128" gradientUnits="userSpaceOnUse">
<stop stop-color="#33203C"/>
<stop offset="1" stop-color="#61546D"/>
</linearGradient>
<radialGradient id="paint12_radial_83_3435" cx="0" cy="0" r="1" gradientUnits="userSpaceOnUse" gradientTransform="translate(37.7977 17.5021) rotate(-90) scale(3.5021 0.270471)">
<stop stop-color="#70635D"/>
<stop offset="1" stop-color="#70635D" stop-opacity="0"/>
</radialGradient>
<radialGradient id="paint13_radial_83_3435" cx="0" cy="0" r="1" gradientUnits="userSpaceOnUse" gradientTransform="translate(38.185 18.0592) rotate(126.437) scale(2.0522 1.83925)">
<stop stop-color="#686071"/>
<stop offset="0.661286" stop-color="#402A4C"/>
</radialGradient>
<radialGradient id="paint14_radial_83_3435" cx="0" cy="0" r="1" gradientUnits="userSpaceOnUse" gradientTransform="translate(36.1782 18.6465) rotate(-6.43681) scale(1.20211 1.40996)">
<stop offset="0.0866887" stop-color="#685352"/>
<stop offset="1" stop-color="#685352" stop-opacity="0"/>
</radialGradient>
<linearGradient id="paint15_linear_83_3435" x1="38.0891" y1="5.56311" x2="38.0891" y2="17.2144" gradientUnits="userSpaceOnUse">
<stop stop-color="#60546C"/>
<stop offset="1" stop-color="#504B55"/>
</linearGradient>
<linearGradient id="paint16_linear_83_3435" x1="39.1616" y1="22.2096" x2="35.6829" y2="22.2096" gradientUnits="userSpaceOnUse">
<stop stop-color="#F9B72A"/>
<stop offset="0.89726" stop-color="#FAAC28"/>
</linearGradient>
<linearGradient id="paint17_linear_83_3435" x1="35.6094" y1="21.9042" x2="37.2031" y2="22.0917" gradientUnits="userSpaceOnUse">
<stop stop-color="#BD9130"/>
<stop offset="1" stop-color="#FBB229" stop-opacity="0"/>
</linearGradient>
<radialGradient id="paint18_radial_83_3435" cx="0" cy="0" r="1" gradientUnits="userSpaceOnUse" gradientTransform="translate(39.3284 22.0275) rotate(169.33) scale(1.67298 8.34601)">
<stop offset="0.285799" stop-color="#FFD93A"/>
<stop offset="1" stop-color="#FFD93A" stop-opacity="0"/>
</radialGradient>
<radialGradient id="paint19_radial_83_3435" cx="0" cy="0" r="1" gradientUnits="userSpaceOnUse" gradientTransform="translate(37.4347 25.3437) rotate(-90) scale(1.96875 4.33565)">
<stop offset="0.421677" stop-color="#9B6733"/>
<stop offset="1" stop-color="#DB9820" stop-opacity="0"/>
</radialGradient>
<radialGradient id="paint20_radial_83_3435" cx="0" cy="0" r="1" gradientUnits="userSpaceOnUse" gradientTransform="translate(37.4347 19.6601) rotate(90) scale(0.597656 2.07265)">
<stop offset="0.16129" stop-color="#845D03"/>
<stop offset="1" stop-color="#EBA429" stop-opacity="0"/>
</radialGradient>
<radialGradient id="paint21_radial_83_3435" cx="0" cy="0" r="1" gradientUnits="userSpaceOnUse" gradientTransform="translate(8.44263 44.9928) rotate(-90) scale(24.5601 6.54696)">
<stop stop-color="#766C83"/>
<stop offset="0.441285" stop-color="#58496A"/>
<stop offset="1" stop-color="#4D4159"/>
</radialGradient>
<radialGradient id="paint22_radial_83_3435" cx="0" cy="0" r="1" gradientUnits="userSpaceOnUse" gradientTransform="translate(14.0908 44.9928) rotate(-90) scale(15.7802 1.23619)">
<stop offset="0.285977" stop-color="#4F445B"/>
<stop offset="1" stop-color="#4F445B" stop-opacity="0"/>
</radialGradient>
<linearGradient id="paint23_linear_83_3435" x1="14.307" y1="42.096" x2="13.669" y2="42.096" gradientUnits="userSpaceOnUse">
<stop offset="0.444444" stop-color="#433850"/>
<stop offset="1" stop-color="#433850" stop-opacity="0"/>
</linearGradient>
<radialGradient id="paint24_radial_83_3435" cx="0" cy="0" r="1" gradientUnits="userSpaceOnUse" gradientTransform="translate(38.6034 44.9928) rotate(-100.465) scale(15.5483 4.36694)">
<stop stop-color="#736782"/>
<stop offset="1" stop-color="#5F5070"/>
</radialGradient>
<radialGradient id="paint25_radial_83_3435" cx="0" cy="0" r="1" gradientUnits="userSpaceOnUse" gradientTransform="translate(35.5267 34.7351) rotate(87.4134) scale(18.0686 1.05522)">
<stop offset="0.176695" stop-color="#3F2A51"/>
<stop offset="1" stop-color="#3F2A51" stop-opacity="0"/>
</radialGradient>
<linearGradient id="paint26_linear_83_3435" x1="24.9351" y1="44.7969" x2="24.9351" y2="35.1465" gradientUnits="userSpaceOnUse">
<stop stop-color="#3F3748"/>
<stop offset="1" stop-color="#3F3748" stop-opacity="0"/>
</linearGradient>
<linearGradient id="paint27_linear_83_3435" x1="24.9351" y1="44.7969" x2="24.9351" y2="35.1465" gradientUnits="userSpaceOnUse">
<stop stop-color="#3F3748"/>
<stop offset="1" stop-color="#3F3748" stop-opacity="0"/>
</linearGradient>
<linearGradient id="paint28_linear_83_3435" x1="24.9351" y1="44.7969" x2="24.9351" y2="35.1465" gradientUnits="userSpaceOnUse">
<stop stop-color="#3F3748"/>
<stop offset="1" stop-color="#3F3748" stop-opacity="0"/>
</linearGradient>
<radialGradient id="paint29_radial_83_3435" cx="0" cy="0" r="1" gradientUnits="userSpaceOnUse" gradientTransform="translate(32.1734 17.6456) rotate(69.6569) scale(3.2898 3.90802)">
<stop offset="0.214643" stop-color="#313131"/>
<stop offset="1" stop-color="#1A161E"/>
</radialGradient>
<radialGradient id="paint30_radial_83_3435" cx="0" cy="0" r="1" gradientUnits="userSpaceOnUse" gradientTransform="translate(15.6626 18.3946) rotate(17.4472) scale(2.36388 7.29272)">
<stop stop-color="#564943"/>
<stop offset="0.745836" stop-color="#1E191C"/>
</radialGradient>
<radialGradient id="paint31_radial_83_3435" cx="0" cy="0" r="1" gradientUnits="userSpaceOnUse" gradientTransform="translate(29.2016 16.2079) rotate(180) scale(7.98493 14.1253)">
<stop stop-color="#FFDCC0"/>
<stop offset="1" stop-color="#D6A195"/>
</radialGradient>
<linearGradient id="paint32_linear_83_3435" x1="32.7901" y1="18.7822" x2="26.142" y2="18.7822" gradientUnits="userSpaceOnUse">
<stop stop-color="#FFD6BA"/>
<stop offset="1" stop-color="#FFD6BA" stop-opacity="0"/>
</linearGradient>
<radialGradient id="paint33_radial_83_3435" cx="0" cy="0" r="1" gradientUnits="userSpaceOnUse" gradientTransform="translate(25.8041 7.22506) rotate(90) scale(19.4523 16.1088)">
<stop offset="0.763523" stop-color="#BE8689" stop-opacity="0"/>
<stop offset="0.981286" stop-color="#A56F76"/>
</radialGradient>
<radialGradient id="paint34_radial_83_3435" cx="0" cy="0" r="1" gradientUnits="userSpaceOnUse" gradientTransform="translate(28.6509 14.2026) rotate(-90) scale(1.75397 2.17054)">
<stop offset="0.325" stop-color="#F6B8A8"/>
<stop offset="1" stop-color="#F6B8A8" stop-opacity="0"/>
</radialGradient>
<radialGradient id="paint35_radial_83_3435" cx="0" cy="0" r="1" gradientUnits="userSpaceOnUse" gradientTransform="translate(21.3998 14.2736) rotate(-89.7942) scale(1.67139 1.81887)">
<stop offset="0.377617" stop-color="#D39991"/>
<stop offset="1" stop-color="#D39991" stop-opacity="0"/>
</radialGradient>
<radialGradient id="paint36_radial_83_3435" cx="0" cy="0" r="1" gradientUnits="userSpaceOnUse" gradientTransform="translate(30.1563 17.717) rotate(176.388) scale(13.0024 33.2147)">
<stop offset="0.835902" stop-color="#E6AD97" stop-opacity="0"/>
<stop offset="1" stop-color="#E6AD97"/>
</radialGradient>
<radialGradient id="paint37_radial_83_3435" cx="0" cy="0" r="1" gradientUnits="userSpaceOnUse" gradientTransform="translate(16.5622 9.60151) rotate(-46.6112) scale(6.88914 2.52191)">
<stop offset="0.427646" stop-color="#9F6D5C"/>
<stop offset="1" stop-color="#9F6D5C" stop-opacity="0"/>
</radialGradient>
<radialGradient id="paint38_radial_83_3435" cx="0" cy="0" r="1" gradientUnits="userSpaceOnUse" gradientTransform="translate(28.6202 8.60307) rotate(121.159) scale(5.14573 4.24821)">
<stop offset="0.0780198" stop-color="#F6C3B0"/>
<stop offset="1" stop-color="#F6C3B0" stop-opacity="0"/>
</radialGradient>
<radialGradient id="paint39_radial_83_3435" cx="0" cy="0" r="1" gradientUnits="userSpaceOnUse" gradientTransform="translate(23.9735 6.78265) rotate(90) scale(3.53606 9.04042)">
<stop offset="0.501921" stop-color="#BF8679"/>
<stop offset="1" stop-color="#BF8679" stop-opacity="0"/>
</radialGradient>
<linearGradient id="paint40_linear_83_3435" x1="26.1935" y1="17.2386" x2="24.9131" y2="17.2918" gradientUnits="userSpaceOnUse">
<stop offset="0.360477" stop-color="#FFDFC7"/>
<stop offset="1" stop-color="#FFDFC7" stop-opacity="0"/>
</linearGradient>
<radialGradient id="paint41_radial_83_3435" cx="0" cy="0" r="1" gradientUnits="userSpaceOnUse" gradientTransform="translate(25.6253 18.2861) rotate(90) scale(0.372839 1.17178)">
<stop stop-color="#FFDDC7"/>
<stop offset="1" stop-color="#FFDDC7" stop-opacity="0"/>
</radialGradient>
<linearGradient id="paint42_linear_83_3435" x1="24.9131" y1="18.9785" x2="24.9131" y2="18.2683" gradientUnits="userSpaceOnUse">
<stop stop-color="#D89793"/>
<stop offset="1" stop-color="#D89793" stop-opacity="0"/>
</linearGradient>
<radialGradient id="paint43_radial_83_3435" cx="0" cy="0" r="1" gradientUnits="userSpaceOnUse" gradientTransform="translate(25.8029 17.4161) rotate(155.369) scale(2.55594 4.10759)">
<stop offset="0.714105" stop-color="#D3968C" stop-opacity="0"/>
<stop offset="1" stop-color="#D3968C"/>
</radialGradient>
<linearGradient id="paint44_linear_83_3435" x1="24.9131" y1="14.6498" x2="24.9131" y2="15.6817" gradientUnits="userSpaceOnUse">
<stop stop-color="#E8BBA8"/>
<stop offset="1" stop-color="#E8BBA8" stop-opacity="0"/>
</linearGradient>
<linearGradient id="paint45_linear_83_3435" x1="23.0777" y1="21.3779" x2="23.5642" y2="20.1033" gradientUnits="userSpaceOnUse">
<stop stop-color="#E1ACA6"/>
<stop offset="1" stop-color="#E1ACA6" stop-opacity="0"/>
</linearGradient>
<radialGradient id="paint46_radial_83_3435" cx="0" cy="0" r="1" gradientUnits="userSpaceOnUse" gradientTransform="translate(24.9133 21.6137) rotate(-90) scale(1.10084 4.42896)">
<stop stop-color="#88014E"/>
<stop offset="1" stop-color="#86004D"/>
</radialGradient>
<linearGradient id="paint47_linear_83_3435" x1="35.3787" y1="7.55888" x2="17.6424" y2="7.55888" gradientUnits="userSpaceOnUse">
<stop stop-color="#443D40"/>
<stop offset="1" stop-color="#272127"/>
</linearGradient>
<radialGradient id="paint48_radial_83_3435" cx="0" cy="0" r="1" gradientUnits="userSpaceOnUse" gradientTransform="translate(16.9255 11.7903) rotate(-90) scale(5.34786 13.5241)">
<stop offset="0.535851" stop-color="#3E3433"/>
<stop offset="1" stop-color="#3E3433" stop-opacity="0"/>
</radialGradient>
<radialGradient id="paint49_radial_83_3435" cx="0" cy="0" r="1" gradientUnits="userSpaceOnUse" gradientTransform="translate(32.3373 13.7916) rotate(-87.4012) scale(3.84157 6.8065)">
<stop stop-color="#4F4D4D"/>
<stop offset="1" stop-color="#4F4D4D" stop-opacity="0"/>
</radialGradient>
<radialGradient id="paint50_radial_83_3435" cx="0" cy="0" r="1" gradientUnits="userSpaceOnUse" gradientTransform="translate(31.1853 4.20515) rotate(-146.667) scale(4.31224 3.1654)">
<stop stop-color="#5E5A5B"/>
<stop offset="1" stop-color="#5E5A5B" stop-opacity="0"/>
</radialGradient>
<radialGradient id="paint51_radial_83_3435" cx="0" cy="0" r="1" gradientUnits="userSpaceOnUse" gradientTransform="translate(23.5306 1.77306) rotate(58.4652) scale(2.64323 6.12047)">
<stop offset="0.286771" stop-color="#484646"/>
<stop offset="1" stop-color="#484646" stop-opacity="0"/>
</radialGradient>
<radialGradient id="paint52_radial_83_3435" cx="0" cy="0" r="1" gradientUnits="userSpaceOnUse" gradientTransform="translate(25.3005 5.22374) rotate(180) scale(3.36196 1.24776)">
<stop stop-color="#423C3F"/>
<stop offset="1" stop-color="#423C3F" stop-opacity="0"/>
</radialGradient>
<radialGradient id="paint53_radial_83_3435" cx="0" cy="0" r="1" gradientUnits="userSpaceOnUse" gradientTransform="translate(16.6186 11.2454) rotate(-57.7244) scale(9.20495 10.1981)">
<stop offset="0.0926981" stop-color="#0B0306"/>
<stop offset="0.311222" stop-color="#1C0C20"/>
<stop offset="1" stop-color="#1C0C20" stop-opacity="0"/>
</radialGradient>
<radialGradient id="paint54_radial_83_3435" cx="0" cy="0" r="1" gradientUnits="userSpaceOnUse" gradientTransform="translate(30.1279 6.41018) scale(4.67133 1.82641)">
<stop stop-color="#4E494B"/>
<stop offset="1" stop-color="#4E494B" stop-opacity="0"/>
</radialGradient>
<radialGradient id="paint55_radial_83_3435" cx="0" cy="0" r="1" gradientUnits="userSpaceOnUse" gradientTransform="translate(28.9359 11.0493) rotate(-43.6141) scale(5.65114 10.3458)">
<stop offset="0.856906" stop-color="#545051" stop-opacity="0"/>
<stop offset="1" stop-color="#545051"/>
</radialGradient>
<radialGradient id="paint56_radial_83_3435" cx="0" cy="0" r="1" gradientUnits="userSpaceOnUse" gradientTransform="translate(27.5828 8.79417) rotate(6.66666) scale(4.99504 2.09133)">
<stop stop-color="#200E25"/>
<stop offset="1" stop-color="#200E25" stop-opacity="0"/>
</radialGradient>
<radialGradient id="paint57_radial_83_3435" cx="0" cy="0" r="1" gradientUnits="userSpaceOnUse" gradientTransform="translate(28.2454 14.8081) rotate(90) scale(1.23855 1.97006)">
<stop offset="0.80198" stop-color="#7D574A"/>
<stop offset="1" stop-color="#694B43"/>
<stop offset="1" stop-color="#804D49"/>
<stop offset="1" stop-color="#664842"/>
</radialGradient>
<radialGradient id="paint58_radial_83_3435" cx="0" cy="0" r="1" gradientUnits="userSpaceOnUse" gradientTransform="translate(27.8975 14.937) rotate(-127.812) scale(0.57779 0.795478)">
<stop offset="0.765532" stop-color="#FFE6E2" stop-opacity="0"/>
<stop offset="0.966159" stop-color="#FFE6E2"/>
</radialGradient>
<linearGradient id="paint59_linear_83_3435" x1="29.4327" y1="14.89" x2="28.9546" y2="15.1846" gradientUnits="userSpaceOnUse">
<stop stop-color="#B4948D"/>
<stop offset="1" stop-color="#B4948D" stop-opacity="0"/>
</linearGradient>
<radialGradient id="paint60_radial_83_3435" cx="0" cy="0" r="1" gradientUnits="userSpaceOnUse" gradientTransform="translate(21.5799 14.808) rotate(90) scale(1.23862 1.97016)">
<stop offset="0.80198" stop-color="#7D574A"/>
<stop offset="1" stop-color="#694B43"/>
<stop offset="1" stop-color="#804D49"/>
<stop offset="1" stop-color="#664842"/>
</radialGradient>
<linearGradient id="paint61_linear_83_3435" x1="22.7167" y1="14.8907" x2="22.2374" y2="15.186" gradientUnits="userSpaceOnUse">
<stop stop-color="#B4948D"/>
<stop offset="1" stop-color="#B4948D" stop-opacity="0"/>
</linearGradient>
<radialGradient id="paint62_radial_83_3435" cx="0" cy="0" r="1" gradientUnits="userSpaceOnUse" gradientTransform="translate(21.1428 15.1433) rotate(-90.897) scale(0.754747 0.907237)">
<stop offset="0.765532" stop-color="#FFE6E2" stop-opacity="0"/>
<stop offset="0.966159" stop-color="#FFE6E2"/>
</radialGradient>
<linearGradient id="paint63_linear_83_3435" x1="34.7452" y1="14.9323" x2="32.902" y2="18.2563" gradientUnits="userSpaceOnUse">
<stop stop-color="#FFD6BD"/>
<stop offset="1" stop-color="#F0B8A6"/>
</linearGradient>
<radialGradient id="paint64_radial_83_3435" cx="0" cy="0" r="1" gradientUnits="userSpaceOnUse" gradientTransform="translate(31.9675 14.8299) rotate(74.3475) scale(3.5583 3.39489)">
<stop offset="0.856273" stop-color="#CE978E" stop-opacity="0"/>
<stop offset="1" stop-color="#CE978E"/>
</radialGradient>
<radialGradient id="paint65_radial_83_3435" cx="0" cy="0" r="1" gradientUnits="userSpaceOnUse" gradientTransform="translate(32.518 15.662) rotate(-53.9199) scale(2.04315 1.71256)">
<stop offset="0.663731" stop-color="#F7B99C"/>
<stop offset="1" stop-color="#F7B99C" stop-opacity="0"/>
</radialGradient>
<radialGradient id="paint66_radial_83_3435" cx="0" cy="0" r="1" gradientUnits="userSpaceOnUse" gradientTransform="translate(32.6921 15.9253) rotate(-69.2631) scale(2.53213 3.38327)">
<stop offset="0.803247" stop-color="#EBBB9D" stop-opacity="0"/>
<stop offset="1" stop-color="#EBBB9D"/>
</radialGradient>
<linearGradient id="paint67_linear_83_3435" x1="15.9783" y1="16.0072" x2="18.2056" y2="15.8127" gradientUnits="userSpaceOnUse">
<stop stop-color="#D19787"/>
<stop offset="1" stop-color="#C9887D"/>
</linearGradient>
<radialGradient id="paint68_radial_83_3435" cx="0" cy="0" r="1" gradientUnits="userSpaceOnUse" gradientTransform="translate(17.4052 15.8127) rotate(-173.034) scale(2.48224 2.66458)">
<stop offset="0.77507" stop-color="#E8AF99" stop-opacity="0"/>
<stop offset="1" stop-color="#E8AF99"/>
</radialGradient>
<radialGradient id="paint69_radial_83_3435" cx="0" cy="0" r="1" gradientUnits="userSpaceOnUse" gradientTransform="translate(17.4064 15.8119) rotate(170.26) scale(1.41955 1.74186)">
<stop stop-color="#C18472"/>
<stop offset="1" stop-color="#CA8B7A"/>
</radialGradient>
<linearGradient id="paint70_linear_83_3435" x1="33.2829" y1="14.365" x2="33.2829" y2="17.2722" gradientUnits="userSpaceOnUse">
<stop stop-color="#F9BB9E"/>
<stop offset="1" stop-color="#F6BBA0"/>
</linearGradient>
<radialGradient id="paint71_radial_83_3435" cx="0" cy="0" r="1" gradientUnits="userSpaceOnUse" gradientTransform="translate(28.8515 8.86903) rotate(-100.732) scale(5.51235 12.6769)">
<stop stop-color="#534D5A"/>
<stop offset="1" stop-color="#372E41"/>
</radialGradient>
<radialGradient id="paint72_radial_83_3435" cx="0" cy="0" r="1" gradientUnits="userSpaceOnUse" gradientTransform="translate(24.8573 4.29896) rotate(90) scale(2.99726 10.9743)">
<stop offset="0.263158" stop-color="#160C20"/>
<stop offset="1" stop-color="#160C20" stop-opacity="0"/>
</radialGradient>
<linearGradient id="paint73_linear_83_3435" x1="27.5906" y1="5.93747" x2="25.6688" y2="-0.625031" gradientUnits="userSpaceOnUse">
<stop stop-color="#3D294B"/>
<stop offset="1" stop-color="#433A4D"/>
</linearGradient>
<radialGradient id="paint74_radial_83_3435" cx="0" cy="0" r="1" gradientUnits="userSpaceOnUse" gradientTransform="translate(33.5438 3.59372) rotate(90) scale(1.40625 19.0313)">
<stop stop-color="#6A6273"/>
<stop offset="0.866667" stop-color="#696070" stop-opacity="0"/>
</radialGradient>
<radialGradient id="paint75_radial_83_3435" cx="0" cy="0" r="1" gradientUnits="userSpaceOnUse" gradientTransform="translate(11.0906 4.53122) scale(11.625 1.3125)">
<stop stop-color="#75707B"/>
<stop offset="0.935484" stop-color="#75707B" stop-opacity="0"/>
</radialGradient>
</defs>
</svg>
