<svg width="49" height="48" viewBox="0 0 49 48" fill="none" xmlns="http://www.w3.org/2000/svg">
<g filter="url(#filter0_i_83_3443)">
<path d="M44.5612 37.5023H4.43623C3.92623 37.5023 3.50623 37.0823 3.50623 36.5723V6.94735C3.50623 6.43735 3.92623 6.01735 4.43623 6.01735H44.5462C45.0712 6.01735 45.4762 6.43735 45.4762 6.94735V36.5574C45.4912 37.0823 45.0712 37.5023 44.5612 37.5023Z" fill="url(#paint0_linear_83_3443)"/>
</g>
<path d="M5.00623 36.0023V7.51735H43.9912V36.0023H5.00623Z" fill="url(#paint1_linear_83_3443)"/>
<path d="M5.00623 36.0023V7.51735H43.9912V36.0023H5.00623Z" fill="url(#paint2_radial_83_3443)"/>
<path d="M5.00623 36.0023V7.51735H43.9912V36.0023H5.00623Z" fill="url(#paint3_radial_83_3443)"/>
<g filter="url(#filter1_f_83_3443)">
<path d="M5.32812 6.60734H44.6969C44.7521 6.60734 44.7969 6.65211 44.7969 6.70734V36.1345" stroke="url(#paint4_linear_83_3443)" stroke-width="0.3" stroke-linecap="round"/>
</g>
<g filter="url(#filter2_i_83_3443)">
<path d="M43.9912 36.0024H5.00623V7.51736L3.62623 6.49736C3.55123 6.63236 3.50623 6.79736 3.50623 6.94736V36.5574C3.50623 37.0824 3.92623 37.4874 4.43623 37.4874H44.5462C44.9062 37.4874 45.2062 37.2924 45.3712 36.9924L43.9912 36.0024Z" fill="url(#paint5_linear_83_3443)"/>
<path d="M43.9912 36.0024H5.00623V7.51736L3.62623 6.49736C3.55123 6.63236 3.50623 6.79736 3.50623 6.94736V36.5574C3.50623 37.0824 3.92623 37.4874 4.43623 37.4874H44.5462C44.9062 37.4874 45.2062 37.2924 45.3712 36.9924L43.9912 36.0024Z" fill="url(#paint6_linear_83_3443)"/>
<path d="M43.9912 36.0024H5.00623V7.51736L3.62623 6.49736C3.55123 6.63236 3.50623 6.79736 3.50623 6.94736V36.5574C3.50623 37.0824 3.92623 37.4874 4.43623 37.4874H44.5462C44.9062 37.4874 45.2062 37.2924 45.3712 36.9924L43.9912 36.0024Z" fill="url(#paint7_radial_83_3443)"/>
</g>
<path d="M24.5062 23.2673C15.4012 23.2673 8.00623 30.6473 8.00623 39.7673V45.0173C11.72 45.0173 37.9999 45.0173 40.9912 45.0173V39.7673C40.9912 30.6473 33.6112 23.2673 24.5062 23.2673Z" fill="url(#paint8_radial_83_3443)"/>
<path d="M24.5062 23.2673C15.4012 23.2673 8.00623 30.6473 8.00623 39.7673V45.0173C11.72 45.0173 37.9999 45.0173 40.9912 45.0173V39.7673C40.9912 30.6473 33.6112 23.2673 24.5062 23.2673Z" fill="url(#paint9_radial_83_3443)"/>
<path d="M24.5062 23.2673C15.4012 23.2673 8.00623 30.6473 8.00623 39.7673V45.0173C11.72 45.0173 37.9999 45.0173 40.9912 45.0173V39.7673C40.9912 30.6473 33.6112 23.2673 24.5062 23.2673Z" fill="url(#paint10_radial_83_3443)"/>
<path d="M34.5112 45.0173V26.6502C38.4505 29.664 40.9912 34.4161 40.9912 39.7673V45.0173H34.5112Z" fill="url(#paint11_radial_83_3443)"/>
<path d="M34.5112 45.0173V26.6502C38.4505 29.664 40.9912 34.4161 40.9912 39.7673V45.0173H34.5112Z" fill="url(#paint12_linear_83_3443)"/>
<path d="M34.5112 45.0173V26.6502C38.4505 29.664 40.9912 34.4161 40.9912 39.7673V45.0173H34.5112Z" fill="url(#paint13_linear_83_3443)"/>
<path d="M14.4413 45.0173V26.6502C10.502 29.664 7.96127 34.4161 7.96127 39.7673V45.0173H14.4413Z" fill="url(#paint14_linear_83_3443)"/>
<path d="M14.4413 45.0173V26.6502C10.502 29.664 7.96127 34.4161 7.96127 39.7673V45.0173H14.4413Z" fill="url(#paint15_radial_83_3443)"/>
<path d="M27.5811 25.2474H21.4161V45.0174H27.5811V25.2474Z" fill="url(#paint16_radial_83_3443)"/>
<g filter="url(#filter3_i_83_3443)">
<path d="M29.5163 24.1073L31.5563 28.5C31.6913 28.785 31.4813 29.115 31.1663 29.115L29.7208 28.7168C29.088 28.5586 29.0663 29.1319 29.3063 29.3719L31.3463 31.7123C31.7363 32.1023 31.8863 32.6873 31.6913 33.2123L27.5813 45.0173V24.1073H29.5163Z" fill="url(#paint17_linear_83_3443)"/>
<path d="M29.5163 24.1073L31.5563 28.5C31.6913 28.785 31.4813 29.115 31.1663 29.115L29.7208 28.7168C29.088 28.5586 29.0663 29.1319 29.3063 29.3719L31.3463 31.7123C31.7363 32.1023 31.8863 32.6873 31.6913 33.2123L27.5813 45.0173V24.1073H29.5163Z" fill="url(#paint18_radial_83_3443)"/>
<path d="M29.5163 24.1073L31.5563 28.5C31.6913 28.785 31.4813 29.115 31.1663 29.115L29.7208 28.7168C29.088 28.5586 29.0663 29.1319 29.3063 29.3719L31.3463 31.7123C31.7363 32.1023 31.8863 32.6873 31.6913 33.2123L27.5813 45.0173V24.1073H29.5163Z" fill="url(#paint19_radial_83_3443)"/>
<path d="M29.5163 24.1073L31.5563 28.5C31.6913 28.785 31.4813 29.115 31.1663 29.115L29.7208 28.7168C29.088 28.5586 29.0663 29.1319 29.3063 29.3719L31.3463 31.7123C31.7363 32.1023 31.8863 32.6873 31.6913 33.2123L27.5813 45.0173V24.1073H29.5163Z" fill="url(#paint20_radial_83_3443)"/>
</g>
<g filter="url(#filter4_i_83_3443)">
<path d="M19.4811 24.1073L17.4411 28.5C17.3061 28.785 17.5161 29.115 17.8311 29.115L19.2766 28.7168C19.9095 28.5586 19.9311 29.1319 19.6911 29.3719L17.6511 31.7123C17.2611 32.1023 17.1111 32.6873 17.3061 33.2123L21.4161 45.0173V24.1073H19.4811Z" fill="url(#paint21_linear_83_3443)"/>
<path d="M19.4811 24.1073L17.4411 28.5C17.3061 28.785 17.5161 29.115 17.8311 29.115L19.2766 28.7168C19.9095 28.5586 19.9311 29.1319 19.6911 29.3719L17.6511 31.7123C17.2611 32.1023 17.1111 32.6873 17.3061 33.2123L21.4161 45.0173V24.1073H19.4811Z" fill="url(#paint22_radial_83_3443)"/>
<path d="M19.4811 24.1073L17.4411 28.5C17.3061 28.785 17.5161 29.115 17.8311 29.115L19.2766 28.7168C19.9095 28.5586 19.9311 29.1319 19.6911 29.3719L17.6511 31.7123C17.2611 32.1023 17.1111 32.6873 17.3061 33.2123L21.4161 45.0173V24.1073H19.4811Z" fill="url(#paint23_linear_83_3443)"/>
<path d="M19.4811 24.1073L17.4411 28.5C17.3061 28.785 17.5161 29.115 17.8311 29.115L19.2766 28.7168C19.9095 28.5586 19.9311 29.1319 19.6911 29.3719L17.6511 31.7123C17.2611 32.1023 17.1111 32.6873 17.3061 33.2123L21.4161 45.0173V24.1073H19.4811Z" fill="url(#paint24_radial_83_3443)"/>
</g>
<path d="M24.5061 28.0223C22.7961 28.0223 21.4161 26.6423 21.4161 24.9323V21.0923C21.4161 19.3823 22.7961 18.0023 24.5061 18.0023C26.2161 18.0023 27.5961 19.3823 27.5961 21.0923V24.9323C27.5811 26.6423 26.2011 28.0223 24.5061 28.0223Z" fill="url(#paint25_radial_83_3443)"/>
<g filter="url(#filter5_i_83_3443)">
<path d="M33.5713 34.6791C34.3963 34.6791 35.0713 35.3541 35.0713 36.1791V39.6141H32.0713V36.1791C32.0713 35.3541 32.7313 34.6791 33.5713 34.6791Z" fill="url(#paint26_radial_83_3443)"/>
<path d="M33.5713 34.6791C34.3963 34.6791 35.0713 35.3541 35.0713 36.1791V39.6141H32.0713V36.1791C32.0713 35.3541 32.7313 34.6791 33.5713 34.6791Z" fill="url(#paint27_radial_83_3443)"/>
</g>
<g filter="url(#filter6_i_83_3443)">
<path d="M15.426 34.6673C14.601 34.6673 13.926 35.3423 13.926 36.1673V39.6023H16.926V36.1673C16.926 35.3423 16.266 34.6673 15.426 34.6673Z" fill="url(#paint28_radial_83_3443)"/>
</g>
<path d="M15.9712 32.8373V45.0173H32.9812V31.2323C32.9812 30.5573 32.4412 30.0173 31.7662 30.0173H18.8062C17.2312 30.0023 15.9712 31.2773 15.9712 32.8373Z" fill="url(#paint29_linear_83_3443)"/>
<path fill-rule="evenodd" clip-rule="evenodd" d="M19.1121 45.0173V32.408H15.9712V45.0173H19.1121Z" fill="#513358"/>
<path fill-rule="evenodd" clip-rule="evenodd" d="M19.1121 45.0173V32.408H15.9712V45.0173H19.1121Z" fill="url(#paint30_linear_83_3443)"/>
<g filter="url(#filter7_i_83_3443)">
<path d="M20.5154 38.0711C20.5288 38.487 20.342 38.8566 20.0619 39.0723C20.3287 39.2725 20.5154 39.6267 20.5154 40.0272C20.5154 40.4276 20.342 40.7819 20.0619 40.9821C20.3287 41.1823 20.5154 41.5365 20.5154 41.937C20.5154 42.3374 20.342 42.6917 20.0619 42.8919C20.342 43.1075 20.5154 43.4772 20.5154 43.893C20.5021 44.5245 20.0352 45.0173 19.4883 45.0173H15.0865C14.4462 45.0173 13.926 44.4167 13.926 43.6774V38.2714C13.926 37.5321 14.4462 36.9314 15.0865 36.9314H19.3496C20.0619 36.9314 20.5037 37.5172 20.5154 38.0711Z" fill="url(#paint31_linear_83_3443)"/>
<path d="M20.5154 38.0711C20.5288 38.487 20.342 38.8566 20.0619 39.0723C20.3287 39.2725 20.5154 39.6267 20.5154 40.0272C20.5154 40.4276 20.342 40.7819 20.0619 40.9821C20.3287 41.1823 20.5154 41.5365 20.5154 41.937C20.5154 42.3374 20.342 42.6917 20.0619 42.8919C20.342 43.1075 20.5154 43.4772 20.5154 43.893C20.5021 44.5245 20.0352 45.0173 19.4883 45.0173H15.0865C14.4462 45.0173 13.926 44.4167 13.926 43.6774V38.2714C13.926 37.5321 14.4462 36.9314 15.0865 36.9314H19.3496C20.0619 36.9314 20.5037 37.5172 20.5154 38.0711Z" fill="url(#paint32_radial_83_3443)"/>
<path d="M20.5154 38.0711C20.5288 38.487 20.342 38.8566 20.0619 39.0723C20.3287 39.2725 20.5154 39.6267 20.5154 40.0272C20.5154 40.4276 20.342 40.7819 20.0619 40.9821C20.3287 41.1823 20.5154 41.5365 20.5154 41.937C20.5154 42.3374 20.342 42.6917 20.0619 42.8919C20.342 43.1075 20.5154 43.4772 20.5154 43.893C20.5021 44.5245 20.0352 45.0173 19.4883 45.0173H15.0865C14.4462 45.0173 13.926 44.4167 13.926 43.6774V38.2714C13.926 37.5321 14.4462 36.9314 15.0865 36.9314H19.3496C20.0619 36.9314 20.5037 37.5172 20.5154 38.0711Z" fill="url(#paint33_radial_83_3443)"/>
<path d="M20.5154 38.0711C20.5288 38.487 20.342 38.8566 20.0619 39.0723C20.3287 39.2725 20.5154 39.6267 20.5154 40.0272C20.5154 40.4276 20.342 40.7819 20.0619 40.9821C20.3287 41.1823 20.5154 41.5365 20.5154 41.937C20.5154 42.3374 20.342 42.6917 20.0619 42.8919C20.342 43.1075 20.5154 43.4772 20.5154 43.893C20.5021 44.5245 20.0352 45.0173 19.4883 45.0173H15.0865C14.4462 45.0173 13.926 44.4167 13.926 43.6774V38.2714C13.926 37.5321 14.4462 36.9314 15.0865 36.9314H19.3496C20.0619 36.9314 20.5037 37.5172 20.5154 38.0711Z" fill="url(#paint34_radial_83_3443)"/>
<path d="M20.5154 38.0711C20.5288 38.487 20.342 38.8566 20.0619 39.0723C20.3287 39.2725 20.5154 39.6267 20.5154 40.0272C20.5154 40.4276 20.342 40.7819 20.0619 40.9821C20.3287 41.1823 20.5154 41.5365 20.5154 41.937C20.5154 42.3374 20.342 42.6917 20.0619 42.8919C20.342 43.1075 20.5154 43.4772 20.5154 43.893C20.5021 44.5245 20.0352 45.0173 19.4883 45.0173H15.0865C14.4462 45.0173 13.926 44.4167 13.926 43.6774V38.2714C13.926 37.5321 14.4462 36.9314 15.0865 36.9314H19.3496C20.0619 36.9314 20.5037 37.5172 20.5154 38.0711Z" fill="url(#paint35_radial_83_3443)"/>
<path d="M20.5154 38.0711C20.5288 38.487 20.342 38.8566 20.0619 39.0723C20.3287 39.2725 20.5154 39.6267 20.5154 40.0272C20.5154 40.4276 20.342 40.7819 20.0619 40.9821C20.3287 41.1823 20.5154 41.5365 20.5154 41.937C20.5154 42.3374 20.342 42.6917 20.0619 42.8919C20.342 43.1075 20.5154 43.4772 20.5154 43.893C20.5021 44.5245 20.0352 45.0173 19.4883 45.0173H15.0865C14.4462 45.0173 13.926 44.4167 13.926 43.6774V38.2714C13.926 37.5321 14.4462 36.9314 15.0865 36.9314H19.3496C20.0619 36.9314 20.5037 37.5172 20.5154 38.0711Z" fill="url(#paint36_linear_83_3443)"/>
</g>
<g filter="url(#filter8_ii_83_3443)">
<path d="M28.4819 38.0711C28.4686 38.487 28.6553 38.8566 28.9354 39.0723C28.6686 39.2725 28.4819 39.6267 28.4819 40.0272C28.4819 40.4276 28.6553 40.7819 28.9354 40.9821C28.6686 41.1823 28.4819 41.5365 28.4819 41.937C28.4819 42.3374 28.6553 42.6917 28.9354 42.8919C28.6553 43.1075 28.4819 43.4772 28.4819 43.893C28.4952 44.5245 28.9621 45.0173 29.509 45.0173H33.9108C34.5511 45.0173 35.0713 44.4167 35.0713 43.6774V38.2714C35.0713 37.5321 34.5511 36.9314 33.9108 36.9314H29.6477C28.9354 36.9314 28.4936 37.5172 28.4819 38.0711Z" fill="url(#paint37_linear_83_3443)"/>
<path d="M28.4819 38.0711C28.4686 38.487 28.6553 38.8566 28.9354 39.0723C28.6686 39.2725 28.4819 39.6267 28.4819 40.0272C28.4819 40.4276 28.6553 40.7819 28.9354 40.9821C28.6686 41.1823 28.4819 41.5365 28.4819 41.937C28.4819 42.3374 28.6553 42.6917 28.9354 42.8919C28.6553 43.1075 28.4819 43.4772 28.4819 43.893C28.4952 44.5245 28.9621 45.0173 29.509 45.0173H33.9108C34.5511 45.0173 35.0713 44.4167 35.0713 43.6774V38.2714C35.0713 37.5321 34.5511 36.9314 33.9108 36.9314H29.6477C28.9354 36.9314 28.4936 37.5172 28.4819 38.0711Z" fill="url(#paint38_radial_83_3443)"/>
<path d="M28.4819 38.0711C28.4686 38.487 28.6553 38.8566 28.9354 39.0723C28.6686 39.2725 28.4819 39.6267 28.4819 40.0272C28.4819 40.4276 28.6553 40.7819 28.9354 40.9821C28.6686 41.1823 28.4819 41.5365 28.4819 41.937C28.4819 42.3374 28.6553 42.6917 28.9354 42.8919C28.6553 43.1075 28.4819 43.4772 28.4819 43.893C28.4952 44.5245 28.9621 45.0173 29.509 45.0173H33.9108C34.5511 45.0173 35.0713 44.4167 35.0713 43.6774V38.2714C35.0713 37.5321 34.5511 36.9314 33.9108 36.9314H29.6477C28.9354 36.9314 28.4936 37.5172 28.4819 38.0711Z" fill="url(#paint39_radial_83_3443)"/>
<path d="M28.4819 38.0711C28.4686 38.487 28.6553 38.8566 28.9354 39.0723C28.6686 39.2725 28.4819 39.6267 28.4819 40.0272C28.4819 40.4276 28.6553 40.7819 28.9354 40.9821C28.6686 41.1823 28.4819 41.5365 28.4819 41.937C28.4819 42.3374 28.6553 42.6917 28.9354 42.8919C28.6553 43.1075 28.4819 43.4772 28.4819 43.893C28.4952 44.5245 28.9621 45.0173 29.509 45.0173H33.9108C34.5511 45.0173 35.0713 44.4167 35.0713 43.6774V38.2714C35.0713 37.5321 34.5511 36.9314 33.9108 36.9314H29.6477C28.9354 36.9314 28.4936 37.5172 28.4819 38.0711Z" fill="url(#paint40_radial_83_3443)"/>
<path d="M28.4819 38.0711C28.4686 38.487 28.6553 38.8566 28.9354 39.0723C28.6686 39.2725 28.4819 39.6267 28.4819 40.0272C28.4819 40.4276 28.6553 40.7819 28.9354 40.9821C28.6686 41.1823 28.4819 41.5365 28.4819 41.937C28.4819 42.3374 28.6553 42.6917 28.9354 42.8919C28.6553 43.1075 28.4819 43.4772 28.4819 43.893C28.4952 44.5245 28.9621 45.0173 29.509 45.0173H33.9108C34.5511 45.0173 35.0713 44.4167 35.0713 43.6774V38.2714C35.0713 37.5321 34.5511 36.9314 33.9108 36.9314H29.6477C28.9354 36.9314 28.4936 37.5172 28.4819 38.0711Z" fill="url(#paint41_radial_83_3443)"/>
</g>
<path d="M32.9812 34.4939V31.0653C32.9812 30.4831 32.4412 30.0173 31.7662 30.0173H18.8062C18.7973 30.0173 18.7884 30.0172 18.7795 30.0172H18.7779C17.2161 30.0176 15.9712 31.1122 15.9712 32.4496C15.9712 33.5787 16.8864 34.4939 18.0155 34.4939H32.9812Z" fill="url(#paint42_linear_83_3443)"/>
<path d="M17.2209 32.2556C17.2209 31.6795 17.6879 31.2126 18.2639 31.2126H32.9811V33.2985H18.2639C17.6879 33.2985 17.2209 32.8316 17.2209 32.2556Z" fill="url(#paint43_linear_83_3443)"/>
<g filter="url(#filter9_f_83_3443)">
<path d="M29.0352 39.0759H31.918" stroke="url(#paint44_linear_83_3443)" stroke-width="0.1" stroke-linecap="round"/>
</g>
<g filter="url(#filter10_f_83_3443)">
<path d="M19.8986 39.0759H17.0157" stroke="url(#paint45_linear_83_3443)" stroke-width="0.1" stroke-linecap="round"/>
</g>
<g filter="url(#filter11_f_83_3443)">
<path d="M29.0352 40.9744H31.918" stroke="url(#paint46_linear_83_3443)" stroke-width="0.1" stroke-linecap="round"/>
</g>
<g filter="url(#filter12_f_83_3443)">
<path d="M19.8986 40.9744H17.0157" stroke="url(#paint47_linear_83_3443)" stroke-width="0.1" stroke-linecap="round"/>
</g>
<g filter="url(#filter13_f_83_3443)">
<path d="M29.0352 42.8728H31.918" stroke="url(#paint48_linear_83_3443)" stroke-width="0.1" stroke-linecap="round"/>
</g>
<g filter="url(#filter14_f_83_3443)">
<path d="M19.8986 42.8728H17.0157" stroke="url(#paint49_linear_83_3443)" stroke-width="0.1" stroke-linecap="round"/>
</g>
<path d="M31.7681 18.3355C32.271 18.3192 32.7419 18.1487 33.125 17.8727V19.2692C33.125 20.6089 32.3268 21.8024 31.1136 22.2977C31.3691 21.7537 31.5446 21.161 31.6324 20.5277L31.7681 18.3355Z" fill="url(#paint50_radial_83_3443)"/>
<path d="M17.1843 18.3355C16.6814 18.3192 16.2105 18.1487 15.8274 17.8727V19.2692C15.8274 20.6089 16.6255 21.8024 17.8387 22.2977C17.5833 21.7537 17.4077 21.161 17.3199 20.5277L17.1843 18.3355Z" fill="url(#paint51_radial_83_3443)"/>
<g filter="url(#filter15_ii_83_3443)">
<path d="M17.2391 20.6081C17.625 23.5367 20.1172 25.717 23.0677 25.717H25.8975C28.848 25.717 31.3402 23.5367 31.7261 20.6081C31.903 17.7826 32.081 14.9684 32.2123 12.1444C32.1964 10.9939 31.2894 10.0445 30.1438 9.99623H28.0435C26.6115 9.99623 25.3147 9.15146 24.726 7.83201C24.5748 7.45387 24.2089 7.20447 23.8031 7.20447H21.8938C19.1252 7.20447 16.8817 9.47327 16.8817 12.2731C16.8817 15.0642 17.0561 17.81 17.2391 20.6081Z" fill="url(#paint52_radial_83_3443)"/>
</g>
<path d="M17.2391 20.6081C17.625 23.5367 20.1172 25.717 23.0677 25.717H25.8975C28.848 25.717 31.3402 23.5367 31.7261 20.6081C31.903 17.7826 32.081 14.9684 32.2123 12.1444C32.1964 10.9939 31.2894 10.0445 30.1438 9.99623H28.0435C26.6115 9.99623 25.3147 9.15146 24.726 7.83201C24.5748 7.45387 24.2089 7.20447 23.8031 7.20447H21.8938C19.1252 7.20447 16.8817 9.47327 16.8817 12.2731C16.8817 15.0642 17.0561 17.81 17.2391 20.6081Z" fill="url(#paint53_linear_83_3443)"/>
<path d="M17.2391 20.6081C17.625 23.5367 20.1172 25.717 23.0677 25.717H25.8975C28.848 25.717 31.3402 23.5367 31.7261 20.6081C31.903 17.7826 32.081 14.9684 32.2123 12.1444C32.1964 10.9939 31.2894 10.0445 30.1438 9.99623H28.0435C26.6115 9.99623 25.3147 9.15146 24.726 7.83201C24.5748 7.45387 24.2089 7.20447 23.8031 7.20447H21.8938C19.1252 7.20447 16.8817 9.47327 16.8817 12.2731C16.8817 15.0642 17.0561 17.81 17.2391 20.6081Z" fill="url(#paint54_radial_83_3443)"/>
<path d="M17.2391 20.6081C17.625 23.5367 20.1172 25.717 23.0677 25.717H25.8975C28.848 25.717 31.3402 23.5367 31.7261 20.6081C31.903 17.7826 32.081 14.9684 32.2123 12.1444C32.1964 10.9939 31.2894 10.0445 30.1438 9.99623H28.0435C26.6115 9.99623 25.3147 9.15146 24.726 7.83201C24.5748 7.45387 24.2089 7.20447 23.8031 7.20447H21.8938C19.1252 7.20447 16.8817 9.47327 16.8817 12.2731C16.8817 15.0642 17.0561 17.81 17.2391 20.6081Z" fill="url(#paint55_radial_83_3443)"/>
<path d="M17.2391 20.6081C17.625 23.5367 20.1172 25.717 23.0677 25.717H25.8975C28.848 25.717 31.3402 23.5367 31.7261 20.6081C31.903 17.7826 32.081 14.9684 32.2123 12.1444C32.1964 10.9939 31.2894 10.0445 30.1438 9.99623H28.0435C26.6115 9.99623 25.3147 9.15146 24.726 7.83201C24.5748 7.45387 24.2089 7.20447 23.8031 7.20447H21.8938C19.1252 7.20447 16.8817 9.47327 16.8817 12.2731C16.8817 15.0642 17.0561 17.81 17.2391 20.6081Z" fill="url(#paint56_radial_83_3443)"/>
<path d="M17.2391 20.6081C17.625 23.5367 20.1172 25.717 23.0677 25.717H25.8975C28.848 25.717 31.3402 23.5367 31.7261 20.6081C31.903 17.7826 32.081 14.9684 32.2123 12.1444C32.1964 10.9939 31.2894 10.0445 30.1438 9.99623H28.0435C26.6115 9.99623 25.3147 9.15146 24.726 7.83201C24.5748 7.45387 24.2089 7.20447 23.8031 7.20447H21.8938C19.1252 7.20447 16.8817 9.47327 16.8817 12.2731C16.8817 15.0642 17.0561 17.81 17.2391 20.6081Z" fill="url(#paint57_radial_83_3443)"/>
<path d="M17.2391 20.6081C17.625 23.5367 20.1172 25.717 23.0677 25.717H25.8975C28.848 25.717 31.3402 23.5367 31.7261 20.6081C31.903 17.7826 32.081 14.9684 32.2123 12.1444C32.1964 10.9939 31.2894 10.0445 30.1438 9.99623H28.0435C26.6115 9.99623 25.3147 9.15146 24.726 7.83201C24.5748 7.45387 24.2089 7.20447 23.8031 7.20447H21.8938C19.1252 7.20447 16.8817 9.47327 16.8817 12.2731C16.8817 15.0642 17.0561 17.81 17.2391 20.6081Z" fill="url(#paint58_radial_83_3443)"/>
<path d="M17.2391 20.6081C17.625 23.5367 20.1172 25.717 23.0677 25.717H25.8975C28.848 25.717 31.3402 23.5367 31.7261 20.6081C31.903 17.7826 32.081 14.9684 32.2123 12.1444C32.1964 10.9939 31.2894 10.0445 30.1438 9.99623H28.0435C26.6115 9.99623 25.3147 9.15146 24.726 7.83201C24.5748 7.45387 24.2089 7.20447 23.8031 7.20447H21.8938C19.1252 7.20447 16.8817 9.47327 16.8817 12.2731C16.8817 15.0642 17.0561 17.81 17.2391 20.6081Z" fill="url(#paint59_radial_83_3443)"/>
<g filter="url(#filter16_f_83_3443)">
<path d="M23.8742 15.6747L22.988 18.4323C22.8366 18.9995 23.2 19.5667 23.7147 19.5667H24.8122C25.3269 19.5667 25.6902 18.9908 25.5388 18.4323L24.797 15.6747C24.6381 15.0639 24.0408 15.0639 23.8742 15.6747Z" fill="#D69790"/>
</g>
<g filter="url(#filter17_f_83_3443)">
<path d="M23.9028 15.3887L23.1056 18.1462C22.9429 18.7134 23.3334 19.2806 23.8865 19.2806H25.0661C25.6192 19.2806 26.0097 18.7047 25.847 18.1462L25.0498 15.3887C24.879 14.7778 24.0818 14.7778 23.9028 15.3887Z" fill="#F6BFAB"/>
<path d="M23.9028 15.3887L23.1056 18.1462C22.9429 18.7134 23.3334 19.2806 23.8865 19.2806H25.0661C25.6192 19.2806 26.0097 18.7047 25.847 18.1462L25.0498 15.3887C24.879 14.7778 24.0818 14.7778 23.9028 15.3887Z" fill="url(#paint60_linear_83_3443)"/>
<path d="M23.9028 15.3887L23.1056 18.1462C22.9429 18.7134 23.3334 19.2806 23.8865 19.2806H25.0661C25.6192 19.2806 26.0097 18.7047 25.847 18.1462L25.0498 15.3887C24.879 14.7778 24.0818 14.7778 23.9028 15.3887Z" fill="url(#paint61_radial_83_3443)"/>
<path d="M23.9028 15.3887L23.1056 18.1462C22.9429 18.7134 23.3334 19.2806 23.8865 19.2806H25.0661C25.6192 19.2806 26.0097 18.7047 25.847 18.1462L25.0498 15.3887C24.879 14.7778 24.0818 14.7778 23.9028 15.3887Z" fill="url(#paint62_linear_83_3443)"/>
<path d="M23.9028 15.3887L23.1056 18.1462C22.9429 18.7134 23.3334 19.2806 23.8865 19.2806H25.0661C25.6192 19.2806 26.0097 18.7047 25.847 18.1462L25.0498 15.3887C24.879 14.7778 24.0818 14.7778 23.9028 15.3887Z" fill="url(#paint63_radial_83_3443)"/>
<path d="M23.9028 15.3887L23.1056 18.1462C22.9429 18.7134 23.3334 19.2806 23.8865 19.2806H25.0661C25.6192 19.2806 26.0097 18.7047 25.847 18.1462L25.0498 15.3887C24.879 14.7778 24.0818 14.7778 23.9028 15.3887Z" fill="url(#paint64_linear_83_3443)"/>
</g>
<g filter="url(#filter18_f_83_3443)">
<path d="M22.4326 20.2464L22.4326 20.2464L22.432 20.246C22.2958 20.1768 22.154 20.2199 22.0696 20.3088C21.9847 20.3981 21.9514 20.5413 22.0389 20.6684C22.5549 21.4498 23.4533 21.9704 24.4761 21.9704C25.4992 21.9704 26.3978 21.4496 26.9137 20.6678C27 20.5381 26.9685 20.3951 26.8823 20.3056C26.7971 20.2171 26.6554 20.1773 26.5203 20.246L26.5203 20.246L26.5196 20.2464C25.9293 20.5541 25.2333 20.7305 24.4761 20.7305C23.7265 20.7305 23.0229 20.5541 22.4326 20.2464Z" stroke="url(#paint65_linear_83_3443)" stroke-width="0.15"/>
</g>
<path d="M24.4761 20.8055C23.7149 20.8055 22.9993 20.6264 22.398 20.3129C22.1924 20.2084 21.9717 20.4398 22.1011 20.6264C22.6035 21.3878 23.4789 21.8954 24.4761 21.8954C25.4733 21.8954 26.3487 21.3878 26.8512 20.6264C26.9806 20.4323 26.7598 20.2084 26.5543 20.3129C25.9529 20.6264 25.245 20.8055 24.4761 20.8055Z" fill="url(#paint66_radial_83_3443)"/>
<g filter="url(#filter19_ii_83_3443)">
<path d="M31.7583 6.49646C32.53 6.76195 33.2222 7.301 33.6597 8.07336C34.3598 9.30431 34.2564 10.7766 33.5006 11.8627C33.2381 12.2489 33.0949 12.7075 33.0949 13.1742V14.9562C32.8143 14.7608 32.4441 14.6159 32.094 14.5539L32.2118 12.1443C32.1959 10.9938 31.2889 10.0445 30.1433 9.99621H28.043C26.611 9.99621 25.3142 9.15144 24.7255 7.83199C24.5743 7.45386 24.2084 7.20445 23.8026 7.20445H21.8933C19.1247 7.20445 16.8812 9.47326 16.8812 12.2731L16.9272 14.5791C16.5462 14.6351 16.1483 14.7624 15.847 14.9746V13.1742C15.847 12.7075 15.7038 12.2489 15.4412 11.8627C14.7252 10.8088 14.5979 9.39281 15.2264 8.19404C15.664 7.36536 16.3721 6.78609 17.1756 6.5045C18.0348 6.19877 18.7667 5.6195 19.252 4.8391C19.8725 3.84951 20.9625 3.18979 22.2115 3.18979C22.6968 3.18979 23.1582 3.29438 23.5878 3.47138C24.1607 3.72079 24.8051 3.72079 25.3779 3.47138C25.7995 3.29438 26.2609 3.18979 26.7462 3.18979C28.0112 3.18979 29.117 3.87365 29.7296 4.88737C30.191 5.65169 30.915 6.20682 31.7583 6.49646Z" fill="url(#paint67_linear_83_3443)"/>
<path d="M31.7583 6.49646C32.53 6.76195 33.2222 7.301 33.6597 8.07336C34.3598 9.30431 34.2564 10.7766 33.5006 11.8627C33.2381 12.2489 33.0949 12.7075 33.0949 13.1742V14.9562C32.8143 14.7608 32.4441 14.6159 32.094 14.5539L32.2118 12.1443C32.1959 10.9938 31.2889 10.0445 30.1433 9.99621H28.043C26.611 9.99621 25.3142 9.15144 24.7255 7.83199C24.5743 7.45386 24.2084 7.20445 23.8026 7.20445H21.8933C19.1247 7.20445 16.8812 9.47326 16.8812 12.2731L16.9272 14.5791C16.5462 14.6351 16.1483 14.7624 15.847 14.9746V13.1742C15.847 12.7075 15.7038 12.2489 15.4412 11.8627C14.7252 10.8088 14.5979 9.39281 15.2264 8.19404C15.664 7.36536 16.3721 6.78609 17.1756 6.5045C18.0348 6.19877 18.7667 5.6195 19.252 4.8391C19.8725 3.84951 20.9625 3.18979 22.2115 3.18979C22.6968 3.18979 23.1582 3.29438 23.5878 3.47138C24.1607 3.72079 24.8051 3.72079 25.3779 3.47138C25.7995 3.29438 26.2609 3.18979 26.7462 3.18979C28.0112 3.18979 29.117 3.87365 29.7296 4.88737C30.191 5.65169 30.915 6.20682 31.7583 6.49646Z" fill="url(#paint68_radial_83_3443)"/>
<path d="M31.7583 6.49646C32.53 6.76195 33.2222 7.301 33.6597 8.07336C34.3598 9.30431 34.2564 10.7766 33.5006 11.8627C33.2381 12.2489 33.0949 12.7075 33.0949 13.1742V14.9562C32.8143 14.7608 32.4441 14.6159 32.094 14.5539L32.2118 12.1443C32.1959 10.9938 31.2889 10.0445 30.1433 9.99621H28.043C26.611 9.99621 25.3142 9.15144 24.7255 7.83199C24.5743 7.45386 24.2084 7.20445 23.8026 7.20445H21.8933C19.1247 7.20445 16.8812 9.47326 16.8812 12.2731L16.9272 14.5791C16.5462 14.6351 16.1483 14.7624 15.847 14.9746V13.1742C15.847 12.7075 15.7038 12.2489 15.4412 11.8627C14.7252 10.8088 14.5979 9.39281 15.2264 8.19404C15.664 7.36536 16.3721 6.78609 17.1756 6.5045C18.0348 6.19877 18.7667 5.6195 19.252 4.8391C19.8725 3.84951 20.9625 3.18979 22.2115 3.18979C22.6968 3.18979 23.1582 3.29438 23.5878 3.47138C24.1607 3.72079 24.8051 3.72079 25.3779 3.47138C25.7995 3.29438 26.2609 3.18979 26.7462 3.18979C28.0112 3.18979 29.117 3.87365 29.7296 4.88737C30.191 5.65169 30.915 6.20682 31.7583 6.49646Z" fill="url(#paint69_radial_83_3443)"/>
<path d="M31.7583 6.49646C32.53 6.76195 33.2222 7.301 33.6597 8.07336C34.3598 9.30431 34.2564 10.7766 33.5006 11.8627C33.2381 12.2489 33.0949 12.7075 33.0949 13.1742V14.9562C32.8143 14.7608 32.4441 14.6159 32.094 14.5539L32.2118 12.1443C32.1959 10.9938 31.2889 10.0445 30.1433 9.99621H28.043C26.611 9.99621 25.3142 9.15144 24.7255 7.83199C24.5743 7.45386 24.2084 7.20445 23.8026 7.20445H21.8933C19.1247 7.20445 16.8812 9.47326 16.8812 12.2731L16.9272 14.5791C16.5462 14.6351 16.1483 14.7624 15.847 14.9746V13.1742C15.847 12.7075 15.7038 12.2489 15.4412 11.8627C14.7252 10.8088 14.5979 9.39281 15.2264 8.19404C15.664 7.36536 16.3721 6.78609 17.1756 6.5045C18.0348 6.19877 18.7667 5.6195 19.252 4.8391C19.8725 3.84951 20.9625 3.18979 22.2115 3.18979C22.6968 3.18979 23.1582 3.29438 23.5878 3.47138C24.1607 3.72079 24.8051 3.72079 25.3779 3.47138C25.7995 3.29438 26.2609 3.18979 26.7462 3.18979C28.0112 3.18979 29.117 3.87365 29.7296 4.88737C30.191 5.65169 30.915 6.20682 31.7583 6.49646Z" fill="url(#paint70_radial_83_3443)"/>
<path d="M31.7583 6.49646C32.53 6.76195 33.2222 7.301 33.6597 8.07336C34.3598 9.30431 34.2564 10.7766 33.5006 11.8627C33.2381 12.2489 33.0949 12.7075 33.0949 13.1742V14.9562C32.8143 14.7608 32.4441 14.6159 32.094 14.5539L32.2118 12.1443C32.1959 10.9938 31.2889 10.0445 30.1433 9.99621H28.043C26.611 9.99621 25.3142 9.15144 24.7255 7.83199C24.5743 7.45386 24.2084 7.20445 23.8026 7.20445H21.8933C19.1247 7.20445 16.8812 9.47326 16.8812 12.2731L16.9272 14.5791C16.5462 14.6351 16.1483 14.7624 15.847 14.9746V13.1742C15.847 12.7075 15.7038 12.2489 15.4412 11.8627C14.7252 10.8088 14.5979 9.39281 15.2264 8.19404C15.664 7.36536 16.3721 6.78609 17.1756 6.5045C18.0348 6.19877 18.7667 5.6195 19.252 4.8391C19.8725 3.84951 20.9625 3.18979 22.2115 3.18979C22.6968 3.18979 23.1582 3.29438 23.5878 3.47138C24.1607 3.72079 24.8051 3.72079 25.3779 3.47138C25.7995 3.29438 26.2609 3.18979 26.7462 3.18979C28.0112 3.18979 29.117 3.87365 29.7296 4.88737C30.191 5.65169 30.915 6.20682 31.7583 6.49646Z" fill="url(#paint71_radial_83_3443)"/>
</g>
<g filter="url(#filter20_i_83_3443)">
<path d="M30.0754 11.9912C29.8126 11.7623 29.507 11.5198 29.0441 11.374C28.5877 11.2304 28.0162 11.1918 27.2254 11.2885C26.9973 11.3164 26.8351 11.5239 26.863 11.752C26.8909 11.98 27.0984 12.1423 27.3264 12.1144C28.0482 12.0261 28.4903 12.0719 28.7943 12.1676C29.0917 12.2613 29.2929 12.413 29.5289 12.6185C29.7022 12.7694 29.9649 12.7513 30.1158 12.5781C30.2667 12.4048 30.2486 12.1421 30.0754 11.9912Z" fill="#202020"/>
</g>
<g filter="url(#filter21_i_83_3443)">
<path d="M19.3601 11.8276C19.4953 11.7467 19.6898 11.6432 19.9354 11.5467C20.4266 11.3535 21.1286 11.1858 21.9685 11.2886C22.1965 11.3165 22.3588 11.524 22.3309 11.752C22.303 11.98 22.0955 12.1423 21.8675 12.1144C21.1949 12.0321 20.6337 12.1661 20.2399 12.3209C20.043 12.3983 19.8895 12.4804 19.7874 12.5415C19.7364 12.572 19.6985 12.5971 19.6747 12.6136C19.6628 12.6218 19.6545 12.6278 19.6499 12.6312L19.6457 12.6343C19.4644 12.7741 19.204 12.7412 19.0634 12.5603C18.9223 12.3789 18.955 12.1176 19.1363 11.9765L19.3601 11.8276Z" fill="#202020"/>
</g>
<g filter="url(#filter22_if_83_3443)">
<path d="M24.8249 8.03721C24.7899 7.97017 24.7568 7.90174 24.7257 7.83199C24.5746 7.45386 24.2086 7.20445 23.8029 7.20445H21.8935C19.1249 7.20445 16.8814 9.47326 16.8814 12.2731V12.6858C16.3714 12.2977 15.73 11.479 15.73 10.1541C15.73 8.54635 16.9026 7.73369 17.6506 7.21531C17.8617 7.06896 18.039 6.94607 18.1466 6.83537C18.1923 6.78834 18.242 6.73559 18.2961 6.67822C18.8204 6.12213 19.7546 5.13133 21.3859 4.69831C22.3564 4.44069 23.3425 4.41996 24.0527 4.46975C24.5244 4.50281 24.8565 4.91106 24.8565 5.3839V8.01704L24.8249 8.03721Z" fill="#23181C"/>
<path d="M24.8249 8.03721C24.7899 7.97017 24.7568 7.90174 24.7257 7.83199C24.5746 7.45386 24.2086 7.20445 23.8029 7.20445H21.8935C19.1249 7.20445 16.8814 9.47326 16.8814 12.2731V12.6858C16.3714 12.2977 15.73 11.479 15.73 10.1541C15.73 8.54635 16.9026 7.73369 17.6506 7.21531C17.8617 7.06896 18.039 6.94607 18.1466 6.83537C18.1923 6.78834 18.242 6.73559 18.2961 6.67822C18.8204 6.12213 19.7546 5.13133 21.3859 4.69831C22.3564 4.44069 23.3425 4.41996 24.0527 4.46975C24.5244 4.50281 24.8565 4.91106 24.8565 5.3839V8.01704L24.8249 8.03721Z" fill="url(#paint72_radial_83_3443)"/>
<path d="M24.8249 8.03721C24.7899 7.97017 24.7568 7.90174 24.7257 7.83199C24.5746 7.45386 24.2086 7.20445 23.8029 7.20445H21.8935C19.1249 7.20445 16.8814 9.47326 16.8814 12.2731V12.6858C16.3714 12.2977 15.73 11.479 15.73 10.1541C15.73 8.54635 16.9026 7.73369 17.6506 7.21531C17.8617 7.06896 18.039 6.94607 18.1466 6.83537C18.1923 6.78834 18.242 6.73559 18.2961 6.67822C18.8204 6.12213 19.7546 5.13133 21.3859 4.69831C22.3564 4.44069 23.3425 4.41996 24.0527 4.46975C24.5244 4.50281 24.8565 4.91106 24.8565 5.3839V8.01704L24.8249 8.03721Z" fill="url(#paint73_radial_83_3443)"/>
</g>
<g filter="url(#filter23_f_83_3443)">
<path d="M32.2954 12.9373L32.2517 11.9905C32.2358 10.8453 31.2894 9.90036 30.1438 9.85231H28.0435C26.7102 9.85231 25.4941 9.12338 24.8576 7.96284C24.8576 7.96284 24.616 7.4032 24.5141 6.55036C24.395 5.55438 25.3052 4.83202 26.2972 4.9804C27.9236 5.22367 30.0332 5.74015 31.5142 6.70606C34.131 8.41285 33.6729 11.4888 32.2954 12.9373Z" fill="#1F151B"/>
<path d="M32.2954 12.9373L32.2517 11.9905C32.2358 10.8453 31.2894 9.90036 30.1438 9.85231H28.0435C26.7102 9.85231 25.4941 9.12338 24.8576 7.96284C24.8576 7.96284 24.616 7.4032 24.5141 6.55036C24.395 5.55438 25.3052 4.83202 26.2972 4.9804C27.9236 5.22367 30.0332 5.74015 31.5142 6.70606C34.131 8.41285 33.6729 11.4888 32.2954 12.9373Z" fill="url(#paint74_radial_83_3443)"/>
<path d="M32.2954 12.9373L32.2517 11.9905C32.2358 10.8453 31.2894 9.90036 30.1438 9.85231H28.0435C26.7102 9.85231 25.4941 9.12338 24.8576 7.96284C24.8576 7.96284 24.616 7.4032 24.5141 6.55036C24.395 5.55438 25.3052 4.83202 26.2972 4.9804C27.9236 5.22367 30.0332 5.74015 31.5142 6.70606C34.131 8.41285 33.6729 11.4888 32.2954 12.9373Z" fill="url(#paint75_radial_83_3443)"/>
<path d="M32.2954 12.9373L32.2517 11.9905C32.2358 10.8453 31.2894 9.90036 30.1438 9.85231H28.0435C26.7102 9.85231 25.4941 9.12338 24.8576 7.96284C24.8576 7.96284 24.616 7.4032 24.5141 6.55036C24.395 5.55438 25.3052 4.83202 26.2972 4.9804C27.9236 5.22367 30.0332 5.74015 31.5142 6.70606C34.131 8.41285 33.6729 11.4888 32.2954 12.9373Z" fill="url(#paint76_radial_83_3443)"/>
</g>
<path d="M28.0628 13.9632C29.0424 13.9632 29.87 14.6386 30.0951 15.5513C30.1621 15.813 29.9613 16.0625 29.6935 16.0625H26.3468C26.1339 16.0625 25.9635 15.8677 26.0061 15.6548C26.1947 14.6934 27.0405 13.9632 28.0628 13.9632Z" fill="white"/>
<path d="M27.7524 14.3708C28.4947 14.3708 29.091 14.9733 29.091 15.7095C29.091 15.8312 29.0728 15.9529 29.0423 16.0624H26.4563C26.4258 15.9468 26.4076 15.8312 26.4076 15.7095C26.4076 14.9733 27.01 14.3708 27.7524 14.3708Z" fill="url(#paint77_radial_83_3443)"/>
<path d="M26.9856 15.7095C26.9856 15.2836 27.3264 14.9428 27.7523 14.9428C28.1782 14.9428 28.519 15.2836 28.519 15.7095C28.519 15.8373 28.4886 15.959 28.4338 16.0625H27.0769C27.016 15.959 26.9856 15.8373 26.9856 15.7095Z" fill="black"/>
<g filter="url(#filter24_f_83_3443)">
<path d="M27.6538 14.6538C27.7492 14.7814 27.5498 14.9369 27.3232 15.1064C27.0965 15.2759 26.9283 15.3951 26.833 15.2676C26.7376 15.14 26.844 14.8992 27.0707 14.7297C27.2974 14.5603 27.5584 14.5263 27.6538 14.6538Z" fill="#C7A7A3"/>
<path d="M27.6538 14.6538C27.7492 14.7814 27.5498 14.9369 27.3232 15.1064C27.0965 15.2759 26.9283 15.3951 26.833 15.2676C26.7376 15.14 26.844 14.8992 27.0707 14.7297C27.2974 14.5603 27.5584 14.5263 27.6538 14.6538Z" fill="url(#paint78_radial_83_3443)"/>
</g>
<g filter="url(#filter25_f_83_3443)">
<path d="M28.9448 15.5332C28.8954 15.1872 28.6929 14.9263 28.5978 14.8392L28.208 15.267L28.3839 15.6093L28.9448 15.5332Z" fill="url(#paint79_linear_83_3443)"/>
</g>
<path d="M20.8899 13.9631C19.9102 13.9631 19.0826 14.6386 18.8575 15.5513C18.7905 15.813 18.9913 16.0625 19.2591 16.0625H22.6059C22.8189 16.0625 22.9893 15.8678 22.9467 15.6548C22.7581 14.6933 21.9061 13.9631 20.8899 13.9631Z" fill="white"/>
<path d="M21.2001 14.3708C20.4577 14.3708 19.8613 14.9732 19.8613 15.7095C19.8613 15.8312 19.8796 15.9529 19.91 16.0625H22.4962C22.5266 15.9468 22.5449 15.8312 22.5449 15.7095C22.5388 14.9732 21.9425 14.3708 21.2001 14.3708Z" fill="url(#paint80_radial_83_3443)"/>
<path d="M21.9668 15.7095C21.9668 15.2836 21.626 14.9428 21.2001 14.9428C20.7741 14.9428 20.4333 15.2836 20.4333 15.7095C20.4333 15.8373 20.4638 15.959 20.5185 16.0625H21.8755C21.9303 15.959 21.9668 15.8373 21.9668 15.7095Z" fill="black"/>
<g filter="url(#filter26_f_83_3443)">
<path d="M22.4232 15.5523C22.4232 15.1196 22.0714 14.8312 21.9763 14.7441L21.5437 15.1624L21.8099 15.7044L22.4232 15.5523Z" fill="url(#paint81_linear_83_3443)"/>
</g>
<g filter="url(#filter27_f_83_3443)">
<ellipse cx="20.7963" cy="14.9428" rx="0.584433" ry="0.295777" transform="rotate(-27.914 20.7963 14.9428)" fill="#C7A7A3" fill-opacity="0.9"/>
<ellipse cx="20.7963" cy="14.9428" rx="0.584433" ry="0.295777" transform="rotate(-27.914 20.7963 14.9428)" fill="url(#paint82_radial_83_3443)"/>
</g>
<path d="M31.8591 18.472C31.9578 16.8757 32.053 15.2813 32.136 13.6851C33.2694 13.8834 34.1308 14.8723 34.1308 16.0625C34.1308 17.3478 33.126 18.3985 31.8591 18.472Z" fill="url(#paint83_linear_83_3443)"/>
<path d="M31.8591 18.472C31.9578 16.8757 32.053 15.2813 32.136 13.6851C33.2694 13.8834 34.1308 14.8723 34.1308 16.0625C34.1308 17.3478 33.126 18.3985 31.8591 18.472Z" fill="url(#paint84_radial_83_3443)"/>
<path d="M31.8591 18.472C31.9578 16.8757 32.053 15.2813 32.136 13.6851C33.2694 13.8834 34.1308 14.8723 34.1308 16.0625C34.1308 17.3478 33.126 18.3985 31.8591 18.472Z" fill="url(#paint85_radial_83_3443)"/>
<path d="M31.8591 18.472C31.9578 16.8757 32.053 15.2813 32.136 13.6851C33.2694 13.8834 34.1308 14.8723 34.1308 16.0625C34.1308 17.3478 33.126 18.3985 31.8591 18.472Z" fill="url(#paint86_radial_83_3443)"/>
<path d="M16.9096 13.6718C15.7376 13.837 14.8215 14.8449 14.8215 16.0625C14.8215 17.3511 15.8314 18.4038 17.1028 18.4725C17.006 16.8697 16.9407 15.2751 16.9096 13.6718Z" fill="url(#paint87_linear_83_3443)"/>
<path d="M16.9096 13.6718C15.7376 13.837 14.8215 14.8449 14.8215 16.0625C14.8215 17.3511 15.8314 18.4038 17.1028 18.4725C17.006 16.8697 16.9407 15.2751 16.9096 13.6718Z" fill="url(#paint88_radial_83_3443)"/>
<g filter="url(#filter28_f_83_3443)">
<path d="M16.8482 14.6631C16.2082 14.8065 15.73 15.3781 15.73 16.0614C15.73 16.7886 16.2715 17.3893 16.9733 17.4821C16.9213 16.5419 16.8775 15.6035 16.8482 14.6631Z" fill="url(#paint89_radial_83_3443)"/>
</g>
<g filter="url(#filter29_f_83_3443)">
<path d="M31.9849 17.506C32.0427 16.5542 32.0986 15.6028 32.1508 14.651C32.8577 14.7392 33.4047 15.3422 33.4047 16.073C33.4047 16.86 32.7702 17.4989 31.9849 17.506Z" fill="url(#paint90_linear_83_3443)"/>
</g>
<g filter="url(#filter30_f_83_3443)">
<path d="M19.4163 12.2472C19.8018 11.9706 20.7626 11.4841 21.899 11.6752" stroke="#353535" stroke-width="0.25" stroke-linecap="round"/>
</g>
<g filter="url(#filter31_f_83_3443)">
<path d="M29.8177 12.178C29.4322 11.9015 28.4714 11.415 27.335 11.6061" stroke="#353535" stroke-width="0.25" stroke-linecap="round"/>
</g>
<g filter="url(#filter32_ii_83_3443)">
<path d="M31.7512 12.7523H26.5462C26.0962 12.7523 25.6762 12.9623 25.3912 13.3073C25.2112 13.5323 24.9412 13.6673 24.6262 13.6673C24.3112 13.6673 24.0412 13.5323 23.8612 13.3073C23.5762 12.9623 23.1562 12.7523 22.7062 12.7523H17.4862C17.2012 12.7523 16.9762 12.9773 16.9762 13.2623V13.5923C16.9762 13.7573 17.0512 13.8923 17.1712 13.9823C17.2312 14.0273 17.2762 14.1023 17.2762 14.1773V15.8273C17.2762 17.4023 18.5512 18.6923 20.1412 18.6923H21.2062C22.7812 18.6923 24.0712 17.4173 24.0712 15.8273V14.9123C24.0862 14.6123 24.3262 14.3873 24.6262 14.3873C24.9262 14.3873 25.1662 14.6273 25.1812 14.9273C25.1812 15.2273 25.1812 15.5273 25.1812 15.8273C25.1812 17.4023 26.4562 18.6923 28.0462 18.6923H29.1112C30.6862 18.6923 31.9762 17.4173 31.9762 15.8273V14.1623C31.9762 14.0873 32.0062 14.0123 32.0662 13.9673C32.1862 13.8773 32.2612 13.7273 32.2612 13.5773V13.2623C32.2612 12.9773 32.0362 12.7523 31.7512 12.7523ZM23.5612 15.6773C23.5612 17.0423 22.4512 18.1523 21.0862 18.1523H20.2612C18.8962 18.1523 17.7862 17.0423 17.7862 15.6773V14.5973C17.7862 13.8623 18.3712 13.2773 19.1062 13.2773H22.2262C22.9612 13.2773 23.5612 13.8623 23.5612 14.5973V15.6773ZM31.4812 15.6773C31.4812 17.0423 30.3712 18.1523 29.0062 18.1523H28.1812C26.8162 18.1523 25.7062 17.0423 25.7062 15.6773V14.5973C25.7062 13.8623 26.2912 13.2773 27.0262 13.2773H30.1612C30.8962 13.2773 31.4812 13.8623 31.4812 14.5973V15.6773Z" fill="url(#paint91_linear_83_3443)"/>
<path d="M31.7512 12.7523H26.5462C26.0962 12.7523 25.6762 12.9623 25.3912 13.3073C25.2112 13.5323 24.9412 13.6673 24.6262 13.6673C24.3112 13.6673 24.0412 13.5323 23.8612 13.3073C23.5762 12.9623 23.1562 12.7523 22.7062 12.7523H17.4862C17.2012 12.7523 16.9762 12.9773 16.9762 13.2623V13.5923C16.9762 13.7573 17.0512 13.8923 17.1712 13.9823C17.2312 14.0273 17.2762 14.1023 17.2762 14.1773V15.8273C17.2762 17.4023 18.5512 18.6923 20.1412 18.6923H21.2062C22.7812 18.6923 24.0712 17.4173 24.0712 15.8273V14.9123C24.0862 14.6123 24.3262 14.3873 24.6262 14.3873C24.9262 14.3873 25.1662 14.6273 25.1812 14.9273C25.1812 15.2273 25.1812 15.5273 25.1812 15.8273C25.1812 17.4023 26.4562 18.6923 28.0462 18.6923H29.1112C30.6862 18.6923 31.9762 17.4173 31.9762 15.8273V14.1623C31.9762 14.0873 32.0062 14.0123 32.0662 13.9673C32.1862 13.8773 32.2612 13.7273 32.2612 13.5773V13.2623C32.2612 12.9773 32.0362 12.7523 31.7512 12.7523ZM23.5612 15.6773C23.5612 17.0423 22.4512 18.1523 21.0862 18.1523H20.2612C18.8962 18.1523 17.7862 17.0423 17.7862 15.6773V14.5973C17.7862 13.8623 18.3712 13.2773 19.1062 13.2773H22.2262C22.9612 13.2773 23.5612 13.8623 23.5612 14.5973V15.6773ZM31.4812 15.6773C31.4812 17.0423 30.3712 18.1523 29.0062 18.1523H28.1812C26.8162 18.1523 25.7062 17.0423 25.7062 15.6773V14.5973C25.7062 13.8623 26.2912 13.2773 27.0262 13.2773H30.1612C30.8962 13.2773 31.4812 13.8623 31.4812 14.5973V15.6773Z" fill="url(#paint92_radial_83_3443)"/>
</g>
<defs>
<filter id="filter0_i_83_3443" x="3.50623" y="6.01735" width="41.9703" height="31.585" filterUnits="userSpaceOnUse" color-interpolation-filters="sRGB">
<feFlood flood-opacity="0" result="BackgroundImageFix"/>
<feBlend mode="normal" in="SourceGraphic" in2="BackgroundImageFix" result="shape"/>
<feColorMatrix in="SourceAlpha" type="matrix" values="0 0 0 0 0 0 0 0 0 0 0 0 0 0 0 0 0 0 127 0" result="hardAlpha"/>
<feOffset dy="0.1"/>
<feGaussianBlur stdDeviation="0.1"/>
<feComposite in2="hardAlpha" operator="arithmetic" k2="-1" k3="1"/>
<feColorMatrix type="matrix" values="0 0 0 0 0.81585 0 0 0 0 0.641744 0 0 0 0 0.41905 0 0 0 1 0"/>
<feBlend mode="normal" in2="shape" result="effect1_innerShadow_83_3443"/>
</filter>
<filter id="filter1_f_83_3443" x="4.7781" y="6.05734" width="40.5687" height="30.6272" filterUnits="userSpaceOnUse" color-interpolation-filters="sRGB">
<feFlood flood-opacity="0" result="BackgroundImageFix"/>
<feBlend mode="normal" in="SourceGraphic" in2="BackgroundImageFix" result="shape"/>
<feGaussianBlur stdDeviation="0.2" result="effect1_foregroundBlur_83_3443"/>
</filter>
<filter id="filter2_i_83_3443" x="3.50623" y="6.19736" width="41.8651" height="31.29" filterUnits="userSpaceOnUse" color-interpolation-filters="sRGB">
<feFlood flood-opacity="0" result="BackgroundImageFix"/>
<feBlend mode="normal" in="SourceGraphic" in2="BackgroundImageFix" result="shape"/>
<feColorMatrix in="SourceAlpha" type="matrix" values="0 0 0 0 0 0 0 0 0 0 0 0 0 0 0 0 0 0 127 0" result="hardAlpha"/>
<feOffset dy="-0.3"/>
<feGaussianBlur stdDeviation="0.2"/>
<feComposite in2="hardAlpha" operator="arithmetic" k2="-1" k3="1"/>
<feColorMatrix type="matrix" values="0 0 0 0 0.85098 0 0 0 0 0.482353 0 0 0 0 0.647059 0 0 0 1 0"/>
<feBlend mode="normal" in2="shape" result="effect1_innerShadow_83_3443"/>
</filter>
<filter id="filter3_i_83_3443" x="27.5813" y="24.0073" width="4.19519" height="21.01" filterUnits="userSpaceOnUse" color-interpolation-filters="sRGB">
<feFlood flood-opacity="0" result="BackgroundImageFix"/>
<feBlend mode="normal" in="SourceGraphic" in2="BackgroundImageFix" result="shape"/>
<feColorMatrix in="SourceAlpha" type="matrix" values="0 0 0 0 0 0 0 0 0 0 0 0 0 0 0 0 0 0 127 0" result="hardAlpha"/>
<feOffset dy="-0.1"/>
<feGaussianBlur stdDeviation="0.125"/>
<feComposite in2="hardAlpha" operator="arithmetic" k2="-1" k3="1"/>
<feColorMatrix type="matrix" values="0 0 0 0 0.380392 0 0 0 0 0.164706 0 0 0 0 0.203922 0 0 0 1 0"/>
<feBlend mode="normal" in2="shape" result="effect1_innerShadow_83_3443"/>
</filter>
<filter id="filter4_i_83_3443" x="17.2209" y="24.0073" width="4.19519" height="21.01" filterUnits="userSpaceOnUse" color-interpolation-filters="sRGB">
<feFlood flood-opacity="0" result="BackgroundImageFix"/>
<feBlend mode="normal" in="SourceGraphic" in2="BackgroundImageFix" result="shape"/>
<feColorMatrix in="SourceAlpha" type="matrix" values="0 0 0 0 0 0 0 0 0 0 0 0 0 0 0 0 0 0 127 0" result="hardAlpha"/>
<feOffset dy="-0.1"/>
<feGaussianBlur stdDeviation="0.125"/>
<feComposite in2="hardAlpha" operator="arithmetic" k2="-1" k3="1"/>
<feColorMatrix type="matrix" values="0 0 0 0 0.380392 0 0 0 0 0.164706 0 0 0 0 0.203922 0 0 0 1 0"/>
<feBlend mode="normal" in2="shape" result="effect1_innerShadow_83_3443"/>
</filter>
<filter id="filter5_i_83_3443" x="31.9713" y="34.6791" width="3.1" height="5.035" filterUnits="userSpaceOnUse" color-interpolation-filters="sRGB">
<feFlood flood-opacity="0" result="BackgroundImageFix"/>
<feBlend mode="normal" in="SourceGraphic" in2="BackgroundImageFix" result="shape"/>
<feColorMatrix in="SourceAlpha" type="matrix" values="0 0 0 0 0 0 0 0 0 0 0 0 0 0 0 0 0 0 127 0" result="hardAlpha"/>
<feOffset dx="-0.1" dy="0.1"/>
<feGaussianBlur stdDeviation="0.1"/>
<feComposite in2="hardAlpha" operator="arithmetic" k2="-1" k3="1"/>
<feColorMatrix type="matrix" values="0 0 0 0 0.968627 0 0 0 0 0.803922 0 0 0 0 0.713726 0 0 0 1 0"/>
<feBlend mode="normal" in2="shape" result="effect1_innerShadow_83_3443"/>
</filter>
<filter id="filter6_i_83_3443" x="13.926" y="34.6673" width="3.1" height="4.935" filterUnits="userSpaceOnUse" color-interpolation-filters="sRGB">
<feFlood flood-opacity="0" result="BackgroundImageFix"/>
<feBlend mode="normal" in="SourceGraphic" in2="BackgroundImageFix" result="shape"/>
<feColorMatrix in="SourceAlpha" type="matrix" values="0 0 0 0 0 0 0 0 0 0 0 0 0 0 0 0 0 0 127 0" result="hardAlpha"/>
<feOffset dx="0.1"/>
<feGaussianBlur stdDeviation="0.125"/>
<feComposite in2="hardAlpha" operator="arithmetic" k2="-1" k3="1"/>
<feColorMatrix type="matrix" values="0 0 0 0 0.886275 0 0 0 0 0.670588 0 0 0 0 0.588235 0 0 0 1 0"/>
<feBlend mode="normal" in2="shape" result="effect1_innerShadow_83_3443"/>
</filter>
<filter id="filter7_i_83_3443" x="13.926" y="36.9314" width="6.99009" height="8.08594" filterUnits="userSpaceOnUse" color-interpolation-filters="sRGB">
<feFlood flood-opacity="0" result="BackgroundImageFix"/>
<feBlend mode="normal" in="SourceGraphic" in2="BackgroundImageFix" result="shape"/>
<feColorMatrix in="SourceAlpha" type="matrix" values="0 0 0 0 0 0 0 0 0 0 0 0 0 0 0 0 0 0 127 0" result="hardAlpha"/>
<feOffset dx="0.4"/>
<feGaussianBlur stdDeviation="0.25"/>
<feComposite in2="hardAlpha" operator="arithmetic" k2="-1" k3="1"/>
<feColorMatrix type="matrix" values="0 0 0 0 0.882353 0 0 0 0 0.670588 0 0 0 0 0.603922 0 0 0 1 0"/>
<feBlend mode="normal" in2="shape" result="effect1_innerShadow_83_3443"/>
</filter>
<filter id="filter8_ii_83_3443" x="28.2812" y="36.7314" width="6.99009" height="8.28594" filterUnits="userSpaceOnUse" color-interpolation-filters="sRGB">
<feFlood flood-opacity="0" result="BackgroundImageFix"/>
<feBlend mode="normal" in="SourceGraphic" in2="BackgroundImageFix" result="shape"/>
<feColorMatrix in="SourceAlpha" type="matrix" values="0 0 0 0 0 0 0 0 0 0 0 0 0 0 0 0 0 0 127 0" result="hardAlpha"/>
<feOffset dx="0.2" dy="-0.2"/>
<feGaussianBlur stdDeviation="0.25"/>
<feComposite in2="hardAlpha" operator="arithmetic" k2="-1" k3="1"/>
<feColorMatrix type="matrix" values="0 0 0 0 0.74902 0 0 0 0 0.490196 0 0 0 0 0.478431 0 0 0 1 0"/>
<feBlend mode="normal" in2="shape" result="effect1_innerShadow_83_3443"/>
<feColorMatrix in="SourceAlpha" type="matrix" values="0 0 0 0 0 0 0 0 0 0 0 0 0 0 0 0 0 0 127 0" result="hardAlpha"/>
<feOffset dx="-0.2"/>
<feGaussianBlur stdDeviation="0.2"/>
<feComposite in2="hardAlpha" operator="arithmetic" k2="-1" k3="1"/>
<feColorMatrix type="matrix" values="0 0 0 0 0.956863 0 0 0 0 0.796078 0 0 0 0 0.721569 0 0 0 1 0"/>
<feBlend mode="normal" in2="effect1_innerShadow_83_3443" result="effect2_innerShadow_83_3443"/>
</filter>
<filter id="filter9_f_83_3443" x="28.8851" y="38.9259" width="3.18291" height="0.299998" filterUnits="userSpaceOnUse" color-interpolation-filters="sRGB">
<feFlood flood-opacity="0" result="BackgroundImageFix"/>
<feBlend mode="normal" in="SourceGraphic" in2="BackgroundImageFix" result="shape"/>
<feGaussianBlur stdDeviation="0.05" result="effect1_foregroundBlur_83_3443"/>
</filter>
<filter id="filter10_f_83_3443" x="16.8657" y="38.9259" width="3.18291" height="0.299998" filterUnits="userSpaceOnUse" color-interpolation-filters="sRGB">
<feFlood flood-opacity="0" result="BackgroundImageFix"/>
<feBlend mode="normal" in="SourceGraphic" in2="BackgroundImageFix" result="shape"/>
<feGaussianBlur stdDeviation="0.05" result="effect1_foregroundBlur_83_3443"/>
</filter>
<filter id="filter11_f_83_3443" x="28.8851" y="40.8244" width="3.18291" height="0.299998" filterUnits="userSpaceOnUse" color-interpolation-filters="sRGB">
<feFlood flood-opacity="0" result="BackgroundImageFix"/>
<feBlend mode="normal" in="SourceGraphic" in2="BackgroundImageFix" result="shape"/>
<feGaussianBlur stdDeviation="0.05" result="effect1_foregroundBlur_83_3443"/>
</filter>
<filter id="filter12_f_83_3443" x="16.8657" y="40.8244" width="3.18291" height="0.299998" filterUnits="userSpaceOnUse" color-interpolation-filters="sRGB">
<feFlood flood-opacity="0" result="BackgroundImageFix"/>
<feBlend mode="normal" in="SourceGraphic" in2="BackgroundImageFix" result="shape"/>
<feGaussianBlur stdDeviation="0.05" result="effect1_foregroundBlur_83_3443"/>
</filter>
<filter id="filter13_f_83_3443" x="28.8851" y="42.7228" width="3.18291" height="0.299998" filterUnits="userSpaceOnUse" color-interpolation-filters="sRGB">
<feFlood flood-opacity="0" result="BackgroundImageFix"/>
<feBlend mode="normal" in="SourceGraphic" in2="BackgroundImageFix" result="shape"/>
<feGaussianBlur stdDeviation="0.05" result="effect1_foregroundBlur_83_3443"/>
</filter>
<filter id="filter14_f_83_3443" x="16.8657" y="42.7228" width="3.18291" height="0.299998" filterUnits="userSpaceOnUse" color-interpolation-filters="sRGB">
<feFlood flood-opacity="0" result="BackgroundImageFix"/>
<feBlend mode="normal" in="SourceGraphic" in2="BackgroundImageFix" result="shape"/>
<feGaussianBlur stdDeviation="0.05" result="effect1_foregroundBlur_83_3443"/>
</filter>
<filter id="filter15_ii_83_3443" x="16.8817" y="7.20447" width="16.3306" height="18.7125" filterUnits="userSpaceOnUse" color-interpolation-filters="sRGB">
<feFlood flood-opacity="0" result="BackgroundImageFix"/>
<feBlend mode="normal" in="SourceGraphic" in2="BackgroundImageFix" result="shape"/>
<feColorMatrix in="SourceAlpha" type="matrix" values="0 0 0 0 0 0 0 0 0 0 0 0 0 0 0 0 0 0 127 0" result="hardAlpha"/>
<feOffset dx="1"/>
<feGaussianBlur stdDeviation="0.7"/>
<feComposite in2="hardAlpha" operator="arithmetic" k2="-1" k3="1"/>
<feColorMatrix type="matrix" values="0 0 0 0 0.913725 0 0 0 0 0.686275 0 0 0 0 0.592157 0 0 0 1 0"/>
<feBlend mode="normal" in2="shape" result="effect1_innerShadow_83_3443"/>
<feColorMatrix in="SourceAlpha" type="matrix" values="0 0 0 0 0 0 0 0 0 0 0 0 0 0 0 0 0 0 127 0" result="hardAlpha"/>
<feOffset dy="0.2"/>
<feGaussianBlur stdDeviation="0.375"/>
<feComposite in2="hardAlpha" operator="arithmetic" k2="-1" k3="1"/>
<feColorMatrix type="matrix" values="0 0 0 0 0.780392 0 0 0 0 0.568627 0 0 0 0 0.486275 0 0 0 1 0"/>
<feBlend mode="normal" in2="effect1_innerShadow_83_3443" result="effect2_innerShadow_83_3443"/>
</filter>
<filter id="filter16_f_83_3443" x="21.9534" y="14.2166" width="4.62012" height="6.35007" filterUnits="userSpaceOnUse" color-interpolation-filters="sRGB">
<feFlood flood-opacity="0" result="BackgroundImageFix"/>
<feBlend mode="normal" in="SourceGraphic" in2="BackgroundImageFix" result="shape"/>
<feGaussianBlur stdDeviation="0.5" result="effect1_foregroundBlur_83_3443"/>
</filter>
<filter id="filter17_f_83_3443" x="22.8684" y="14.7306" width="3.21592" height="4.75007" filterUnits="userSpaceOnUse" color-interpolation-filters="sRGB">
<feFlood flood-opacity="0" result="BackgroundImageFix"/>
<feBlend mode="normal" in="SourceGraphic" in2="BackgroundImageFix" result="shape"/>
<feGaussianBlur stdDeviation="0.1" result="effect1_foregroundBlur_83_3443"/>
</filter>
<filter id="filter18_f_83_3443" x="21.8124" y="20.0362" width="5.32756" height="2.1092" filterUnits="userSpaceOnUse" color-interpolation-filters="sRGB">
<feFlood flood-opacity="0" result="BackgroundImageFix"/>
<feBlend mode="normal" in="SourceGraphic" in2="BackgroundImageFix" result="shape"/>
<feGaussianBlur stdDeviation="0.05" result="effect1_foregroundBlur_83_3443"/>
</filter>
<filter id="filter19_ii_83_3443" x="14.8215" y="2.68979" width="19.3091" height="12.2848" filterUnits="userSpaceOnUse" color-interpolation-filters="sRGB">
<feFlood flood-opacity="0" result="BackgroundImageFix"/>
<feBlend mode="normal" in="SourceGraphic" in2="BackgroundImageFix" result="shape"/>
<feColorMatrix in="SourceAlpha" type="matrix" values="0 0 0 0 0 0 0 0 0 0 0 0 0 0 0 0 0 0 127 0" result="hardAlpha"/>
<feOffset dy="-0.5"/>
<feGaussianBlur stdDeviation="0.625"/>
<feComposite in2="hardAlpha" operator="arithmetic" k2="-1" k3="1"/>
<feColorMatrix type="matrix" values="0 0 0 0 0.137255 0 0 0 0 0.0901961 0 0 0 0 0.145098 0 0 0 1 0"/>
<feBlend mode="normal" in2="shape" result="effect1_innerShadow_83_3443"/>
<feColorMatrix in="SourceAlpha" type="matrix" values="0 0 0 0 0 0 0 0 0 0 0 0 0 0 0 0 0 0 127 0" result="hardAlpha"/>
<feOffset dy="-0.2"/>
<feGaussianBlur stdDeviation="0.2"/>
<feComposite in2="hardAlpha" operator="arithmetic" k2="-1" k3="1"/>
<feColorMatrix type="matrix" values="0 0 0 0 0.0784314 0 0 0 0 0.0352941 0 0 0 0 0.0470588 0 0 0 1 0"/>
<feBlend mode="normal" in2="effect1_innerShadow_83_3443" result="effect2_innerShadow_83_3443"/>
</filter>
<filter id="filter20_i_83_3443" x="26.8599" y="11.0352" width="3.45828" height="1.68565" filterUnits="userSpaceOnUse" color-interpolation-filters="sRGB">
<feFlood flood-opacity="0" result="BackgroundImageFix"/>
<feBlend mode="normal" in="SourceGraphic" in2="BackgroundImageFix" result="shape"/>
<feColorMatrix in="SourceAlpha" type="matrix" values="0 0 0 0 0 0 0 0 0 0 0 0 0 0 0 0 0 0 127 0" result="hardAlpha"/>
<feOffset dx="0.1" dy="-0.2"/>
<feGaussianBlur stdDeviation="0.125"/>
<feComposite in2="hardAlpha" operator="arithmetic" k2="-1" k3="1"/>
<feColorMatrix type="matrix" values="0 0 0 0 0.0588235 0 0 0 0 0.054902 0 0 0 0 0.0588235 0 0 0 1 0"/>
<feBlend mode="normal" in2="shape" result="effect1_innerShadow_83_3443"/>
</filter>
<filter id="filter21_i_83_3443" x="18.9757" y="11.0573" width="3.45828" height="1.66352" filterUnits="userSpaceOnUse" color-interpolation-filters="sRGB">
<feFlood flood-opacity="0" result="BackgroundImageFix"/>
<feBlend mode="normal" in="SourceGraphic" in2="BackgroundImageFix" result="shape"/>
<feColorMatrix in="SourceAlpha" type="matrix" values="0 0 0 0 0 0 0 0 0 0 0 0 0 0 0 0 0 0 127 0" result="hardAlpha"/>
<feOffset dx="0.1" dy="-0.2"/>
<feGaussianBlur stdDeviation="0.125"/>
<feComposite in2="hardAlpha" operator="arithmetic" k2="-1" k3="1"/>
<feColorMatrix type="matrix" values="0 0 0 0 0.0588235 0 0 0 0 0.054902 0 0 0 0 0.0588235 0 0 0 1 0"/>
<feBlend mode="normal" in2="shape" result="effect1_innerShadow_83_3443"/>
</filter>
<filter id="filter22_if_83_3443" x="15.48" y="4.19811" width="9.77646" height="8.73769" filterUnits="userSpaceOnUse" color-interpolation-filters="sRGB">
<feFlood flood-opacity="0" result="BackgroundImageFix"/>
<feBlend mode="normal" in="SourceGraphic" in2="BackgroundImageFix" result="shape"/>
<feColorMatrix in="SourceAlpha" type="matrix" values="0 0 0 0 0 0 0 0 0 0 0 0 0 0 0 0 0 0 127 0" result="hardAlpha"/>
<feOffset dx="0.4" dy="0.2"/>
<feGaussianBlur stdDeviation="0.2"/>
<feComposite in2="hardAlpha" operator="arithmetic" k2="-1" k3="1"/>
<feColorMatrix type="matrix" values="0 0 0 0 0.286275 0 0 0 0 0.243137 0 0 0 0 0.227451 0 0 0 1 0"/>
<feBlend mode="normal" in2="shape" result="effect1_innerShadow_83_3443"/>
<feGaussianBlur stdDeviation="0.125" result="effect2_foregroundBlur_83_3443"/>
</filter>
<filter id="filter23_f_83_3443" x="24.2535" y="4.71105" width="9.40149" height="8.47626" filterUnits="userSpaceOnUse" color-interpolation-filters="sRGB">
<feFlood flood-opacity="0" result="BackgroundImageFix"/>
<feBlend mode="normal" in="SourceGraphic" in2="BackgroundImageFix" result="shape"/>
<feGaussianBlur stdDeviation="0.125" result="effect1_foregroundBlur_83_3443"/>
</filter>
<filter id="filter24_f_83_3443" x="26.698" y="14.4766" width="1.08025" height="0.944461" filterUnits="userSpaceOnUse" color-interpolation-filters="sRGB">
<feFlood flood-opacity="0" result="BackgroundImageFix"/>
<feBlend mode="normal" in="SourceGraphic" in2="BackgroundImageFix" result="shape"/>
<feGaussianBlur stdDeviation="0.05" result="effect1_foregroundBlur_83_3443"/>
</filter>
<filter id="filter25_f_83_3443" x="28.008" y="14.6392" width="1.13682" height="1.17012" filterUnits="userSpaceOnUse" color-interpolation-filters="sRGB">
<feFlood flood-opacity="0" result="BackgroundImageFix"/>
<feBlend mode="normal" in="SourceGraphic" in2="BackgroundImageFix" result="shape"/>
<feGaussianBlur stdDeviation="0.1" result="effect1_foregroundBlur_83_3443"/>
</filter>
<filter id="filter26_f_83_3443" x="21.3437" y="14.5441" width="1.27952" height="1.36032" filterUnits="userSpaceOnUse" color-interpolation-filters="sRGB">
<feFlood flood-opacity="0" result="BackgroundImageFix"/>
<feBlend mode="normal" in="SourceGraphic" in2="BackgroundImageFix" result="shape"/>
<feGaussianBlur stdDeviation="0.1" result="effect1_foregroundBlur_83_3443"/>
</filter>
<filter id="filter27_f_83_3443" x="20.1615" y="14.4644" width="1.26958" height="0.956752" filterUnits="userSpaceOnUse" color-interpolation-filters="sRGB">
<feFlood flood-opacity="0" result="BackgroundImageFix"/>
<feBlend mode="normal" in="SourceGraphic" in2="BackgroundImageFix" result="shape"/>
<feGaussianBlur stdDeviation="0.05" result="effect1_foregroundBlur_83_3443"/>
</filter>
<filter id="filter28_f_83_3443" x="15.48" y="14.4131" width="1.74341" height="3.31902" filterUnits="userSpaceOnUse" color-interpolation-filters="sRGB">
<feFlood flood-opacity="0" result="BackgroundImageFix"/>
<feBlend mode="normal" in="SourceGraphic" in2="BackgroundImageFix" result="shape"/>
<feGaussianBlur stdDeviation="0.125" result="effect1_foregroundBlur_83_3443"/>
</filter>
<filter id="filter29_f_83_3443" x="31.4849" y="14.151" width="2.41968" height="3.85502" filterUnits="userSpaceOnUse" color-interpolation-filters="sRGB">
<feFlood flood-opacity="0" result="BackgroundImageFix"/>
<feBlend mode="normal" in="SourceGraphic" in2="BackgroundImageFix" result="shape"/>
<feGaussianBlur stdDeviation="0.25" result="effect1_foregroundBlur_83_3443"/>
</filter>
<filter id="filter30_f_83_3443" x="19.0413" y="11.2568" width="3.23279" height="1.36535" filterUnits="userSpaceOnUse" color-interpolation-filters="sRGB">
<feFlood flood-opacity="0" result="BackgroundImageFix"/>
<feBlend mode="normal" in="SourceGraphic" in2="BackgroundImageFix" result="shape"/>
<feGaussianBlur stdDeviation="0.125" result="effect1_foregroundBlur_83_3443"/>
</filter>
<filter id="filter31_f_83_3443" x="26.96" y="11.1877" width="3.23279" height="1.36535" filterUnits="userSpaceOnUse" color-interpolation-filters="sRGB">
<feFlood flood-opacity="0" result="BackgroundImageFix"/>
<feBlend mode="normal" in="SourceGraphic" in2="BackgroundImageFix" result="shape"/>
<feGaussianBlur stdDeviation="0.125" result="effect1_foregroundBlur_83_3443"/>
</filter>
<filter id="filter32_ii_83_3443" x="16.8762" y="12.6523" width="15.385" height="6.14" filterUnits="userSpaceOnUse" color-interpolation-filters="sRGB">
<feFlood flood-opacity="0" result="BackgroundImageFix"/>
<feBlend mode="normal" in="SourceGraphic" in2="BackgroundImageFix" result="shape"/>
<feColorMatrix in="SourceAlpha" type="matrix" values="0 0 0 0 0 0 0 0 0 0 0 0 0 0 0 0 0 0 127 0" result="hardAlpha"/>
<feOffset dx="-0.1" dy="0.1"/>
<feGaussianBlur stdDeviation="0.1"/>
<feComposite in2="hardAlpha" operator="arithmetic" k2="-1" k3="1"/>
<feColorMatrix type="matrix" values="0 0 0 0 0.381221 0 0 0 0 0.2699 0 0 0 0 0.482422 0 0 0 1 0"/>
<feBlend mode="normal" in2="shape" result="effect1_innerShadow_83_3443"/>
<feColorMatrix in="SourceAlpha" type="matrix" values="0 0 0 0 0 0 0 0 0 0 0 0 0 0 0 0 0 0 127 0" result="hardAlpha"/>
<feOffset dy="-0.1"/>
<feGaussianBlur stdDeviation="0.05"/>
<feComposite in2="hardAlpha" operator="arithmetic" k2="-1" k3="1"/>
<feColorMatrix type="matrix" values="0 0 0 0 0.2 0 0 0 0 0.109804 0 0 0 0 0.211765 0 0 0 1 0"/>
<feBlend mode="normal" in2="effect1_innerShadow_83_3443" result="effect2_innerShadow_83_3443"/>
</filter>
<linearGradient id="paint0_linear_83_3443" x1="18.2277" y1="6.93079" x2="47.3918" y2="34.284" gradientUnits="userSpaceOnUse">
<stop stop-color="#EFBE85"/>
<stop offset="0.567876" stop-color="#E8AC81"/>
<stop offset="1" stop-color="#D6753D"/>
</linearGradient>
<linearGradient id="paint1_linear_83_3443" x1="45.5937" y1="19.9627" x2="14.1874" y2="19.9627" gradientUnits="userSpaceOnUse">
<stop stop-color="#509245"/>
<stop offset="1" stop-color="#44803D"/>
</linearGradient>
<radialGradient id="paint2_radial_83_3443" cx="0" cy="0" r="1" gradientUnits="userSpaceOnUse" gradientTransform="translate(10.1562 38.6189) rotate(-56.7456) scale(27.3544 37.4377)">
<stop stop-color="#25585F"/>
<stop offset="1" stop-color="#25585F" stop-opacity="0"/>
</radialGradient>
<radialGradient id="paint3_radial_83_3443" cx="0" cy="0" r="1" gradientUnits="userSpaceOnUse" gradientTransform="translate(44.8437 38.2439) rotate(-125.417) scale(25.8833 25.6023)">
<stop stop-color="#358175"/>
<stop offset="1" stop-color="#358175" stop-opacity="0"/>
</radialGradient>
<linearGradient id="paint4_linear_83_3443" x1="20.6562" y1="5.34171" x2="47.375" y2="36.5605" gradientUnits="userSpaceOnUse">
<stop stop-color="#FFD59C"/>
<stop offset="1" stop-color="#F69C5B"/>
</linearGradient>
<linearGradient id="paint5_linear_83_3443" x1="-6.85944" y1="38.4783" x2="43.8593" y2="38.4783" gradientUnits="userSpaceOnUse">
<stop stop-color="#D18F7B"/>
<stop offset="1" stop-color="#F1B58B"/>
</linearGradient>
<linearGradient id="paint6_linear_83_3443" x1="5.14056" y1="7.82205" x2="5.14055" y2="35.4783" gradientUnits="userSpaceOnUse">
<stop stop-color="#D78248"/>
<stop offset="1" stop-color="#D78248" stop-opacity="0"/>
</linearGradient>
<radialGradient id="paint7_radial_83_3443" cx="0" cy="0" r="1" gradientUnits="userSpaceOnUse" gradientTransform="translate(3.50622 6.49736) rotate(90) scale(13.9671 0.926467)">
<stop offset="0.355159" stop-color="#BC7B53"/>
<stop offset="1" stop-color="#BC7B53" stop-opacity="0"/>
</radialGradient>
<radialGradient id="paint8_radial_83_3443" cx="0" cy="0" r="1" gradientUnits="userSpaceOnUse" gradientTransform="translate(24.4998 23.947) rotate(90) scale(21.0703 9.32797)">
<stop stop-color="#61342D"/>
<stop offset="1" stop-color="#764747"/>
</radialGradient>
<radialGradient id="paint9_radial_83_3443" cx="0" cy="0" r="1" gradientUnits="userSpaceOnUse" gradientTransform="translate(34.4843 30.7439) rotate(90) scale(12.5625 4.40625)">
<stop stop-color="#9A6D66"/>
<stop offset="1" stop-color="#9A6D66" stop-opacity="0"/>
</radialGradient>
<radialGradient id="paint10_radial_83_3443" cx="0" cy="0" r="1" gradientUnits="userSpaceOnUse" gradientTransform="translate(19.5781 28.6345) rotate(135) scale(3.24827 2.6185)">
<stop stop-color="#61332B"/>
<stop offset="1" stop-color="#61332B" stop-opacity="0"/>
</radialGradient>
<radialGradient id="paint11_radial_83_3443" cx="0" cy="0" r="1" gradientUnits="userSpaceOnUse" gradientTransform="translate(40.9912 42.3689) rotate(-90) scale(15.2813 5.77659)">
<stop stop-color="#7C5A5A"/>
<stop offset="1" stop-color="#735451"/>
</radialGradient>
<linearGradient id="paint12_linear_83_3443" x1="38.2603" y1="45.6984" x2="38.2603" y2="39.9731" gradientUnits="userSpaceOnUse">
<stop stop-color="#614451"/>
<stop offset="1" stop-color="#614451" stop-opacity="0"/>
</linearGradient>
<linearGradient id="paint13_linear_83_3443" x1="34.1093" y1="43.9158" x2="35.3281" y2="43.8923" gradientUnits="userSpaceOnUse">
<stop offset="0.253974" stop-color="#4F2737"/>
<stop offset="1" stop-color="#4F2737" stop-opacity="0"/>
</linearGradient>
<linearGradient id="paint14_linear_83_3443" x1="11.2013" y1="42.2381" x2="14.7931" y2="42.2381" gradientUnits="userSpaceOnUse">
<stop stop-color="#623D44"/>
<stop offset="1" stop-color="#4F2E37"/>
</linearGradient>
<radialGradient id="paint15_radial_83_3443" cx="0" cy="0" r="1" gradientUnits="userSpaceOnUse" gradientTransform="translate(17.6872 44.6918) rotate(180) scale(10.381 25.9211)">
<stop offset="0.575758" stop-color="#5D3841" stop-opacity="0"/>
<stop offset="1" stop-color="#7F6260"/>
</radialGradient>
<radialGradient id="paint16_radial_83_3443" cx="0" cy="0" r="1" gradientUnits="userSpaceOnUse" gradientTransform="translate(23.2812 30.4627) scale(5.39062 17.6953)">
<stop stop-color="#ABA5A8"/>
<stop offset="1" stop-color="#544B50"/>
</radialGradient>
<linearGradient id="paint17_linear_83_3443" x1="27.5813" y1="27.5788" x2="31.7765" y2="27.5788" gradientUnits="userSpaceOnUse">
<stop stop-color="#613327"/>
<stop offset="0.371011" stop-color="#764440"/>
</linearGradient>
<radialGradient id="paint18_radial_83_3443" cx="0" cy="0" r="1" gradientUnits="userSpaceOnUse" gradientTransform="translate(32.3465 29.1832) rotate(-115.221) scale(5.61069 3.3938)">
<stop stop-color="#90645E"/>
<stop offset="1" stop-color="#90645E" stop-opacity="0"/>
</radialGradient>
<radialGradient id="paint19_radial_83_3443" cx="0" cy="0" r="1" gradientUnits="userSpaceOnUse" gradientTransform="translate(30.0079 30.697) rotate(-125.283) scale(2.45485 0.447089)">
<stop stop-color="#8A5D57"/>
<stop offset="1" stop-color="#8A5D57" stop-opacity="0"/>
</radialGradient>
<radialGradient id="paint20_radial_83_3443" cx="0" cy="0" r="1" gradientUnits="userSpaceOnUse" gradientTransform="translate(27.4506 24.7205) rotate(69.6775) scale(1.42462 2.66662)">
<stop offset="0.358549" stop-color="#481E13"/>
<stop offset="1" stop-color="#4A1D14" stop-opacity="0"/>
</radialGradient>
<linearGradient id="paint21_linear_83_3443" x1="21.4161" y1="27.5788" x2="17.2209" y2="27.5788" gradientUnits="userSpaceOnUse">
<stop stop-color="#744036"/>
<stop offset="0.639259" stop-color="#72433E"/>
</linearGradient>
<radialGradient id="paint22_radial_83_3443" cx="0" cy="0" r="1" gradientUnits="userSpaceOnUse" gradientTransform="translate(20.7734 30.5564) rotate(-88.8542) scale(4.68844 1.89385)">
<stop stop-color="#875955"/>
<stop offset="1" stop-color="#875955" stop-opacity="0"/>
</radialGradient>
<linearGradient id="paint23_linear_83_3443" x1="18.664" y1="25.4236" x2="19.5077" y2="25.7517" gradientUnits="userSpaceOnUse">
<stop stop-color="#6F5048"/>
<stop offset="1" stop-color="#6F5048" stop-opacity="0"/>
</linearGradient>
<radialGradient id="paint24_radial_83_3443" cx="0" cy="0" r="1" gradientUnits="userSpaceOnUse" gradientTransform="translate(21.5468 24.7205) rotate(115.115) scale(1.65662 3.10089)">
<stop offset="0.219333" stop-color="#481E13"/>
<stop offset="1" stop-color="#4A1D14" stop-opacity="0"/>
</radialGradient>
<radialGradient id="paint25_radial_83_3443" cx="0" cy="0" r="1" gradientUnits="userSpaceOnUse" gradientTransform="translate(24.5061 25.8689) rotate(90) scale(4.21651 3.08443)">
<stop offset="0.298184" stop-color="#A87366"/>
<stop offset="1" stop-color="#875841"/>
</radialGradient>
<radialGradient id="paint26_radial_83_3443" cx="0" cy="0" r="1" gradientUnits="userSpaceOnUse" gradientTransform="translate(34.4551 35.6737) rotate(136.93) scale(2.31806 3.33941)">
<stop offset="0.280493" stop-color="#E9BDA6"/>
<stop offset="1" stop-color="#DDA88B"/>
</radialGradient>
<radialGradient id="paint27_radial_83_3443" cx="0" cy="0" r="1" gradientUnits="userSpaceOnUse" gradientTransform="translate(34.6681 35.2515) rotate(-40.3999) scale(1.21927 0.726311)">
<stop stop-color="#FCD2BC"/>
<stop offset="1" stop-color="#FCD2BC" stop-opacity="0"/>
</radialGradient>
<radialGradient id="paint28_radial_83_3443" cx="0" cy="0" r="1" gradientUnits="userSpaceOnUse" gradientTransform="translate(17.1406 36.0366) rotate(-170.853) scale(2.80125 8.77724)">
<stop stop-color="#B88165"/>
<stop offset="1" stop-color="#CD9A86"/>
</radialGradient>
<linearGradient id="paint29_linear_83_3443" x1="33.2656" y1="37.2127" x2="26.7031" y2="37.2127" gradientUnits="userSpaceOnUse">
<stop stop-color="#E9266F"/>
<stop offset="1" stop-color="#BF1B74"/>
</linearGradient>
<linearGradient id="paint30_linear_83_3443" x1="15.9712" y1="35.3845" x2="16.6133" y2="35.3845" gradientUnits="userSpaceOnUse">
<stop stop-color="#6D6670"/>
<stop offset="1" stop-color="#6D6670" stop-opacity="0"/>
</linearGradient>
<linearGradient id="paint31_linear_83_3443" x1="19.7944" y1="42.0408" x2="13.3437" y2="42.0408" gradientUnits="userSpaceOnUse">
<stop stop-color="#EAB9AD"/>
<stop offset="0.716025" stop-color="#D4A093"/>
</linearGradient>
<radialGradient id="paint32_radial_83_3443" cx="0" cy="0" r="1" gradientUnits="userSpaceOnUse" gradientTransform="translate(18.7812 38.0644) rotate(180) scale(2.50781 0.98932)">
<stop stop-color="#F2C6BB"/>
<stop offset="1" stop-color="#F2C6BB" stop-opacity="0"/>
</radialGradient>
<radialGradient id="paint33_radial_83_3443" cx="0" cy="0" r="1" gradientUnits="userSpaceOnUse" gradientTransform="translate(18.8047 39.9863) rotate(180) scale(2.29688 0.906107)">
<stop stop-color="#F2C6BB"/>
<stop offset="1" stop-color="#F2C6BB" stop-opacity="0"/>
</radialGradient>
<radialGradient id="paint34_radial_83_3443" cx="0" cy="0" r="1" gradientUnits="userSpaceOnUse" gradientTransform="translate(18.875 41.9081) rotate(180) scale(2.01562 0.795155)">
<stop stop-color="#F2C6BB"/>
<stop offset="1" stop-color="#F2C6BB" stop-opacity="0"/>
</radialGradient>
<radialGradient id="paint35_radial_83_3443" cx="0" cy="0" r="1" gradientUnits="userSpaceOnUse" gradientTransform="translate(18.9804 43.9472) rotate(180) scale(2.25 0.887615)">
<stop stop-color="#F2C6BB"/>
<stop offset="1" stop-color="#F2C6BB" stop-opacity="0"/>
</radialGradient>
<linearGradient id="paint36_linear_83_3443" x1="17.0937" y1="45.4219" x2="17.0937" y2="43.8047" gradientUnits="userSpaceOnUse">
<stop stop-color="#C38792"/>
<stop offset="1" stop-color="#C38792" stop-opacity="0"/>
</linearGradient>
<linearGradient id="paint37_linear_83_3443" x1="34.203" y1="41.4314" x2="28.4812" y2="41.4314" gradientUnits="userSpaceOnUse">
<stop stop-color="#FFD7C3"/>
<stop offset="0.806957" stop-color="#D19890"/>
</linearGradient>
<radialGradient id="paint38_radial_83_3443" cx="0" cy="0" r="1" gradientUnits="userSpaceOnUse" gradientTransform="translate(32.3748 38.0644) scale(2.55469 1.00781)">
<stop stop-color="#FFD6C4"/>
<stop offset="1" stop-color="#FFD6C4" stop-opacity="0"/>
</radialGradient>
<radialGradient id="paint39_radial_83_3443" cx="0" cy="0" r="1" gradientUnits="userSpaceOnUse" gradientTransform="translate(32.2811 39.9863) scale(2.4375 0.961582)">
<stop stop-color="#FFD6C4"/>
<stop offset="1" stop-color="#FFD6C4" stop-opacity="0"/>
</radialGradient>
<radialGradient id="paint40_radial_83_3443" cx="0" cy="0" r="1" gradientUnits="userSpaceOnUse" gradientTransform="translate(32.1405 41.9081) scale(2.34375 0.924599)">
<stop stop-color="#FFD6C4"/>
<stop offset="1" stop-color="#FFD6C4" stop-opacity="0"/>
</radialGradient>
<radialGradient id="paint41_radial_83_3443" cx="0" cy="0" r="1" gradientUnits="userSpaceOnUse" gradientTransform="translate(31.9295 43.9472) scale(2.15625 0.850631)">
<stop stop-color="#FFD6C4"/>
<stop offset="1" stop-color="#FFD6C4" stop-opacity="0"/>
</radialGradient>
<linearGradient id="paint42_linear_83_3443" x1="16.6719" y1="32.947" x2="32.9812" y2="32.947" gradientUnits="userSpaceOnUse">
<stop stop-color="#564567"/>
<stop offset="1" stop-color="#564567"/>
</linearGradient>
<linearGradient id="paint43_linear_83_3443" x1="25.101" y1="31.5408" x2="25.101" y2="33.2985" gradientUnits="userSpaceOnUse">
<stop stop-color="#DCD5E1"/>
<stop offset="1" stop-color="#B2ACB9"/>
</linearGradient>
<linearGradient id="paint44_linear_83_3443" x1="29.0352" y1="39.1541" x2="31.7773" y2="39.1541" gradientUnits="userSpaceOnUse">
<stop stop-color="#B6736C"/>
<stop offset="1" stop-color="#B6736C" stop-opacity="0"/>
</linearGradient>
<linearGradient id="paint45_linear_83_3443" x1="19.8986" y1="39.1541" x2="16.6016" y2="39.1541" gradientUnits="userSpaceOnUse">
<stop stop-color="#E4AF9D"/>
<stop offset="1" stop-color="#D29C80" stop-opacity="0"/>
<stop offset="1" stop-color="#E4AF9D" stop-opacity="0"/>
</linearGradient>
<linearGradient id="paint46_linear_83_3443" x1="29.0352" y1="41.0525" x2="31.7773" y2="41.0525" gradientUnits="userSpaceOnUse">
<stop stop-color="#B6736C"/>
<stop offset="1" stop-color="#B6736C" stop-opacity="0"/>
</linearGradient>
<linearGradient id="paint47_linear_83_3443" x1="19.8986" y1="41.0525" x2="16.6016" y2="41.0525" gradientUnits="userSpaceOnUse">
<stop stop-color="#E4AF9D"/>
<stop offset="1" stop-color="#D29C80" stop-opacity="0"/>
<stop offset="1" stop-color="#E4AF9D" stop-opacity="0"/>
</linearGradient>
<linearGradient id="paint48_linear_83_3443" x1="29.0352" y1="42.9509" x2="31.7773" y2="42.9509" gradientUnits="userSpaceOnUse">
<stop stop-color="#B6736C"/>
<stop offset="1" stop-color="#B6736C" stop-opacity="0"/>
</linearGradient>
<linearGradient id="paint49_linear_83_3443" x1="19.8986" y1="42.9509" x2="16.6016" y2="42.9509" gradientUnits="userSpaceOnUse">
<stop stop-color="#E4AF9D"/>
<stop offset="1" stop-color="#D29C80" stop-opacity="0"/>
<stop offset="1" stop-color="#E4AF9D" stop-opacity="0"/>
</linearGradient>
<radialGradient id="paint50_radial_83_3443" cx="0" cy="0" r="1" gradientUnits="userSpaceOnUse" gradientTransform="translate(31.6062 17.8727) rotate(69.6569) scale(3.23081 3.83795)">
<stop offset="0.214643" stop-color="#313131"/>
<stop offset="1" stop-color="#1A161E"/>
</radialGradient>
<radialGradient id="paint51_radial_83_3443" cx="0" cy="0" r="1" gradientUnits="userSpaceOnUse" gradientTransform="translate(15.3915 18.6082) rotate(17.4472) scale(2.32149 7.16196)">
<stop stop-color="#564943"/>
<stop offset="0.745836" stop-color="#1E191C"/>
</radialGradient>
<radialGradient id="paint52_radial_83_3443" cx="0" cy="0" r="1" gradientUnits="userSpaceOnUse" gradientTransform="translate(28.6881 16.4607) rotate(180) scale(7.84176 13.872)">
<stop stop-color="#FFDCC0"/>
<stop offset="1" stop-color="#D6A195"/>
</radialGradient>
<linearGradient id="paint53_linear_83_3443" x1="32.2123" y1="18.9889" x2="25.6833" y2="18.9889" gradientUnits="userSpaceOnUse">
<stop stop-color="#FFD6BA"/>
<stop offset="1" stop-color="#FFD6BA" stop-opacity="0"/>
</linearGradient>
<radialGradient id="paint54_radial_83_3443" cx="0" cy="0" r="1" gradientUnits="userSpaceOnUse" gradientTransform="translate(25.3515 7.20447) rotate(90) scale(19.538 16.1798)">
<stop offset="0.754072" stop-color="#BC847A" stop-opacity="0"/>
<stop offset="1" stop-color="#A36F64"/>
</radialGradient>
<radialGradient id="paint55_radial_83_3443" cx="0" cy="0" r="1" gradientUnits="userSpaceOnUse" gradientTransform="translate(28.1473 14.4914) rotate(-90) scale(1.72252 2.13162)">
<stop offset="0.325" stop-color="#F6B8A8"/>
<stop offset="1" stop-color="#F6B8A8" stop-opacity="0"/>
</radialGradient>
<radialGradient id="paint56_radial_83_3443" cx="0" cy="0" r="1" gradientUnits="userSpaceOnUse" gradientTransform="translate(21.0262 14.5611) rotate(-89.7942) scale(1.64143 1.78626)">
<stop offset="0.377617" stop-color="#D39991"/>
<stop offset="1" stop-color="#D39991" stop-opacity="0"/>
</radialGradient>
<radialGradient id="paint57_radial_83_3443" cx="0" cy="0" r="1" gradientUnits="userSpaceOnUse" gradientTransform="translate(29.6257 17.9428) rotate(176.388) scale(12.7693 32.6192)">
<stop offset="0.835902" stop-color="#E6AD97" stop-opacity="0"/>
<stop offset="1" stop-color="#E6AD97"/>
</radialGradient>
<radialGradient id="paint58_radial_83_3443" cx="0" cy="0" r="1" gradientUnits="userSpaceOnUse" gradientTransform="translate(16.2753 9.97278) rotate(-46.6112) scale(6.76562 2.47669)">
<stop offset="0.427646" stop-color="#9F6D5C"/>
<stop offset="1" stop-color="#9F6D5C" stop-opacity="0"/>
</radialGradient>
<radialGradient id="paint59_radial_83_3443" cx="0" cy="0" r="1" gradientUnits="userSpaceOnUse" gradientTransform="translate(28.1171 8.99224) rotate(121.159) scale(5.05347 4.17205)">
<stop offset="0.0780198" stop-color="#F6C3B0"/>
<stop offset="1" stop-color="#F6C3B0" stop-opacity="0"/>
</radialGradient>
<linearGradient id="paint60_linear_83_3443" x1="25.7337" y1="17.4729" x2="24.4763" y2="17.5252" gradientUnits="userSpaceOnUse">
<stop offset="0.360477" stop-color="#FFDFC7"/>
<stop offset="1" stop-color="#FFDFC7" stop-opacity="0"/>
</linearGradient>
<radialGradient id="paint61_radial_83_3443" cx="0" cy="0" r="1" gradientUnits="userSpaceOnUse" gradientTransform="translate(25.1757 18.5016) rotate(90) scale(0.366154 1.15077)">
<stop stop-color="#FFDDC7"/>
<stop offset="1" stop-color="#FFDDC7" stop-opacity="0"/>
</radialGradient>
<linearGradient id="paint62_linear_83_3443" x1="24.4763" y1="19.1816" x2="24.4763" y2="18.4842" gradientUnits="userSpaceOnUse">
<stop stop-color="#D89793"/>
<stop offset="1" stop-color="#D89793" stop-opacity="0"/>
</linearGradient>
<radialGradient id="paint63_radial_83_3443" cx="0" cy="0" r="1" gradientUnits="userSpaceOnUse" gradientTransform="translate(25.3501 17.6473) rotate(155.369) scale(2.51011 4.03394)">
<stop offset="0.714105" stop-color="#D3968C" stop-opacity="0"/>
<stop offset="1" stop-color="#D3968C"/>
</radialGradient>
<linearGradient id="paint64_linear_83_3443" x1="24.4763" y1="14.9306" x2="24.4763" y2="15.944" gradientUnits="userSpaceOnUse">
<stop stop-color="#E8BBA8"/>
<stop offset="1" stop-color="#E8BBA8" stop-opacity="0"/>
</linearGradient>
<linearGradient id="paint65_linear_83_3443" x1="22.6735" y1="21.538" x2="23.1512" y2="20.2863" gradientUnits="userSpaceOnUse">
<stop stop-color="#ECBCAE"/>
<stop offset="1" stop-color="#ECBCAE" stop-opacity="0"/>
</linearGradient>
<radialGradient id="paint66_radial_83_3443" cx="0" cy="0" r="1" gradientUnits="userSpaceOnUse" gradientTransform="translate(24.4761 21.7697) rotate(-90) scale(1.0811 4.34955)">
<stop stop-color="#88014E"/>
<stop offset="1" stop-color="#86004D"/>
</radialGradient>
<linearGradient id="paint67_linear_83_3443" x1="34.7541" y1="7.96676" x2="17.3357" y2="7.96676" gradientUnits="userSpaceOnUse">
<stop stop-color="#443D40"/>
<stop offset="1" stop-color="#272127"/>
</linearGradient>
<radialGradient id="paint68_radial_83_3443" cx="0" cy="0" r="1" gradientUnits="userSpaceOnUse" gradientTransform="translate(16.6318 12.1223) rotate(-90) scale(5.25198 13.2816)">
<stop offset="0.535851" stop-color="#3E3433"/>
<stop offset="1" stop-color="#3E3433" stop-opacity="0"/>
</radialGradient>
<radialGradient id="paint69_radial_83_3443" cx="0" cy="0" r="1" gradientUnits="userSpaceOnUse" gradientTransform="translate(31.7672 14.0877) rotate(-87.4012) scale(3.77269 6.68446)">
<stop stop-color="#4F4D4D"/>
<stop offset="1" stop-color="#4F4D4D" stop-opacity="0"/>
</radialGradient>
<radialGradient id="paint70_radial_83_3443" cx="0" cy="0" r="1" gradientUnits="userSpaceOnUse" gradientTransform="translate(30.6358 4.67316) rotate(-146.667) scale(4.23492 3.10865)">
<stop stop-color="#5E5A5B"/>
<stop offset="1" stop-color="#5E5A5B" stop-opacity="0"/>
</radialGradient>
<radialGradient id="paint71_radial_83_3443" cx="0" cy="0" r="1" gradientUnits="userSpaceOnUse" gradientTransform="translate(23.1184 2.28468) rotate(58.4652) scale(2.59584 6.01074)">
<stop offset="0.286771" stop-color="#484646"/>
<stop offset="1" stop-color="#484646" stop-opacity="0"/>
</radialGradient>
<radialGradient id="paint72_radial_83_3443" cx="0" cy="0" r="1" gradientUnits="userSpaceOnUse" gradientTransform="translate(24.8565 5.6735) rotate(180) scale(3.30168 1.22538)">
<stop stop-color="#423C3F"/>
<stop offset="1" stop-color="#423C3F" stop-opacity="0"/>
</radialGradient>
<radialGradient id="paint73_radial_83_3443" cx="0" cy="0" r="1" gradientUnits="userSpaceOnUse" gradientTransform="translate(16.3303 11.5872) rotate(-57.7244) scale(9.03991 10.0153)">
<stop offset="0.0926981" stop-color="#0B0306"/>
<stop offset="0.311222" stop-color="#1C0C20"/>
<stop offset="1" stop-color="#1C0C20" stop-opacity="0"/>
</radialGradient>
<radialGradient id="paint74_radial_83_3443" cx="0" cy="0" r="1" gradientUnits="userSpaceOnUse" gradientTransform="translate(29.5975 6.83869) scale(4.58757 1.79366)">
<stop stop-color="#4E494B"/>
<stop offset="1" stop-color="#4E494B" stop-opacity="0"/>
</radialGradient>
<radialGradient id="paint75_radial_83_3443" cx="0" cy="0" r="1" gradientUnits="userSpaceOnUse" gradientTransform="translate(28.4269 11.3946) rotate(-43.6141) scale(5.54982 10.1603)">
<stop offset="0.856906" stop-color="#545051" stop-opacity="0"/>
<stop offset="1" stop-color="#545051"/>
</radialGradient>
<radialGradient id="paint76_radial_83_3443" cx="0" cy="0" r="1" gradientUnits="userSpaceOnUse" gradientTransform="translate(27.0981 9.17993) rotate(6.66666) scale(4.90549 2.05383)">
<stop stop-color="#200E25"/>
<stop offset="1" stop-color="#200E25" stop-opacity="0"/>
</radialGradient>
<radialGradient id="paint77_radial_83_3443" cx="0" cy="0" r="1" gradientUnits="userSpaceOnUse" gradientTransform="translate(27.7493 15.0864) rotate(90) scale(1.21698 1.93574)">
<stop offset="0.80198" stop-color="#7D574A"/>
<stop offset="1" stop-color="#694B43"/>
<stop offset="1" stop-color="#804D49"/>
<stop offset="1" stop-color="#664842"/>
</radialGradient>
<radialGradient id="paint78_radial_83_3443" cx="0" cy="0" r="1" gradientUnits="userSpaceOnUse" gradientTransform="translate(27.4069 15.2126) rotate(-127.812) scale(0.56743 0.781216)">
<stop offset="0.765532" stop-color="#FFE6E2" stop-opacity="0"/>
<stop offset="0.966159" stop-color="#FFE6E2"/>
</radialGradient>
<linearGradient id="paint79_linear_83_3443" x1="28.9163" y1="15.1672" x2="28.4457" y2="15.4572" gradientUnits="userSpaceOnUse">
<stop stop-color="#B4948D"/>
<stop offset="1" stop-color="#B4948D" stop-opacity="0"/>
</linearGradient>
<radialGradient id="paint80_radial_83_3443" cx="0" cy="0" r="1" gradientUnits="userSpaceOnUse" gradientTransform="translate(21.2031 15.0864) rotate(90) scale(1.21704 1.93584)">
<stop offset="0.80198" stop-color="#7D574A"/>
<stop offset="1" stop-color="#694B43"/>
<stop offset="1" stop-color="#804D49"/>
<stop offset="1" stop-color="#664842"/>
</radialGradient>
<linearGradient id="paint81_linear_83_3443" x1="22.319" y1="15.1672" x2="21.8483" y2="15.4572" gradientUnits="userSpaceOnUse">
<stop stop-color="#B4948D"/>
<stop offset="1" stop-color="#B4948D" stop-opacity="0"/>
</linearGradient>
<radialGradient id="paint82_radial_83_3443" cx="0" cy="0" r="1" gradientUnits="userSpaceOnUse" gradientTransform="translate(20.7736 15.4152) rotate(-90.897) scale(0.741215 0.890971)">
<stop offset="0.765532" stop-color="#FFE6E2" stop-opacity="0"/>
<stop offset="0.966159" stop-color="#FFE6E2"/>
</radialGradient>
<linearGradient id="paint83_linear_83_3443" x1="34.1308" y1="15.2076" x2="32.3205" y2="18.472" gradientUnits="userSpaceOnUse">
<stop stop-color="#FFD6BD"/>
<stop offset="1" stop-color="#F0B8A6"/>
</linearGradient>
<radialGradient id="paint84_radial_83_3443" cx="0" cy="0" r="1" gradientUnits="userSpaceOnUse" gradientTransform="translate(31.4029 15.1071) rotate(74.3475) scale(3.4945 3.33402)">
<stop offset="0.856273" stop-color="#CE978E" stop-opacity="0"/>
<stop offset="1" stop-color="#CE978E"/>
</radialGradient>
<radialGradient id="paint85_radial_83_3443" cx="0" cy="0" r="1" gradientUnits="userSpaceOnUse" gradientTransform="translate(31.9434 15.9242) rotate(-53.9199) scale(2.00652 1.68186)">
<stop offset="0.663731" stop-color="#F7B99C"/>
<stop offset="1" stop-color="#F7B99C" stop-opacity="0"/>
</radialGradient>
<radialGradient id="paint86_radial_83_3443" cx="0" cy="0" r="1" gradientUnits="userSpaceOnUse" gradientTransform="translate(32.1145 16.1828) rotate(-69.2631) scale(2.48673 3.32261)">
<stop offset="0.803247" stop-color="#EBBB9D" stop-opacity="0"/>
<stop offset="1" stop-color="#EBBB9D"/>
</radialGradient>
<linearGradient id="paint87_linear_83_3443" x1="15.7015" y1="16.2636" x2="17.8888" y2="16.0726" gradientUnits="userSpaceOnUse">
<stop stop-color="#D19787"/>
<stop offset="1" stop-color="#C9887D"/>
</linearGradient>
<radialGradient id="paint88_radial_83_3443" cx="0" cy="0" r="1" gradientUnits="userSpaceOnUse" gradientTransform="translate(17.1028 16.0726) rotate(-173.034) scale(2.43774 2.6168)">
<stop offset="0.77507" stop-color="#E8AF99" stop-opacity="0"/>
<stop offset="1" stop-color="#E8AF99"/>
</radialGradient>
<radialGradient id="paint89_radial_83_3443" cx="0" cy="0" r="1" gradientUnits="userSpaceOnUse" gradientTransform="translate(17.1047 16.0726) rotate(170.26) scale(1.39482 1.71152)">
<stop stop-color="#C18472"/>
<stop offset="1" stop-color="#CA8B7A"/>
</radialGradient>
<linearGradient id="paint90_linear_83_3443" x1="32.6948" y1="14.651" x2="32.6948" y2="17.506" gradientUnits="userSpaceOnUse">
<stop stop-color="#F9BB9E"/>
<stop offset="1" stop-color="#F6BBA0"/>
</linearGradient>
<linearGradient id="paint91_linear_83_3443" x1="24.6196" y1="13.3612" x2="24.6196" y2="19.0331" gradientUnits="userSpaceOnUse">
<stop stop-color="#402857"/>
<stop offset="1" stop-color="#251732"/>
</linearGradient>
<radialGradient id="paint92_radial_83_3443" cx="0" cy="0" r="1" gradientUnits="userSpaceOnUse" gradientTransform="translate(17.5624 15.0173) scale(1.35937 4.07813)">
<stop stop-color="#52396B"/>
<stop offset="1" stop-color="#52396B" stop-opacity="0"/>
</radialGradient>
</defs>
</svg>
