<svg width="25" height="24" viewBox="0 0 25 24" fill="none" xmlns="http://www.w3.org/2000/svg">
<mask id="mask0_154_1597" style="mask-type:alpha" maskUnits="userSpaceOnUse" x="0" y="0" width="25" height="24">
<rect x="0.5" width="24" height="24" fill="#D9D9D9"/>
</mask>
<g mask="url(#mask0_154_1597)">
<path d="M10.5 20.9993C9.95 20.9993 9.47917 20.8035 9.0875 20.4118C8.69583 20.0202 8.5 19.5493 8.5 18.9993V8.82434C8.5 8.55767 8.55417 8.30351 8.6625 8.06184C8.77083 7.82017 8.91667 7.60767 9.1 7.42434L14.525 2.02434C14.775 1.79101 15.0708 1.64934 15.4125 1.59934C15.7542 1.54934 16.0833 1.60767 16.4 1.77434C16.7167 1.94101 16.9458 2.17434 17.0875 2.47434C17.2292 2.77434 17.2583 3.08267 17.175 3.39934L16.05 7.99934H21.5C22.0333 7.99934 22.5 8.19934 22.9 8.59934C23.3 8.99934 23.5 9.46601 23.5 9.99934V11.9993C23.5 12.116 23.4875 12.241 23.4625 12.3743C23.4375 12.5077 23.4 12.6327 23.35 12.7493L20.35 19.7993C20.2 20.1327 19.95 20.416 19.6 20.6493C19.25 20.8827 18.8833 20.9993 18.5 20.9993H10.5ZM4.5 20.9993C3.95 20.9993 3.47917 20.8035 3.0875 20.4118C2.69583 20.0202 2.5 19.5493 2.5 18.9993V9.99934C2.5 9.44934 2.69583 8.97851 3.0875 8.58684C3.47917 8.19517 3.95 7.99934 4.5 7.99934C5.05 7.99934 5.52083 8.19517 5.9125 8.58684C6.30417 8.97851 6.5 9.44934 6.5 9.99934V18.9993C6.5 19.5493 6.30417 20.0202 5.9125 20.4118C5.52083 20.8035 5.05 20.9993 4.5 20.9993Z" fill="#6B77F8"/>
</g>
</svg>
