<svg width="120" height="120" viewBox="0 0 120 120" fill="none" xmlns="http://www.w3.org/2000/svg">
<g filter="url(#filter0_iii_262_11423)">
<path d="M109.893 72.7499C107.531 72.7499 105.618 70.8375 105.618 68.475C105.618 66.1125 107.531 64.2 109.893 64.2H110.718C111.693 64.2 112.518 63.4125 112.518 62.4V57.6375C112.518 56.6625 111.731 55.8375 110.718 55.8375H110.043C107.681 55.8375 105.656 53.9999 105.618 51.6374C105.581 49.2374 107.493 47.2875 109.893 47.2875H110.718C111.693 47.2875 112.518 46.5 112.518 45.4875V39.6375C112.518 38.7375 111.843 37.9875 110.943 37.875C105.581 37.1625 101.306 32.9625 100.481 27.6375C100.331 26.625 99.4309 25.8375 98.381 25.8375H21.5435C20.4935 25.8375 19.5935 26.5875 19.4435 27.6375C18.6185 32.925 14.381 37.0875 9.05596 37.8375C8.15596 37.95 7.48096 38.7 7.48096 39.6V45.4875C7.48096 46.4625 8.26846 47.2875 9.28096 47.2875H9.95596C12.3185 47.2875 14.3435 49.125 14.381 51.4875C14.4185 53.8875 12.506 55.8375 10.106 55.8375H9.28096C8.30596 55.8375 7.48096 56.625 7.48096 57.6375V62.4C7.48096 63.375 8.26846 64.2 9.28096 64.2H10.106C12.4685 64.2 14.381 66.1125 14.381 68.475C14.381 70.8375 12.4685 72.7499 10.106 72.7499H9.28096C8.30596 72.7499 7.48096 73.5375 7.48096 74.55V80.4749C7.48096 81.3749 8.15596 82.1249 9.05596 82.2374C14.381 82.9499 18.6185 87.1125 19.4435 92.4C19.5935 93.4125 20.4935 94.1625 21.5435 94.1625H98.456C99.506 94.1625 100.406 93.4125 100.556 92.4C101.381 87.1125 105.618 82.9499 110.906 82.2374C111.806 82.1249 112.481 81.3749 112.481 80.4749V74.55C112.481 73.575 111.693 72.7499 110.681 72.7499H109.893Z" fill="url(#paint0_linear_262_11423)"/>
</g>
<path fill-rule="evenodd" clip-rule="evenodd" d="M23.4751 44.925C23.4751 40.2131 27.2877 36.3561 32.044 36.3561H87.9565C92.7129 36.3561 96.5255 40.2131 96.5255 44.925V75C96.5255 79.7118 92.7129 83.5689 87.9565 83.5689H76.6881C76.5661 83.6173 76.4332 83.6439 76.2941 83.6439C76.1549 83.6439 76.022 83.6173 75.9 83.5689H44.1005C43.9786 83.6173 43.8457 83.6439 43.7065 83.6439C43.5674 83.6439 43.4345 83.6173 43.3125 83.5689H32.044C27.3322 83.5689 23.4751 79.7563 23.4751 75V44.925ZM77.363 81.431H87.9565C91.5252 81.431 94.3876 78.5381 94.3876 75V44.925C94.3876 41.3869 91.5252 38.494 87.9565 38.494H77.363V81.431ZM75.2251 38.494V81.431H44.7755V38.494H75.2251ZM32.044 38.494H42.6376V81.431H32.044C28.5059 81.431 25.613 78.5686 25.613 75V44.925C25.613 41.3869 28.4754 38.494 32.044 38.494Z" fill="url(#paint1_linear_262_11423)"/>
<path d="M34.0686 45.6376C32.1561 45.6376 30.5811 47.2125 30.5811 49.125V70.275C30.5811 72.1875 32.1561 73.7626 34.0686 73.7626C35.9811 73.7626 37.5561 72.1875 37.5561 70.275V49.125C37.5561 47.175 35.9811 45.6376 34.0686 45.6376Z" fill="#A7ABD2"/>
<path d="M86.3442 45.6376C84.4317 45.6376 82.8567 47.2125 82.8567 49.125V70.275C82.8567 72.1875 84.4317 73.7626 86.3442 73.7626C88.2567 73.7626 89.8317 72.1875 89.8317 70.275V49.125C89.8317 47.175 88.2567 45.6376 86.3442 45.6376Z" fill="#7F85BA"/>
<path d="M59.9804 68.5875C63.9776 68.5875 67.2179 65.3472 67.2179 61.3501C67.2179 57.3529 63.9776 54.1125 59.9804 54.1125C55.9833 54.1125 52.7429 57.3529 52.7429 61.3501C52.7429 65.3472 55.9833 68.5875 59.9804 68.5875Z" fill="#959AC7"/>
<defs>
<filter id="filter0_iii_262_11423" x="3.54346" y="21.9" width="112.913" height="72.2625" filterUnits="userSpaceOnUse" color-interpolation-filters="sRGB">
<feFlood flood-opacity="0" result="BackgroundImageFix"/>
<feBlend mode="normal" in="SourceGraphic" in2="BackgroundImageFix" result="shape"/>
<feColorMatrix in="SourceAlpha" type="matrix" values="0 0 0 0 0 0 0 0 0 0 0 0 0 0 0 0 0 0 127 0" result="hardAlpha"/>
<feOffset dx="-3.9375"/>
<feGaussianBlur stdDeviation="1.96875"/>
<feComposite in2="hardAlpha" operator="arithmetic" k2="-1" k3="1"/>
<feColorMatrix type="matrix" values="0 0 0 0 0.833333 0 0 0 0 0.84 0 0 0 0 1 0 0 0 1 0"/>
<feBlend mode="normal" in2="shape" result="effect1_innerShadow_262_11423"/>
<feColorMatrix in="SourceAlpha" type="matrix" values="0 0 0 0 0 0 0 0 0 0 0 0 0 0 0 0 0 0 127 0" result="hardAlpha"/>
<feOffset dx="3.9375"/>
<feGaussianBlur stdDeviation="1.96875"/>
<feComposite in2="hardAlpha" operator="arithmetic" k2="-1" k3="1"/>
<feColorMatrix type="matrix" values="0 0 0 0 0.67 0 0 0 0 0.697915 0 0 0 0 0.8375 0 0 0 1 0"/>
<feBlend mode="normal" in2="effect1_innerShadow_262_11423" result="effect2_innerShadow_262_11423"/>
<feColorMatrix in="SourceAlpha" type="matrix" values="0 0 0 0 0 0 0 0 0 0 0 0 0 0 0 0 0 0 127 0" result="hardAlpha"/>
<feOffset dy="-3.9375"/>
<feGaussianBlur stdDeviation="3.9375"/>
<feComposite in2="hardAlpha" operator="arithmetic" k2="-1" k3="1"/>
<feColorMatrix type="matrix" values="0 0 0 0 0.55 0 0 0 0 0.583333 0 0 0 0 0.75 0 0 0 1 0"/>
<feBlend mode="normal" in2="effect2_innerShadow_262_11423" result="effect3_innerShadow_262_11423"/>
</filter>
<linearGradient id="paint0_linear_262_11423" x1="7.48096" y1="65.1562" x2="112.518" y2="65.1562" gradientUnits="userSpaceOnUse">
<stop stop-color="#DBDFF2"/>
<stop offset="1" stop-color="#B3B7D9"/>
</linearGradient>
<linearGradient id="paint1_linear_262_11423" x1="32.3253" y1="57.4219" x2="91.1534" y2="57.4219" gradientUnits="userSpaceOnUse">
<stop stop-color="#ACB0D5"/>
<stop offset="1" stop-color="#7B81B7"/>
</linearGradient>
</defs>
</svg>
