<svg width="20" height="20" viewBox="0 0 20 20" fill="none" xmlns="http://www.w3.org/2000/svg">
<mask id="mask0_83_3554" style="mask-type:alpha" maskUnits="userSpaceOnUse" x="0" y="0" width="20" height="20">
<rect width="20" height="20" fill="#D9D9D9"/>
</mask>
<g mask="url(#mask0_83_3554)">
<path d="M17.8125 7.1875L16.6667 6.66667L17.8125 6.14583L18.3333 5L18.8542 6.14583L20 6.66667L18.8542 7.1875L18.3333 8.33333L17.8125 7.1875ZM15.0417 3.29167L13.3333 2.5L15.0417 1.70833L15.8333 0L16.625 1.70833L18.3333 2.5L16.625 3.29167L15.8333 5L15.0417 3.29167ZM7.5 18.3333C7.04167 18.3333 6.64931 18.1701 6.32292 17.8438C5.99653 17.5174 5.83333 17.125 5.83333 16.6667H9.16667C9.16667 17.125 9.00347 17.5174 8.67708 17.8438C8.35069 18.1701 7.95833 18.3333 7.5 18.3333ZM5 15.8333C4.76389 15.8333 4.56597 15.7535 4.40625 15.5938C4.24653 15.434 4.16667 15.2361 4.16667 15C4.16667 14.7639 4.24653 14.566 4.40625 14.4063C4.56597 14.2465 4.76389 14.1667 5 14.1667H10C10.2361 14.1667 10.434 14.2465 10.5938 14.4063C10.7535 14.566 10.8333 14.7639 10.8333 15C10.8333 15.2361 10.7535 15.434 10.5938 15.5938C10.434 15.7535 10.2361 15.8333 10 15.8333H5ZM4.375 13.3333C3.41667 12.7639 2.65625 12 2.09375 11.0417C1.53125 10.0833 1.25 9.04167 1.25 7.91667C1.25 6.18056 1.85764 4.70486 3.07292 3.48958C4.28819 2.27431 5.76389 1.66667 7.5 1.66667C9.23611 1.66667 10.7118 2.27431 11.9271 3.48958C13.1424 4.70486 13.75 6.18056 13.75 7.91667C13.75 9.04167 13.4688 10.0833 12.9062 11.0417C12.3438 12 11.5833 12.7639 10.625 13.3333H4.375ZM4.875 11.6667H10.125C10.75 11.2222 11.2326 10.6736 11.5729 10.0208C11.9132 9.36806 12.0833 8.66667 12.0833 7.91667C12.0833 6.63889 11.6389 5.55556 10.75 4.66667C9.86111 3.77778 8.77778 3.33333 7.5 3.33333C6.22222 3.33333 5.13889 3.77778 4.25 4.66667C3.36111 5.55556 2.91667 6.63889 2.91667 7.91667C2.91667 8.66667 3.08681 9.36806 3.42708 10.0208C3.76736 10.6736 4.25 11.2222 4.875 11.6667Z" fill="#60C8DE"/>
</g>
</svg>
