<svg width="current" height="current" viewBox="0 0 20 20" fill="none" xmlns="http://www.w3.org/2000/svg">
  <mask id="a" style="mask-type:alpha" maskUnits="userSpaceOnUse" x="0" y="0" width="20" height="20">
    <path fill="#D9D9D9" d="M0 0h20v20H0z"/>
  </mask>
  <g mask="url(#a)">
    <path d="M2.27 17.5a.811.811 0 0 1-.708-.417.915.915 0 0 1-.114-.406.749.749 0 0 1 .114-.427L9.271 2.917a.82.82 0 0 1 .323-.313A.862.862 0 0 1 10 2.5c.139 0 .274.035.406.104a.82.82 0 0 1 .323.313l7.708 13.333a.75.75 0 0 1 .115.427.916.916 0 0 1-.115.406.812.812 0 0 1-.708.417H2.271Zm1.438-1.667h12.583L10 5 3.708 15.833ZM10 15c.236 0 .434-.08.594-.24.16-.16.24-.357.24-.593a.806.806 0 0 0-.24-.594.806.806 0 0 0-.594-.24.806.806 0 0 0-.594.24.806.806 0 0 0-.24.594c0 .236.08.434.24.593.16.16.358.24.594.24Zm0-2.5c.236 0 .434-.08.594-.24.16-.16.24-.357.24-.593v-2.5a.806.806 0 0 0-.24-.594.806.806 0 0 0-.594-.24.806.806 0 0 0-.594.24.806.806 0 0 0-.24.594v2.5c0 .236.08.434.24.593.16.16.358.24.594.24Z" fill="currentColor"/>
  </g>
</svg>
