<svg width="20" height="20" viewBox="0 0 20 20" fill="none" xmlns="http://www.w3.org/2000/svg">
<mask id="mask0_154_3665" style="mask-type:alpha" maskUnits="userSpaceOnUse" x="0" y="0" width="20" height="20">
<rect width="20" height="20" fill="#D9D9D9"/>
</mask>
<g mask="url(#mask0_154_3665)">
<path d="M10.0007 11.1673L5.91732 15.2507C5.76454 15.4034 5.5701 15.4798 5.33398 15.4798C5.09787 15.4798 4.90343 15.4034 4.75065 15.2507C4.59787 15.0979 4.52148 14.9034 4.52148 14.6673C4.52148 14.4312 4.59787 14.2368 4.75065 14.084L8.83398 10.0007L4.75065 5.91732C4.59787 5.76454 4.52148 5.5701 4.52148 5.33398C4.52148 5.09787 4.59787 4.90343 4.75065 4.75065C4.90343 4.59787 5.09787 4.52148 5.33398 4.52148C5.5701 4.52148 5.76454 4.59787 5.91732 4.75065L10.0007 8.83398L14.084 4.75065C14.2368 4.59787 14.4312 4.52148 14.6673 4.52148C14.9034 4.52148 15.0979 4.59787 15.2507 4.75065C15.4034 4.90343 15.4798 5.09787 15.4798 5.33398C15.4798 5.5701 15.4034 5.76454 15.2507 5.91732L11.1673 10.0007L15.2507 14.084C15.4034 14.2368 15.4798 14.4312 15.4798 14.6673C15.4798 14.9034 15.4034 15.0979 15.2507 15.2507C15.0979 15.4034 14.9034 15.4798 14.6673 15.4798C14.4312 15.4798 14.2368 15.4034 14.084 15.2507L10.0007 11.1673Z" fill="#B7B9C9"/>
</g>
</svg>
