<svg width="20" height="21" viewBox="0 0 20 21" fill="none" xmlns="http://www.w3.org/2000/svg">
<g clip-path="url(#clip0_733_2701)">
<path d="M18.4661 5.91138C18.2715 5.1772 17.7102 4.60229 16.9906 4.40593C16.0241 4.0252 6.66232 3.83866 3.9466 4.41684C3.22704 4.61538 2.66358 5.18811 2.47113 5.92229C2.0349 7.87502 2.00176 12.0968 2.48182 14.0932C2.67641 14.8274 3.23773 15.4023 3.95729 15.5987C5.87113 16.0481 14.9699 16.1114 17.0013 15.5987C17.7209 15.4001 18.2843 14.8274 18.4768 14.0932C18.9419 11.9659 18.975 8.00593 18.4661 5.91138Z" fill="#9395A6"/>
<path d="M13.2255 10.0019L8.86328 7.44922V12.5547L13.2255 10.0019Z" fill="white"/>
</g>
<defs>
<clipPath id="clip0_733_2701">
<rect width="17" height="12" fill="white" transform="translate(2 4.00195)"/>
</clipPath>
</defs>
</svg>
